#define key_flat_width 16
#define key_flat_height 16
static unsigned char key_flat_bits[] = {
   0x00, 0x00, 0x00, 0x00, 0x00, 0xf8, 0x80, 0xff, 0xf8, 0x7f, 0xf8, 0xc3,
   0xb8, 0xc0, 0xc0, 0xc0, 0xc0, 0xc0, 0xc0, 0x60, 0xc0, 0x7d, 0x80, 0x3f,
   0x80, 0x1f, 0x00, 0x00, 0x00, 0x00, 0x00, 0x00 };
