#define key_sharp_width 16
#define key_sharp_height 16
static unsigned char key_sharp_bits[] = {
   0x00, 0x18, 0xc0, 0x98, 0xc0, 0xf8, 0xc0, 0x38, 0xc0, 0x1c, 0xc0, 0x1f,
   0xc0, 0x9b, 0xe0, 0xf8, 0xf0, 0x38, 0xd8, 0x1c, 0xc0, 0x1f, 0xc0, 0x19,
   0xe0, 0x18, 0xf8, 0x18, 0xc8, 0x18, 0xc0, 0x08 };
