#define mode_1_width 16
#define mode_1_height 32
static unsigned char mode_1_bits[] = {
   0x92, 0x24, 0x92, 0x24, 0x92, 0x24, 0xd2, 0x7f, 0xd2, 0x7f, 0x92, 0x24,
   0x92, 0x24, 0x92, 0x24, 0x92, 0x24, 0x92, 0x24, 0x92, 0x24, 0x92, 0x2e,
   0x92, 0x2e, 0x92, 0x24, 0x92, 0x24, 0x92, 0x24, 0x92, 0x24, 0x92, 0x24,
   0x92, 0x24, 0xd2, 0x25, 0xd2, 0x25, 0x92, 0x24, 0x92, 0x24, 0x92, 0x24,
   0x92, 0x24, 0x92, 0x24, 0x92, 0x24, 0x92, 0x2e, 0x92, 0x2e, 0x92, 0x24,
   0x92, 0x24, 0x92, 0x24 };
