#define mode_arp_width 16
#define mode_arp_height 32
static unsigned char mode_arp_bits[] = {
   0x92, 0x24, 0x92, 0x24, 0x92, 0x24, 0x92, 0x74, 0x92, 0x74, 0x92, 0x24,
   0x92, 0x24, 0x92, 0x24, 0x92, 0x24, 0x92, 0x24, 0x92, 0x24, 0x92, 0x2e,
   0x92, 0x2e, 0x92, 0x24, 0x92, 0x24, 0x92, 0x24, 0x92, 0x24, 0x92, 0x24,
   0x92, 0x24, 0xd2, 0x25, 0xd2, 0x25, 0x92, 0x24, 0x92, 0x24, 0x92, 0x24,
   0x92, 0x24, 0x92, 0x24, 0x92, 0x24, 0x92, 0x2e, 0x92, 0x2e, 0x92, 0x24,
   0x92, 0x24, 0x92, 0x24 };
