#define mode_chord_width 16
#define mode_chord_height 32
static unsigned char mode_chord_bits[] = {
   0x92, 0x24, 0x92, 0x24, 0x92, 0x24, 0xd2, 0x7f, 0xd2, 0x7f, 0x92, 0x24,
   0x92, 0x24, 0x92, 0x24, 0x92, 0x24, 0x92, 0x24, 0x92, 0x24, 0x92, 0x24,
   0x92, 0x24, 0x92, 0x24, 0x92, 0x24, 0x92, 0x24, 0x92, 0x24, 0x92, 0x24,
   0x92, 0x24, 0x92, 0x24, 0x92, 0x24, 0x92, 0x24, 0x92, 0x24, 0x92, 0x24,
   0x92, 0x24, 0x92, 0x24, 0x92, 0x24, 0x92, 0x24, 0x92, 0x24, 0x92, 0x24,
   0x92, 0x24, 0x92, 0x24 };
