#define mode_2_width 16
#define mode_2_height 32
static unsigned char mode_2_bits[] = {
   0x92, 0x24, 0x92, 0x24, 0x92, 0x24, 0xd2, 0x7f, 0xd2, 0x7f, 0x92, 0x24,
   0x92, 0x24, 0x92, 0x24, 0x92, 0x24, 0x92, 0x24, 0x92, 0x24, 0x92, 0x2e,
   0x92, 0x2e, 0x92, 0x24, 0x92, 0x24, 0x92, 0x24, 0x92, 0x24, 0x92, 0x24,
   0x92, 0x24, 0xd2, 0x25, 0xd2, 0x25, 0x92, 0x24, 0x92, 0x24, 0x92, 0x24,
   0x92, 0x24, 0x92, 0x24, 0x92, 0x24, 0x9e, 0x24, 0x9e, 0x24, 0x92, 0x24,
   0x92, 0x24, 0x92, 0x24 };
