#define tempo_1_width 16
#define tempo_1_height 8
static unsigned char tempo_1_bits[] = {
   0x00, 0x00, 0x30, 0x30, 0x30, 0x30, 0x38, 0x30, 0xfc, 0x3f, 0xfc, 0x3f,
   0x00, 0x30, 0x00, 0x30 };
