#define tempo_6_width 16
#define tempo_6_height 8
static unsigned char tempo_6_bits[] = {
   0xc0, 0x0f, 0xf0, 0x1f, 0xf8, 0x38, 0xd8, 0x30, 0xcc, 0x30, 0x8c, 0x39,
   0x8c, 0x1f, 0x00, 0x0f };
