#define tempo_0_width 16
#define tempo_0_height 8
static unsigned char tempo_0_bits[] = {
   0xe0, 0x07, 0xf8, 0x1f, 0x1c, 0x38, 0x0c, 0x30, 0x0c, 0x30, 0x1c, 0x38,
   0xf8, 0x1f, 0xe0, 0x07 };
