#define tempo_7_width 16
#define tempo_7_height 8
static unsigned char tempo_7_bits[] = {
   0x0c, 0x00, 0x0c, 0x38, 0x0c, 0x3e, 0xcc, 0x07, 0xec, 0x00, 0x3c, 0x00,
   0x1c, 0x00, 0x00, 0x00 };
