#define tempo_8_width 16
#define tempo_8_height 8
static unsigned char tempo_8_bits[] = {
   0x70, 0x1e, 0xf8, 0x1f, 0xfc, 0x33, 0x8c, 0x31, 0x8c, 0x31, 0x8c, 0x33,
   0xf8, 0x1f, 0x78, 0x1e };
