#define tempo_2_width 16
#define tempo_2_height 8
static unsigned char tempo_2_bits[] = {
   0x08, 0x38, 0x1c, 0x3c, 0x0c, 0x36, 0x0c, 0x33, 0x8c, 0x31, 0xf8, 0x30,
   0x78, 0x30, 0x00, 0x30 };
