#define tempo_9_width 16
#define tempo_9_height 8
static unsigned char tempo_9_bits[] = {
   0xf0, 0x00, 0xf8, 0x31, 0x9c, 0x31, 0x0c, 0x33, 0x0c, 0x1b, 0x1c, 0x1f,
   0xf8, 0x0f, 0xf0, 0x03 };
