#define tempo_4_width 16
#define tempo_4_height 8
static unsigned char tempo_4_bits[] = {
   0x00, 0x07, 0x80, 0x07, 0xe0, 0x07, 0x70, 0x06, 0x38, 0x06, 0xfc, 0x3f,
   0xfc, 0x3f, 0x00, 0x06 };
