#define tempo_5_width 16
#define tempo_5_height 8
static unsigned char tempo_5_bits[] = {
   0x00, 0x30, 0xfc, 0x30, 0xfc, 0x30, 0xcc, 0x30, 0xcc, 0x30, 0x8c, 0x39,
   0x8c, 0x1f, 0x0c, 0x0f };
