#define tempo_3_width 16
#define tempo_3_height 8
static unsigned char tempo_3_bits[] = {
   0x08, 0x38, 0x1c, 0x30, 0x8c, 0x31, 0x8c, 0x31, 0x8c, 0x31, 0xcc, 0x33,
   0xf8, 0x1f, 0x70, 0x0e };
