G04 #@! TF.FileFunction,Legend,Top*
%FSLAX46Y46*%
G04 Gerber Fmt 4.6, Leading zero omitted, Abs format (unit mm)*
G04 Created by KiCad (PCBNEW 4.0.1-3.201512161002+6197~38~ubuntu14.04.1-stable) date Sat 19 Dec 2015 01:41:55 AM EET*
%MOMM*%
G01*
G04 APERTURE LIST*
%ADD10C,0.100000*%
%ADD11C,0.200000*%
%ADD12C,0.300000*%
%ADD13C,0.400000*%
%ADD14C,0.500000*%
%ADD15C,0.001800*%
%ADD16C,0.150000*%
%ADD17C,0.002000*%
%ADD18R,3.150000X1.400000*%
%ADD19R,0.950000X2.000000*%
%ADD20R,2.000000X0.950000*%
%ADD21R,0.900380X2.701240*%
%ADD22R,2.398980X2.899360*%
%ADD23C,1.299160*%
%ADD24R,2.127200X2.127200*%
%ADD25O,2.127200X2.127200*%
%ADD26R,2.432000X2.127200*%
%ADD27O,2.432000X2.127200*%
%ADD28R,2.432000X4.057600*%
%ADD29R,2.432000X1.416000*%
%ADD30R,1.800000X1.600000*%
%ADD31R,2.635200X2.635200*%
G04 APERTURE END LIST*
D10*
D11*
X152633332Y-65196429D02*
X152633332Y-65965476D01*
X152588094Y-66055952D01*
X152542856Y-66101190D01*
X152452380Y-66146429D01*
X152316666Y-66146429D01*
X152226189Y-66101190D01*
X152633332Y-65784524D02*
X152542856Y-65829762D01*
X152361904Y-65829762D01*
X152271428Y-65784524D01*
X152226189Y-65739286D01*
X152180951Y-65648810D01*
X152180951Y-65377381D01*
X152226189Y-65286905D01*
X152271428Y-65241667D01*
X152361904Y-65196429D01*
X152542856Y-65196429D01*
X152633332Y-65241667D01*
X153085713Y-65829762D02*
X153085713Y-65196429D01*
X153085713Y-64879762D02*
X153040475Y-64925000D01*
X153085713Y-64970238D01*
X153130952Y-64925000D01*
X153085713Y-64879762D01*
X153085713Y-64970238D01*
X153402380Y-65196429D02*
X153764285Y-65196429D01*
X153538094Y-64879762D02*
X153538094Y-65694048D01*
X153583333Y-65784524D01*
X153673809Y-65829762D01*
X153764285Y-65829762D01*
X154080951Y-65829762D02*
X154080951Y-64879762D01*
X154488094Y-65829762D02*
X154488094Y-65332143D01*
X154442856Y-65241667D01*
X154352380Y-65196429D01*
X154216666Y-65196429D01*
X154126190Y-65241667D01*
X154080951Y-65286905D01*
X155347618Y-65196429D02*
X155347618Y-65829762D01*
X154940475Y-65196429D02*
X154940475Y-65694048D01*
X154985714Y-65784524D01*
X155076190Y-65829762D01*
X155211904Y-65829762D01*
X155302380Y-65784524D01*
X155347618Y-65739286D01*
X155799999Y-65829762D02*
X155799999Y-64879762D01*
X155799999Y-65241667D02*
X155890476Y-65196429D01*
X156071428Y-65196429D01*
X156161904Y-65241667D01*
X156207142Y-65286905D01*
X156252380Y-65377381D01*
X156252380Y-65648810D01*
X156207142Y-65739286D01*
X156161904Y-65784524D01*
X156071428Y-65829762D01*
X155890476Y-65829762D01*
X155799999Y-65784524D01*
X156659523Y-65739286D02*
X156704762Y-65784524D01*
X156659523Y-65829762D01*
X156614285Y-65784524D01*
X156659523Y-65739286D01*
X156659523Y-65829762D01*
X157519047Y-65784524D02*
X157428571Y-65829762D01*
X157247619Y-65829762D01*
X157157143Y-65784524D01*
X157111904Y-65739286D01*
X157066666Y-65648810D01*
X157066666Y-65377381D01*
X157111904Y-65286905D01*
X157157143Y-65241667D01*
X157247619Y-65196429D01*
X157428571Y-65196429D01*
X157519047Y-65241667D01*
X158061905Y-65829762D02*
X157971429Y-65784524D01*
X157926190Y-65739286D01*
X157880952Y-65648810D01*
X157880952Y-65377381D01*
X157926190Y-65286905D01*
X157971429Y-65241667D01*
X158061905Y-65196429D01*
X158197619Y-65196429D01*
X158288095Y-65241667D01*
X158333333Y-65286905D01*
X158378571Y-65377381D01*
X158378571Y-65648810D01*
X158333333Y-65739286D01*
X158288095Y-65784524D01*
X158197619Y-65829762D01*
X158061905Y-65829762D01*
X158785714Y-65829762D02*
X158785714Y-65196429D01*
X158785714Y-65286905D02*
X158830953Y-65241667D01*
X158921429Y-65196429D01*
X159057143Y-65196429D01*
X159147619Y-65241667D01*
X159192857Y-65332143D01*
X159192857Y-65829762D01*
X159192857Y-65332143D02*
X159238095Y-65241667D01*
X159328572Y-65196429D01*
X159464286Y-65196429D01*
X159554762Y-65241667D01*
X159600000Y-65332143D01*
X159600000Y-65829762D01*
X160730953Y-64834524D02*
X159916667Y-66055952D01*
X161002381Y-65784524D02*
X161092858Y-65829762D01*
X161273810Y-65829762D01*
X161364286Y-65784524D01*
X161409524Y-65694048D01*
X161409524Y-65648810D01*
X161364286Y-65558333D01*
X161273810Y-65513095D01*
X161138096Y-65513095D01*
X161047619Y-65467857D01*
X161002381Y-65377381D01*
X161002381Y-65332143D01*
X161047619Y-65241667D01*
X161138096Y-65196429D01*
X161273810Y-65196429D01*
X161364286Y-65241667D01*
X162223810Y-65196429D02*
X162223810Y-65965476D01*
X162178572Y-66055952D01*
X162133334Y-66101190D01*
X162042858Y-66146429D01*
X161907144Y-66146429D01*
X161816667Y-66101190D01*
X162223810Y-65784524D02*
X162133334Y-65829762D01*
X161952382Y-65829762D01*
X161861906Y-65784524D01*
X161816667Y-65739286D01*
X161771429Y-65648810D01*
X161771429Y-65377381D01*
X161816667Y-65286905D01*
X161861906Y-65241667D01*
X161952382Y-65196429D01*
X162133334Y-65196429D01*
X162223810Y-65241667D01*
X162676191Y-65829762D02*
X162676191Y-65196429D01*
X162676191Y-65377381D02*
X162721430Y-65286905D01*
X162766668Y-65241667D01*
X162857144Y-65196429D01*
X162947620Y-65196429D01*
X163626191Y-65784524D02*
X163535715Y-65829762D01*
X163354763Y-65829762D01*
X163264286Y-65784524D01*
X163219048Y-65694048D01*
X163219048Y-65332143D01*
X163264286Y-65241667D01*
X163354763Y-65196429D01*
X163535715Y-65196429D01*
X163626191Y-65241667D01*
X163671429Y-65332143D01*
X163671429Y-65422619D01*
X163219048Y-65513095D01*
X164485715Y-65196429D02*
X164485715Y-65965476D01*
X164440477Y-66055952D01*
X164395239Y-66101190D01*
X164304763Y-66146429D01*
X164169049Y-66146429D01*
X164078572Y-66101190D01*
X164485715Y-65784524D02*
X164395239Y-65829762D01*
X164214287Y-65829762D01*
X164123811Y-65784524D01*
X164078572Y-65739286D01*
X164033334Y-65648810D01*
X164033334Y-65377381D01*
X164078572Y-65286905D01*
X164123811Y-65241667D01*
X164214287Y-65196429D01*
X164395239Y-65196429D01*
X164485715Y-65241667D01*
X165616668Y-64834524D02*
X164802382Y-66055952D01*
X166340477Y-65196429D02*
X166340477Y-65829762D01*
X166114287Y-64834524D02*
X165888096Y-65513095D01*
X166476192Y-65513095D01*
X167245239Y-65784524D02*
X167154763Y-65829762D01*
X166973811Y-65829762D01*
X166883335Y-65784524D01*
X166838096Y-65739286D01*
X166792858Y-65648810D01*
X166792858Y-65377381D01*
X166838096Y-65286905D01*
X166883335Y-65241667D01*
X166973811Y-65196429D01*
X167154763Y-65196429D01*
X167245239Y-65241667D01*
X167652382Y-65829762D02*
X167652382Y-64879762D01*
X168059525Y-65829762D02*
X168059525Y-65332143D01*
X168014287Y-65241667D01*
X167923811Y-65196429D01*
X167788097Y-65196429D01*
X167697621Y-65241667D01*
X167652382Y-65286905D01*
X168647621Y-65829762D02*
X168557145Y-65784524D01*
X168511906Y-65739286D01*
X168466668Y-65648810D01*
X168466668Y-65377381D01*
X168511906Y-65286905D01*
X168557145Y-65241667D01*
X168647621Y-65196429D01*
X168783335Y-65196429D01*
X168873811Y-65241667D01*
X168919049Y-65286905D01*
X168964287Y-65377381D01*
X168964287Y-65648810D01*
X168919049Y-65739286D01*
X168873811Y-65784524D01*
X168783335Y-65829762D01*
X168647621Y-65829762D01*
X169371430Y-65829762D02*
X169371430Y-65196429D01*
X169371430Y-65377381D02*
X169416669Y-65286905D01*
X169461907Y-65241667D01*
X169552383Y-65196429D01*
X169642859Y-65196429D01*
X170366668Y-65829762D02*
X170366668Y-64879762D01*
X170366668Y-65784524D02*
X170276192Y-65829762D01*
X170095240Y-65829762D01*
X170004764Y-65784524D01*
X169959525Y-65739286D01*
X169914287Y-65648810D01*
X169914287Y-65377381D01*
X169959525Y-65286905D01*
X170004764Y-65241667D01*
X170095240Y-65196429D01*
X170276192Y-65196429D01*
X170366668Y-65241667D01*
X170819049Y-65467857D02*
X171542859Y-65467857D01*
X171995239Y-65829762D02*
X171995239Y-65196429D01*
X171995239Y-65286905D02*
X172040478Y-65241667D01*
X172130954Y-65196429D01*
X172266668Y-65196429D01*
X172357144Y-65241667D01*
X172402382Y-65332143D01*
X172402382Y-65829762D01*
X172402382Y-65332143D02*
X172447620Y-65241667D01*
X172538097Y-65196429D01*
X172673811Y-65196429D01*
X172764287Y-65241667D01*
X172809525Y-65332143D01*
X172809525Y-65829762D01*
X173261906Y-65829762D02*
X173261906Y-65196429D01*
X173261906Y-64879762D02*
X173216668Y-64925000D01*
X173261906Y-64970238D01*
X173307145Y-64925000D01*
X173261906Y-64879762D01*
X173261906Y-64970238D01*
X174121430Y-65829762D02*
X174121430Y-64879762D01*
X174121430Y-65784524D02*
X174030954Y-65829762D01*
X173850002Y-65829762D01*
X173759526Y-65784524D01*
X173714287Y-65739286D01*
X173669049Y-65648810D01*
X173669049Y-65377381D01*
X173714287Y-65286905D01*
X173759526Y-65241667D01*
X173850002Y-65196429D01*
X174030954Y-65196429D01*
X174121430Y-65241667D01*
X174573811Y-65829762D02*
X174573811Y-65196429D01*
X174573811Y-64879762D02*
X174528573Y-64925000D01*
X174573811Y-64970238D01*
X174619050Y-64925000D01*
X174573811Y-64879762D01*
X174573811Y-64970238D01*
D12*
X111057143Y-83778571D02*
X111057143Y-82278571D01*
X111557143Y-82278571D02*
X112057143Y-83778571D01*
X112557143Y-82278571D01*
X110985715Y-72178571D02*
X111342858Y-73178571D01*
X111700000Y-72178571D01*
X112271429Y-73178571D02*
X112271429Y-72178571D01*
X112271429Y-71678571D02*
X112200000Y-71750000D01*
X112271429Y-71821429D01*
X112342857Y-71750000D01*
X112271429Y-71678571D01*
X112271429Y-71821429D01*
X111200000Y-60978571D02*
X111700000Y-62478571D01*
X112200000Y-60978571D01*
X111700000Y-51978571D02*
X111700000Y-50478571D01*
D13*
X158961904Y-84709524D02*
X159247619Y-84804762D01*
X159723809Y-84804762D01*
X159914285Y-84709524D01*
X160009523Y-84614286D01*
X160104762Y-84423810D01*
X160104762Y-84233333D01*
X160009523Y-84042857D01*
X159914285Y-83947619D01*
X159723809Y-83852381D01*
X159342857Y-83757143D01*
X159152381Y-83661905D01*
X159057142Y-83566667D01*
X158961904Y-83376190D01*
X158961904Y-83185714D01*
X159057142Y-82995238D01*
X159152381Y-82900000D01*
X159342857Y-82804762D01*
X159819047Y-82804762D01*
X160104762Y-82900000D01*
X161723809Y-84709524D02*
X161533333Y-84804762D01*
X161152381Y-84804762D01*
X160961904Y-84709524D01*
X160866666Y-84519048D01*
X160866666Y-83757143D01*
X160961904Y-83566667D01*
X161152381Y-83471429D01*
X161533333Y-83471429D01*
X161723809Y-83566667D01*
X161819047Y-83757143D01*
X161819047Y-83947619D01*
X160866666Y-84138095D01*
X162961905Y-84804762D02*
X162771429Y-84709524D01*
X162676190Y-84519048D01*
X162676190Y-82804762D01*
X164485714Y-84709524D02*
X164295238Y-84804762D01*
X163914286Y-84804762D01*
X163723809Y-84709524D01*
X163628571Y-84519048D01*
X163628571Y-83757143D01*
X163723809Y-83566667D01*
X163914286Y-83471429D01*
X164295238Y-83471429D01*
X164485714Y-83566667D01*
X164580952Y-83757143D01*
X164580952Y-83947619D01*
X163628571Y-84138095D01*
X166295238Y-84709524D02*
X166104762Y-84804762D01*
X165723810Y-84804762D01*
X165533334Y-84709524D01*
X165438095Y-84614286D01*
X165342857Y-84423810D01*
X165342857Y-83852381D01*
X165438095Y-83661905D01*
X165533334Y-83566667D01*
X165723810Y-83471429D01*
X166104762Y-83471429D01*
X166295238Y-83566667D01*
X166866667Y-83471429D02*
X167628572Y-83471429D01*
X167152381Y-82804762D02*
X167152381Y-84519048D01*
X167247620Y-84709524D01*
X167438096Y-84804762D01*
X167628572Y-84804762D01*
D14*
X148347619Y-83878571D02*
X150252381Y-83878571D01*
X176347619Y-83878571D02*
X178252381Y-83878571D01*
X177300000Y-84830952D02*
X177300000Y-82926190D01*
D11*
X144330000Y-69730000D02*
X144330000Y-35730000D01*
X182330000Y-69730000D02*
X144330000Y-69730000D01*
X182330000Y-35730000D02*
X182330000Y-69730000D01*
X144330000Y-35730000D02*
X182330000Y-35730000D01*
D15*
G36*
X126167112Y-80468545D02*
X126431066Y-80479913D01*
X126652073Y-80499248D01*
X126796917Y-80525934D01*
X126831300Y-80542700D01*
X126853567Y-80601926D01*
X126871537Y-80736429D01*
X126885512Y-80954995D01*
X126895793Y-81266408D01*
X126902681Y-81679454D01*
X126906477Y-82202916D01*
X126907500Y-82765200D01*
X126907500Y-84911500D01*
X127434550Y-84911500D01*
X127737368Y-84919144D01*
X127935203Y-84950119D01*
X128049571Y-85016490D01*
X128101988Y-85130322D01*
X128114000Y-85292500D01*
X128100368Y-85462304D01*
X128045130Y-85573240D01*
X127926768Y-85637372D01*
X127723767Y-85666764D01*
X127434550Y-85673500D01*
X126907500Y-85673500D01*
X126907500Y-86369766D01*
X126904078Y-86706791D01*
X126883575Y-86937125D01*
X126830633Y-87081063D01*
X126729896Y-87158902D01*
X126566006Y-87190937D01*
X126323608Y-87197466D01*
X126281210Y-87197500D01*
X126003887Y-87179787D01*
X125835170Y-87124762D01*
X125800786Y-87097714D01*
X125753019Y-87020398D01*
X125722498Y-86887764D01*
X125706180Y-86676575D01*
X125701022Y-86363591D01*
X125701000Y-86335714D01*
X125701000Y-85673500D01*
X124094450Y-85673500D01*
X123549804Y-85671537D01*
X123122850Y-85665368D01*
X122804336Y-85654573D01*
X122585009Y-85638736D01*
X122455617Y-85617435D01*
X122411700Y-85597300D01*
X122367565Y-85493049D01*
X122340058Y-85312372D01*
X122335500Y-85198007D01*
X122337269Y-85115668D01*
X122346882Y-85036159D01*
X122370798Y-84948589D01*
X122386354Y-84911500D01*
X123408899Y-84911500D01*
X125701000Y-84911500D01*
X125701000Y-83247800D01*
X125698976Y-82779505D01*
X125693211Y-82374303D01*
X125684169Y-82045485D01*
X125672311Y-81806343D01*
X125658100Y-81670166D01*
X125645221Y-81644425D01*
X125595517Y-81711631D01*
X125484849Y-81869166D01*
X125323455Y-82102195D01*
X125121573Y-82395884D01*
X124889441Y-82735399D01*
X124683254Y-83038250D01*
X124424663Y-83418739D01*
X124179725Y-83779066D01*
X123960663Y-84101253D01*
X123779705Y-84367319D01*
X123649076Y-84559285D01*
X123592982Y-84641625D01*
X123408899Y-84911500D01*
X122386354Y-84911500D01*
X122415476Y-84842069D01*
X122487376Y-84705710D01*
X122592955Y-84528621D01*
X122738674Y-84299912D01*
X122930991Y-84008694D01*
X123176365Y-83644077D01*
X123481256Y-83195171D01*
X123806261Y-82718332D01*
X124125471Y-82251566D01*
X124424159Y-81817289D01*
X124694425Y-81426804D01*
X124928370Y-81091414D01*
X125118093Y-80822423D01*
X125255694Y-80631134D01*
X125333274Y-80528849D01*
X125346136Y-80515097D01*
X125449722Y-80488421D01*
X125643224Y-80472181D01*
X125893426Y-80465762D01*
X126167112Y-80468545D01*
X126167112Y-80468545D01*
G37*
X126167112Y-80468545D02*
X126431066Y-80479913D01*
X126652073Y-80499248D01*
X126796917Y-80525934D01*
X126831300Y-80542700D01*
X126853567Y-80601926D01*
X126871537Y-80736429D01*
X126885512Y-80954995D01*
X126895793Y-81266408D01*
X126902681Y-81679454D01*
X126906477Y-82202916D01*
X126907500Y-82765200D01*
X126907500Y-84911500D01*
X127434550Y-84911500D01*
X127737368Y-84919144D01*
X127935203Y-84950119D01*
X128049571Y-85016490D01*
X128101988Y-85130322D01*
X128114000Y-85292500D01*
X128100368Y-85462304D01*
X128045130Y-85573240D01*
X127926768Y-85637372D01*
X127723767Y-85666764D01*
X127434550Y-85673500D01*
X126907500Y-85673500D01*
X126907500Y-86369766D01*
X126904078Y-86706791D01*
X126883575Y-86937125D01*
X126830633Y-87081063D01*
X126729896Y-87158902D01*
X126566006Y-87190937D01*
X126323608Y-87197466D01*
X126281210Y-87197500D01*
X126003887Y-87179787D01*
X125835170Y-87124762D01*
X125800786Y-87097714D01*
X125753019Y-87020398D01*
X125722498Y-86887764D01*
X125706180Y-86676575D01*
X125701022Y-86363591D01*
X125701000Y-86335714D01*
X125701000Y-85673500D01*
X124094450Y-85673500D01*
X123549804Y-85671537D01*
X123122850Y-85665368D01*
X122804336Y-85654573D01*
X122585009Y-85638736D01*
X122455617Y-85617435D01*
X122411700Y-85597300D01*
X122367565Y-85493049D01*
X122340058Y-85312372D01*
X122335500Y-85198007D01*
X122337269Y-85115668D01*
X122346882Y-85036159D01*
X122370798Y-84948589D01*
X122386354Y-84911500D01*
X123408899Y-84911500D01*
X125701000Y-84911500D01*
X125701000Y-83247800D01*
X125698976Y-82779505D01*
X125693211Y-82374303D01*
X125684169Y-82045485D01*
X125672311Y-81806343D01*
X125658100Y-81670166D01*
X125645221Y-81644425D01*
X125595517Y-81711631D01*
X125484849Y-81869166D01*
X125323455Y-82102195D01*
X125121573Y-82395884D01*
X124889441Y-82735399D01*
X124683254Y-83038250D01*
X124424663Y-83418739D01*
X124179725Y-83779066D01*
X123960663Y-84101253D01*
X123779705Y-84367319D01*
X123649076Y-84559285D01*
X123592982Y-84641625D01*
X123408899Y-84911500D01*
X122386354Y-84911500D01*
X122415476Y-84842069D01*
X122487376Y-84705710D01*
X122592955Y-84528621D01*
X122738674Y-84299912D01*
X122930991Y-84008694D01*
X123176365Y-83644077D01*
X123481256Y-83195171D01*
X123806261Y-82718332D01*
X124125471Y-82251566D01*
X124424159Y-81817289D01*
X124694425Y-81426804D01*
X124928370Y-81091414D01*
X125118093Y-80822423D01*
X125255694Y-80631134D01*
X125333274Y-80528849D01*
X125346136Y-80515097D01*
X125449722Y-80488421D01*
X125643224Y-80472181D01*
X125893426Y-80465762D01*
X126167112Y-80468545D01*
G36*
X140306000Y-86626000D02*
X133702000Y-86626000D01*
X132642645Y-86625969D01*
X131703100Y-86625784D01*
X130876176Y-86625306D01*
X130154684Y-86624398D01*
X129531434Y-86622921D01*
X128999236Y-86620737D01*
X128550901Y-86617708D01*
X128179240Y-86613694D01*
X127877062Y-86608559D01*
X127637179Y-86602164D01*
X127452401Y-86594370D01*
X127315539Y-86585039D01*
X127219402Y-86574034D01*
X127156801Y-86561215D01*
X127120548Y-86546445D01*
X127103452Y-86529585D01*
X127098324Y-86510497D01*
X127098000Y-86499000D01*
X127104595Y-86448744D01*
X127137391Y-86413842D01*
X127215904Y-86391507D01*
X127359653Y-86378949D01*
X127588154Y-86373381D01*
X127920923Y-86372015D01*
X127987000Y-86372000D01*
X128876000Y-86372000D01*
X128876000Y-76656500D01*
X129130000Y-76656500D01*
X129130000Y-86372000D01*
X131670000Y-86372000D01*
X131670000Y-82181000D01*
X131924000Y-82181000D01*
X131924000Y-86372000D01*
X134464000Y-86372000D01*
X134464000Y-82181000D01*
X134718000Y-82181000D01*
X134718000Y-86372000D01*
X137258000Y-86372000D01*
X137258000Y-82181000D01*
X137512000Y-82181000D01*
X137512000Y-86372000D01*
X140052000Y-86372000D01*
X140052000Y-76656500D01*
X138083500Y-76656500D01*
X138083500Y-82181000D01*
X137512000Y-82181000D01*
X137258000Y-82181000D01*
X136940500Y-82181000D01*
X136940500Y-76656500D01*
X135162500Y-76656500D01*
X135162500Y-82181000D01*
X134718000Y-82181000D01*
X134464000Y-82181000D01*
X134019500Y-82181000D01*
X134019500Y-76656500D01*
X132241500Y-76656500D01*
X132241500Y-82181000D01*
X131924000Y-82181000D01*
X131670000Y-82181000D01*
X131098500Y-82181000D01*
X131098500Y-76656500D01*
X129130000Y-76656500D01*
X128876000Y-76656500D01*
X126907500Y-76656500D01*
X126907500Y-80276000D01*
X125764500Y-80276000D01*
X125764500Y-76656500D01*
X123859500Y-76656500D01*
X123859500Y-82181000D01*
X123700750Y-82181000D01*
X123609134Y-82190316D01*
X123561850Y-82239179D01*
X123544345Y-82358967D01*
X123542000Y-82523215D01*
X123521336Y-82786116D01*
X123452837Y-82966314D01*
X123417113Y-83015340D01*
X123292225Y-83165250D01*
X123290112Y-82673125D01*
X123288000Y-82181000D01*
X122716500Y-82181000D01*
X122716500Y-76656500D01*
X120748000Y-76656500D01*
X120748000Y-86372000D01*
X123288000Y-86372000D01*
X123288000Y-86118000D01*
X123298650Y-85951824D01*
X123341696Y-85878381D01*
X123415000Y-85864000D01*
X123498088Y-85885300D01*
X123534810Y-85971392D01*
X123542000Y-86118000D01*
X123542000Y-86372000D01*
X124526250Y-86372000D01*
X124899291Y-86372785D01*
X125163899Y-86376736D01*
X125338636Y-86386249D01*
X125442066Y-86403719D01*
X125492753Y-86431541D01*
X125509261Y-86472112D01*
X125510500Y-86499000D01*
X125507447Y-86530888D01*
X125490515Y-86556936D01*
X125448041Y-86577735D01*
X125368366Y-86593875D01*
X125239827Y-86605946D01*
X125050762Y-86614539D01*
X124789512Y-86620244D01*
X124444414Y-86623652D01*
X124003807Y-86625354D01*
X123456029Y-86625939D01*
X123002250Y-86626000D01*
X120494000Y-86626000D01*
X120494000Y-76402500D01*
X140306000Y-76402500D01*
X140306000Y-86626000D01*
X140306000Y-86626000D01*
G37*
X140306000Y-86626000D02*
X133702000Y-86626000D01*
X132642645Y-86625969D01*
X131703100Y-86625784D01*
X130876176Y-86625306D01*
X130154684Y-86624398D01*
X129531434Y-86622921D01*
X128999236Y-86620737D01*
X128550901Y-86617708D01*
X128179240Y-86613694D01*
X127877062Y-86608559D01*
X127637179Y-86602164D01*
X127452401Y-86594370D01*
X127315539Y-86585039D01*
X127219402Y-86574034D01*
X127156801Y-86561215D01*
X127120548Y-86546445D01*
X127103452Y-86529585D01*
X127098324Y-86510497D01*
X127098000Y-86499000D01*
X127104595Y-86448744D01*
X127137391Y-86413842D01*
X127215904Y-86391507D01*
X127359653Y-86378949D01*
X127588154Y-86373381D01*
X127920923Y-86372015D01*
X127987000Y-86372000D01*
X128876000Y-86372000D01*
X128876000Y-76656500D01*
X129130000Y-76656500D01*
X129130000Y-86372000D01*
X131670000Y-86372000D01*
X131670000Y-82181000D01*
X131924000Y-82181000D01*
X131924000Y-86372000D01*
X134464000Y-86372000D01*
X134464000Y-82181000D01*
X134718000Y-82181000D01*
X134718000Y-86372000D01*
X137258000Y-86372000D01*
X137258000Y-82181000D01*
X137512000Y-82181000D01*
X137512000Y-86372000D01*
X140052000Y-86372000D01*
X140052000Y-76656500D01*
X138083500Y-76656500D01*
X138083500Y-82181000D01*
X137512000Y-82181000D01*
X137258000Y-82181000D01*
X136940500Y-82181000D01*
X136940500Y-76656500D01*
X135162500Y-76656500D01*
X135162500Y-82181000D01*
X134718000Y-82181000D01*
X134464000Y-82181000D01*
X134019500Y-82181000D01*
X134019500Y-76656500D01*
X132241500Y-76656500D01*
X132241500Y-82181000D01*
X131924000Y-82181000D01*
X131670000Y-82181000D01*
X131098500Y-82181000D01*
X131098500Y-76656500D01*
X129130000Y-76656500D01*
X128876000Y-76656500D01*
X126907500Y-76656500D01*
X126907500Y-80276000D01*
X125764500Y-80276000D01*
X125764500Y-76656500D01*
X123859500Y-76656500D01*
X123859500Y-82181000D01*
X123700750Y-82181000D01*
X123609134Y-82190316D01*
X123561850Y-82239179D01*
X123544345Y-82358967D01*
X123542000Y-82523215D01*
X123521336Y-82786116D01*
X123452837Y-82966314D01*
X123417113Y-83015340D01*
X123292225Y-83165250D01*
X123290112Y-82673125D01*
X123288000Y-82181000D01*
X122716500Y-82181000D01*
X122716500Y-76656500D01*
X120748000Y-76656500D01*
X120748000Y-86372000D01*
X123288000Y-86372000D01*
X123288000Y-86118000D01*
X123298650Y-85951824D01*
X123341696Y-85878381D01*
X123415000Y-85864000D01*
X123498088Y-85885300D01*
X123534810Y-85971392D01*
X123542000Y-86118000D01*
X123542000Y-86372000D01*
X124526250Y-86372000D01*
X124899291Y-86372785D01*
X125163899Y-86376736D01*
X125338636Y-86386249D01*
X125442066Y-86403719D01*
X125492753Y-86431541D01*
X125509261Y-86472112D01*
X125510500Y-86499000D01*
X125507447Y-86530888D01*
X125490515Y-86556936D01*
X125448041Y-86577735D01*
X125368366Y-86593875D01*
X125239827Y-86605946D01*
X125050762Y-86614539D01*
X124789512Y-86620244D01*
X124444414Y-86623652D01*
X124003807Y-86625354D01*
X123456029Y-86625939D01*
X123002250Y-86626000D01*
X120494000Y-86626000D01*
X120494000Y-76402500D01*
X140306000Y-76402500D01*
X140306000Y-86626000D01*
G36*
X128265437Y-82390962D02*
X128423834Y-82448887D01*
X128490474Y-82553381D01*
X128495000Y-82602787D01*
X128487585Y-82702873D01*
X128441873Y-82720641D01*
X128322664Y-82666630D01*
X128307653Y-82658881D01*
X128063266Y-82572033D01*
X127865397Y-82595295D01*
X127733000Y-82689000D01*
X127633524Y-82858155D01*
X127606031Y-83065182D01*
X127641607Y-83274743D01*
X127731335Y-83451499D01*
X127866300Y-83560112D01*
X127957289Y-83578000D01*
X128077255Y-83554526D01*
X128248215Y-83496658D01*
X128282544Y-83482750D01*
X128449779Y-83414690D01*
X128530608Y-83397040D01*
X128556405Y-83432701D01*
X128558500Y-83508288D01*
X128502259Y-83626446D01*
X128355104Y-83709604D01*
X128149387Y-83753335D01*
X127917460Y-83753207D01*
X127691674Y-83704793D01*
X127562428Y-83644661D01*
X127343145Y-83460525D01*
X127238120Y-83237875D01*
X127225000Y-83102771D01*
X127283222Y-82825706D01*
X127442018Y-82596744D01*
X127677576Y-82438335D01*
X127966091Y-82372922D01*
X127999722Y-82372367D01*
X128265437Y-82390962D01*
X128265437Y-82390962D01*
G37*
X128265437Y-82390962D02*
X128423834Y-82448887D01*
X128490474Y-82553381D01*
X128495000Y-82602787D01*
X128487585Y-82702873D01*
X128441873Y-82720641D01*
X128322664Y-82666630D01*
X128307653Y-82658881D01*
X128063266Y-82572033D01*
X127865397Y-82595295D01*
X127733000Y-82689000D01*
X127633524Y-82858155D01*
X127606031Y-83065182D01*
X127641607Y-83274743D01*
X127731335Y-83451499D01*
X127866300Y-83560112D01*
X127957289Y-83578000D01*
X128077255Y-83554526D01*
X128248215Y-83496658D01*
X128282544Y-83482750D01*
X128449779Y-83414690D01*
X128530608Y-83397040D01*
X128556405Y-83432701D01*
X128558500Y-83508288D01*
X128502259Y-83626446D01*
X128355104Y-83709604D01*
X128149387Y-83753335D01*
X127917460Y-83753207D01*
X127691674Y-83704793D01*
X127562428Y-83644661D01*
X127343145Y-83460525D01*
X127238120Y-83237875D01*
X127225000Y-83102771D01*
X127283222Y-82825706D01*
X127442018Y-82596744D01*
X127677576Y-82438335D01*
X127966091Y-82372922D01*
X127999722Y-82372367D01*
X128265437Y-82390962D01*
G36*
X131274608Y-84415630D02*
X131511250Y-84435250D01*
X131511250Y-86086250D01*
X131352500Y-86086250D01*
X131279689Y-86081387D01*
X131231953Y-86051226D01*
X131202151Y-85972410D01*
X131183146Y-85821581D01*
X131167797Y-85575382D01*
X131162000Y-85462994D01*
X131130250Y-84839739D01*
X130829042Y-85447120D01*
X130689439Y-85721309D01*
X130586798Y-85899356D01*
X130506136Y-86001007D01*
X130432473Y-86046011D01*
X130368250Y-86054500D01*
X130289360Y-86040688D01*
X130215503Y-85986089D01*
X130131697Y-85870952D01*
X130022960Y-85675531D01*
X129907458Y-85447120D01*
X129606250Y-84839739D01*
X129574500Y-85462994D01*
X129558094Y-85749028D01*
X129539715Y-85932217D01*
X129512820Y-86036633D01*
X129470866Y-86086349D01*
X129407312Y-86105438D01*
X129399591Y-86106579D01*
X129274152Y-86089070D01*
X129222846Y-86039382D01*
X129211141Y-85944243D01*
X129204336Y-85750686D01*
X129202955Y-85487216D01*
X129207254Y-85193553D01*
X129225250Y-84435250D01*
X129460961Y-84415686D01*
X129696673Y-84396121D01*
X130033435Y-85067415D01*
X130370197Y-85738708D01*
X131037966Y-84396010D01*
X131274608Y-84415630D01*
X131274608Y-84415630D01*
G37*
X131274608Y-84415630D02*
X131511250Y-84435250D01*
X131511250Y-86086250D01*
X131352500Y-86086250D01*
X131279689Y-86081387D01*
X131231953Y-86051226D01*
X131202151Y-85972410D01*
X131183146Y-85821581D01*
X131167797Y-85575382D01*
X131162000Y-85462994D01*
X131130250Y-84839739D01*
X130829042Y-85447120D01*
X130689439Y-85721309D01*
X130586798Y-85899356D01*
X130506136Y-86001007D01*
X130432473Y-86046011D01*
X130368250Y-86054500D01*
X130289360Y-86040688D01*
X130215503Y-85986089D01*
X130131697Y-85870952D01*
X130022960Y-85675531D01*
X129907458Y-85447120D01*
X129606250Y-84839739D01*
X129574500Y-85462994D01*
X129558094Y-85749028D01*
X129539715Y-85932217D01*
X129512820Y-86036633D01*
X129470866Y-86086349D01*
X129407312Y-86105438D01*
X129399591Y-86106579D01*
X129274152Y-86089070D01*
X129222846Y-86039382D01*
X129211141Y-85944243D01*
X129204336Y-85750686D01*
X129202955Y-85487216D01*
X129207254Y-85193553D01*
X129225250Y-84435250D01*
X129460961Y-84415686D01*
X129696673Y-84396121D01*
X130033435Y-85067415D01*
X130370197Y-85738708D01*
X131037966Y-84396010D01*
X131274608Y-84415630D01*
G36*
X130077374Y-82063928D02*
X130131749Y-82117906D01*
X130145669Y-82252224D01*
X130146000Y-82309631D01*
X130146000Y-82565261D01*
X130333347Y-82468381D01*
X130608636Y-82379249D01*
X130853504Y-82412950D01*
X130957371Y-82470351D01*
X131023505Y-82527367D01*
X131065068Y-82604572D01*
X131087672Y-82729912D01*
X131096930Y-82931335D01*
X131098500Y-83173068D01*
X131098500Y-83776935D01*
X130923875Y-83756843D01*
X130840997Y-83742797D01*
X130788016Y-83707013D01*
X130756125Y-83624236D01*
X130736511Y-83469210D01*
X130720366Y-83216683D01*
X130717500Y-83165250D01*
X130700339Y-82893699D01*
X130680500Y-82723799D01*
X130650317Y-82630297D01*
X130602125Y-82587943D01*
X130537638Y-82572772D01*
X130363852Y-82583886D01*
X130244867Y-82682015D01*
X130174599Y-82877995D01*
X130146965Y-83182661D01*
X130146000Y-83270342D01*
X130146000Y-83768500D01*
X129765000Y-83768500D01*
X129765000Y-82054000D01*
X129955500Y-82054000D01*
X130077374Y-82063928D01*
X130077374Y-82063928D01*
G37*
X130077374Y-82063928D02*
X130131749Y-82117906D01*
X130145669Y-82252224D01*
X130146000Y-82309631D01*
X130146000Y-82565261D01*
X130333347Y-82468381D01*
X130608636Y-82379249D01*
X130853504Y-82412950D01*
X130957371Y-82470351D01*
X131023505Y-82527367D01*
X131065068Y-82604572D01*
X131087672Y-82729912D01*
X131096930Y-82931335D01*
X131098500Y-83173068D01*
X131098500Y-83776935D01*
X130923875Y-83756843D01*
X130840997Y-83742797D01*
X130788016Y-83707013D01*
X130756125Y-83624236D01*
X130736511Y-83469210D01*
X130720366Y-83216683D01*
X130717500Y-83165250D01*
X130700339Y-82893699D01*
X130680500Y-82723799D01*
X130650317Y-82630297D01*
X130602125Y-82587943D01*
X130537638Y-82572772D01*
X130363852Y-82583886D01*
X130244867Y-82682015D01*
X130174599Y-82877995D01*
X130146965Y-83182661D01*
X130146000Y-83270342D01*
X130146000Y-83768500D01*
X129765000Y-83768500D01*
X129765000Y-82054000D01*
X129955500Y-82054000D01*
X130077374Y-82063928D01*
G36*
X133448000Y-86118000D02*
X133067000Y-86118000D01*
X133067000Y-84403500D01*
X133448000Y-84403500D01*
X133448000Y-86118000D01*
X133448000Y-86118000D01*
G37*
X133448000Y-86118000D02*
X133067000Y-86118000D01*
X133067000Y-84403500D01*
X133448000Y-84403500D01*
X133448000Y-86118000D01*
G36*
X133438203Y-82405627D02*
X133688520Y-82520185D01*
X133884268Y-82711246D01*
X133999616Y-82963716D01*
X134019500Y-83133772D01*
X133978768Y-83321474D01*
X133843578Y-83511196D01*
X133803600Y-83552600D01*
X133647475Y-83689278D01*
X133501081Y-83751589D01*
X133299279Y-83766064D01*
X133279725Y-83765957D01*
X133055331Y-83744721D01*
X132855156Y-83694320D01*
X132798721Y-83669516D01*
X132613542Y-83523459D01*
X132517952Y-83320634D01*
X132504646Y-83182940D01*
X132851376Y-83182940D01*
X132885440Y-83378293D01*
X132935564Y-83477405D01*
X133074008Y-83557359D01*
X133264329Y-83572001D01*
X133449747Y-83521766D01*
X133522375Y-83472908D01*
X133612041Y-83317443D01*
X133642121Y-83102686D01*
X133613344Y-82881111D01*
X133526437Y-82705189D01*
X133511500Y-82689000D01*
X133320945Y-82578824D01*
X133107655Y-82582177D01*
X132971675Y-82649452D01*
X132896626Y-82769614D01*
X132855815Y-82963745D01*
X132851376Y-83182940D01*
X132504646Y-83182940D01*
X132495500Y-83088304D01*
X132549026Y-82800213D01*
X132710906Y-82578030D01*
X132877201Y-82466387D01*
X133159152Y-82382663D01*
X133438203Y-82405627D01*
X133438203Y-82405627D01*
G37*
X133438203Y-82405627D02*
X133688520Y-82520185D01*
X133884268Y-82711246D01*
X133999616Y-82963716D01*
X134019500Y-83133772D01*
X133978768Y-83321474D01*
X133843578Y-83511196D01*
X133803600Y-83552600D01*
X133647475Y-83689278D01*
X133501081Y-83751589D01*
X133299279Y-83766064D01*
X133279725Y-83765957D01*
X133055331Y-83744721D01*
X132855156Y-83694320D01*
X132798721Y-83669516D01*
X132613542Y-83523459D01*
X132517952Y-83320634D01*
X132504646Y-83182940D01*
X132851376Y-83182940D01*
X132885440Y-83378293D01*
X132935564Y-83477405D01*
X133074008Y-83557359D01*
X133264329Y-83572001D01*
X133449747Y-83521766D01*
X133522375Y-83472908D01*
X133612041Y-83317443D01*
X133642121Y-83102686D01*
X133613344Y-82881111D01*
X133526437Y-82705189D01*
X133511500Y-82689000D01*
X133320945Y-82578824D01*
X133107655Y-82582177D01*
X132971675Y-82649452D01*
X132896626Y-82769614D01*
X132855815Y-82963745D01*
X132851376Y-83182940D01*
X132504646Y-83182940D01*
X132495500Y-83088304D01*
X132549026Y-82800213D01*
X132710906Y-82578030D01*
X132877201Y-82466387D01*
X133159152Y-82382663D01*
X133438203Y-82405627D01*
G36*
X135591125Y-84404894D02*
X136038172Y-84426386D01*
X136381185Y-84492585D01*
X136637086Y-84609492D01*
X136822798Y-84783105D01*
X136875451Y-84860183D01*
X136984032Y-85145638D01*
X136975167Y-85429772D01*
X136856661Y-85690280D01*
X136636323Y-85904858D01*
X136478813Y-85993297D01*
X136297687Y-86057782D01*
X136079128Y-86096419D01*
X135788062Y-86114080D01*
X135591125Y-86116605D01*
X134972000Y-86118000D01*
X134972000Y-85864000D01*
X135353000Y-85864000D01*
X135718125Y-85863901D01*
X136018321Y-85838131D01*
X136269064Y-85768924D01*
X136304093Y-85752776D01*
X136507818Y-85589792D01*
X136602942Y-85371275D01*
X136583238Y-85116851D01*
X136540725Y-85007142D01*
X136403339Y-84831834D01*
X136181474Y-84719456D01*
X135862359Y-84664974D01*
X135654625Y-84657854D01*
X135353000Y-84657500D01*
X135353000Y-85864000D01*
X134972000Y-85864000D01*
X134972000Y-84403500D01*
X135591125Y-84404894D01*
X135591125Y-84404894D01*
G37*
X135591125Y-84404894D02*
X136038172Y-84426386D01*
X136381185Y-84492585D01*
X136637086Y-84609492D01*
X136822798Y-84783105D01*
X136875451Y-84860183D01*
X136984032Y-85145638D01*
X136975167Y-85429772D01*
X136856661Y-85690280D01*
X136636323Y-85904858D01*
X136478813Y-85993297D01*
X136297687Y-86057782D01*
X136079128Y-86096419D01*
X135788062Y-86114080D01*
X135591125Y-86116605D01*
X134972000Y-86118000D01*
X134972000Y-85864000D01*
X135353000Y-85864000D01*
X135718125Y-85863901D01*
X136018321Y-85838131D01*
X136269064Y-85768924D01*
X136304093Y-85752776D01*
X136507818Y-85589792D01*
X136602942Y-85371275D01*
X136583238Y-85116851D01*
X136540725Y-85007142D01*
X136403339Y-84831834D01*
X136181474Y-84719456D01*
X135862359Y-84664974D01*
X135654625Y-84657854D01*
X135353000Y-84657500D01*
X135353000Y-85864000D01*
X134972000Y-85864000D01*
X134972000Y-84403500D01*
X135591125Y-84404894D01*
G36*
X136614535Y-82462609D02*
X136611542Y-82513726D01*
X136543056Y-82640194D01*
X136464250Y-82679032D01*
X136291909Y-82739629D01*
X136184025Y-82860186D01*
X136128976Y-83062492D01*
X136115000Y-83333842D01*
X136115000Y-83768500D01*
X135734000Y-83768500D01*
X135734000Y-83105498D01*
X135739865Y-82815522D01*
X135755904Y-82585012D01*
X135779787Y-82439539D01*
X135798068Y-82402899D01*
X135916313Y-82385629D01*
X136041417Y-82433266D01*
X136112588Y-82519677D01*
X136115000Y-82539138D01*
X136134559Y-82589201D01*
X136208622Y-82557889D01*
X136282313Y-82503109D01*
X136455674Y-82394267D01*
X136570063Y-82380885D01*
X136614535Y-82462609D01*
X136614535Y-82462609D01*
G37*
X136614535Y-82462609D02*
X136611542Y-82513726D01*
X136543056Y-82640194D01*
X136464250Y-82679032D01*
X136291909Y-82739629D01*
X136184025Y-82860186D01*
X136128976Y-83062492D01*
X136115000Y-83333842D01*
X136115000Y-83768500D01*
X135734000Y-83768500D01*
X135734000Y-83105498D01*
X135739865Y-82815522D01*
X135755904Y-82585012D01*
X135779787Y-82439539D01*
X135798068Y-82402899D01*
X135916313Y-82385629D01*
X136041417Y-82433266D01*
X136112588Y-82519677D01*
X136115000Y-82539138D01*
X136134559Y-82589201D01*
X136208622Y-82557889D01*
X136282313Y-82503109D01*
X136455674Y-82394267D01*
X136570063Y-82380885D01*
X136614535Y-82462609D01*
G36*
X138909000Y-86118000D02*
X138528000Y-86118000D01*
X138528000Y-84403500D01*
X138909000Y-84403500D01*
X138909000Y-86118000D01*
X138909000Y-86118000D01*
G37*
X138909000Y-86118000D02*
X138528000Y-86118000D01*
X138528000Y-84403500D01*
X138909000Y-84403500D01*
X138909000Y-86118000D01*
G36*
X139353500Y-82877275D02*
X139351458Y-83223056D01*
X139343719Y-83462207D01*
X139327865Y-83615054D01*
X139301479Y-83701925D01*
X139262143Y-83743147D01*
X139249838Y-83748764D01*
X139112507Y-83750983D01*
X139037782Y-83720849D01*
X138897046Y-83688738D01*
X138839818Y-83709855D01*
X138631373Y-83771784D01*
X138403001Y-83719098D01*
X138176842Y-83557015D01*
X138172400Y-83552600D01*
X138030760Y-83386808D01*
X137968125Y-83229171D01*
X137956500Y-83070000D01*
X137960398Y-83050589D01*
X138337500Y-83050589D01*
X138376112Y-83308554D01*
X138480327Y-83490049D01*
X138632707Y-83580309D01*
X138815819Y-83564572D01*
X138896259Y-83523718D01*
X138943800Y-83439680D01*
X138963174Y-83256926D01*
X138959759Y-83032566D01*
X138946126Y-82800321D01*
X138923462Y-82666042D01*
X138881311Y-82600704D01*
X138809215Y-82575280D01*
X138794204Y-82572977D01*
X138632489Y-82591696D01*
X138492579Y-82653816D01*
X138392677Y-82744085D01*
X138347161Y-82871661D01*
X138337500Y-83050589D01*
X137960398Y-83050589D01*
X138005842Y-82824324D01*
X138136163Y-82614367D01*
X138320908Y-82459118D01*
X138533521Y-82377567D01*
X138747445Y-82388707D01*
X138845500Y-82434265D01*
X138915348Y-82451855D01*
X138956355Y-82374804D01*
X138972500Y-82290418D01*
X139017112Y-82141342D01*
X139112495Y-82077339D01*
X139178875Y-82065657D01*
X139353500Y-82045564D01*
X139353500Y-82877275D01*
X139353500Y-82877275D01*
G37*
X139353500Y-82877275D02*
X139351458Y-83223056D01*
X139343719Y-83462207D01*
X139327865Y-83615054D01*
X139301479Y-83701925D01*
X139262143Y-83743147D01*
X139249838Y-83748764D01*
X139112507Y-83750983D01*
X139037782Y-83720849D01*
X138897046Y-83688738D01*
X138839818Y-83709855D01*
X138631373Y-83771784D01*
X138403001Y-83719098D01*
X138176842Y-83557015D01*
X138172400Y-83552600D01*
X138030760Y-83386808D01*
X137968125Y-83229171D01*
X137956500Y-83070000D01*
X137960398Y-83050589D01*
X138337500Y-83050589D01*
X138376112Y-83308554D01*
X138480327Y-83490049D01*
X138632707Y-83580309D01*
X138815819Y-83564572D01*
X138896259Y-83523718D01*
X138943800Y-83439680D01*
X138963174Y-83256926D01*
X138959759Y-83032566D01*
X138946126Y-82800321D01*
X138923462Y-82666042D01*
X138881311Y-82600704D01*
X138809215Y-82575280D01*
X138794204Y-82572977D01*
X138632489Y-82591696D01*
X138492579Y-82653816D01*
X138392677Y-82744085D01*
X138347161Y-82871661D01*
X138337500Y-83050589D01*
X137960398Y-83050589D01*
X138005842Y-82824324D01*
X138136163Y-82614367D01*
X138320908Y-82459118D01*
X138533521Y-82377567D01*
X138747445Y-82388707D01*
X138845500Y-82434265D01*
X138915348Y-82451855D01*
X138956355Y-82374804D01*
X138972500Y-82290418D01*
X139017112Y-82141342D01*
X139112495Y-82077339D01*
X139178875Y-82065657D01*
X139353500Y-82045564D01*
X139353500Y-82877275D01*
D16*
X108780000Y-81470000D02*
X108780000Y-81270000D01*
X108780000Y-75470000D02*
X108780000Y-75670000D01*
X114780000Y-75470000D02*
X114780000Y-75670000D01*
X114780000Y-81470000D02*
X114780000Y-81270000D01*
X114780000Y-79670000D02*
X114780000Y-77270000D01*
X108780000Y-79670000D02*
X108780000Y-77270000D01*
X108780000Y-81470000D02*
X114780000Y-81470000D01*
X114780000Y-75470000D02*
X108780000Y-75470000D01*
X113480000Y-78470000D02*
G75*
G03X113480000Y-78470000I-1700000J0D01*
G01*
X126835000Y-68975000D02*
X127160000Y-68975000D01*
X126835000Y-61725000D02*
X127160000Y-61725000D01*
X134085000Y-61725000D02*
X133760000Y-61725000D01*
X134085000Y-68975000D02*
X133760000Y-68975000D01*
X126835000Y-68975000D02*
X126835000Y-68650000D01*
X134085000Y-68975000D02*
X134085000Y-68650000D01*
X134085000Y-61725000D02*
X134085000Y-62050000D01*
X126835000Y-61725000D02*
X126835000Y-62050000D01*
X127160000Y-68975000D02*
X127160000Y-70400000D01*
X129100640Y-36400820D02*
X121399360Y-36400820D01*
X129100640Y-35400060D02*
X121399360Y-35400060D01*
X121399360Y-35400060D02*
X121399360Y-44599940D01*
X121399360Y-44599940D02*
X129100640Y-44599940D01*
X129100640Y-44599940D02*
X129100640Y-35400060D01*
X188410000Y-53730000D02*
X188410000Y-66430000D01*
X188410000Y-66430000D02*
X183330000Y-66430000D01*
X183330000Y-66430000D02*
X183330000Y-56270000D01*
X188410000Y-53730000D02*
X185870000Y-53730000D01*
X184600000Y-53450000D02*
X183050000Y-53450000D01*
X185870000Y-53730000D02*
X185870000Y-56270000D01*
X185870000Y-56270000D02*
X183330000Y-56270000D01*
X183050000Y-53450000D02*
X183050000Y-55000000D01*
X138370000Y-48330000D02*
X138370000Y-40710000D01*
X135830000Y-48330000D02*
X135830000Y-40710000D01*
X135550000Y-51150000D02*
X135550000Y-49600000D01*
X138370000Y-40710000D02*
X135830000Y-40710000D01*
X135830000Y-48330000D02*
X138370000Y-48330000D01*
X138650000Y-49600000D02*
X138650000Y-51150000D01*
X138650000Y-51150000D02*
X135550000Y-51150000D01*
X108700000Y-49570000D02*
X108700000Y-49370000D01*
X108700000Y-43570000D02*
X108700000Y-43770000D01*
X114700000Y-43570000D02*
X114700000Y-43770000D01*
X114700000Y-49570000D02*
X114700000Y-49370000D01*
X114700000Y-47770000D02*
X114700000Y-45370000D01*
X108700000Y-47770000D02*
X108700000Y-45370000D01*
X108700000Y-49570000D02*
X114700000Y-49570000D01*
X114700000Y-43570000D02*
X108700000Y-43570000D01*
X113400000Y-46570000D02*
G75*
G03X113400000Y-46570000I-1700000J0D01*
G01*
X146330000Y-81730000D02*
X146330000Y-81530000D01*
X146330000Y-75730000D02*
X146330000Y-75930000D01*
X152330000Y-75730000D02*
X152330000Y-75930000D01*
X152330000Y-81730000D02*
X152330000Y-81530000D01*
X152330000Y-79930000D02*
X152330000Y-77530000D01*
X146330000Y-79930000D02*
X146330000Y-77530000D01*
X146330000Y-81730000D02*
X152330000Y-81730000D01*
X152330000Y-75730000D02*
X146330000Y-75730000D01*
X151030000Y-78730000D02*
G75*
G03X151030000Y-78730000I-1700000J0D01*
G01*
X108750000Y-60110000D02*
X108750000Y-59910000D01*
X108750000Y-54110000D02*
X108750000Y-54310000D01*
X114750000Y-54110000D02*
X114750000Y-54310000D01*
X114750000Y-60110000D02*
X114750000Y-59910000D01*
X114750000Y-58310000D02*
X114750000Y-55910000D01*
X108750000Y-58310000D02*
X108750000Y-55910000D01*
X108750000Y-60110000D02*
X114750000Y-60110000D01*
X114750000Y-54110000D02*
X108750000Y-54110000D01*
X113450000Y-57110000D02*
G75*
G03X113450000Y-57110000I-1700000J0D01*
G01*
X160330000Y-81730000D02*
X160330000Y-81530000D01*
X160330000Y-75730000D02*
X160330000Y-75930000D01*
X166330000Y-75730000D02*
X166330000Y-75930000D01*
X166330000Y-81730000D02*
X166330000Y-81530000D01*
X166330000Y-79930000D02*
X166330000Y-77530000D01*
X160330000Y-79930000D02*
X160330000Y-77530000D01*
X160330000Y-81730000D02*
X166330000Y-81730000D01*
X166330000Y-75730000D02*
X160330000Y-75730000D01*
X165030000Y-78730000D02*
G75*
G03X165030000Y-78730000I-1700000J0D01*
G01*
X108750000Y-70670000D02*
X108750000Y-70470000D01*
X108750000Y-64670000D02*
X108750000Y-64870000D01*
X114750000Y-64670000D02*
X114750000Y-64870000D01*
X114750000Y-70670000D02*
X114750000Y-70470000D01*
X114750000Y-68870000D02*
X114750000Y-66470000D01*
X108750000Y-68870000D02*
X108750000Y-66470000D01*
X108750000Y-70670000D02*
X114750000Y-70670000D01*
X114750000Y-64670000D02*
X108750000Y-64670000D01*
X113450000Y-67670000D02*
G75*
G03X113450000Y-67670000I-1700000J0D01*
G01*
X174330000Y-81730000D02*
X174330000Y-81530000D01*
X174330000Y-75730000D02*
X174330000Y-75930000D01*
X180330000Y-75730000D02*
X180330000Y-75930000D01*
X180330000Y-81730000D02*
X180330000Y-81530000D01*
X180330000Y-79930000D02*
X180330000Y-77530000D01*
X174330000Y-79930000D02*
X174330000Y-77530000D01*
X174330000Y-81730000D02*
X180330000Y-81730000D01*
X180330000Y-75730000D02*
X174330000Y-75730000D01*
X179030000Y-78730000D02*
G75*
G03X179030000Y-78730000I-1700000J0D01*
G01*
X126924000Y-54856000D02*
X129972000Y-54856000D01*
X129972000Y-54856000D02*
X129972000Y-47744000D01*
X129972000Y-47744000D02*
X126924000Y-47744000D01*
X123876000Y-54856000D02*
X123114000Y-54856000D01*
X123114000Y-54856000D02*
X120828000Y-53332000D01*
X120828000Y-53332000D02*
X120828000Y-49268000D01*
X120828000Y-49268000D02*
X123114000Y-47744000D01*
X123114000Y-47744000D02*
X123876000Y-47744000D01*
X132700000Y-71700000D02*
X135900000Y-71700000D01*
X135900000Y-71700000D02*
X135900000Y-74300000D01*
X135900000Y-74300000D02*
X132700000Y-74300000D01*
X132700000Y-74300000D02*
X132700000Y-71700000D01*
X115600000Y-37060000D02*
X115600000Y-38610000D01*
X112500000Y-38610000D02*
X112500000Y-37060000D01*
X112500000Y-37060000D02*
X115600000Y-37060000D01*
X112780000Y-39880000D02*
X115320000Y-39880000D01*
X187450000Y-43750000D02*
X187450000Y-45300000D01*
X184350000Y-45300000D02*
X184350000Y-43750000D01*
X184350000Y-43750000D02*
X187450000Y-43750000D01*
X184630000Y-46570000D02*
X187170000Y-46570000D01*
D17*
G36*
X175041667Y-63141667D02*
X151758333Y-63141667D01*
X151758333Y-56791667D01*
X153169444Y-56791667D01*
X153169444Y-61730556D01*
X158108333Y-61730556D01*
X158108333Y-59613889D01*
X159519444Y-59613889D01*
X159519444Y-60319444D01*
X160225000Y-60319444D01*
X160225000Y-59613889D01*
X159519444Y-59613889D01*
X158108333Y-59613889D01*
X158108333Y-56791667D01*
X153169444Y-56791667D01*
X151758333Y-56791667D01*
X151758333Y-48325000D01*
X153169444Y-48325000D01*
X153169444Y-56086111D01*
X153875000Y-56086111D01*
X153875000Y-55380556D01*
X154580556Y-55380556D01*
X154580556Y-56086111D01*
X155286111Y-56086111D01*
X155286111Y-55380556D01*
X154580556Y-55380556D01*
X153875000Y-55380556D01*
X153875000Y-54675000D01*
X154580556Y-54675000D01*
X154580556Y-53969444D01*
X155286111Y-53969444D01*
X155286111Y-54675000D01*
X155991667Y-54675000D01*
X155991667Y-56086111D01*
X156697222Y-56086111D01*
X156697222Y-55380556D01*
X157402778Y-55380556D01*
X157402778Y-56086111D01*
X158813889Y-56086111D01*
X158813889Y-56791667D01*
X160225000Y-56791667D01*
X160225000Y-57497222D01*
X159519444Y-57497222D01*
X159519444Y-58908333D01*
X160930556Y-58908333D01*
X160930556Y-58202778D01*
X162341667Y-58202778D01*
X162341667Y-58908333D01*
X161636111Y-58908333D01*
X161636111Y-59613889D01*
X160930556Y-59613889D01*
X160930556Y-61025000D01*
X158813889Y-61025000D01*
X158813889Y-61730556D01*
X165869444Y-61730556D01*
X165869444Y-61025000D01*
X166575000Y-61025000D01*
X166575000Y-61730556D01*
X167280556Y-61730556D01*
X167280556Y-61025000D01*
X166575000Y-61025000D01*
X165869444Y-61025000D01*
X165163889Y-61025000D01*
X165163889Y-60319444D01*
X165869444Y-60319444D01*
X165869444Y-59613889D01*
X166575000Y-59613889D01*
X166575000Y-60319444D01*
X168691667Y-60319444D01*
X168691667Y-61730556D01*
X170808333Y-61730556D01*
X170808333Y-61025000D01*
X171513889Y-61025000D01*
X171513889Y-61730556D01*
X172219444Y-61730556D01*
X172219444Y-60319444D01*
X172925000Y-60319444D01*
X172925000Y-61025000D01*
X173630556Y-61025000D01*
X173630556Y-60319444D01*
X172925000Y-60319444D01*
X172925000Y-59613889D01*
X172219444Y-59613889D01*
X172219444Y-58908333D01*
X171513889Y-58908333D01*
X171513889Y-58202778D01*
X172925000Y-58202778D01*
X172925000Y-59613889D01*
X173630556Y-59613889D01*
X173630556Y-58202778D01*
X172925000Y-58202778D01*
X171513889Y-58202778D01*
X170808333Y-58202778D01*
X170808333Y-57497222D01*
X172219444Y-57497222D01*
X172219444Y-56791667D01*
X171513889Y-56791667D01*
X171513889Y-56086111D01*
X170808333Y-56086111D01*
X170808333Y-55380556D01*
X171513889Y-55380556D01*
X171513889Y-56086111D01*
X173630556Y-56086111D01*
X173630556Y-55380556D01*
X171513889Y-55380556D01*
X170808333Y-55380556D01*
X169397222Y-55380556D01*
X169397222Y-54675000D01*
X168691667Y-54675000D01*
X168691667Y-55380556D01*
X167986111Y-55380556D01*
X167986111Y-54675000D01*
X167280556Y-54675000D01*
X167280556Y-52558333D01*
X167986111Y-52558333D01*
X167986111Y-53263889D01*
X168691667Y-53263889D01*
X168691667Y-52558333D01*
X167986111Y-52558333D01*
X167280556Y-52558333D01*
X167280556Y-51852778D01*
X168691667Y-51852778D01*
X168691667Y-51147222D01*
X170102778Y-51147222D01*
X170102778Y-51852778D01*
X169397222Y-51852778D01*
X169397222Y-53263889D01*
X168691667Y-53263889D01*
X168691667Y-53969444D01*
X170102778Y-53969444D01*
X170102778Y-54675000D01*
X171513889Y-54675000D01*
X171513889Y-53969444D01*
X172925000Y-53969444D01*
X172925000Y-54675000D01*
X173630556Y-54675000D01*
X173630556Y-53263889D01*
X172219444Y-53263889D01*
X172219444Y-51852778D01*
X172925000Y-51852778D01*
X172925000Y-52558333D01*
X173630556Y-52558333D01*
X173630556Y-51852778D01*
X172925000Y-51852778D01*
X172219444Y-51852778D01*
X172219444Y-51147222D01*
X170808333Y-51147222D01*
X170808333Y-50441667D01*
X172219444Y-50441667D01*
X172219444Y-51147222D01*
X173630556Y-51147222D01*
X173630556Y-49736111D01*
X172925000Y-49736111D01*
X172925000Y-50441667D01*
X172219444Y-50441667D01*
X170808333Y-50441667D01*
X170102778Y-50441667D01*
X170102778Y-49736111D01*
X168691667Y-49736111D01*
X168691667Y-49030556D01*
X167986111Y-49030556D01*
X167986111Y-48325000D01*
X168691667Y-48325000D01*
X168691667Y-47619444D01*
X169397222Y-47619444D01*
X169397222Y-48325000D01*
X170102778Y-48325000D01*
X170102778Y-49030556D01*
X170808333Y-49030556D01*
X170808333Y-49736111D01*
X171513889Y-49736111D01*
X171513889Y-49030556D01*
X170808333Y-49030556D01*
X170808333Y-47619444D01*
X169397222Y-47619444D01*
X169397222Y-46913889D01*
X170808333Y-46913889D01*
X170808333Y-47619444D01*
X171513889Y-47619444D01*
X171513889Y-48325000D01*
X172925000Y-48325000D01*
X172925000Y-46913889D01*
X170808333Y-46913889D01*
X169397222Y-46913889D01*
X167986111Y-46913889D01*
X167986111Y-44091667D01*
X165869444Y-44091667D01*
X165869444Y-43386111D01*
X164458333Y-43386111D01*
X164458333Y-42680556D01*
X165163889Y-42680556D01*
X166575000Y-42680556D01*
X166575000Y-43386111D01*
X167280556Y-43386111D01*
X167280556Y-42680556D01*
X166575000Y-42680556D01*
X165163889Y-42680556D01*
X165163889Y-41975000D01*
X166575000Y-41975000D01*
X166575000Y-41269444D01*
X168691667Y-41269444D01*
X168691667Y-46208333D01*
X173630556Y-46208333D01*
X173630556Y-41269444D01*
X168691667Y-41269444D01*
X166575000Y-41269444D01*
X163047222Y-41269444D01*
X163047222Y-41975000D01*
X162341667Y-41975000D01*
X162341667Y-41269444D01*
X161636111Y-41269444D01*
X161636111Y-41975000D01*
X160225000Y-41975000D01*
X160225000Y-42680556D01*
X159519444Y-42680556D01*
X159519444Y-41975000D01*
X158813889Y-41975000D01*
X158813889Y-44091667D01*
X159519444Y-44091667D01*
X159519444Y-45502778D01*
X158813889Y-45502778D01*
X158813889Y-47619444D01*
X158108333Y-47619444D01*
X158108333Y-46913889D01*
X157402778Y-46913889D01*
X157402778Y-47619444D01*
X156697222Y-47619444D01*
X156697222Y-49030556D01*
X155991667Y-49030556D01*
X155991667Y-48325000D01*
X155286111Y-48325000D01*
X155286111Y-47619444D01*
X153875000Y-47619444D01*
X153875000Y-48325000D01*
X153169444Y-48325000D01*
X151758333Y-48325000D01*
X151758333Y-46913889D01*
X153169444Y-46913889D01*
X153169444Y-47619444D01*
X153875000Y-47619444D01*
X153875000Y-46913889D01*
X153169444Y-46913889D01*
X151758333Y-46913889D01*
X151758333Y-41269444D01*
X153169444Y-41269444D01*
X153169444Y-46208333D01*
X158108333Y-46208333D01*
X158108333Y-41269444D01*
X153169444Y-41269444D01*
X151758333Y-41269444D01*
X151758333Y-39858333D01*
X175041667Y-39858333D01*
X175041667Y-63141667D01*
X175041667Y-63141667D01*
G37*
X175041667Y-63141667D02*
X151758333Y-63141667D01*
X151758333Y-56791667D01*
X153169444Y-56791667D01*
X153169444Y-61730556D01*
X158108333Y-61730556D01*
X158108333Y-59613889D01*
X159519444Y-59613889D01*
X159519444Y-60319444D01*
X160225000Y-60319444D01*
X160225000Y-59613889D01*
X159519444Y-59613889D01*
X158108333Y-59613889D01*
X158108333Y-56791667D01*
X153169444Y-56791667D01*
X151758333Y-56791667D01*
X151758333Y-48325000D01*
X153169444Y-48325000D01*
X153169444Y-56086111D01*
X153875000Y-56086111D01*
X153875000Y-55380556D01*
X154580556Y-55380556D01*
X154580556Y-56086111D01*
X155286111Y-56086111D01*
X155286111Y-55380556D01*
X154580556Y-55380556D01*
X153875000Y-55380556D01*
X153875000Y-54675000D01*
X154580556Y-54675000D01*
X154580556Y-53969444D01*
X155286111Y-53969444D01*
X155286111Y-54675000D01*
X155991667Y-54675000D01*
X155991667Y-56086111D01*
X156697222Y-56086111D01*
X156697222Y-55380556D01*
X157402778Y-55380556D01*
X157402778Y-56086111D01*
X158813889Y-56086111D01*
X158813889Y-56791667D01*
X160225000Y-56791667D01*
X160225000Y-57497222D01*
X159519444Y-57497222D01*
X159519444Y-58908333D01*
X160930556Y-58908333D01*
X160930556Y-58202778D01*
X162341667Y-58202778D01*
X162341667Y-58908333D01*
X161636111Y-58908333D01*
X161636111Y-59613889D01*
X160930556Y-59613889D01*
X160930556Y-61025000D01*
X158813889Y-61025000D01*
X158813889Y-61730556D01*
X165869444Y-61730556D01*
X165869444Y-61025000D01*
X166575000Y-61025000D01*
X166575000Y-61730556D01*
X167280556Y-61730556D01*
X167280556Y-61025000D01*
X166575000Y-61025000D01*
X165869444Y-61025000D01*
X165163889Y-61025000D01*
X165163889Y-60319444D01*
X165869444Y-60319444D01*
X165869444Y-59613889D01*
X166575000Y-59613889D01*
X166575000Y-60319444D01*
X168691667Y-60319444D01*
X168691667Y-61730556D01*
X170808333Y-61730556D01*
X170808333Y-61025000D01*
X171513889Y-61025000D01*
X171513889Y-61730556D01*
X172219444Y-61730556D01*
X172219444Y-60319444D01*
X172925000Y-60319444D01*
X172925000Y-61025000D01*
X173630556Y-61025000D01*
X173630556Y-60319444D01*
X172925000Y-60319444D01*
X172925000Y-59613889D01*
X172219444Y-59613889D01*
X172219444Y-58908333D01*
X171513889Y-58908333D01*
X171513889Y-58202778D01*
X172925000Y-58202778D01*
X172925000Y-59613889D01*
X173630556Y-59613889D01*
X173630556Y-58202778D01*
X172925000Y-58202778D01*
X171513889Y-58202778D01*
X170808333Y-58202778D01*
X170808333Y-57497222D01*
X172219444Y-57497222D01*
X172219444Y-56791667D01*
X171513889Y-56791667D01*
X171513889Y-56086111D01*
X170808333Y-56086111D01*
X170808333Y-55380556D01*
X171513889Y-55380556D01*
X171513889Y-56086111D01*
X173630556Y-56086111D01*
X173630556Y-55380556D01*
X171513889Y-55380556D01*
X170808333Y-55380556D01*
X169397222Y-55380556D01*
X169397222Y-54675000D01*
X168691667Y-54675000D01*
X168691667Y-55380556D01*
X167986111Y-55380556D01*
X167986111Y-54675000D01*
X167280556Y-54675000D01*
X167280556Y-52558333D01*
X167986111Y-52558333D01*
X167986111Y-53263889D01*
X168691667Y-53263889D01*
X168691667Y-52558333D01*
X167986111Y-52558333D01*
X167280556Y-52558333D01*
X167280556Y-51852778D01*
X168691667Y-51852778D01*
X168691667Y-51147222D01*
X170102778Y-51147222D01*
X170102778Y-51852778D01*
X169397222Y-51852778D01*
X169397222Y-53263889D01*
X168691667Y-53263889D01*
X168691667Y-53969444D01*
X170102778Y-53969444D01*
X170102778Y-54675000D01*
X171513889Y-54675000D01*
X171513889Y-53969444D01*
X172925000Y-53969444D01*
X172925000Y-54675000D01*
X173630556Y-54675000D01*
X173630556Y-53263889D01*
X172219444Y-53263889D01*
X172219444Y-51852778D01*
X172925000Y-51852778D01*
X172925000Y-52558333D01*
X173630556Y-52558333D01*
X173630556Y-51852778D01*
X172925000Y-51852778D01*
X172219444Y-51852778D01*
X172219444Y-51147222D01*
X170808333Y-51147222D01*
X170808333Y-50441667D01*
X172219444Y-50441667D01*
X172219444Y-51147222D01*
X173630556Y-51147222D01*
X173630556Y-49736111D01*
X172925000Y-49736111D01*
X172925000Y-50441667D01*
X172219444Y-50441667D01*
X170808333Y-50441667D01*
X170102778Y-50441667D01*
X170102778Y-49736111D01*
X168691667Y-49736111D01*
X168691667Y-49030556D01*
X167986111Y-49030556D01*
X167986111Y-48325000D01*
X168691667Y-48325000D01*
X168691667Y-47619444D01*
X169397222Y-47619444D01*
X169397222Y-48325000D01*
X170102778Y-48325000D01*
X170102778Y-49030556D01*
X170808333Y-49030556D01*
X170808333Y-49736111D01*
X171513889Y-49736111D01*
X171513889Y-49030556D01*
X170808333Y-49030556D01*
X170808333Y-47619444D01*
X169397222Y-47619444D01*
X169397222Y-46913889D01*
X170808333Y-46913889D01*
X170808333Y-47619444D01*
X171513889Y-47619444D01*
X171513889Y-48325000D01*
X172925000Y-48325000D01*
X172925000Y-46913889D01*
X170808333Y-46913889D01*
X169397222Y-46913889D01*
X167986111Y-46913889D01*
X167986111Y-44091667D01*
X165869444Y-44091667D01*
X165869444Y-43386111D01*
X164458333Y-43386111D01*
X164458333Y-42680556D01*
X165163889Y-42680556D01*
X166575000Y-42680556D01*
X166575000Y-43386111D01*
X167280556Y-43386111D01*
X167280556Y-42680556D01*
X166575000Y-42680556D01*
X165163889Y-42680556D01*
X165163889Y-41975000D01*
X166575000Y-41975000D01*
X166575000Y-41269444D01*
X168691667Y-41269444D01*
X168691667Y-46208333D01*
X173630556Y-46208333D01*
X173630556Y-41269444D01*
X168691667Y-41269444D01*
X166575000Y-41269444D01*
X163047222Y-41269444D01*
X163047222Y-41975000D01*
X162341667Y-41975000D01*
X162341667Y-41269444D01*
X161636111Y-41269444D01*
X161636111Y-41975000D01*
X160225000Y-41975000D01*
X160225000Y-42680556D01*
X159519444Y-42680556D01*
X159519444Y-41975000D01*
X158813889Y-41975000D01*
X158813889Y-44091667D01*
X159519444Y-44091667D01*
X159519444Y-45502778D01*
X158813889Y-45502778D01*
X158813889Y-47619444D01*
X158108333Y-47619444D01*
X158108333Y-46913889D01*
X157402778Y-46913889D01*
X157402778Y-47619444D01*
X156697222Y-47619444D01*
X156697222Y-49030556D01*
X155991667Y-49030556D01*
X155991667Y-48325000D01*
X155286111Y-48325000D01*
X155286111Y-47619444D01*
X153875000Y-47619444D01*
X153875000Y-48325000D01*
X153169444Y-48325000D01*
X151758333Y-48325000D01*
X151758333Y-46913889D01*
X153169444Y-46913889D01*
X153169444Y-47619444D01*
X153875000Y-47619444D01*
X153875000Y-46913889D01*
X153169444Y-46913889D01*
X151758333Y-46913889D01*
X151758333Y-41269444D01*
X153169444Y-41269444D01*
X153169444Y-46208333D01*
X158108333Y-46208333D01*
X158108333Y-41269444D01*
X153169444Y-41269444D01*
X151758333Y-41269444D01*
X151758333Y-39858333D01*
X175041667Y-39858333D01*
X175041667Y-63141667D01*
G36*
X157402778Y-61025000D02*
X153875000Y-61025000D01*
X153875000Y-58202778D01*
X154580556Y-58202778D01*
X154580556Y-60319444D01*
X156697222Y-60319444D01*
X156697222Y-58202778D01*
X154580556Y-58202778D01*
X153875000Y-58202778D01*
X153875000Y-57497222D01*
X157402778Y-57497222D01*
X157402778Y-61025000D01*
X157402778Y-61025000D01*
G37*
X157402778Y-61025000D02*
X153875000Y-61025000D01*
X153875000Y-58202778D01*
X154580556Y-58202778D01*
X154580556Y-60319444D01*
X156697222Y-60319444D01*
X156697222Y-58202778D01*
X154580556Y-58202778D01*
X153875000Y-58202778D01*
X153875000Y-57497222D01*
X157402778Y-57497222D01*
X157402778Y-61025000D01*
G36*
X163047222Y-60319444D02*
X163752778Y-60319444D01*
X163752778Y-61025000D01*
X162341667Y-61025000D01*
X162341667Y-60319444D01*
X161636111Y-60319444D01*
X161636111Y-59613889D01*
X162341667Y-59613889D01*
X162341667Y-58908333D01*
X163047222Y-58908333D01*
X163047222Y-60319444D01*
X163047222Y-60319444D01*
G37*
X163047222Y-60319444D02*
X163752778Y-60319444D01*
X163752778Y-61025000D01*
X162341667Y-61025000D01*
X162341667Y-60319444D01*
X161636111Y-60319444D01*
X161636111Y-59613889D01*
X162341667Y-59613889D01*
X162341667Y-58908333D01*
X163047222Y-58908333D01*
X163047222Y-60319444D01*
G36*
X170808333Y-61025000D02*
X170102778Y-61025000D01*
X170102778Y-60319444D01*
X170808333Y-60319444D01*
X170808333Y-61025000D01*
X170808333Y-61025000D01*
G37*
X170808333Y-61025000D02*
X170102778Y-61025000D01*
X170102778Y-60319444D01*
X170808333Y-60319444D01*
X170808333Y-61025000D01*
G36*
X165163889Y-60319444D02*
X164458333Y-60319444D01*
X164458333Y-59613889D01*
X165163889Y-59613889D01*
X165163889Y-60319444D01*
X165163889Y-60319444D01*
G37*
X165163889Y-60319444D02*
X164458333Y-60319444D01*
X164458333Y-59613889D01*
X165163889Y-59613889D01*
X165163889Y-60319444D01*
G36*
X170808333Y-59613889D02*
X168691667Y-59613889D01*
X168691667Y-58908333D01*
X170808333Y-58908333D01*
X170808333Y-59613889D01*
X170808333Y-59613889D01*
G37*
X170808333Y-59613889D02*
X168691667Y-59613889D01*
X168691667Y-58908333D01*
X170808333Y-58908333D01*
X170808333Y-59613889D01*
G36*
X164458333Y-56791667D02*
X165869444Y-56791667D01*
X165869444Y-58202778D01*
X166575000Y-58202778D01*
X166575000Y-58908333D01*
X165163889Y-58908333D01*
X165163889Y-57497222D01*
X164458333Y-57497222D01*
X164458333Y-56791667D01*
X164458333Y-56791667D01*
G37*
X164458333Y-56791667D02*
X165869444Y-56791667D01*
X165869444Y-58202778D01*
X166575000Y-58202778D01*
X166575000Y-58908333D01*
X165163889Y-58908333D01*
X165163889Y-57497222D01*
X164458333Y-57497222D01*
X164458333Y-56791667D01*
G36*
X167280556Y-56791667D02*
X166575000Y-56791667D01*
X166575000Y-56086111D01*
X167280556Y-56086111D01*
X167280556Y-56791667D01*
X167280556Y-56791667D01*
G37*
X167280556Y-56791667D02*
X166575000Y-56791667D01*
X166575000Y-56086111D01*
X167280556Y-56086111D01*
X167280556Y-56791667D01*
G36*
X159519444Y-55380556D02*
X158813889Y-55380556D01*
X158813889Y-54675000D01*
X159519444Y-54675000D01*
X159519444Y-55380556D01*
X159519444Y-55380556D01*
G37*
X159519444Y-55380556D02*
X158813889Y-55380556D01*
X158813889Y-54675000D01*
X159519444Y-54675000D01*
X159519444Y-55380556D01*
G36*
X158108333Y-55380556D02*
X157402778Y-55380556D01*
X157402778Y-54675000D01*
X158108333Y-54675000D01*
X158108333Y-55380556D01*
X158108333Y-55380556D01*
G37*
X158108333Y-55380556D02*
X157402778Y-55380556D01*
X157402778Y-54675000D01*
X158108333Y-54675000D01*
X158108333Y-55380556D01*
G36*
X157402778Y-53263889D02*
X158108333Y-53263889D01*
X158108333Y-53969444D01*
X156697222Y-53969444D01*
X156697222Y-54675000D01*
X155991667Y-54675000D01*
X155991667Y-53969444D01*
X155286111Y-53969444D01*
X155286111Y-53263889D01*
X155991667Y-53263889D01*
X155991667Y-52558333D01*
X157402778Y-52558333D01*
X157402778Y-53263889D01*
X157402778Y-53263889D01*
G37*
X157402778Y-53263889D02*
X158108333Y-53263889D01*
X158108333Y-53969444D01*
X156697222Y-53969444D01*
X156697222Y-54675000D01*
X155991667Y-54675000D01*
X155991667Y-53969444D01*
X155286111Y-53969444D01*
X155286111Y-53263889D01*
X155991667Y-53263889D01*
X155991667Y-52558333D01*
X157402778Y-52558333D01*
X157402778Y-53263889D01*
G36*
X158813889Y-54675000D02*
X158108333Y-54675000D01*
X158108333Y-53969444D01*
X158813889Y-53969444D01*
X158813889Y-54675000D01*
X158813889Y-54675000D01*
G37*
X158813889Y-54675000D02*
X158108333Y-54675000D01*
X158108333Y-53969444D01*
X158813889Y-53969444D01*
X158813889Y-54675000D01*
G36*
X154580556Y-53969444D02*
X153875000Y-53969444D01*
X153875000Y-53263889D01*
X154580556Y-53263889D01*
X154580556Y-53969444D01*
X154580556Y-53969444D01*
G37*
X154580556Y-53969444D02*
X153875000Y-53969444D01*
X153875000Y-53263889D01*
X154580556Y-53263889D01*
X154580556Y-53969444D01*
G36*
X158813889Y-53263889D02*
X158108333Y-53263889D01*
X158108333Y-52558333D01*
X158813889Y-52558333D01*
X158813889Y-53263889D01*
X158813889Y-53263889D01*
G37*
X158813889Y-53263889D02*
X158108333Y-53263889D01*
X158108333Y-52558333D01*
X158813889Y-52558333D01*
X158813889Y-53263889D01*
G36*
X155991667Y-52558333D02*
X155286111Y-52558333D01*
X155286111Y-53263889D01*
X154580556Y-53263889D01*
X154580556Y-52558333D01*
X153875000Y-52558333D01*
X153875000Y-51852778D01*
X155991667Y-51852778D01*
X155991667Y-52558333D01*
X155991667Y-52558333D01*
G37*
X155991667Y-52558333D02*
X155286111Y-52558333D01*
X155286111Y-53263889D01*
X154580556Y-53263889D01*
X154580556Y-52558333D01*
X153875000Y-52558333D01*
X153875000Y-51852778D01*
X155991667Y-51852778D01*
X155991667Y-52558333D01*
G36*
X159519444Y-52558333D02*
X158813889Y-52558333D01*
X158813889Y-51852778D01*
X159519444Y-51852778D01*
X159519444Y-52558333D01*
X159519444Y-52558333D01*
G37*
X159519444Y-52558333D02*
X158813889Y-52558333D01*
X158813889Y-51852778D01*
X159519444Y-51852778D01*
X159519444Y-52558333D01*
G36*
X162341667Y-49736111D02*
X161636111Y-49736111D01*
X161636111Y-50441667D01*
X160930556Y-50441667D01*
X160930556Y-51147222D01*
X158813889Y-51147222D01*
X158813889Y-51852778D01*
X158108333Y-51852778D01*
X158108333Y-51147222D01*
X157402778Y-51147222D01*
X157402778Y-50441667D01*
X160225000Y-50441667D01*
X160225000Y-49736111D01*
X160930556Y-49736111D01*
X160930556Y-49030556D01*
X162341667Y-49030556D01*
X162341667Y-49736111D01*
X162341667Y-49736111D01*
G37*
X162341667Y-49736111D02*
X161636111Y-49736111D01*
X161636111Y-50441667D01*
X160930556Y-50441667D01*
X160930556Y-51147222D01*
X158813889Y-51147222D01*
X158813889Y-51852778D01*
X158108333Y-51852778D01*
X158108333Y-51147222D01*
X157402778Y-51147222D01*
X157402778Y-50441667D01*
X160225000Y-50441667D01*
X160225000Y-49736111D01*
X160930556Y-49736111D01*
X160930556Y-49030556D01*
X162341667Y-49030556D01*
X162341667Y-49736111D01*
G36*
X156697222Y-51852778D02*
X155991667Y-51852778D01*
X155991667Y-51147222D01*
X156697222Y-51147222D01*
X156697222Y-51852778D01*
X156697222Y-51852778D01*
G37*
X156697222Y-51852778D02*
X155991667Y-51852778D01*
X155991667Y-51147222D01*
X156697222Y-51147222D01*
X156697222Y-51852778D01*
G36*
X167986111Y-49736111D02*
X168691667Y-49736111D01*
X168691667Y-51147222D01*
X167986111Y-51147222D01*
X167986111Y-50441667D01*
X167280556Y-50441667D01*
X167280556Y-49030556D01*
X167986111Y-49030556D01*
X167986111Y-49736111D01*
X167986111Y-49736111D01*
G37*
X167986111Y-49736111D02*
X168691667Y-49736111D01*
X168691667Y-51147222D01*
X167986111Y-51147222D01*
X167986111Y-50441667D01*
X167280556Y-50441667D01*
X167280556Y-49030556D01*
X167986111Y-49030556D01*
X167986111Y-49736111D01*
G36*
X159519444Y-49736111D02*
X156697222Y-49736111D01*
X156697222Y-49030556D01*
X159519444Y-49030556D01*
X159519444Y-49736111D01*
X159519444Y-49736111D01*
G37*
X159519444Y-49736111D02*
X156697222Y-49736111D01*
X156697222Y-49030556D01*
X159519444Y-49030556D01*
X159519444Y-49736111D01*
G36*
X167986111Y-48325000D02*
X167280556Y-48325000D01*
X167280556Y-47619444D01*
X166575000Y-47619444D01*
X166575000Y-46913889D01*
X167986111Y-46913889D01*
X167986111Y-48325000D01*
X167986111Y-48325000D01*
G37*
X167986111Y-48325000D02*
X167280556Y-48325000D01*
X167280556Y-47619444D01*
X166575000Y-47619444D01*
X166575000Y-46913889D01*
X167986111Y-46913889D01*
X167986111Y-48325000D01*
G36*
X161636111Y-46208333D02*
X160930556Y-46208333D01*
X160930556Y-45502778D01*
X161636111Y-45502778D01*
X161636111Y-46208333D01*
X161636111Y-46208333D01*
G37*
X161636111Y-46208333D02*
X160930556Y-46208333D01*
X160930556Y-45502778D01*
X161636111Y-45502778D01*
X161636111Y-46208333D01*
G36*
X160225000Y-46208333D02*
X159519444Y-46208333D01*
X159519444Y-45502778D01*
X160225000Y-45502778D01*
X160225000Y-46208333D01*
X160225000Y-46208333D01*
G37*
X160225000Y-46208333D02*
X159519444Y-46208333D01*
X159519444Y-45502778D01*
X160225000Y-45502778D01*
X160225000Y-46208333D01*
G36*
X162341667Y-43386111D02*
X161636111Y-43386111D01*
X161636111Y-44797222D01*
X160930556Y-44797222D01*
X160930556Y-45502778D01*
X160225000Y-45502778D01*
X160225000Y-44091667D01*
X160930556Y-44091667D01*
X160930556Y-42680556D01*
X162341667Y-42680556D01*
X162341667Y-43386111D01*
X162341667Y-43386111D01*
G37*
X162341667Y-43386111D02*
X161636111Y-43386111D01*
X161636111Y-44797222D01*
X160930556Y-44797222D01*
X160930556Y-45502778D01*
X160225000Y-45502778D01*
X160225000Y-44091667D01*
X160930556Y-44091667D01*
X160930556Y-42680556D01*
X162341667Y-42680556D01*
X162341667Y-43386111D01*
G36*
X160225000Y-44091667D02*
X159519444Y-44091667D01*
X159519444Y-43386111D01*
X160225000Y-43386111D01*
X160225000Y-44091667D01*
X160225000Y-44091667D01*
G37*
X160225000Y-44091667D02*
X159519444Y-44091667D01*
X159519444Y-43386111D01*
X160225000Y-43386111D01*
X160225000Y-44091667D01*
G36*
X164458333Y-42680556D02*
X163752778Y-42680556D01*
X163752778Y-41975000D01*
X164458333Y-41975000D01*
X164458333Y-42680556D01*
X164458333Y-42680556D01*
G37*
X164458333Y-42680556D02*
X163752778Y-42680556D01*
X163752778Y-41975000D01*
X164458333Y-41975000D01*
X164458333Y-42680556D01*
G36*
X164458333Y-58202778D02*
X163752778Y-58202778D01*
X163752778Y-57497222D01*
X164458333Y-57497222D01*
X164458333Y-58202778D01*
X164458333Y-58202778D01*
G37*
X164458333Y-58202778D02*
X163752778Y-58202778D01*
X163752778Y-57497222D01*
X164458333Y-57497222D01*
X164458333Y-58202778D01*
G36*
X160930556Y-58202778D02*
X160225000Y-58202778D01*
X160225000Y-57497222D01*
X160930556Y-57497222D01*
X160930556Y-58202778D01*
X160930556Y-58202778D01*
G37*
X160930556Y-58202778D02*
X160225000Y-58202778D01*
X160225000Y-57497222D01*
X160930556Y-57497222D01*
X160930556Y-58202778D01*
G36*
X156697222Y-49736111D02*
X156697222Y-50441667D01*
X155991667Y-50441667D01*
X155991667Y-51147222D01*
X155286111Y-51147222D01*
X155286111Y-50441667D01*
X154580556Y-50441667D01*
X154580556Y-51147222D01*
X153875000Y-51147222D01*
X153875000Y-49736111D01*
X155286111Y-49736111D01*
X155286111Y-50441667D01*
X155991667Y-50441667D01*
X155991667Y-49736111D01*
X155286111Y-49736111D01*
X153875000Y-49736111D01*
X153875000Y-48325000D01*
X155286111Y-48325000D01*
X155286111Y-49030556D01*
X155991667Y-49030556D01*
X155991667Y-49736111D01*
X156697222Y-49736111D01*
X156697222Y-49736111D01*
G37*
X156697222Y-49736111D02*
X156697222Y-50441667D01*
X155991667Y-50441667D01*
X155991667Y-51147222D01*
X155286111Y-51147222D01*
X155286111Y-50441667D01*
X154580556Y-50441667D01*
X154580556Y-51147222D01*
X153875000Y-51147222D01*
X153875000Y-49736111D01*
X155286111Y-49736111D01*
X155286111Y-50441667D01*
X155991667Y-50441667D01*
X155991667Y-49736111D01*
X155286111Y-49736111D01*
X153875000Y-49736111D01*
X153875000Y-48325000D01*
X155286111Y-48325000D01*
X155286111Y-49030556D01*
X155991667Y-49030556D01*
X155991667Y-49736111D01*
X156697222Y-49736111D01*
G36*
X162341667Y-47619444D02*
X162341667Y-48325000D01*
X160930556Y-48325000D01*
X160930556Y-49030556D01*
X159519444Y-49030556D01*
X159519444Y-48325000D01*
X158813889Y-48325000D01*
X158813889Y-47619444D01*
X159519444Y-47619444D01*
X160225000Y-47619444D01*
X160225000Y-48325000D01*
X160930556Y-48325000D01*
X160930556Y-47619444D01*
X160225000Y-47619444D01*
X159519444Y-47619444D01*
X159519444Y-46913889D01*
X160930556Y-46913889D01*
X160930556Y-47619444D01*
X162341667Y-47619444D01*
X162341667Y-47619444D01*
G37*
X162341667Y-47619444D02*
X162341667Y-48325000D01*
X160930556Y-48325000D01*
X160930556Y-49030556D01*
X159519444Y-49030556D01*
X159519444Y-48325000D01*
X158813889Y-48325000D01*
X158813889Y-47619444D01*
X159519444Y-47619444D01*
X160225000Y-47619444D01*
X160225000Y-48325000D01*
X160930556Y-48325000D01*
X160930556Y-47619444D01*
X160225000Y-47619444D01*
X159519444Y-47619444D01*
X159519444Y-46913889D01*
X160930556Y-46913889D01*
X160930556Y-47619444D01*
X162341667Y-47619444D01*
G36*
X167280556Y-44797222D02*
X167280556Y-46208333D01*
X166575000Y-46208333D01*
X166575000Y-46913889D01*
X165163889Y-46913889D01*
X165163889Y-48325000D01*
X164458333Y-48325000D01*
X164458333Y-46913889D01*
X163752778Y-46913889D01*
X163752778Y-48325000D01*
X163047222Y-48325000D01*
X163047222Y-47619444D01*
X162341667Y-47619444D01*
X162341667Y-45502778D01*
X163047222Y-45502778D01*
X163047222Y-46913889D01*
X163752778Y-46913889D01*
X163752778Y-45502778D01*
X164458333Y-45502778D01*
X164458333Y-46913889D01*
X165163889Y-46913889D01*
X165163889Y-45502778D01*
X164458333Y-45502778D01*
X163752778Y-45502778D01*
X163047222Y-45502778D01*
X162341667Y-45502778D01*
X162341667Y-43386111D01*
X163047222Y-43386111D01*
X163047222Y-42680556D01*
X163752778Y-42680556D01*
X163752778Y-44091667D01*
X164458333Y-44091667D01*
X164458333Y-44797222D01*
X165163889Y-44797222D01*
X165163889Y-45502778D01*
X165869444Y-45502778D01*
X165869444Y-46208333D01*
X166575000Y-46208333D01*
X166575000Y-45502778D01*
X165869444Y-45502778D01*
X165869444Y-44797222D01*
X165163889Y-44797222D01*
X165163889Y-44091667D01*
X165869444Y-44091667D01*
X165869444Y-44797222D01*
X167280556Y-44797222D01*
X167280556Y-44797222D01*
G37*
X167280556Y-44797222D02*
X167280556Y-46208333D01*
X166575000Y-46208333D01*
X166575000Y-46913889D01*
X165163889Y-46913889D01*
X165163889Y-48325000D01*
X164458333Y-48325000D01*
X164458333Y-46913889D01*
X163752778Y-46913889D01*
X163752778Y-48325000D01*
X163047222Y-48325000D01*
X163047222Y-47619444D01*
X162341667Y-47619444D01*
X162341667Y-45502778D01*
X163047222Y-45502778D01*
X163047222Y-46913889D01*
X163752778Y-46913889D01*
X163752778Y-45502778D01*
X164458333Y-45502778D01*
X164458333Y-46913889D01*
X165163889Y-46913889D01*
X165163889Y-45502778D01*
X164458333Y-45502778D01*
X163752778Y-45502778D01*
X163047222Y-45502778D01*
X162341667Y-45502778D01*
X162341667Y-43386111D01*
X163047222Y-43386111D01*
X163047222Y-42680556D01*
X163752778Y-42680556D01*
X163752778Y-44091667D01*
X164458333Y-44091667D01*
X164458333Y-44797222D01*
X165163889Y-44797222D01*
X165163889Y-45502778D01*
X165869444Y-45502778D01*
X165869444Y-46208333D01*
X166575000Y-46208333D01*
X166575000Y-45502778D01*
X165869444Y-45502778D01*
X165869444Y-44797222D01*
X165163889Y-44797222D01*
X165163889Y-44091667D01*
X165869444Y-44091667D01*
X165869444Y-44797222D01*
X167280556Y-44797222D01*
G36*
X160930556Y-55380556D02*
X160225000Y-55380556D01*
X160225000Y-54675000D01*
X160930556Y-54675000D01*
X160930556Y-55380556D01*
X161636111Y-55380556D01*
X161636111Y-54675000D01*
X160930556Y-54675000D01*
X160225000Y-54675000D01*
X160225000Y-53263889D01*
X160930556Y-53263889D01*
X160930556Y-53969444D01*
X161636111Y-53969444D01*
X161636111Y-54675000D01*
X162341667Y-54675000D01*
X162341667Y-55380556D01*
X163047222Y-55380556D01*
X163047222Y-54675000D01*
X162341667Y-54675000D01*
X162341667Y-53969444D01*
X161636111Y-53969444D01*
X161636111Y-53263889D01*
X162341667Y-53263889D01*
X162341667Y-53969444D01*
X163752778Y-53969444D01*
X163752778Y-54675000D01*
X164458333Y-54675000D01*
X164458333Y-55380556D01*
X165163889Y-55380556D01*
X165163889Y-54675000D01*
X164458333Y-54675000D01*
X164458333Y-53969444D01*
X165163889Y-53969444D01*
X165163889Y-53263889D01*
X162341667Y-53263889D01*
X161636111Y-53263889D01*
X161636111Y-52558333D01*
X160930556Y-52558333D01*
X160930556Y-51852778D01*
X161636111Y-51852778D01*
X161636111Y-52558333D01*
X162341667Y-52558333D01*
X165163889Y-52558333D01*
X165163889Y-53263889D01*
X165869444Y-53263889D01*
X165869444Y-52558333D01*
X165163889Y-52558333D01*
X162341667Y-52558333D01*
X162341667Y-51852778D01*
X161636111Y-51852778D01*
X161636111Y-51147222D01*
X162341667Y-51147222D01*
X162341667Y-50441667D01*
X163047222Y-50441667D01*
X163752778Y-50441667D01*
X163752778Y-51852778D01*
X165163889Y-51852778D01*
X165163889Y-49736111D01*
X164458333Y-49736111D01*
X164458333Y-50441667D01*
X163752778Y-50441667D01*
X163047222Y-50441667D01*
X163047222Y-49030556D01*
X165869444Y-49030556D01*
X165869444Y-48325000D01*
X167280556Y-48325000D01*
X167280556Y-49030556D01*
X166575000Y-49030556D01*
X166575000Y-49736111D01*
X165869444Y-49736111D01*
X165869444Y-50441667D01*
X166575000Y-50441667D01*
X166575000Y-51147222D01*
X167280556Y-51147222D01*
X167280556Y-51852778D01*
X165869444Y-51852778D01*
X165869444Y-52558333D01*
X166575000Y-52558333D01*
X166575000Y-53263889D01*
X165869444Y-53263889D01*
X165869444Y-54675000D01*
X167280556Y-54675000D01*
X167280556Y-55380556D01*
X166575000Y-55380556D01*
X166575000Y-56086111D01*
X165869444Y-56086111D01*
X165869444Y-55380556D01*
X165163889Y-55380556D01*
X165163889Y-56086111D01*
X163752778Y-56086111D01*
X163752778Y-55380556D01*
X163047222Y-55380556D01*
X163047222Y-56791667D01*
X163752778Y-56791667D01*
X163752778Y-57497222D01*
X163047222Y-57497222D01*
X163047222Y-58202778D01*
X162341667Y-58202778D01*
X162341667Y-57497222D01*
X160930556Y-57497222D01*
X160930556Y-56086111D01*
X161636111Y-56086111D01*
X161636111Y-56791667D01*
X162341667Y-56791667D01*
X162341667Y-56086111D01*
X161636111Y-56086111D01*
X160930556Y-56086111D01*
X160930556Y-55380556D01*
X160930556Y-55380556D01*
G37*
X160930556Y-55380556D02*
X160225000Y-55380556D01*
X160225000Y-54675000D01*
X160930556Y-54675000D01*
X160930556Y-55380556D01*
X161636111Y-55380556D01*
X161636111Y-54675000D01*
X160930556Y-54675000D01*
X160225000Y-54675000D01*
X160225000Y-53263889D01*
X160930556Y-53263889D01*
X160930556Y-53969444D01*
X161636111Y-53969444D01*
X161636111Y-54675000D01*
X162341667Y-54675000D01*
X162341667Y-55380556D01*
X163047222Y-55380556D01*
X163047222Y-54675000D01*
X162341667Y-54675000D01*
X162341667Y-53969444D01*
X161636111Y-53969444D01*
X161636111Y-53263889D01*
X162341667Y-53263889D01*
X162341667Y-53969444D01*
X163752778Y-53969444D01*
X163752778Y-54675000D01*
X164458333Y-54675000D01*
X164458333Y-55380556D01*
X165163889Y-55380556D01*
X165163889Y-54675000D01*
X164458333Y-54675000D01*
X164458333Y-53969444D01*
X165163889Y-53969444D01*
X165163889Y-53263889D01*
X162341667Y-53263889D01*
X161636111Y-53263889D01*
X161636111Y-52558333D01*
X160930556Y-52558333D01*
X160930556Y-51852778D01*
X161636111Y-51852778D01*
X161636111Y-52558333D01*
X162341667Y-52558333D01*
X165163889Y-52558333D01*
X165163889Y-53263889D01*
X165869444Y-53263889D01*
X165869444Y-52558333D01*
X165163889Y-52558333D01*
X162341667Y-52558333D01*
X162341667Y-51852778D01*
X161636111Y-51852778D01*
X161636111Y-51147222D01*
X162341667Y-51147222D01*
X162341667Y-50441667D01*
X163047222Y-50441667D01*
X163752778Y-50441667D01*
X163752778Y-51852778D01*
X165163889Y-51852778D01*
X165163889Y-49736111D01*
X164458333Y-49736111D01*
X164458333Y-50441667D01*
X163752778Y-50441667D01*
X163047222Y-50441667D01*
X163047222Y-49030556D01*
X165869444Y-49030556D01*
X165869444Y-48325000D01*
X167280556Y-48325000D01*
X167280556Y-49030556D01*
X166575000Y-49030556D01*
X166575000Y-49736111D01*
X165869444Y-49736111D01*
X165869444Y-50441667D01*
X166575000Y-50441667D01*
X166575000Y-51147222D01*
X167280556Y-51147222D01*
X167280556Y-51852778D01*
X165869444Y-51852778D01*
X165869444Y-52558333D01*
X166575000Y-52558333D01*
X166575000Y-53263889D01*
X165869444Y-53263889D01*
X165869444Y-54675000D01*
X167280556Y-54675000D01*
X167280556Y-55380556D01*
X166575000Y-55380556D01*
X166575000Y-56086111D01*
X165869444Y-56086111D01*
X165869444Y-55380556D01*
X165163889Y-55380556D01*
X165163889Y-56086111D01*
X163752778Y-56086111D01*
X163752778Y-55380556D01*
X163047222Y-55380556D01*
X163047222Y-56791667D01*
X163752778Y-56791667D01*
X163752778Y-57497222D01*
X163047222Y-57497222D01*
X163047222Y-58202778D01*
X162341667Y-58202778D01*
X162341667Y-57497222D01*
X160930556Y-57497222D01*
X160930556Y-56086111D01*
X161636111Y-56086111D01*
X161636111Y-56791667D01*
X162341667Y-56791667D01*
X162341667Y-56086111D01*
X161636111Y-56086111D01*
X160930556Y-56086111D01*
X160930556Y-55380556D01*
G36*
X170102778Y-58202778D02*
X167986111Y-58202778D01*
X167986111Y-56791667D01*
X168691667Y-56791667D01*
X168691667Y-57497222D01*
X169397222Y-57497222D01*
X169397222Y-56791667D01*
X168691667Y-56791667D01*
X167986111Y-56791667D01*
X167986111Y-56086111D01*
X170102778Y-56086111D01*
X170102778Y-58202778D01*
X170102778Y-58202778D01*
G37*
X170102778Y-58202778D02*
X167986111Y-58202778D01*
X167986111Y-56791667D01*
X168691667Y-56791667D01*
X168691667Y-57497222D01*
X169397222Y-57497222D01*
X169397222Y-56791667D01*
X168691667Y-56791667D01*
X167986111Y-56791667D01*
X167986111Y-56086111D01*
X170102778Y-56086111D01*
X170102778Y-58202778D01*
G36*
X171513889Y-53969444D02*
X170808333Y-53969444D01*
X170808333Y-53263889D01*
X171513889Y-53263889D01*
X171513889Y-53969444D01*
X171513889Y-53969444D01*
G37*
X171513889Y-53969444D02*
X170808333Y-53969444D01*
X170808333Y-53263889D01*
X171513889Y-53263889D01*
X171513889Y-53969444D01*
G36*
X170808333Y-53263889D02*
X170102778Y-53263889D01*
X170102778Y-52558333D01*
X170808333Y-52558333D01*
X170808333Y-53263889D01*
X170808333Y-53263889D01*
G37*
X170808333Y-53263889D02*
X170102778Y-53263889D01*
X170102778Y-52558333D01*
X170808333Y-52558333D01*
X170808333Y-53263889D01*
G36*
X171513889Y-52558333D02*
X170808333Y-52558333D01*
X170808333Y-51852778D01*
X171513889Y-51852778D01*
X171513889Y-52558333D01*
X171513889Y-52558333D01*
G37*
X171513889Y-52558333D02*
X170808333Y-52558333D01*
X170808333Y-51852778D01*
X171513889Y-51852778D01*
X171513889Y-52558333D01*
G36*
X158108333Y-48325000D02*
X157402778Y-48325000D01*
X157402778Y-47619444D01*
X158108333Y-47619444D01*
X158108333Y-48325000D01*
X158108333Y-48325000D01*
G37*
X158108333Y-48325000D02*
X157402778Y-48325000D01*
X157402778Y-47619444D01*
X158108333Y-47619444D01*
X158108333Y-48325000D01*
G36*
X157402778Y-45502778D02*
X153875000Y-45502778D01*
X153875000Y-42680556D01*
X154580556Y-42680556D01*
X154580556Y-44797222D01*
X156697222Y-44797222D01*
X156697222Y-42680556D01*
X154580556Y-42680556D01*
X153875000Y-42680556D01*
X153875000Y-41975000D01*
X157402778Y-41975000D01*
X157402778Y-45502778D01*
X157402778Y-45502778D01*
G37*
X157402778Y-45502778D02*
X153875000Y-45502778D01*
X153875000Y-42680556D01*
X154580556Y-42680556D01*
X154580556Y-44797222D01*
X156697222Y-44797222D01*
X156697222Y-42680556D01*
X154580556Y-42680556D01*
X153875000Y-42680556D01*
X153875000Y-41975000D01*
X157402778Y-41975000D01*
X157402778Y-45502778D01*
G36*
X172925000Y-45502778D02*
X169397222Y-45502778D01*
X169397222Y-42680556D01*
X170102778Y-42680556D01*
X170102778Y-44797222D01*
X172219444Y-44797222D01*
X172219444Y-42680556D01*
X170102778Y-42680556D01*
X169397222Y-42680556D01*
X169397222Y-41975000D01*
X172925000Y-41975000D01*
X172925000Y-45502778D01*
X172925000Y-45502778D01*
G37*
X172925000Y-45502778D02*
X169397222Y-45502778D01*
X169397222Y-42680556D01*
X170102778Y-42680556D01*
X170102778Y-44797222D01*
X172219444Y-44797222D01*
X172219444Y-42680556D01*
X170102778Y-42680556D01*
X169397222Y-42680556D01*
X169397222Y-41975000D01*
X172925000Y-41975000D01*
X172925000Y-45502778D01*
G36*
X158108333Y-52558333D02*
X157402778Y-52558333D01*
X157402778Y-51852778D01*
X158108333Y-51852778D01*
X158108333Y-52558333D01*
X158108333Y-52558333D01*
G37*
X158108333Y-52558333D02*
X157402778Y-52558333D01*
X157402778Y-51852778D01*
X158108333Y-51852778D01*
X158108333Y-52558333D01*
D16*
X131052381Y-66176190D02*
X130052381Y-66176190D01*
X130957143Y-65128571D02*
X131004762Y-65176190D01*
X131052381Y-65319047D01*
X131052381Y-65414285D01*
X131004762Y-65557143D01*
X130909524Y-65652381D01*
X130814286Y-65700000D01*
X130623810Y-65747619D01*
X130480952Y-65747619D01*
X130290476Y-65700000D01*
X130195238Y-65652381D01*
X130100000Y-65557143D01*
X130052381Y-65414285D01*
X130052381Y-65319047D01*
X130100000Y-65176190D01*
X130147619Y-65128571D01*
X131052381Y-64176190D02*
X131052381Y-64747619D01*
X131052381Y-64461905D02*
X130052381Y-64461905D01*
X130195238Y-64557143D01*
X130290476Y-64652381D01*
X130338095Y-64747619D01*
X124461905Y-39152381D02*
X124461905Y-38152381D01*
X124842858Y-38152381D01*
X124938096Y-38200000D01*
X124985715Y-38247619D01*
X125033334Y-38342857D01*
X125033334Y-38485714D01*
X124985715Y-38580952D01*
X124938096Y-38628571D01*
X124842858Y-38676190D01*
X124461905Y-38676190D01*
X125985715Y-39152381D02*
X125414286Y-39152381D01*
X125700000Y-39152381D02*
X125700000Y-38152381D01*
X125604762Y-38295238D01*
X125509524Y-38390476D01*
X125414286Y-38438095D01*
X125552381Y-51961905D02*
X126361905Y-51961905D01*
X126457143Y-51914286D01*
X126504762Y-51866667D01*
X126552381Y-51771429D01*
X126552381Y-51580952D01*
X126504762Y-51485714D01*
X126457143Y-51438095D01*
X126361905Y-51390476D01*
X125552381Y-51390476D01*
X126552381Y-50390476D02*
X126552381Y-50961905D01*
X126552381Y-50676191D02*
X125552381Y-50676191D01*
X125695238Y-50771429D01*
X125790476Y-50866667D01*
X125838095Y-50961905D01*
%LPC*%
D18*
X108905000Y-80470000D03*
X114655000Y-80470000D03*
X114655000Y-76470000D03*
X108905000Y-76470000D03*
D19*
X127660000Y-69600000D03*
X128460000Y-69600000D03*
X129260000Y-69600000D03*
X130060000Y-69600000D03*
X130860000Y-69600000D03*
X131660000Y-69600000D03*
X132460000Y-69600000D03*
X133260000Y-69600000D03*
D20*
X134710000Y-68150000D03*
X134710000Y-67350000D03*
X134710000Y-66550000D03*
X134710000Y-65750000D03*
X134710000Y-64950000D03*
X134710000Y-64150000D03*
X134710000Y-63350000D03*
X134710000Y-62550000D03*
D19*
X133260000Y-61100000D03*
X132460000Y-61100000D03*
X131660000Y-61100000D03*
X130860000Y-61100000D03*
X130060000Y-61100000D03*
X129260000Y-61100000D03*
X128460000Y-61100000D03*
X127660000Y-61100000D03*
D20*
X126210000Y-62550000D03*
X126210000Y-63350000D03*
X126210000Y-64150000D03*
X126210000Y-64950000D03*
X126210000Y-65750000D03*
X126210000Y-66550000D03*
X126210000Y-67350000D03*
X126210000Y-68150000D03*
D21*
X126850200Y-43449320D03*
X126050100Y-43449320D03*
X125250000Y-43449320D03*
X124449900Y-43449320D03*
X123649800Y-43449320D03*
D22*
X129700080Y-43350260D03*
X129700080Y-37851160D03*
X120799920Y-43350260D03*
X120799920Y-37851160D03*
D23*
X127449640Y-40850900D03*
X123050360Y-40850900D03*
D24*
X184600000Y-55000000D03*
D25*
X187140000Y-55000000D03*
X184600000Y-57540000D03*
X187140000Y-57540000D03*
X184600000Y-60080000D03*
X187140000Y-60080000D03*
X184600000Y-62620000D03*
X187140000Y-62620000D03*
X184600000Y-65160000D03*
X187140000Y-65160000D03*
D26*
X137100000Y-49600000D03*
D27*
X137100000Y-47060000D03*
X137100000Y-44520000D03*
X137100000Y-41980000D03*
D18*
X108825000Y-48570000D03*
X114575000Y-48570000D03*
X114575000Y-44570000D03*
X108825000Y-44570000D03*
X146455000Y-80730000D03*
X152205000Y-80730000D03*
X152205000Y-76730000D03*
X146455000Y-76730000D03*
X108875000Y-59110000D03*
X114625000Y-59110000D03*
X114625000Y-55110000D03*
X108875000Y-55110000D03*
X160455000Y-80730000D03*
X166205000Y-80730000D03*
X166205000Y-76730000D03*
X160455000Y-76730000D03*
X108875000Y-69670000D03*
X114625000Y-69670000D03*
X114625000Y-65670000D03*
X108875000Y-65670000D03*
X174455000Y-80730000D03*
X180205000Y-80730000D03*
X180205000Y-76730000D03*
X174455000Y-76730000D03*
D28*
X122098000Y-51300000D03*
D29*
X128702000Y-51300000D03*
X128702000Y-49014000D03*
X128702000Y-53586000D03*
D30*
X133200000Y-73800000D03*
X135400000Y-73800000D03*
X133200000Y-72200000D03*
X135400000Y-72200000D03*
D31*
X114050000Y-38610000D03*
X185900000Y-45300000D03*
M02*
