G04 #@! TF.FileFunction,Legend,Bot*
%FSLAX46Y46*%
G04 Gerber Fmt 4.6, Leading zero omitted, Abs format (unit mm)*
G04 Created by KiCad (PCBNEW 4.0.1-2.201512121406+6195~38~ubuntu14.04.1-stable) date Tue 15 Dec 2015 12:34:50 AM EET*
%MOMM*%
G01*
G04 APERTURE LIST*
%ADD10C,0.100000*%
%ADD11C,0.200000*%
%ADD12C,0.500000*%
%ADD13C,0.150000*%
%ADD14C,0.002000*%
%ADD15R,1.901140X3.399740*%
%ADD16R,1.900000X1.650000*%
%ADD17R,1.650000X1.900000*%
%ADD18R,3.399740X1.901140*%
%ADD19C,1.299160*%
%ADD20R,2.127200X2.127200*%
%ADD21O,2.127200X2.127200*%
%ADD22R,2.432000X2.127200*%
%ADD23O,2.432000X2.127200*%
%ADD24R,1.000000X2.400000*%
%ADD25R,3.400000X4.400000*%
%ADD26R,2.398980X3.399740*%
%ADD27R,1.700000X1.900000*%
%ADD28R,1.900000X1.700000*%
%ADD29R,4.464000X4.464000*%
%ADD30R,2.635200X2.635200*%
G04 APERTURE END LIST*
D10*
X153609523Y-86426190D02*
X153895237Y-86426190D01*
X153752380Y-86426190D02*
X153752380Y-85926190D01*
X153799999Y-85997619D01*
X153847618Y-86045238D01*
X153895237Y-86069048D01*
X153419047Y-85973810D02*
X153395237Y-85950000D01*
X153347618Y-85926190D01*
X153228571Y-85926190D01*
X153180952Y-85950000D01*
X153157142Y-85973810D01*
X153133333Y-86021429D01*
X153133333Y-86069048D01*
X153157142Y-86140476D01*
X153442856Y-86426190D01*
X153133333Y-86426190D01*
X152561905Y-85902381D02*
X152990476Y-86545238D01*
X152419047Y-85973810D02*
X152395237Y-85950000D01*
X152347618Y-85926190D01*
X152228571Y-85926190D01*
X152180952Y-85950000D01*
X152157142Y-85973810D01*
X152133333Y-86021429D01*
X152133333Y-86069048D01*
X152157142Y-86140476D01*
X152442856Y-86426190D01*
X152133333Y-86426190D01*
X151823809Y-85926190D02*
X151776190Y-85926190D01*
X151728571Y-85950000D01*
X151704762Y-85973810D01*
X151680952Y-86021429D01*
X151657143Y-86116667D01*
X151657143Y-86235714D01*
X151680952Y-86330952D01*
X151704762Y-86378571D01*
X151728571Y-86402381D01*
X151776190Y-86426190D01*
X151823809Y-86426190D01*
X151871428Y-86402381D01*
X151895238Y-86378571D01*
X151919047Y-86330952D01*
X151942857Y-86235714D01*
X151942857Y-86116667D01*
X151919047Y-86021429D01*
X151895238Y-85973810D01*
X151871428Y-85950000D01*
X151823809Y-85926190D01*
X151180953Y-86426190D02*
X151466667Y-86426190D01*
X151323810Y-86426190D02*
X151323810Y-85926190D01*
X151371429Y-85997619D01*
X151419048Y-86045238D01*
X151466667Y-86069048D01*
X150728572Y-85926190D02*
X150966667Y-85926190D01*
X150990477Y-86164286D01*
X150966667Y-86140476D01*
X150919048Y-86116667D01*
X150800001Y-86116667D01*
X150752382Y-86140476D01*
X150728572Y-86164286D01*
X150704763Y-86211905D01*
X150704763Y-86330952D01*
X150728572Y-86378571D01*
X150752382Y-86402381D01*
X150800001Y-86426190D01*
X150919048Y-86426190D01*
X150966667Y-86402381D01*
X150990477Y-86378571D01*
D11*
X155395238Y-85252381D02*
X155728572Y-84776190D01*
X155966667Y-85252381D02*
X155966667Y-84252381D01*
X155585714Y-84252381D01*
X155490476Y-84300000D01*
X155442857Y-84347619D01*
X155395238Y-84442857D01*
X155395238Y-84585714D01*
X155442857Y-84680952D01*
X155490476Y-84728571D01*
X155585714Y-84776190D01*
X155966667Y-84776190D01*
X154585714Y-85204762D02*
X154680952Y-85252381D01*
X154871429Y-85252381D01*
X154966667Y-85204762D01*
X155014286Y-85109524D01*
X155014286Y-84728571D01*
X154966667Y-84633333D01*
X154871429Y-84585714D01*
X154680952Y-84585714D01*
X154585714Y-84633333D01*
X154538095Y-84728571D01*
X154538095Y-84823810D01*
X155014286Y-84919048D01*
X154204762Y-84585714D02*
X153966667Y-85252381D01*
X153728571Y-84585714D01*
X153347619Y-85252381D02*
X153347619Y-84585714D01*
X153347619Y-84252381D02*
X153395238Y-84300000D01*
X153347619Y-84347619D01*
X153300000Y-84300000D01*
X153347619Y-84252381D01*
X153347619Y-84347619D01*
X152919048Y-85204762D02*
X152823810Y-85252381D01*
X152633334Y-85252381D01*
X152538095Y-85204762D01*
X152490476Y-85109524D01*
X152490476Y-85061905D01*
X152538095Y-84966667D01*
X152633334Y-84919048D01*
X152776191Y-84919048D01*
X152871429Y-84871429D01*
X152919048Y-84776190D01*
X152919048Y-84728571D01*
X152871429Y-84633333D01*
X152776191Y-84585714D01*
X152633334Y-84585714D01*
X152538095Y-84633333D01*
X152061905Y-85252381D02*
X152061905Y-84585714D01*
X152061905Y-84252381D02*
X152109524Y-84300000D01*
X152061905Y-84347619D01*
X152014286Y-84300000D01*
X152061905Y-84252381D01*
X152061905Y-84347619D01*
X151442858Y-85252381D02*
X151538096Y-85204762D01*
X151585715Y-85157143D01*
X151633334Y-85061905D01*
X151633334Y-84776190D01*
X151585715Y-84680952D01*
X151538096Y-84633333D01*
X151442858Y-84585714D01*
X151300000Y-84585714D01*
X151204762Y-84633333D01*
X151157143Y-84680952D01*
X151109524Y-84776190D01*
X151109524Y-85061905D01*
X151157143Y-85157143D01*
X151204762Y-85204762D01*
X151300000Y-85252381D01*
X151442858Y-85252381D01*
X150680953Y-84585714D02*
X150680953Y-85252381D01*
X150680953Y-84680952D02*
X150633334Y-84633333D01*
X150538096Y-84585714D01*
X150395238Y-84585714D01*
X150300000Y-84633333D01*
X150252381Y-84728571D01*
X150252381Y-85252381D01*
X149061905Y-84966667D02*
X148585714Y-84966667D01*
X149157143Y-85252381D02*
X148823810Y-84252381D01*
X148490476Y-85252381D01*
D12*
X174766667Y-84971429D02*
X174766667Y-86304762D01*
X175242857Y-84209524D02*
X175719048Y-85638095D01*
X174480952Y-85638095D01*
X172861905Y-86209524D02*
X173052381Y-86304762D01*
X173433333Y-86304762D01*
X173623809Y-86209524D01*
X173719048Y-86114286D01*
X173814286Y-85923810D01*
X173814286Y-85352381D01*
X173719048Y-85161905D01*
X173623809Y-85066667D01*
X173433333Y-84971429D01*
X173052381Y-84971429D01*
X172861905Y-85066667D01*
X172004762Y-86304762D02*
X172004762Y-84304762D01*
X171147619Y-86304762D02*
X171147619Y-85257143D01*
X171242857Y-85066667D01*
X171433333Y-84971429D01*
X171719047Y-84971429D01*
X171909523Y-85066667D01*
X172004762Y-85161905D01*
X169909523Y-86304762D02*
X170099999Y-86209524D01*
X170195238Y-86114286D01*
X170290476Y-85923810D01*
X170290476Y-85352381D01*
X170195238Y-85161905D01*
X170099999Y-85066667D01*
X169909523Y-84971429D01*
X169623809Y-84971429D01*
X169433333Y-85066667D01*
X169338095Y-85161905D01*
X169242857Y-85352381D01*
X169242857Y-85923810D01*
X169338095Y-86114286D01*
X169433333Y-86209524D01*
X169623809Y-86304762D01*
X169909523Y-86304762D01*
X168385714Y-86304762D02*
X168385714Y-84971429D01*
X168385714Y-85352381D02*
X168290475Y-85161905D01*
X168195237Y-85066667D01*
X168004761Y-84971429D01*
X167814285Y-84971429D01*
X166290476Y-86304762D02*
X166290476Y-84304762D01*
X166290476Y-86209524D02*
X166480952Y-86304762D01*
X166861904Y-86304762D01*
X167052380Y-86209524D01*
X167147619Y-86114286D01*
X167242857Y-85923810D01*
X167242857Y-85352381D01*
X167147619Y-85161905D01*
X167052380Y-85066667D01*
X166861904Y-84971429D01*
X166480952Y-84971429D01*
X166290476Y-85066667D01*
X163814285Y-86304762D02*
X163814285Y-84304762D01*
X163147618Y-85733333D01*
X162480951Y-84304762D01*
X162480951Y-86304762D01*
X161528571Y-86304762D02*
X161528571Y-84304762D01*
X160576190Y-86304762D02*
X160576190Y-84304762D01*
X160099999Y-84304762D01*
X159814285Y-84400000D01*
X159623809Y-84590476D01*
X159528570Y-84780952D01*
X159433332Y-85161905D01*
X159433332Y-85447619D01*
X159528570Y-85828571D01*
X159623809Y-86019048D01*
X159814285Y-86209524D01*
X160099999Y-86304762D01*
X160576190Y-86304762D01*
X158576190Y-86304762D02*
X158576190Y-84304762D01*
D10*
X123426190Y-49726190D02*
X123426190Y-49392857D01*
X123426190Y-49226190D02*
X123450000Y-49250000D01*
X123426190Y-49273810D01*
X123402381Y-49250000D01*
X123426190Y-49226190D01*
X123426190Y-49273810D01*
X123188095Y-49392857D02*
X123188095Y-49726190D01*
X123188095Y-49440476D02*
X123164286Y-49416667D01*
X123116667Y-49392857D01*
X123045238Y-49392857D01*
X122997619Y-49416667D01*
X122973810Y-49464286D01*
X122973810Y-49726190D01*
X120804762Y-49726190D02*
X120852381Y-49702381D01*
X120876190Y-49678571D01*
X120900000Y-49630952D01*
X120900000Y-49488095D01*
X120876190Y-49440476D01*
X120852381Y-49416667D01*
X120804762Y-49392857D01*
X120733333Y-49392857D01*
X120685714Y-49416667D01*
X120661905Y-49440476D01*
X120638095Y-49488095D01*
X120638095Y-49630952D01*
X120661905Y-49678571D01*
X120685714Y-49702381D01*
X120733333Y-49726190D01*
X120804762Y-49726190D01*
X120209524Y-49392857D02*
X120209524Y-49726190D01*
X120423809Y-49392857D02*
X120423809Y-49654762D01*
X120400000Y-49702381D01*
X120352381Y-49726190D01*
X120280952Y-49726190D01*
X120233333Y-49702381D01*
X120209524Y-49678571D01*
X120042857Y-49392857D02*
X119852381Y-49392857D01*
X119971428Y-49226190D02*
X119971428Y-49654762D01*
X119947619Y-49702381D01*
X119900000Y-49726190D01*
X119852381Y-49726190D01*
X137704762Y-56426190D02*
X137752381Y-56402381D01*
X137776190Y-56378571D01*
X137800000Y-56330952D01*
X137800000Y-56188095D01*
X137776190Y-56140476D01*
X137752381Y-56116667D01*
X137704762Y-56092857D01*
X137633333Y-56092857D01*
X137585714Y-56116667D01*
X137561905Y-56140476D01*
X137538095Y-56188095D01*
X137538095Y-56330952D01*
X137561905Y-56378571D01*
X137585714Y-56402381D01*
X137633333Y-56426190D01*
X137704762Y-56426190D01*
X137109524Y-56092857D02*
X137109524Y-56426190D01*
X137323809Y-56092857D02*
X137323809Y-56354762D01*
X137300000Y-56402381D01*
X137252381Y-56426190D01*
X137180952Y-56426190D01*
X137133333Y-56402381D01*
X137109524Y-56378571D01*
X136942857Y-56092857D02*
X136752381Y-56092857D01*
X136871428Y-55926190D02*
X136871428Y-56354762D01*
X136847619Y-56402381D01*
X136800000Y-56426190D01*
X136752381Y-56426190D01*
X134626190Y-56426190D02*
X134626190Y-56092857D01*
X134626190Y-55926190D02*
X134650000Y-55950000D01*
X134626190Y-55973810D01*
X134602381Y-55950000D01*
X134626190Y-55926190D01*
X134626190Y-55973810D01*
X134388095Y-56092857D02*
X134388095Y-56426190D01*
X134388095Y-56140476D02*
X134364286Y-56116667D01*
X134316667Y-56092857D01*
X134245238Y-56092857D01*
X134197619Y-56116667D01*
X134173810Y-56164286D01*
X134173810Y-56426190D01*
D11*
X132823809Y-49952381D02*
X132490476Y-50952381D01*
X132157142Y-49952381D01*
X131823809Y-50952381D02*
X131823809Y-50285714D01*
X131823809Y-49952381D02*
X131871428Y-50000000D01*
X131823809Y-50047619D01*
X131776190Y-50000000D01*
X131823809Y-49952381D01*
X131823809Y-50047619D01*
X131347619Y-50285714D02*
X131347619Y-50952381D01*
X131347619Y-50380952D02*
X131300000Y-50333333D01*
X131204762Y-50285714D01*
X131061904Y-50285714D01*
X130966666Y-50333333D01*
X130919047Y-50428571D01*
X130919047Y-50952381D01*
D10*
X131104762Y-49726190D02*
X131152381Y-49702381D01*
X131176190Y-49678571D01*
X131200000Y-49630952D01*
X131200000Y-49488095D01*
X131176190Y-49440476D01*
X131152381Y-49416667D01*
X131104762Y-49392857D01*
X131033333Y-49392857D01*
X130985714Y-49416667D01*
X130961905Y-49440476D01*
X130938095Y-49488095D01*
X130938095Y-49630952D01*
X130961905Y-49678571D01*
X130985714Y-49702381D01*
X131033333Y-49726190D01*
X131104762Y-49726190D01*
X130509524Y-49392857D02*
X130509524Y-49726190D01*
X130723809Y-49392857D02*
X130723809Y-49654762D01*
X130700000Y-49702381D01*
X130652381Y-49726190D01*
X130580952Y-49726190D01*
X130533333Y-49702381D01*
X130509524Y-49678571D01*
X130342857Y-49392857D02*
X130152381Y-49392857D01*
X130271428Y-49226190D02*
X130271428Y-49654762D01*
X130247619Y-49702381D01*
X130200000Y-49726190D01*
X130152381Y-49726190D01*
D11*
X151666667Y-71361905D02*
X152047620Y-71361905D01*
X152047620Y-70561905D01*
X150942858Y-71285714D02*
X150980953Y-71323810D01*
X151095239Y-71361905D01*
X151171429Y-71361905D01*
X151285715Y-71323810D01*
X151361906Y-71247619D01*
X151400001Y-71171429D01*
X151438096Y-71019048D01*
X151438096Y-70904762D01*
X151400001Y-70752381D01*
X151361906Y-70676190D01*
X151285715Y-70600000D01*
X151171429Y-70561905D01*
X151095239Y-70561905D01*
X150980953Y-70600000D01*
X150942858Y-70638095D01*
X150600001Y-71361905D02*
X150600001Y-70561905D01*
X150409525Y-70561905D01*
X150295239Y-70600000D01*
X150219048Y-70676190D01*
X150180953Y-70752381D01*
X150142858Y-70904762D01*
X150142858Y-71019048D01*
X150180953Y-71171429D01*
X150219048Y-71247619D01*
X150295239Y-71323810D01*
X150409525Y-71361905D01*
X150600001Y-71361905D01*
X149228572Y-70828571D02*
X148657143Y-70828571D01*
X149000001Y-70485714D02*
X149228572Y-71514286D01*
X148733334Y-71171429D02*
X149304763Y-71171429D01*
X148961905Y-71514286D02*
X148733334Y-70485714D01*
X147933334Y-71361905D02*
X148200001Y-70980952D01*
X148390477Y-71361905D02*
X148390477Y-70561905D01*
X148085715Y-70561905D01*
X148009524Y-70600000D01*
X147971429Y-70638095D01*
X147933334Y-70714286D01*
X147933334Y-70828571D01*
X147971429Y-70904762D01*
X148009524Y-70942857D01*
X148085715Y-70980952D01*
X148390477Y-70980952D01*
X147590477Y-70942857D02*
X147323810Y-70942857D01*
X147209524Y-71361905D02*
X147590477Y-71361905D01*
X147590477Y-70561905D01*
X147209524Y-70561905D01*
X146904762Y-71323810D02*
X146790476Y-71361905D01*
X146600000Y-71361905D01*
X146523810Y-71323810D01*
X146485714Y-71285714D01*
X146447619Y-71209524D01*
X146447619Y-71133333D01*
X146485714Y-71057143D01*
X146523810Y-71019048D01*
X146600000Y-70980952D01*
X146752381Y-70942857D01*
X146828572Y-70904762D01*
X146866667Y-70866667D01*
X146904762Y-70790476D01*
X146904762Y-70714286D01*
X146866667Y-70638095D01*
X146828572Y-70600000D01*
X146752381Y-70561905D01*
X146561905Y-70561905D01*
X146447619Y-70600000D01*
X146104762Y-70942857D02*
X145838095Y-70942857D01*
X145723809Y-71361905D02*
X146104762Y-71361905D01*
X146104762Y-70561905D01*
X145723809Y-70561905D01*
X145495238Y-70561905D02*
X145038095Y-70561905D01*
X145266666Y-71361905D02*
X145266666Y-70561905D01*
X158138095Y-71361905D02*
X158519048Y-71361905D01*
X158519048Y-70561905D01*
X157414286Y-71285714D02*
X157452381Y-71323810D01*
X157566667Y-71361905D01*
X157642857Y-71361905D01*
X157757143Y-71323810D01*
X157833334Y-71247619D01*
X157871429Y-71171429D01*
X157909524Y-71019048D01*
X157909524Y-70904762D01*
X157871429Y-70752381D01*
X157833334Y-70676190D01*
X157757143Y-70600000D01*
X157642857Y-70561905D01*
X157566667Y-70561905D01*
X157452381Y-70600000D01*
X157414286Y-70638095D01*
X157071429Y-71361905D02*
X157071429Y-70561905D01*
X156880953Y-70561905D01*
X156766667Y-70600000D01*
X156690476Y-70676190D01*
X156652381Y-70752381D01*
X156614286Y-70904762D01*
X156614286Y-71019048D01*
X156652381Y-71171429D01*
X156690476Y-71247619D01*
X156766667Y-71323810D01*
X156880953Y-71361905D01*
X157071429Y-71361905D01*
X155700000Y-70828571D02*
X155128571Y-70828571D01*
X155471429Y-70485714D02*
X155700000Y-71514286D01*
X155204762Y-71171429D02*
X155776191Y-71171429D01*
X155433333Y-71514286D02*
X155204762Y-70485714D01*
X154404762Y-71285714D02*
X154442857Y-71323810D01*
X154557143Y-71361905D01*
X154633333Y-71361905D01*
X154747619Y-71323810D01*
X154823810Y-71247619D01*
X154861905Y-71171429D01*
X154900000Y-71019048D01*
X154900000Y-70904762D01*
X154861905Y-70752381D01*
X154823810Y-70676190D01*
X154747619Y-70600000D01*
X154633333Y-70561905D01*
X154557143Y-70561905D01*
X154442857Y-70600000D01*
X154404762Y-70638095D01*
X154100000Y-71323810D02*
X153985714Y-71361905D01*
X153795238Y-71361905D01*
X153719048Y-71323810D01*
X153680952Y-71285714D01*
X153642857Y-71209524D01*
X153642857Y-71133333D01*
X153680952Y-71057143D01*
X153719048Y-71019048D01*
X153795238Y-70980952D01*
X153947619Y-70942857D01*
X154023810Y-70904762D01*
X154061905Y-70866667D01*
X154100000Y-70790476D01*
X154100000Y-70714286D01*
X154061905Y-70638095D01*
X154023810Y-70600000D01*
X153947619Y-70561905D01*
X153757143Y-70561905D01*
X153642857Y-70600000D01*
X165576190Y-71361905D02*
X165957143Y-71361905D01*
X165957143Y-70561905D01*
X164852381Y-71285714D02*
X164890476Y-71323810D01*
X165004762Y-71361905D01*
X165080952Y-71361905D01*
X165195238Y-71323810D01*
X165271429Y-71247619D01*
X165309524Y-71171429D01*
X165347619Y-71019048D01*
X165347619Y-70904762D01*
X165309524Y-70752381D01*
X165271429Y-70676190D01*
X165195238Y-70600000D01*
X165080952Y-70561905D01*
X165004762Y-70561905D01*
X164890476Y-70600000D01*
X164852381Y-70638095D01*
X164509524Y-71361905D02*
X164509524Y-70561905D01*
X164319048Y-70561905D01*
X164204762Y-70600000D01*
X164128571Y-70676190D01*
X164090476Y-70752381D01*
X164052381Y-70904762D01*
X164052381Y-71019048D01*
X164090476Y-71171429D01*
X164128571Y-71247619D01*
X164204762Y-71323810D01*
X164319048Y-71361905D01*
X164509524Y-71361905D01*
X163100000Y-71361905D02*
X163100000Y-70561905D01*
X162909524Y-70561905D01*
X162795238Y-70600000D01*
X162719047Y-70676190D01*
X162680952Y-70752381D01*
X162642857Y-70904762D01*
X162642857Y-71019048D01*
X162680952Y-71171429D01*
X162719047Y-71247619D01*
X162795238Y-71323810D01*
X162909524Y-71361905D01*
X163100000Y-71361905D01*
X161728571Y-70523810D02*
X162414286Y-71552381D01*
X161500000Y-70828571D02*
X160928571Y-70828571D01*
X161271429Y-70485714D02*
X161500000Y-71514286D01*
X161004762Y-71171429D02*
X161576191Y-71171429D01*
X161233333Y-71514286D02*
X161004762Y-70485714D01*
X160204762Y-71285714D02*
X160242857Y-71323810D01*
X160357143Y-71361905D01*
X160433333Y-71361905D01*
X160547619Y-71323810D01*
X160623810Y-71247619D01*
X160661905Y-71171429D01*
X160700000Y-71019048D01*
X160700000Y-70904762D01*
X160661905Y-70752381D01*
X160623810Y-70676190D01*
X160547619Y-70600000D01*
X160433333Y-70561905D01*
X160357143Y-70561905D01*
X160242857Y-70600000D01*
X160204762Y-70638095D01*
X180004762Y-71323810D02*
X179890476Y-71361905D01*
X179700000Y-71361905D01*
X179623810Y-71323810D01*
X179585714Y-71285714D01*
X179547619Y-71209524D01*
X179547619Y-71133333D01*
X179585714Y-71057143D01*
X179623810Y-71019048D01*
X179700000Y-70980952D01*
X179852381Y-70942857D01*
X179928572Y-70904762D01*
X179966667Y-70866667D01*
X180004762Y-70790476D01*
X180004762Y-70714286D01*
X179966667Y-70638095D01*
X179928572Y-70600000D01*
X179852381Y-70561905D01*
X179661905Y-70561905D01*
X179547619Y-70600000D01*
X179204762Y-71361905D02*
X179204762Y-70561905D01*
X178900000Y-70561905D01*
X178823809Y-70600000D01*
X178785714Y-70638095D01*
X178747619Y-70714286D01*
X178747619Y-70828571D01*
X178785714Y-70904762D01*
X178823809Y-70942857D01*
X178900000Y-70980952D01*
X179204762Y-70980952D01*
X178404762Y-71361905D02*
X178404762Y-70561905D01*
X177452381Y-71323810D02*
X177338095Y-71361905D01*
X177147619Y-71361905D01*
X177071429Y-71323810D01*
X177033333Y-71285714D01*
X176995238Y-71209524D01*
X176995238Y-71133333D01*
X177033333Y-71057143D01*
X177071429Y-71019048D01*
X177147619Y-70980952D01*
X177300000Y-70942857D01*
X177376191Y-70904762D01*
X177414286Y-70866667D01*
X177452381Y-70790476D01*
X177452381Y-70714286D01*
X177414286Y-70638095D01*
X177376191Y-70600000D01*
X177300000Y-70561905D01*
X177109524Y-70561905D01*
X176995238Y-70600000D01*
X176195238Y-71285714D02*
X176233333Y-71323810D01*
X176347619Y-71361905D01*
X176423809Y-71361905D01*
X176538095Y-71323810D01*
X176614286Y-71247619D01*
X176652381Y-71171429D01*
X176690476Y-71019048D01*
X176690476Y-70904762D01*
X176652381Y-70752381D01*
X176614286Y-70676190D01*
X176538095Y-70600000D01*
X176423809Y-70561905D01*
X176347619Y-70561905D01*
X176233333Y-70600000D01*
X176195238Y-70638095D01*
X175852381Y-71361905D02*
X175852381Y-70561905D01*
X175395238Y-71361905D02*
X175738095Y-70904762D01*
X175395238Y-70561905D02*
X175852381Y-71019048D01*
X173171428Y-71323810D02*
X173057142Y-71361905D01*
X172866666Y-71361905D01*
X172790476Y-71323810D01*
X172752380Y-71285714D01*
X172714285Y-71209524D01*
X172714285Y-71133333D01*
X172752380Y-71057143D01*
X172790476Y-71019048D01*
X172866666Y-70980952D01*
X173019047Y-70942857D01*
X173095238Y-70904762D01*
X173133333Y-70866667D01*
X173171428Y-70790476D01*
X173171428Y-70714286D01*
X173133333Y-70638095D01*
X173095238Y-70600000D01*
X173019047Y-70561905D01*
X172828571Y-70561905D01*
X172714285Y-70600000D01*
X172371428Y-71361905D02*
X172371428Y-70561905D01*
X172066666Y-70561905D01*
X171990475Y-70600000D01*
X171952380Y-70638095D01*
X171914285Y-70714286D01*
X171914285Y-70828571D01*
X171952380Y-70904762D01*
X171990475Y-70942857D01*
X172066666Y-70980952D01*
X172371428Y-70980952D01*
X171571428Y-71361905D02*
X171571428Y-70561905D01*
X170580952Y-71361905D02*
X170580952Y-70561905D01*
X170314285Y-71133333D01*
X170047618Y-70561905D01*
X170047618Y-71361905D01*
X169514285Y-70561905D02*
X169361904Y-70561905D01*
X169285713Y-70600000D01*
X169209523Y-70676190D01*
X169171428Y-70828571D01*
X169171428Y-71095238D01*
X169209523Y-71247619D01*
X169285713Y-71323810D01*
X169361904Y-71361905D01*
X169514285Y-71361905D01*
X169590475Y-71323810D01*
X169666666Y-71247619D01*
X169704761Y-71095238D01*
X169704761Y-70828571D01*
X169666666Y-70676190D01*
X169590475Y-70600000D01*
X169514285Y-70561905D01*
X168866666Y-71323810D02*
X168752380Y-71361905D01*
X168561904Y-71361905D01*
X168485714Y-71323810D01*
X168447618Y-71285714D01*
X168409523Y-71209524D01*
X168409523Y-71133333D01*
X168447618Y-71057143D01*
X168485714Y-71019048D01*
X168561904Y-70980952D01*
X168714285Y-70942857D01*
X168790476Y-70904762D01*
X168828571Y-70866667D01*
X168866666Y-70790476D01*
X168866666Y-70714286D01*
X168828571Y-70638095D01*
X168790476Y-70600000D01*
X168714285Y-70561905D01*
X168523809Y-70561905D01*
X168409523Y-70600000D01*
X168066666Y-71361905D02*
X168066666Y-70561905D01*
X137523810Y-56752381D02*
X137190477Y-57752381D01*
X136857143Y-56752381D01*
X136380953Y-57752381D02*
X136476191Y-57704762D01*
X136523810Y-57657143D01*
X136571429Y-57561905D01*
X136571429Y-57276190D01*
X136523810Y-57180952D01*
X136476191Y-57133333D01*
X136380953Y-57085714D01*
X136238095Y-57085714D01*
X136142857Y-57133333D01*
X136095238Y-57180952D01*
X136047619Y-57276190D01*
X136047619Y-57561905D01*
X136095238Y-57657143D01*
X136142857Y-57704762D01*
X136238095Y-57752381D01*
X136380953Y-57752381D01*
X135190476Y-57085714D02*
X135190476Y-57752381D01*
X135619048Y-57085714D02*
X135619048Y-57609524D01*
X135571429Y-57704762D01*
X135476191Y-57752381D01*
X135333333Y-57752381D01*
X135238095Y-57704762D01*
X135190476Y-57657143D01*
X134857143Y-57085714D02*
X134476191Y-57085714D01*
X134714286Y-56752381D02*
X134714286Y-57609524D01*
X134666667Y-57704762D01*
X134571429Y-57752381D01*
X134476191Y-57752381D01*
D10*
X133526190Y-49726190D02*
X133526190Y-49392857D01*
X133526190Y-49226190D02*
X133550000Y-49250000D01*
X133526190Y-49273810D01*
X133502381Y-49250000D01*
X133526190Y-49226190D01*
X133526190Y-49273810D01*
X133288095Y-49392857D02*
X133288095Y-49726190D01*
X133288095Y-49440476D02*
X133264286Y-49416667D01*
X133216667Y-49392857D01*
X133145238Y-49392857D01*
X133097619Y-49416667D01*
X133073810Y-49464286D01*
X133073810Y-49726190D01*
D11*
X122561904Y-50200000D02*
X122657142Y-50152381D01*
X122799999Y-50152381D01*
X122942857Y-50200000D01*
X123038095Y-50295238D01*
X123085714Y-50390476D01*
X123133333Y-50580952D01*
X123133333Y-50723810D01*
X123085714Y-50914286D01*
X123038095Y-51009524D01*
X122942857Y-51104762D01*
X122799999Y-51152381D01*
X122704761Y-51152381D01*
X122561904Y-51104762D01*
X122514285Y-51057143D01*
X122514285Y-50723810D01*
X122704761Y-50723810D01*
X122085714Y-51152381D02*
X122085714Y-50152381D01*
X121514285Y-51152381D01*
X121514285Y-50152381D01*
X121038095Y-51152381D02*
X121038095Y-50152381D01*
X120800000Y-50152381D01*
X120657142Y-50200000D01*
X120561904Y-50295238D01*
X120514285Y-50390476D01*
X120466666Y-50580952D01*
X120466666Y-50723810D01*
X120514285Y-50914286D01*
X120561904Y-51009524D01*
X120657142Y-51104762D01*
X120800000Y-51152381D01*
X121038095Y-51152381D01*
D13*
X146601120Y-46100960D02*
X146601120Y-40899040D01*
X148998880Y-40899040D02*
X148998880Y-46100960D01*
X150098700Y-48099940D02*
X148998880Y-48099940D01*
X149598320Y-48699380D02*
X149598320Y-47500500D01*
X148998880Y-47495420D02*
X146601120Y-47495420D01*
X146401120Y-56300960D02*
X146401120Y-51099040D01*
X148798880Y-51099040D02*
X148798880Y-56300960D01*
X149898700Y-58299940D02*
X148798880Y-58299940D01*
X149398320Y-58899380D02*
X149398320Y-57700500D01*
X148798880Y-57695420D02*
X146401120Y-57695420D01*
X128300000Y-72150000D02*
X129300000Y-72150000D01*
X129300000Y-73850000D02*
X128300000Y-73850000D01*
X130800000Y-65950000D02*
X131800000Y-65950000D01*
X131800000Y-67650000D02*
X130800000Y-67650000D01*
X131200000Y-57180000D02*
X132200000Y-57180000D01*
X132200000Y-58880000D02*
X131200000Y-58880000D01*
X130800000Y-74950000D02*
X131800000Y-74950000D01*
X131800000Y-76650000D02*
X130800000Y-76650000D01*
X135600000Y-74950000D02*
X136600000Y-74950000D01*
X136600000Y-76650000D02*
X135600000Y-76650000D01*
X153480000Y-79230000D02*
X153480000Y-78230000D01*
X155180000Y-78230000D02*
X155180000Y-79230000D01*
X167480000Y-79230000D02*
X167480000Y-78230000D01*
X169180000Y-78230000D02*
X169180000Y-79230000D01*
X181480000Y-79230000D02*
X181480000Y-78230000D01*
X183180000Y-78230000D02*
X183180000Y-79230000D01*
X107850000Y-47000000D02*
X107850000Y-46000000D01*
X109550000Y-46000000D02*
X109550000Y-47000000D01*
X107950000Y-57500000D02*
X107950000Y-56500000D01*
X109650000Y-56500000D02*
X109650000Y-57500000D01*
X107950000Y-68110000D02*
X107950000Y-67110000D01*
X109650000Y-67110000D02*
X109650000Y-68110000D01*
X107940000Y-78700000D02*
X107940000Y-77700000D01*
X109640000Y-77700000D02*
X109640000Y-78700000D01*
X177200000Y-43750000D02*
X178200000Y-43750000D01*
X178200000Y-45450000D02*
X177200000Y-45450000D01*
X160799040Y-49901120D02*
X166000960Y-49901120D01*
X166000960Y-52298880D02*
X160799040Y-52298880D01*
X158800060Y-53398700D02*
X158800060Y-52298880D01*
X158200620Y-52898320D02*
X159399500Y-52898320D01*
X159404580Y-52298880D02*
X159404580Y-49901120D01*
X159300440Y-57900580D02*
X159300440Y-53699420D01*
X158999780Y-57900580D02*
X158999780Y-53699420D01*
X167600220Y-57900580D02*
X167600220Y-53699420D01*
X165296440Y-53694340D02*
X167582440Y-53694340D01*
X167582440Y-57905660D02*
X165296440Y-57905660D01*
X161301020Y-57905660D02*
X159015020Y-57905660D01*
X159017560Y-53694340D02*
X161303560Y-53694340D01*
X126025000Y-81200000D02*
X126025000Y-82400000D01*
X127775000Y-82400000D02*
X127775000Y-81200000D01*
X120825000Y-81200000D02*
X120825000Y-82400000D01*
X122575000Y-82400000D02*
X122575000Y-81200000D01*
X123425000Y-81200000D02*
X123425000Y-82400000D01*
X125175000Y-82400000D02*
X125175000Y-81200000D01*
X118225000Y-81200000D02*
X118225000Y-82400000D01*
X119975000Y-82400000D02*
X119975000Y-81200000D01*
X143455000Y-78130000D02*
X143455000Y-79330000D01*
X145205000Y-79330000D02*
X145205000Y-78130000D01*
X157455000Y-78130000D02*
X157455000Y-79330000D01*
X159205000Y-79330000D02*
X159205000Y-78130000D01*
X171455000Y-78130000D02*
X171455000Y-79330000D01*
X173205000Y-79330000D02*
X173205000Y-78130000D01*
X113825000Y-45900000D02*
X113825000Y-47100000D01*
X115575000Y-47100000D02*
X115575000Y-45900000D01*
X113825000Y-56400000D02*
X113825000Y-57600000D01*
X115575000Y-57600000D02*
X115575000Y-56400000D01*
X113725000Y-67010000D02*
X113725000Y-68210000D01*
X115475000Y-68210000D02*
X115475000Y-67010000D01*
X113815000Y-77800000D02*
X113815000Y-79000000D01*
X115565000Y-79000000D02*
X115565000Y-77800000D01*
X177200000Y-53875000D02*
X178400000Y-53875000D01*
X178400000Y-52125000D02*
X177200000Y-52125000D01*
X177200000Y-49675000D02*
X178400000Y-49675000D01*
X178400000Y-47925000D02*
X177200000Y-47925000D01*
X155325000Y-48100000D02*
X155325000Y-49300000D01*
X157075000Y-49300000D02*
X157075000Y-48100000D01*
X157075000Y-55600000D02*
X157075000Y-54400000D01*
X155325000Y-54400000D02*
X155325000Y-55600000D01*
X132500000Y-47225000D02*
X131300000Y-47225000D01*
X131300000Y-48975000D02*
X132500000Y-48975000D01*
X135200000Y-55675000D02*
X136400000Y-55675000D01*
X136400000Y-53925000D02*
X135200000Y-53925000D01*
X121200000Y-48975000D02*
X122400000Y-48975000D01*
X122400000Y-47225000D02*
X121200000Y-47225000D01*
X175200640Y-68399360D02*
X180199360Y-68399360D01*
X180199360Y-68399360D02*
X180199360Y-63400640D01*
X180199360Y-63400640D02*
X175200640Y-63400640D01*
X175200640Y-63400640D02*
X175200640Y-68399360D01*
X168000640Y-68399360D02*
X172999360Y-68399360D01*
X172999360Y-68399360D02*
X172999360Y-63400640D01*
X172999360Y-63400640D02*
X168000640Y-63400640D01*
X168000640Y-63400640D02*
X168000640Y-68399360D01*
X160800640Y-68399360D02*
X165799360Y-68399360D01*
X165799360Y-68399360D02*
X165799360Y-63400640D01*
X165799360Y-63400640D02*
X160800640Y-63400640D01*
X160800640Y-63400640D02*
X160800640Y-68399360D01*
X153600640Y-68399360D02*
X158599360Y-68399360D01*
X158599360Y-68399360D02*
X158599360Y-63400640D01*
X158599360Y-63400640D02*
X153600640Y-63400640D01*
X153600640Y-63400640D02*
X153600640Y-68399360D01*
X146400640Y-68399360D02*
X151399360Y-68399360D01*
X151399360Y-68399360D02*
X151399360Y-63400640D01*
X151399360Y-63400640D02*
X146400640Y-63400640D01*
X146400640Y-63400640D02*
X146400640Y-68399360D01*
X151255943Y-43533994D02*
X151303562Y-43486375D01*
X151351181Y-43343518D01*
X151351181Y-43248280D01*
X151303562Y-43105422D01*
X151208324Y-43010184D01*
X151113086Y-42962565D01*
X150922610Y-42914946D01*
X150779752Y-42914946D01*
X150589276Y-42962565D01*
X150494038Y-43010184D01*
X150398800Y-43105422D01*
X150351181Y-43248280D01*
X150351181Y-43343518D01*
X150398800Y-43486375D01*
X150446419Y-43533994D01*
X151351181Y-44486375D02*
X151351181Y-43914946D01*
X151351181Y-44200660D02*
X150351181Y-44200660D01*
X150494038Y-44105422D01*
X150589276Y-44010184D01*
X150636895Y-43914946D01*
X149672289Y-47718988D02*
X149672289Y-48480893D01*
X150053241Y-48099941D02*
X149291336Y-48099941D01*
X151055943Y-53733994D02*
X151103562Y-53686375D01*
X151151181Y-53543518D01*
X151151181Y-53448280D01*
X151103562Y-53305422D01*
X151008324Y-53210184D01*
X150913086Y-53162565D01*
X150722610Y-53114946D01*
X150579752Y-53114946D01*
X150389276Y-53162565D01*
X150294038Y-53210184D01*
X150198800Y-53305422D01*
X150151181Y-53448280D01*
X150151181Y-53543518D01*
X150198800Y-53686375D01*
X150246419Y-53733994D01*
X150246419Y-54114946D02*
X150198800Y-54162565D01*
X150151181Y-54257803D01*
X150151181Y-54495899D01*
X150198800Y-54591137D01*
X150246419Y-54638756D01*
X150341657Y-54686375D01*
X150436895Y-54686375D01*
X150579752Y-54638756D01*
X151151181Y-54067327D01*
X151151181Y-54686375D01*
X149472289Y-57918988D02*
X149472289Y-58680893D01*
X149853241Y-58299941D02*
X149091336Y-58299941D01*
X128966666Y-71257143D02*
X129014285Y-71304762D01*
X129157142Y-71352381D01*
X129252380Y-71352381D01*
X129395238Y-71304762D01*
X129490476Y-71209524D01*
X129538095Y-71114286D01*
X129585714Y-70923810D01*
X129585714Y-70780952D01*
X129538095Y-70590476D01*
X129490476Y-70495238D01*
X129395238Y-70400000D01*
X129252380Y-70352381D01*
X129157142Y-70352381D01*
X129014285Y-70400000D01*
X128966666Y-70447619D01*
X128633333Y-70352381D02*
X128014285Y-70352381D01*
X128347619Y-70733333D01*
X128204761Y-70733333D01*
X128109523Y-70780952D01*
X128061904Y-70828571D01*
X128014285Y-70923810D01*
X128014285Y-71161905D01*
X128061904Y-71257143D01*
X128109523Y-71304762D01*
X128204761Y-71352381D01*
X128490476Y-71352381D01*
X128585714Y-71304762D01*
X128633333Y-71257143D01*
X131466666Y-65057143D02*
X131514285Y-65104762D01*
X131657142Y-65152381D01*
X131752380Y-65152381D01*
X131895238Y-65104762D01*
X131990476Y-65009524D01*
X132038095Y-64914286D01*
X132085714Y-64723810D01*
X132085714Y-64580952D01*
X132038095Y-64390476D01*
X131990476Y-64295238D01*
X131895238Y-64200000D01*
X131752380Y-64152381D01*
X131657142Y-64152381D01*
X131514285Y-64200000D01*
X131466666Y-64247619D01*
X130609523Y-64485714D02*
X130609523Y-65152381D01*
X130847619Y-64104762D02*
X131085714Y-64819048D01*
X130466666Y-64819048D01*
X131866666Y-56287143D02*
X131914285Y-56334762D01*
X132057142Y-56382381D01*
X132152380Y-56382381D01*
X132295238Y-56334762D01*
X132390476Y-56239524D01*
X132438095Y-56144286D01*
X132485714Y-55953810D01*
X132485714Y-55810952D01*
X132438095Y-55620476D01*
X132390476Y-55525238D01*
X132295238Y-55430000D01*
X132152380Y-55382381D01*
X132057142Y-55382381D01*
X131914285Y-55430000D01*
X131866666Y-55477619D01*
X130961904Y-55382381D02*
X131438095Y-55382381D01*
X131485714Y-55858571D01*
X131438095Y-55810952D01*
X131342857Y-55763333D01*
X131104761Y-55763333D01*
X131009523Y-55810952D01*
X130961904Y-55858571D01*
X130914285Y-55953810D01*
X130914285Y-56191905D01*
X130961904Y-56287143D01*
X131009523Y-56334762D01*
X131104761Y-56382381D01*
X131342857Y-56382381D01*
X131438095Y-56334762D01*
X131485714Y-56287143D01*
X131466666Y-74057143D02*
X131514285Y-74104762D01*
X131657142Y-74152381D01*
X131752380Y-74152381D01*
X131895238Y-74104762D01*
X131990476Y-74009524D01*
X132038095Y-73914286D01*
X132085714Y-73723810D01*
X132085714Y-73580952D01*
X132038095Y-73390476D01*
X131990476Y-73295238D01*
X131895238Y-73200000D01*
X131752380Y-73152381D01*
X131657142Y-73152381D01*
X131514285Y-73200000D01*
X131466666Y-73247619D01*
X130609523Y-73152381D02*
X130800000Y-73152381D01*
X130895238Y-73200000D01*
X130942857Y-73247619D01*
X131038095Y-73390476D01*
X131085714Y-73580952D01*
X131085714Y-73961905D01*
X131038095Y-74057143D01*
X130990476Y-74104762D01*
X130895238Y-74152381D01*
X130704761Y-74152381D01*
X130609523Y-74104762D01*
X130561904Y-74057143D01*
X130514285Y-73961905D01*
X130514285Y-73723810D01*
X130561904Y-73628571D01*
X130609523Y-73580952D01*
X130704761Y-73533333D01*
X130895238Y-73533333D01*
X130990476Y-73580952D01*
X131038095Y-73628571D01*
X131085714Y-73723810D01*
X136266666Y-74057143D02*
X136314285Y-74104762D01*
X136457142Y-74152381D01*
X136552380Y-74152381D01*
X136695238Y-74104762D01*
X136790476Y-74009524D01*
X136838095Y-73914286D01*
X136885714Y-73723810D01*
X136885714Y-73580952D01*
X136838095Y-73390476D01*
X136790476Y-73295238D01*
X136695238Y-73200000D01*
X136552380Y-73152381D01*
X136457142Y-73152381D01*
X136314285Y-73200000D01*
X136266666Y-73247619D01*
X135933333Y-73152381D02*
X135266666Y-73152381D01*
X135695238Y-74152381D01*
X152587143Y-78563334D02*
X152634762Y-78515715D01*
X152682381Y-78372858D01*
X152682381Y-78277620D01*
X152634762Y-78134762D01*
X152539524Y-78039524D01*
X152444286Y-77991905D01*
X152253810Y-77944286D01*
X152110952Y-77944286D01*
X151920476Y-77991905D01*
X151825238Y-78039524D01*
X151730000Y-78134762D01*
X151682381Y-78277620D01*
X151682381Y-78372858D01*
X151730000Y-78515715D01*
X151777619Y-78563334D01*
X152110952Y-79134762D02*
X152063333Y-79039524D01*
X152015714Y-78991905D01*
X151920476Y-78944286D01*
X151872857Y-78944286D01*
X151777619Y-78991905D01*
X151730000Y-79039524D01*
X151682381Y-79134762D01*
X151682381Y-79325239D01*
X151730000Y-79420477D01*
X151777619Y-79468096D01*
X151872857Y-79515715D01*
X151920476Y-79515715D01*
X152015714Y-79468096D01*
X152063333Y-79420477D01*
X152110952Y-79325239D01*
X152110952Y-79134762D01*
X152158571Y-79039524D01*
X152206190Y-78991905D01*
X152301429Y-78944286D01*
X152491905Y-78944286D01*
X152587143Y-78991905D01*
X152634762Y-79039524D01*
X152682381Y-79134762D01*
X152682381Y-79325239D01*
X152634762Y-79420477D01*
X152587143Y-79468096D01*
X152491905Y-79515715D01*
X152301429Y-79515715D01*
X152206190Y-79468096D01*
X152158571Y-79420477D01*
X152110952Y-79325239D01*
X166587143Y-78563334D02*
X166634762Y-78515715D01*
X166682381Y-78372858D01*
X166682381Y-78277620D01*
X166634762Y-78134762D01*
X166539524Y-78039524D01*
X166444286Y-77991905D01*
X166253810Y-77944286D01*
X166110952Y-77944286D01*
X165920476Y-77991905D01*
X165825238Y-78039524D01*
X165730000Y-78134762D01*
X165682381Y-78277620D01*
X165682381Y-78372858D01*
X165730000Y-78515715D01*
X165777619Y-78563334D01*
X166682381Y-79039524D02*
X166682381Y-79230000D01*
X166634762Y-79325239D01*
X166587143Y-79372858D01*
X166444286Y-79468096D01*
X166253810Y-79515715D01*
X165872857Y-79515715D01*
X165777619Y-79468096D01*
X165730000Y-79420477D01*
X165682381Y-79325239D01*
X165682381Y-79134762D01*
X165730000Y-79039524D01*
X165777619Y-78991905D01*
X165872857Y-78944286D01*
X166110952Y-78944286D01*
X166206190Y-78991905D01*
X166253810Y-79039524D01*
X166301429Y-79134762D01*
X166301429Y-79325239D01*
X166253810Y-79420477D01*
X166206190Y-79468096D01*
X166110952Y-79515715D01*
X180587143Y-78087143D02*
X180634762Y-78039524D01*
X180682381Y-77896667D01*
X180682381Y-77801429D01*
X180634762Y-77658571D01*
X180539524Y-77563333D01*
X180444286Y-77515714D01*
X180253810Y-77468095D01*
X180110952Y-77468095D01*
X179920476Y-77515714D01*
X179825238Y-77563333D01*
X179730000Y-77658571D01*
X179682381Y-77801429D01*
X179682381Y-77896667D01*
X179730000Y-78039524D01*
X179777619Y-78087143D01*
X180682381Y-79039524D02*
X180682381Y-78468095D01*
X180682381Y-78753809D02*
X179682381Y-78753809D01*
X179825238Y-78658571D01*
X179920476Y-78563333D01*
X179968095Y-78468095D01*
X179682381Y-79658571D02*
X179682381Y-79753810D01*
X179730000Y-79849048D01*
X179777619Y-79896667D01*
X179872857Y-79944286D01*
X180063333Y-79991905D01*
X180301429Y-79991905D01*
X180491905Y-79944286D01*
X180587143Y-79896667D01*
X180634762Y-79849048D01*
X180682381Y-79753810D01*
X180682381Y-79658571D01*
X180634762Y-79563333D01*
X180587143Y-79515714D01*
X180491905Y-79468095D01*
X180301429Y-79420476D01*
X180063333Y-79420476D01*
X179872857Y-79468095D01*
X179777619Y-79515714D01*
X179730000Y-79563333D01*
X179682381Y-79658571D01*
X106957143Y-45857143D02*
X107004762Y-45809524D01*
X107052381Y-45666667D01*
X107052381Y-45571429D01*
X107004762Y-45428571D01*
X106909524Y-45333333D01*
X106814286Y-45285714D01*
X106623810Y-45238095D01*
X106480952Y-45238095D01*
X106290476Y-45285714D01*
X106195238Y-45333333D01*
X106100000Y-45428571D01*
X106052381Y-45571429D01*
X106052381Y-45666667D01*
X106100000Y-45809524D01*
X106147619Y-45857143D01*
X107052381Y-46809524D02*
X107052381Y-46238095D01*
X107052381Y-46523809D02*
X106052381Y-46523809D01*
X106195238Y-46428571D01*
X106290476Y-46333333D01*
X106338095Y-46238095D01*
X107052381Y-47761905D02*
X107052381Y-47190476D01*
X107052381Y-47476190D02*
X106052381Y-47476190D01*
X106195238Y-47380952D01*
X106290476Y-47285714D01*
X106338095Y-47190476D01*
X107057143Y-56357143D02*
X107104762Y-56309524D01*
X107152381Y-56166667D01*
X107152381Y-56071429D01*
X107104762Y-55928571D01*
X107009524Y-55833333D01*
X106914286Y-55785714D01*
X106723810Y-55738095D01*
X106580952Y-55738095D01*
X106390476Y-55785714D01*
X106295238Y-55833333D01*
X106200000Y-55928571D01*
X106152381Y-56071429D01*
X106152381Y-56166667D01*
X106200000Y-56309524D01*
X106247619Y-56357143D01*
X107152381Y-57309524D02*
X107152381Y-56738095D01*
X107152381Y-57023809D02*
X106152381Y-57023809D01*
X106295238Y-56928571D01*
X106390476Y-56833333D01*
X106438095Y-56738095D01*
X106247619Y-57690476D02*
X106200000Y-57738095D01*
X106152381Y-57833333D01*
X106152381Y-58071429D01*
X106200000Y-58166667D01*
X106247619Y-58214286D01*
X106342857Y-58261905D01*
X106438095Y-58261905D01*
X106580952Y-58214286D01*
X107152381Y-57642857D01*
X107152381Y-58261905D01*
X107057143Y-66967143D02*
X107104762Y-66919524D01*
X107152381Y-66776667D01*
X107152381Y-66681429D01*
X107104762Y-66538571D01*
X107009524Y-66443333D01*
X106914286Y-66395714D01*
X106723810Y-66348095D01*
X106580952Y-66348095D01*
X106390476Y-66395714D01*
X106295238Y-66443333D01*
X106200000Y-66538571D01*
X106152381Y-66681429D01*
X106152381Y-66776667D01*
X106200000Y-66919524D01*
X106247619Y-66967143D01*
X107152381Y-67919524D02*
X107152381Y-67348095D01*
X107152381Y-67633809D02*
X106152381Y-67633809D01*
X106295238Y-67538571D01*
X106390476Y-67443333D01*
X106438095Y-67348095D01*
X106152381Y-68252857D02*
X106152381Y-68871905D01*
X106533333Y-68538571D01*
X106533333Y-68681429D01*
X106580952Y-68776667D01*
X106628571Y-68824286D01*
X106723810Y-68871905D01*
X106961905Y-68871905D01*
X107057143Y-68824286D01*
X107104762Y-68776667D01*
X107152381Y-68681429D01*
X107152381Y-68395714D01*
X107104762Y-68300476D01*
X107057143Y-68252857D01*
X107047143Y-77557143D02*
X107094762Y-77509524D01*
X107142381Y-77366667D01*
X107142381Y-77271429D01*
X107094762Y-77128571D01*
X106999524Y-77033333D01*
X106904286Y-76985714D01*
X106713810Y-76938095D01*
X106570952Y-76938095D01*
X106380476Y-76985714D01*
X106285238Y-77033333D01*
X106190000Y-77128571D01*
X106142381Y-77271429D01*
X106142381Y-77366667D01*
X106190000Y-77509524D01*
X106237619Y-77557143D01*
X107142381Y-78509524D02*
X107142381Y-77938095D01*
X107142381Y-78223809D02*
X106142381Y-78223809D01*
X106285238Y-78128571D01*
X106380476Y-78033333D01*
X106428095Y-77938095D01*
X106475714Y-79366667D02*
X107142381Y-79366667D01*
X106094762Y-79128571D02*
X106809048Y-78890476D01*
X106809048Y-79509524D01*
X178342857Y-42857143D02*
X178390476Y-42904762D01*
X178533333Y-42952381D01*
X178628571Y-42952381D01*
X178771429Y-42904762D01*
X178866667Y-42809524D01*
X178914286Y-42714286D01*
X178961905Y-42523810D01*
X178961905Y-42380952D01*
X178914286Y-42190476D01*
X178866667Y-42095238D01*
X178771429Y-42000000D01*
X178628571Y-41952381D01*
X178533333Y-41952381D01*
X178390476Y-42000000D01*
X178342857Y-42047619D01*
X177390476Y-42952381D02*
X177961905Y-42952381D01*
X177676191Y-42952381D02*
X177676191Y-41952381D01*
X177771429Y-42095238D01*
X177866667Y-42190476D01*
X177961905Y-42238095D01*
X176485714Y-41952381D02*
X176961905Y-41952381D01*
X177009524Y-42428571D01*
X176961905Y-42380952D01*
X176866667Y-42333333D01*
X176628571Y-42333333D01*
X176533333Y-42380952D01*
X176485714Y-42428571D01*
X176438095Y-42523810D01*
X176438095Y-42761905D01*
X176485714Y-42857143D01*
X176533333Y-42904762D01*
X176628571Y-42952381D01*
X176866667Y-42952381D01*
X176961905Y-42904762D01*
X177009524Y-42857143D01*
X163842857Y-49457143D02*
X163890476Y-49504762D01*
X164033333Y-49552381D01*
X164128571Y-49552381D01*
X164271429Y-49504762D01*
X164366667Y-49409524D01*
X164414286Y-49314286D01*
X164461905Y-49123810D01*
X164461905Y-48980952D01*
X164414286Y-48790476D01*
X164366667Y-48695238D01*
X164271429Y-48600000D01*
X164128571Y-48552381D01*
X164033333Y-48552381D01*
X163890476Y-48600000D01*
X163842857Y-48647619D01*
X162890476Y-49552381D02*
X163461905Y-49552381D01*
X163176191Y-49552381D02*
X163176191Y-48552381D01*
X163271429Y-48695238D01*
X163366667Y-48790476D01*
X163461905Y-48838095D01*
X162033333Y-48552381D02*
X162223810Y-48552381D01*
X162319048Y-48600000D01*
X162366667Y-48647619D01*
X162461905Y-48790476D01*
X162509524Y-48980952D01*
X162509524Y-49361905D01*
X162461905Y-49457143D01*
X162414286Y-49504762D01*
X162319048Y-49552381D01*
X162128571Y-49552381D01*
X162033333Y-49504762D01*
X161985714Y-49457143D01*
X161938095Y-49361905D01*
X161938095Y-49123810D01*
X161985714Y-49028571D01*
X162033333Y-48980952D01*
X162128571Y-48933333D01*
X162319048Y-48933333D01*
X162414286Y-48980952D01*
X162461905Y-49028571D01*
X162509524Y-49123810D01*
X159181012Y-52972289D02*
X158419107Y-52972289D01*
X158800059Y-53353241D02*
X158800059Y-52591336D01*
X186638095Y-52952381D02*
X186638095Y-51952381D01*
X186257142Y-51952381D01*
X186161904Y-52000000D01*
X186114285Y-52047619D01*
X186066666Y-52142857D01*
X186066666Y-52285714D01*
X186114285Y-52380952D01*
X186161904Y-52428571D01*
X186257142Y-52476190D01*
X186638095Y-52476190D01*
X185685714Y-52047619D02*
X185638095Y-52000000D01*
X185542857Y-51952381D01*
X185304761Y-51952381D01*
X185209523Y-52000000D01*
X185161904Y-52047619D01*
X185114285Y-52142857D01*
X185114285Y-52238095D01*
X185161904Y-52380952D01*
X185733333Y-52952381D01*
X185114285Y-52952381D01*
X137838095Y-40052381D02*
X137838095Y-39052381D01*
X137457142Y-39052381D01*
X137361904Y-39100000D01*
X137314285Y-39147619D01*
X137266666Y-39242857D01*
X137266666Y-39385714D01*
X137314285Y-39480952D01*
X137361904Y-39528571D01*
X137457142Y-39576190D01*
X137838095Y-39576190D01*
X136933333Y-39052381D02*
X136314285Y-39052381D01*
X136647619Y-39433333D01*
X136504761Y-39433333D01*
X136409523Y-39480952D01*
X136361904Y-39528571D01*
X136314285Y-39623810D01*
X136314285Y-39861905D01*
X136361904Y-39957143D01*
X136409523Y-40004762D01*
X136504761Y-40052381D01*
X136790476Y-40052381D01*
X136885714Y-40004762D01*
X136933333Y-39957143D01*
X164068095Y-47682381D02*
X164068095Y-46682381D01*
X163687142Y-46682381D01*
X163591904Y-46730000D01*
X163544285Y-46777619D01*
X163496666Y-46872857D01*
X163496666Y-47015714D01*
X163544285Y-47110952D01*
X163591904Y-47158571D01*
X163687142Y-47206190D01*
X164068095Y-47206190D01*
X162639523Y-47015714D02*
X162639523Y-47682381D01*
X162877619Y-46634762D02*
X163115714Y-47349048D01*
X162496666Y-47349048D01*
X162952281Y-55061905D02*
X161952281Y-55061905D01*
X161952281Y-55442858D01*
X161999900Y-55538096D01*
X162047519Y-55585715D01*
X162142757Y-55633334D01*
X162285614Y-55633334D01*
X162380852Y-55585715D01*
X162428471Y-55538096D01*
X162476090Y-55442858D01*
X162476090Y-55061905D01*
X161952281Y-56538096D02*
X161952281Y-56061905D01*
X162428471Y-56014286D01*
X162380852Y-56061905D01*
X162333233Y-56157143D01*
X162333233Y-56395239D01*
X162380852Y-56490477D01*
X162428471Y-56538096D01*
X162523710Y-56585715D01*
X162761805Y-56585715D01*
X162857043Y-56538096D01*
X162904662Y-56490477D01*
X162952281Y-56395239D01*
X162952281Y-56157143D01*
X162904662Y-56061905D01*
X162857043Y-56014286D01*
X160780952Y-58871429D02*
X160019047Y-58871429D01*
X160399999Y-59252381D02*
X160399999Y-58490476D01*
X127066666Y-85552381D02*
X127400000Y-85076190D01*
X127638095Y-85552381D02*
X127638095Y-84552381D01*
X127257142Y-84552381D01*
X127161904Y-84600000D01*
X127114285Y-84647619D01*
X127066666Y-84742857D01*
X127066666Y-84885714D01*
X127114285Y-84980952D01*
X127161904Y-85028571D01*
X127257142Y-85076190D01*
X127638095Y-85076190D01*
X126114285Y-85552381D02*
X126685714Y-85552381D01*
X126400000Y-85552381D02*
X126400000Y-84552381D01*
X126495238Y-84695238D01*
X126590476Y-84790476D01*
X126685714Y-84838095D01*
X121866666Y-85552381D02*
X122200000Y-85076190D01*
X122438095Y-85552381D02*
X122438095Y-84552381D01*
X122057142Y-84552381D01*
X121961904Y-84600000D01*
X121914285Y-84647619D01*
X121866666Y-84742857D01*
X121866666Y-84885714D01*
X121914285Y-84980952D01*
X121961904Y-85028571D01*
X122057142Y-85076190D01*
X122438095Y-85076190D01*
X121485714Y-84647619D02*
X121438095Y-84600000D01*
X121342857Y-84552381D01*
X121104761Y-84552381D01*
X121009523Y-84600000D01*
X120961904Y-84647619D01*
X120914285Y-84742857D01*
X120914285Y-84838095D01*
X120961904Y-84980952D01*
X121533333Y-85552381D01*
X120914285Y-85552381D01*
X124466666Y-85552381D02*
X124800000Y-85076190D01*
X125038095Y-85552381D02*
X125038095Y-84552381D01*
X124657142Y-84552381D01*
X124561904Y-84600000D01*
X124514285Y-84647619D01*
X124466666Y-84742857D01*
X124466666Y-84885714D01*
X124514285Y-84980952D01*
X124561904Y-85028571D01*
X124657142Y-85076190D01*
X125038095Y-85076190D01*
X124133333Y-84552381D02*
X123514285Y-84552381D01*
X123847619Y-84933333D01*
X123704761Y-84933333D01*
X123609523Y-84980952D01*
X123561904Y-85028571D01*
X123514285Y-85123810D01*
X123514285Y-85361905D01*
X123561904Y-85457143D01*
X123609523Y-85504762D01*
X123704761Y-85552381D01*
X123990476Y-85552381D01*
X124085714Y-85504762D01*
X124133333Y-85457143D01*
X119266666Y-85552381D02*
X119600000Y-85076190D01*
X119838095Y-85552381D02*
X119838095Y-84552381D01*
X119457142Y-84552381D01*
X119361904Y-84600000D01*
X119314285Y-84647619D01*
X119266666Y-84742857D01*
X119266666Y-84885714D01*
X119314285Y-84980952D01*
X119361904Y-85028571D01*
X119457142Y-85076190D01*
X119838095Y-85076190D01*
X118409523Y-84885714D02*
X118409523Y-85552381D01*
X118647619Y-84504762D02*
X118885714Y-85219048D01*
X118266666Y-85219048D01*
X146882381Y-78563334D02*
X146406190Y-78230000D01*
X146882381Y-77991905D02*
X145882381Y-77991905D01*
X145882381Y-78372858D01*
X145930000Y-78468096D01*
X145977619Y-78515715D01*
X146072857Y-78563334D01*
X146215714Y-78563334D01*
X146310952Y-78515715D01*
X146358571Y-78468096D01*
X146406190Y-78372858D01*
X146406190Y-77991905D01*
X145882381Y-79468096D02*
X145882381Y-78991905D01*
X146358571Y-78944286D01*
X146310952Y-78991905D01*
X146263333Y-79087143D01*
X146263333Y-79325239D01*
X146310952Y-79420477D01*
X146358571Y-79468096D01*
X146453810Y-79515715D01*
X146691905Y-79515715D01*
X146787143Y-79468096D01*
X146834762Y-79420477D01*
X146882381Y-79325239D01*
X146882381Y-79087143D01*
X146834762Y-78991905D01*
X146787143Y-78944286D01*
X160882381Y-78563334D02*
X160406190Y-78230000D01*
X160882381Y-77991905D02*
X159882381Y-77991905D01*
X159882381Y-78372858D01*
X159930000Y-78468096D01*
X159977619Y-78515715D01*
X160072857Y-78563334D01*
X160215714Y-78563334D01*
X160310952Y-78515715D01*
X160358571Y-78468096D01*
X160406190Y-78372858D01*
X160406190Y-77991905D01*
X159882381Y-79420477D02*
X159882381Y-79230000D01*
X159930000Y-79134762D01*
X159977619Y-79087143D01*
X160120476Y-78991905D01*
X160310952Y-78944286D01*
X160691905Y-78944286D01*
X160787143Y-78991905D01*
X160834762Y-79039524D01*
X160882381Y-79134762D01*
X160882381Y-79325239D01*
X160834762Y-79420477D01*
X160787143Y-79468096D01*
X160691905Y-79515715D01*
X160453810Y-79515715D01*
X160358571Y-79468096D01*
X160310952Y-79420477D01*
X160263333Y-79325239D01*
X160263333Y-79134762D01*
X160310952Y-79039524D01*
X160358571Y-78991905D01*
X160453810Y-78944286D01*
X174882381Y-78563334D02*
X174406190Y-78230000D01*
X174882381Y-77991905D02*
X173882381Y-77991905D01*
X173882381Y-78372858D01*
X173930000Y-78468096D01*
X173977619Y-78515715D01*
X174072857Y-78563334D01*
X174215714Y-78563334D01*
X174310952Y-78515715D01*
X174358571Y-78468096D01*
X174406190Y-78372858D01*
X174406190Y-77991905D01*
X173882381Y-78896667D02*
X173882381Y-79563334D01*
X174882381Y-79134762D01*
X117252381Y-46333334D02*
X116776190Y-46000000D01*
X117252381Y-45761905D02*
X116252381Y-45761905D01*
X116252381Y-46142858D01*
X116300000Y-46238096D01*
X116347619Y-46285715D01*
X116442857Y-46333334D01*
X116585714Y-46333334D01*
X116680952Y-46285715D01*
X116728571Y-46238096D01*
X116776190Y-46142858D01*
X116776190Y-45761905D01*
X116680952Y-46904762D02*
X116633333Y-46809524D01*
X116585714Y-46761905D01*
X116490476Y-46714286D01*
X116442857Y-46714286D01*
X116347619Y-46761905D01*
X116300000Y-46809524D01*
X116252381Y-46904762D01*
X116252381Y-47095239D01*
X116300000Y-47190477D01*
X116347619Y-47238096D01*
X116442857Y-47285715D01*
X116490476Y-47285715D01*
X116585714Y-47238096D01*
X116633333Y-47190477D01*
X116680952Y-47095239D01*
X116680952Y-46904762D01*
X116728571Y-46809524D01*
X116776190Y-46761905D01*
X116871429Y-46714286D01*
X117061905Y-46714286D01*
X117157143Y-46761905D01*
X117204762Y-46809524D01*
X117252381Y-46904762D01*
X117252381Y-47095239D01*
X117204762Y-47190477D01*
X117157143Y-47238096D01*
X117061905Y-47285715D01*
X116871429Y-47285715D01*
X116776190Y-47238096D01*
X116728571Y-47190477D01*
X116680952Y-47095239D01*
X117252381Y-56833334D02*
X116776190Y-56500000D01*
X117252381Y-56261905D02*
X116252381Y-56261905D01*
X116252381Y-56642858D01*
X116300000Y-56738096D01*
X116347619Y-56785715D01*
X116442857Y-56833334D01*
X116585714Y-56833334D01*
X116680952Y-56785715D01*
X116728571Y-56738096D01*
X116776190Y-56642858D01*
X116776190Y-56261905D01*
X117252381Y-57309524D02*
X117252381Y-57500000D01*
X117204762Y-57595239D01*
X117157143Y-57642858D01*
X117014286Y-57738096D01*
X116823810Y-57785715D01*
X116442857Y-57785715D01*
X116347619Y-57738096D01*
X116300000Y-57690477D01*
X116252381Y-57595239D01*
X116252381Y-57404762D01*
X116300000Y-57309524D01*
X116347619Y-57261905D01*
X116442857Y-57214286D01*
X116680952Y-57214286D01*
X116776190Y-57261905D01*
X116823810Y-57309524D01*
X116871429Y-57404762D01*
X116871429Y-57595239D01*
X116823810Y-57690477D01*
X116776190Y-57738096D01*
X116680952Y-57785715D01*
X117152381Y-66967143D02*
X116676190Y-66633809D01*
X117152381Y-66395714D02*
X116152381Y-66395714D01*
X116152381Y-66776667D01*
X116200000Y-66871905D01*
X116247619Y-66919524D01*
X116342857Y-66967143D01*
X116485714Y-66967143D01*
X116580952Y-66919524D01*
X116628571Y-66871905D01*
X116676190Y-66776667D01*
X116676190Y-66395714D01*
X117152381Y-67919524D02*
X117152381Y-67348095D01*
X117152381Y-67633809D02*
X116152381Y-67633809D01*
X116295238Y-67538571D01*
X116390476Y-67443333D01*
X116438095Y-67348095D01*
X116152381Y-68538571D02*
X116152381Y-68633810D01*
X116200000Y-68729048D01*
X116247619Y-68776667D01*
X116342857Y-68824286D01*
X116533333Y-68871905D01*
X116771429Y-68871905D01*
X116961905Y-68824286D01*
X117057143Y-68776667D01*
X117104762Y-68729048D01*
X117152381Y-68633810D01*
X117152381Y-68538571D01*
X117104762Y-68443333D01*
X117057143Y-68395714D01*
X116961905Y-68348095D01*
X116771429Y-68300476D01*
X116533333Y-68300476D01*
X116342857Y-68348095D01*
X116247619Y-68395714D01*
X116200000Y-68443333D01*
X116152381Y-68538571D01*
X117242381Y-77757143D02*
X116766190Y-77423809D01*
X117242381Y-77185714D02*
X116242381Y-77185714D01*
X116242381Y-77566667D01*
X116290000Y-77661905D01*
X116337619Y-77709524D01*
X116432857Y-77757143D01*
X116575714Y-77757143D01*
X116670952Y-77709524D01*
X116718571Y-77661905D01*
X116766190Y-77566667D01*
X116766190Y-77185714D01*
X117242381Y-78709524D02*
X117242381Y-78138095D01*
X117242381Y-78423809D02*
X116242381Y-78423809D01*
X116385238Y-78328571D01*
X116480476Y-78233333D01*
X116528095Y-78138095D01*
X117242381Y-79661905D02*
X117242381Y-79090476D01*
X117242381Y-79376190D02*
X116242381Y-79376190D01*
X116385238Y-79280952D01*
X116480476Y-79185714D01*
X116528095Y-79090476D01*
X178442857Y-51352381D02*
X178776191Y-50876190D01*
X179014286Y-51352381D02*
X179014286Y-50352381D01*
X178633333Y-50352381D01*
X178538095Y-50400000D01*
X178490476Y-50447619D01*
X178442857Y-50542857D01*
X178442857Y-50685714D01*
X178490476Y-50780952D01*
X178538095Y-50828571D01*
X178633333Y-50876190D01*
X179014286Y-50876190D01*
X177490476Y-51352381D02*
X178061905Y-51352381D01*
X177776191Y-51352381D02*
X177776191Y-50352381D01*
X177871429Y-50495238D01*
X177966667Y-50590476D01*
X178061905Y-50638095D01*
X177109524Y-50447619D02*
X177061905Y-50400000D01*
X176966667Y-50352381D01*
X176728571Y-50352381D01*
X176633333Y-50400000D01*
X176585714Y-50447619D01*
X176538095Y-50542857D01*
X176538095Y-50638095D01*
X176585714Y-50780952D01*
X177157143Y-51352381D01*
X176538095Y-51352381D01*
X178442857Y-47152381D02*
X178776191Y-46676190D01*
X179014286Y-47152381D02*
X179014286Y-46152381D01*
X178633333Y-46152381D01*
X178538095Y-46200000D01*
X178490476Y-46247619D01*
X178442857Y-46342857D01*
X178442857Y-46485714D01*
X178490476Y-46580952D01*
X178538095Y-46628571D01*
X178633333Y-46676190D01*
X179014286Y-46676190D01*
X177490476Y-47152381D02*
X178061905Y-47152381D01*
X177776191Y-47152381D02*
X177776191Y-46152381D01*
X177871429Y-46295238D01*
X177966667Y-46390476D01*
X178061905Y-46438095D01*
X177157143Y-46152381D02*
X176538095Y-46152381D01*
X176871429Y-46533333D01*
X176728571Y-46533333D01*
X176633333Y-46580952D01*
X176585714Y-46628571D01*
X176538095Y-46723810D01*
X176538095Y-46961905D01*
X176585714Y-47057143D01*
X176633333Y-47104762D01*
X176728571Y-47152381D01*
X177014286Y-47152381D01*
X177109524Y-47104762D01*
X177157143Y-47057143D01*
X154552381Y-48057143D02*
X154076190Y-47723809D01*
X154552381Y-47485714D02*
X153552381Y-47485714D01*
X153552381Y-47866667D01*
X153600000Y-47961905D01*
X153647619Y-48009524D01*
X153742857Y-48057143D01*
X153885714Y-48057143D01*
X153980952Y-48009524D01*
X154028571Y-47961905D01*
X154076190Y-47866667D01*
X154076190Y-47485714D01*
X154552381Y-49009524D02*
X154552381Y-48438095D01*
X154552381Y-48723809D02*
X153552381Y-48723809D01*
X153695238Y-48628571D01*
X153790476Y-48533333D01*
X153838095Y-48438095D01*
X153885714Y-49866667D02*
X154552381Y-49866667D01*
X153504762Y-49628571D02*
X154219048Y-49390476D01*
X154219048Y-50009524D01*
X154552381Y-54357143D02*
X154076190Y-54023809D01*
X154552381Y-53785714D02*
X153552381Y-53785714D01*
X153552381Y-54166667D01*
X153600000Y-54261905D01*
X153647619Y-54309524D01*
X153742857Y-54357143D01*
X153885714Y-54357143D01*
X153980952Y-54309524D01*
X154028571Y-54261905D01*
X154076190Y-54166667D01*
X154076190Y-53785714D01*
X154552381Y-55309524D02*
X154552381Y-54738095D01*
X154552381Y-55023809D02*
X153552381Y-55023809D01*
X153695238Y-54928571D01*
X153790476Y-54833333D01*
X153838095Y-54738095D01*
X153552381Y-56214286D02*
X153552381Y-55738095D01*
X154028571Y-55690476D01*
X153980952Y-55738095D01*
X153933333Y-55833333D01*
X153933333Y-56071429D01*
X153980952Y-56166667D01*
X154028571Y-56214286D01*
X154123810Y-56261905D01*
X154361905Y-56261905D01*
X154457143Y-56214286D01*
X154504762Y-56166667D01*
X154552381Y-56071429D01*
X154552381Y-55833333D01*
X154504762Y-55738095D01*
X154457143Y-55690476D01*
X132542857Y-46652381D02*
X132876191Y-46176190D01*
X133114286Y-46652381D02*
X133114286Y-45652381D01*
X132733333Y-45652381D01*
X132638095Y-45700000D01*
X132590476Y-45747619D01*
X132542857Y-45842857D01*
X132542857Y-45985714D01*
X132590476Y-46080952D01*
X132638095Y-46128571D01*
X132733333Y-46176190D01*
X133114286Y-46176190D01*
X131590476Y-46652381D02*
X132161905Y-46652381D01*
X131876191Y-46652381D02*
X131876191Y-45652381D01*
X131971429Y-45795238D01*
X132066667Y-45890476D01*
X132161905Y-45938095D01*
X130733333Y-45652381D02*
X130923810Y-45652381D01*
X131019048Y-45700000D01*
X131066667Y-45747619D01*
X131161905Y-45890476D01*
X131209524Y-46080952D01*
X131209524Y-46461905D01*
X131161905Y-46557143D01*
X131114286Y-46604762D01*
X131019048Y-46652381D01*
X130828571Y-46652381D01*
X130733333Y-46604762D01*
X130685714Y-46557143D01*
X130638095Y-46461905D01*
X130638095Y-46223810D01*
X130685714Y-46128571D01*
X130733333Y-46080952D01*
X130828571Y-46033333D01*
X131019048Y-46033333D01*
X131114286Y-46080952D01*
X131161905Y-46128571D01*
X131209524Y-46223810D01*
X136442857Y-53152381D02*
X136776191Y-52676190D01*
X137014286Y-53152381D02*
X137014286Y-52152381D01*
X136633333Y-52152381D01*
X136538095Y-52200000D01*
X136490476Y-52247619D01*
X136442857Y-52342857D01*
X136442857Y-52485714D01*
X136490476Y-52580952D01*
X136538095Y-52628571D01*
X136633333Y-52676190D01*
X137014286Y-52676190D01*
X135490476Y-53152381D02*
X136061905Y-53152381D01*
X135776191Y-53152381D02*
X135776191Y-52152381D01*
X135871429Y-52295238D01*
X135966667Y-52390476D01*
X136061905Y-52438095D01*
X135157143Y-52152381D02*
X134490476Y-52152381D01*
X134919048Y-53152381D01*
X122442857Y-46452381D02*
X122776191Y-45976190D01*
X123014286Y-46452381D02*
X123014286Y-45452381D01*
X122633333Y-45452381D01*
X122538095Y-45500000D01*
X122490476Y-45547619D01*
X122442857Y-45642857D01*
X122442857Y-45785714D01*
X122490476Y-45880952D01*
X122538095Y-45928571D01*
X122633333Y-45976190D01*
X123014286Y-45976190D01*
X121490476Y-46452381D02*
X122061905Y-46452381D01*
X121776191Y-46452381D02*
X121776191Y-45452381D01*
X121871429Y-45595238D01*
X121966667Y-45690476D01*
X122061905Y-45738095D01*
X120919048Y-45880952D02*
X121014286Y-45833333D01*
X121061905Y-45785714D01*
X121109524Y-45690476D01*
X121109524Y-45642857D01*
X121061905Y-45547619D01*
X121014286Y-45500000D01*
X120919048Y-45452381D01*
X120728571Y-45452381D01*
X120633333Y-45500000D01*
X120585714Y-45547619D01*
X120538095Y-45642857D01*
X120538095Y-45690476D01*
X120585714Y-45785714D01*
X120633333Y-45833333D01*
X120728571Y-45880952D01*
X120919048Y-45880952D01*
X121014286Y-45928571D01*
X121061905Y-45976190D01*
X121109524Y-46071429D01*
X121109524Y-46261905D01*
X121061905Y-46357143D01*
X121014286Y-46404762D01*
X120919048Y-46452381D01*
X120728571Y-46452381D01*
X120633333Y-46404762D01*
X120585714Y-46357143D01*
X120538095Y-46261905D01*
X120538095Y-46071429D01*
X120585714Y-45976190D01*
X120633333Y-45928571D01*
X120728571Y-45880952D01*
X178604762Y-68852501D02*
X178366667Y-69852501D01*
X178176190Y-69138215D01*
X177985714Y-69852501D01*
X177747619Y-68852501D01*
X176842857Y-69852501D02*
X177414286Y-69852501D01*
X177128572Y-69852501D02*
X177128572Y-68852501D01*
X177223810Y-68995358D01*
X177319048Y-69090596D01*
X177414286Y-69138215D01*
X171404762Y-68852501D02*
X171166667Y-69852501D01*
X170976190Y-69138215D01*
X170785714Y-69852501D01*
X170547619Y-68852501D01*
X170214286Y-68947739D02*
X170166667Y-68900120D01*
X170071429Y-68852501D01*
X169833333Y-68852501D01*
X169738095Y-68900120D01*
X169690476Y-68947739D01*
X169642857Y-69042977D01*
X169642857Y-69138215D01*
X169690476Y-69281072D01*
X170261905Y-69852501D01*
X169642857Y-69852501D01*
X164204762Y-68852501D02*
X163966667Y-69852501D01*
X163776190Y-69138215D01*
X163585714Y-69852501D01*
X163347619Y-68852501D01*
X163061905Y-68852501D02*
X162442857Y-68852501D01*
X162776191Y-69233453D01*
X162633333Y-69233453D01*
X162538095Y-69281072D01*
X162490476Y-69328691D01*
X162442857Y-69423930D01*
X162442857Y-69662025D01*
X162490476Y-69757263D01*
X162538095Y-69804882D01*
X162633333Y-69852501D01*
X162919048Y-69852501D01*
X163014286Y-69804882D01*
X163061905Y-69757263D01*
X157004762Y-68852501D02*
X156766667Y-69852501D01*
X156576190Y-69138215D01*
X156385714Y-69852501D01*
X156147619Y-68852501D01*
X155338095Y-69185834D02*
X155338095Y-69852501D01*
X155576191Y-68804882D02*
X155814286Y-69519168D01*
X155195238Y-69519168D01*
X149804762Y-68852501D02*
X149566667Y-69852501D01*
X149376190Y-69138215D01*
X149185714Y-69852501D01*
X148947619Y-68852501D01*
X148090476Y-68852501D02*
X148566667Y-68852501D01*
X148614286Y-69328691D01*
X148566667Y-69281072D01*
X148471429Y-69233453D01*
X148233333Y-69233453D01*
X148138095Y-69281072D01*
X148090476Y-69328691D01*
X148042857Y-69423930D01*
X148042857Y-69662025D01*
X148090476Y-69757263D01*
X148138095Y-69804882D01*
X148233333Y-69852501D01*
X148471429Y-69852501D01*
X148566667Y-69804882D01*
X148614286Y-69757263D01*
%LPC*%
D14*
G36*
X135959530Y-79810328D02*
X135929902Y-79963449D01*
X135901746Y-80099644D01*
X135876883Y-80210818D01*
X135857134Y-80288872D01*
X135844320Y-80325710D01*
X135843357Y-80326954D01*
X135811496Y-80345112D01*
X135742900Y-80376930D01*
X135648554Y-80417918D01*
X135539444Y-80463586D01*
X135426556Y-80509446D01*
X135320876Y-80551007D01*
X135233389Y-80583780D01*
X135175080Y-80603276D01*
X135158744Y-80606734D01*
X135129779Y-80592887D01*
X135066014Y-80554371D01*
X134974526Y-80495723D01*
X134862392Y-80421481D01*
X134736686Y-80336180D01*
X134735807Y-80335576D01*
X134609344Y-80249290D01*
X134495925Y-80172896D01*
X134402796Y-80111195D01*
X134337208Y-80068991D01*
X134306500Y-80051122D01*
X134278436Y-80064137D01*
X134222328Y-80107903D01*
X134144897Y-80175781D01*
X134052862Y-80261132D01*
X133952944Y-80357314D01*
X133851863Y-80457688D01*
X133756338Y-80555613D01*
X133673089Y-80644451D01*
X133608836Y-80717560D01*
X133570299Y-80768301D01*
X133562211Y-80786565D01*
X133576066Y-80819566D01*
X133614584Y-80887047D01*
X133673195Y-80981627D01*
X133747330Y-81095929D01*
X133830251Y-81219397D01*
X133915000Y-81345209D01*
X133988726Y-81457794D01*
X134046880Y-81549950D01*
X134084917Y-81614472D01*
X134098292Y-81643988D01*
X134088467Y-81678578D01*
X134062034Y-81748968D01*
X134023556Y-81844500D01*
X133977597Y-81954518D01*
X133928720Y-82068363D01*
X133881487Y-82175377D01*
X133840462Y-82264902D01*
X133810209Y-82326280D01*
X133796938Y-82347846D01*
X133769085Y-82356568D01*
X133700478Y-82372805D01*
X133600544Y-82394665D01*
X133478712Y-82420253D01*
X133344408Y-82447678D01*
X133207061Y-82475047D01*
X133076097Y-82500467D01*
X132960944Y-82522045D01*
X132871029Y-82537889D01*
X132815780Y-82546105D01*
X132805806Y-82546834D01*
X132800459Y-82570820D01*
X132796877Y-82636685D01*
X132794921Y-82735287D01*
X132794455Y-82857484D01*
X132795338Y-82994135D01*
X132797434Y-83136098D01*
X132800605Y-83274233D01*
X132804712Y-83399397D01*
X132809617Y-83502450D01*
X132815182Y-83574249D01*
X132821269Y-83605654D01*
X132821806Y-83606167D01*
X132854088Y-83615760D01*
X132928029Y-83632709D01*
X133035066Y-83655207D01*
X133166631Y-83681447D01*
X133295964Y-83706210D01*
X133445010Y-83735810D01*
X133576304Y-83764907D01*
X133681336Y-83791384D01*
X133751598Y-83813123D01*
X133777387Y-83826024D01*
X133798275Y-83861981D01*
X133832330Y-83934727D01*
X133875176Y-84033408D01*
X133922439Y-84147169D01*
X133969744Y-84265157D01*
X134012716Y-84376517D01*
X134046979Y-84470395D01*
X134068160Y-84535936D01*
X134072859Y-84559089D01*
X134058916Y-84590255D01*
X134020301Y-84655693D01*
X133961738Y-84747933D01*
X133887951Y-84859503D01*
X133817487Y-84962948D01*
X133734402Y-85085735D01*
X133662624Y-85196326D01*
X133606903Y-85287032D01*
X133571987Y-85350166D01*
X133562211Y-85376161D01*
X133579420Y-85404816D01*
X133626563Y-85461962D01*
X133696914Y-85540681D01*
X133783747Y-85634057D01*
X133880335Y-85735174D01*
X133979953Y-85837116D01*
X134075874Y-85932965D01*
X134161372Y-86015807D01*
X134229722Y-86078724D01*
X134274196Y-86114801D01*
X134286281Y-86120703D01*
X134313448Y-86106926D01*
X134375151Y-86068779D01*
X134464009Y-86011037D01*
X134572638Y-85938477D01*
X134662237Y-85877484D01*
X134782691Y-85795568D01*
X134890641Y-85723487D01*
X134978163Y-85666430D01*
X135037334Y-85629582D01*
X135057869Y-85618503D01*
X135099928Y-85621412D01*
X135172684Y-85643964D01*
X135261870Y-85681625D01*
X135272563Y-85686734D01*
X135360835Y-85725589D01*
X135434158Y-85750898D01*
X135478435Y-85757915D01*
X135481633Y-85757122D01*
X135496948Y-85732305D01*
X135528944Y-85666864D01*
X135574813Y-85567360D01*
X135631743Y-85440358D01*
X135696925Y-85292420D01*
X135767549Y-85130109D01*
X135840804Y-84959990D01*
X135913882Y-84788624D01*
X135983971Y-84622574D01*
X136048262Y-84468405D01*
X136103945Y-84332679D01*
X136148210Y-84221959D01*
X136178246Y-84142808D01*
X136191244Y-84101789D01*
X136191558Y-84099006D01*
X136172435Y-84077774D01*
X136121370Y-84034510D01*
X136047823Y-83977060D01*
X136013852Y-83951586D01*
X135835944Y-83791800D01*
X135700517Y-83611344D01*
X135607986Y-83415978D01*
X135558767Y-83211461D01*
X135553274Y-83003552D01*
X135591922Y-82798010D01*
X135675127Y-82600595D01*
X135803304Y-82417065D01*
X135896314Y-82321180D01*
X136072364Y-82190241D01*
X136261478Y-82104272D01*
X136457959Y-82060760D01*
X136656112Y-82057193D01*
X136850240Y-82091056D01*
X137034649Y-82159836D01*
X137203642Y-82261020D01*
X137351524Y-82392094D01*
X137472599Y-82550546D01*
X137561171Y-82733861D01*
X137611544Y-82939526D01*
X137621106Y-83082278D01*
X137596973Y-83310942D01*
X137525070Y-83522294D01*
X137406135Y-83714937D01*
X137240909Y-83887474D01*
X137160621Y-83951586D01*
X137080668Y-84012545D01*
X137019373Y-84062490D01*
X136986195Y-84093576D01*
X136982915Y-84099006D01*
X136992627Y-84132796D01*
X137019889Y-84205854D01*
X137061888Y-84311614D01*
X137115813Y-84443514D01*
X137178849Y-84594991D01*
X137248186Y-84759481D01*
X137321011Y-84930421D01*
X137394511Y-85101249D01*
X137465874Y-85265399D01*
X137532288Y-85416310D01*
X137590939Y-85547418D01*
X137639017Y-85652160D01*
X137673708Y-85723973D01*
X137692199Y-85756292D01*
X137693544Y-85757392D01*
X137732254Y-85753219D01*
X137802373Y-85729686D01*
X137890304Y-85691543D01*
X137911532Y-85681245D01*
X138093367Y-85591223D01*
X138480328Y-85855963D01*
X138604404Y-85940073D01*
X138714390Y-86013161D01*
X138803243Y-86070665D01*
X138863921Y-86108024D01*
X138889112Y-86120703D01*
X138913092Y-86103434D01*
X138967010Y-86055321D01*
X139044990Y-85981907D01*
X139141156Y-85888735D01*
X139249630Y-85781347D01*
X139261598Y-85769368D01*
X139370297Y-85658356D01*
X139465285Y-85557324D01*
X139540976Y-85472547D01*
X139591782Y-85410300D01*
X139612117Y-85376859D01*
X139612261Y-85375488D01*
X139598301Y-85341409D01*
X139559586Y-85273334D01*
X139500863Y-85178935D01*
X139426880Y-85065885D01*
X139356985Y-84962948D01*
X139274043Y-84840894D01*
X139202348Y-84731881D01*
X139146622Y-84643379D01*
X139111591Y-84582859D01*
X139101614Y-84559089D01*
X139111088Y-84519716D01*
X139136695Y-84444442D01*
X139174059Y-84344120D01*
X139218806Y-84229606D01*
X139266560Y-84111752D01*
X139312947Y-84001415D01*
X139353591Y-83909446D01*
X139384118Y-83846702D01*
X139397086Y-83826024D01*
X139432128Y-83809809D01*
X139508984Y-83787103D01*
X139619146Y-83760024D01*
X139754104Y-83730689D01*
X139878509Y-83706210D01*
X140024580Y-83678173D01*
X140153663Y-83652285D01*
X140257194Y-83630355D01*
X140326605Y-83614191D01*
X140352666Y-83606167D01*
X140358791Y-83578619D01*
X140364406Y-83509899D01*
X140369373Y-83409149D01*
X140373553Y-83285509D01*
X140376808Y-83148121D01*
X140379001Y-83006128D01*
X140379993Y-82868669D01*
X140379646Y-82744888D01*
X140377823Y-82643924D01*
X140374385Y-82574920D01*
X140369193Y-82547018D01*
X140368666Y-82546834D01*
X140329137Y-82542028D01*
X140251344Y-82528873D01*
X140144713Y-82509260D01*
X140018672Y-82485084D01*
X139882649Y-82458236D01*
X139746071Y-82430609D01*
X139618365Y-82404096D01*
X139508960Y-82380590D01*
X139427281Y-82361983D01*
X139382758Y-82350168D01*
X139377534Y-82347846D01*
X139358993Y-82316182D01*
X139326083Y-82247966D01*
X139283366Y-82153856D01*
X139235405Y-82044510D01*
X139186764Y-81930586D01*
X139142006Y-81822742D01*
X139105694Y-81731635D01*
X139082391Y-81667924D01*
X139076181Y-81643988D01*
X139089993Y-81613675D01*
X139128396Y-81548642D01*
X139186843Y-81456093D01*
X139260786Y-81343233D01*
X139344221Y-81219397D01*
X139429098Y-81092966D01*
X139502909Y-80979058D01*
X139561085Y-80885050D01*
X139599056Y-80818322D01*
X139612261Y-80786565D01*
X139594894Y-80754688D01*
X139547272Y-80695958D01*
X139476116Y-80617015D01*
X139388145Y-80524499D01*
X139290080Y-80425051D01*
X139188639Y-80325310D01*
X139090544Y-80231916D01*
X139002513Y-80151510D01*
X138931268Y-80090731D01*
X138883527Y-80056219D01*
X138867972Y-80051122D01*
X138836853Y-80069248D01*
X138771006Y-80111634D01*
X138677679Y-80173476D01*
X138564121Y-80249973D01*
X138438666Y-80335576D01*
X138312893Y-80420936D01*
X138200643Y-80495269D01*
X138108991Y-80554037D01*
X138045015Y-80592704D01*
X138015792Y-80606733D01*
X138015729Y-80606734D01*
X137979984Y-80597263D01*
X137908527Y-80571846D01*
X137812343Y-80534970D01*
X137702418Y-80491126D01*
X137589737Y-80444803D01*
X137485287Y-80400491D01*
X137400052Y-80362678D01*
X137345018Y-80335854D01*
X137331115Y-80326954D01*
X137319232Y-80295471D01*
X137300201Y-80221824D01*
X137275843Y-80114109D01*
X137247978Y-79980424D01*
X137218428Y-79828867D01*
X137214942Y-79810328D01*
X137122655Y-79317588D01*
X136051817Y-79317588D01*
X135959530Y-79810328D01*
X135959530Y-79810328D01*
G37*
X135959530Y-79810328D02*
X135929902Y-79963449D01*
X135901746Y-80099644D01*
X135876883Y-80210818D01*
X135857134Y-80288872D01*
X135844320Y-80325710D01*
X135843357Y-80326954D01*
X135811496Y-80345112D01*
X135742900Y-80376930D01*
X135648554Y-80417918D01*
X135539444Y-80463586D01*
X135426556Y-80509446D01*
X135320876Y-80551007D01*
X135233389Y-80583780D01*
X135175080Y-80603276D01*
X135158744Y-80606734D01*
X135129779Y-80592887D01*
X135066014Y-80554371D01*
X134974526Y-80495723D01*
X134862392Y-80421481D01*
X134736686Y-80336180D01*
X134735807Y-80335576D01*
X134609344Y-80249290D01*
X134495925Y-80172896D01*
X134402796Y-80111195D01*
X134337208Y-80068991D01*
X134306500Y-80051122D01*
X134278436Y-80064137D01*
X134222328Y-80107903D01*
X134144897Y-80175781D01*
X134052862Y-80261132D01*
X133952944Y-80357314D01*
X133851863Y-80457688D01*
X133756338Y-80555613D01*
X133673089Y-80644451D01*
X133608836Y-80717560D01*
X133570299Y-80768301D01*
X133562211Y-80786565D01*
X133576066Y-80819566D01*
X133614584Y-80887047D01*
X133673195Y-80981627D01*
X133747330Y-81095929D01*
X133830251Y-81219397D01*
X133915000Y-81345209D01*
X133988726Y-81457794D01*
X134046880Y-81549950D01*
X134084917Y-81614472D01*
X134098292Y-81643988D01*
X134088467Y-81678578D01*
X134062034Y-81748968D01*
X134023556Y-81844500D01*
X133977597Y-81954518D01*
X133928720Y-82068363D01*
X133881487Y-82175377D01*
X133840462Y-82264902D01*
X133810209Y-82326280D01*
X133796938Y-82347846D01*
X133769085Y-82356568D01*
X133700478Y-82372805D01*
X133600544Y-82394665D01*
X133478712Y-82420253D01*
X133344408Y-82447678D01*
X133207061Y-82475047D01*
X133076097Y-82500467D01*
X132960944Y-82522045D01*
X132871029Y-82537889D01*
X132815780Y-82546105D01*
X132805806Y-82546834D01*
X132800459Y-82570820D01*
X132796877Y-82636685D01*
X132794921Y-82735287D01*
X132794455Y-82857484D01*
X132795338Y-82994135D01*
X132797434Y-83136098D01*
X132800605Y-83274233D01*
X132804712Y-83399397D01*
X132809617Y-83502450D01*
X132815182Y-83574249D01*
X132821269Y-83605654D01*
X132821806Y-83606167D01*
X132854088Y-83615760D01*
X132928029Y-83632709D01*
X133035066Y-83655207D01*
X133166631Y-83681447D01*
X133295964Y-83706210D01*
X133445010Y-83735810D01*
X133576304Y-83764907D01*
X133681336Y-83791384D01*
X133751598Y-83813123D01*
X133777387Y-83826024D01*
X133798275Y-83861981D01*
X133832330Y-83934727D01*
X133875176Y-84033408D01*
X133922439Y-84147169D01*
X133969744Y-84265157D01*
X134012716Y-84376517D01*
X134046979Y-84470395D01*
X134068160Y-84535936D01*
X134072859Y-84559089D01*
X134058916Y-84590255D01*
X134020301Y-84655693D01*
X133961738Y-84747933D01*
X133887951Y-84859503D01*
X133817487Y-84962948D01*
X133734402Y-85085735D01*
X133662624Y-85196326D01*
X133606903Y-85287032D01*
X133571987Y-85350166D01*
X133562211Y-85376161D01*
X133579420Y-85404816D01*
X133626563Y-85461962D01*
X133696914Y-85540681D01*
X133783747Y-85634057D01*
X133880335Y-85735174D01*
X133979953Y-85837116D01*
X134075874Y-85932965D01*
X134161372Y-86015807D01*
X134229722Y-86078724D01*
X134274196Y-86114801D01*
X134286281Y-86120703D01*
X134313448Y-86106926D01*
X134375151Y-86068779D01*
X134464009Y-86011037D01*
X134572638Y-85938477D01*
X134662237Y-85877484D01*
X134782691Y-85795568D01*
X134890641Y-85723487D01*
X134978163Y-85666430D01*
X135037334Y-85629582D01*
X135057869Y-85618503D01*
X135099928Y-85621412D01*
X135172684Y-85643964D01*
X135261870Y-85681625D01*
X135272563Y-85686734D01*
X135360835Y-85725589D01*
X135434158Y-85750898D01*
X135478435Y-85757915D01*
X135481633Y-85757122D01*
X135496948Y-85732305D01*
X135528944Y-85666864D01*
X135574813Y-85567360D01*
X135631743Y-85440358D01*
X135696925Y-85292420D01*
X135767549Y-85130109D01*
X135840804Y-84959990D01*
X135913882Y-84788624D01*
X135983971Y-84622574D01*
X136048262Y-84468405D01*
X136103945Y-84332679D01*
X136148210Y-84221959D01*
X136178246Y-84142808D01*
X136191244Y-84101789D01*
X136191558Y-84099006D01*
X136172435Y-84077774D01*
X136121370Y-84034510D01*
X136047823Y-83977060D01*
X136013852Y-83951586D01*
X135835944Y-83791800D01*
X135700517Y-83611344D01*
X135607986Y-83415978D01*
X135558767Y-83211461D01*
X135553274Y-83003552D01*
X135591922Y-82798010D01*
X135675127Y-82600595D01*
X135803304Y-82417065D01*
X135896314Y-82321180D01*
X136072364Y-82190241D01*
X136261478Y-82104272D01*
X136457959Y-82060760D01*
X136656112Y-82057193D01*
X136850240Y-82091056D01*
X137034649Y-82159836D01*
X137203642Y-82261020D01*
X137351524Y-82392094D01*
X137472599Y-82550546D01*
X137561171Y-82733861D01*
X137611544Y-82939526D01*
X137621106Y-83082278D01*
X137596973Y-83310942D01*
X137525070Y-83522294D01*
X137406135Y-83714937D01*
X137240909Y-83887474D01*
X137160621Y-83951586D01*
X137080668Y-84012545D01*
X137019373Y-84062490D01*
X136986195Y-84093576D01*
X136982915Y-84099006D01*
X136992627Y-84132796D01*
X137019889Y-84205854D01*
X137061888Y-84311614D01*
X137115813Y-84443514D01*
X137178849Y-84594991D01*
X137248186Y-84759481D01*
X137321011Y-84930421D01*
X137394511Y-85101249D01*
X137465874Y-85265399D01*
X137532288Y-85416310D01*
X137590939Y-85547418D01*
X137639017Y-85652160D01*
X137673708Y-85723973D01*
X137692199Y-85756292D01*
X137693544Y-85757392D01*
X137732254Y-85753219D01*
X137802373Y-85729686D01*
X137890304Y-85691543D01*
X137911532Y-85681245D01*
X138093367Y-85591223D01*
X138480328Y-85855963D01*
X138604404Y-85940073D01*
X138714390Y-86013161D01*
X138803243Y-86070665D01*
X138863921Y-86108024D01*
X138889112Y-86120703D01*
X138913092Y-86103434D01*
X138967010Y-86055321D01*
X139044990Y-85981907D01*
X139141156Y-85888735D01*
X139249630Y-85781347D01*
X139261598Y-85769368D01*
X139370297Y-85658356D01*
X139465285Y-85557324D01*
X139540976Y-85472547D01*
X139591782Y-85410300D01*
X139612117Y-85376859D01*
X139612261Y-85375488D01*
X139598301Y-85341409D01*
X139559586Y-85273334D01*
X139500863Y-85178935D01*
X139426880Y-85065885D01*
X139356985Y-84962948D01*
X139274043Y-84840894D01*
X139202348Y-84731881D01*
X139146622Y-84643379D01*
X139111591Y-84582859D01*
X139101614Y-84559089D01*
X139111088Y-84519716D01*
X139136695Y-84444442D01*
X139174059Y-84344120D01*
X139218806Y-84229606D01*
X139266560Y-84111752D01*
X139312947Y-84001415D01*
X139353591Y-83909446D01*
X139384118Y-83846702D01*
X139397086Y-83826024D01*
X139432128Y-83809809D01*
X139508984Y-83787103D01*
X139619146Y-83760024D01*
X139754104Y-83730689D01*
X139878509Y-83706210D01*
X140024580Y-83678173D01*
X140153663Y-83652285D01*
X140257194Y-83630355D01*
X140326605Y-83614191D01*
X140352666Y-83606167D01*
X140358791Y-83578619D01*
X140364406Y-83509899D01*
X140369373Y-83409149D01*
X140373553Y-83285509D01*
X140376808Y-83148121D01*
X140379001Y-83006128D01*
X140379993Y-82868669D01*
X140379646Y-82744888D01*
X140377823Y-82643924D01*
X140374385Y-82574920D01*
X140369193Y-82547018D01*
X140368666Y-82546834D01*
X140329137Y-82542028D01*
X140251344Y-82528873D01*
X140144713Y-82509260D01*
X140018672Y-82485084D01*
X139882649Y-82458236D01*
X139746071Y-82430609D01*
X139618365Y-82404096D01*
X139508960Y-82380590D01*
X139427281Y-82361983D01*
X139382758Y-82350168D01*
X139377534Y-82347846D01*
X139358993Y-82316182D01*
X139326083Y-82247966D01*
X139283366Y-82153856D01*
X139235405Y-82044510D01*
X139186764Y-81930586D01*
X139142006Y-81822742D01*
X139105694Y-81731635D01*
X139082391Y-81667924D01*
X139076181Y-81643988D01*
X139089993Y-81613675D01*
X139128396Y-81548642D01*
X139186843Y-81456093D01*
X139260786Y-81343233D01*
X139344221Y-81219397D01*
X139429098Y-81092966D01*
X139502909Y-80979058D01*
X139561085Y-80885050D01*
X139599056Y-80818322D01*
X139612261Y-80786565D01*
X139594894Y-80754688D01*
X139547272Y-80695958D01*
X139476116Y-80617015D01*
X139388145Y-80524499D01*
X139290080Y-80425051D01*
X139188639Y-80325310D01*
X139090544Y-80231916D01*
X139002513Y-80151510D01*
X138931268Y-80090731D01*
X138883527Y-80056219D01*
X138867972Y-80051122D01*
X138836853Y-80069248D01*
X138771006Y-80111634D01*
X138677679Y-80173476D01*
X138564121Y-80249973D01*
X138438666Y-80335576D01*
X138312893Y-80420936D01*
X138200643Y-80495269D01*
X138108991Y-80554037D01*
X138045015Y-80592704D01*
X138015792Y-80606733D01*
X138015729Y-80606734D01*
X137979984Y-80597263D01*
X137908527Y-80571846D01*
X137812343Y-80534970D01*
X137702418Y-80491126D01*
X137589737Y-80444803D01*
X137485287Y-80400491D01*
X137400052Y-80362678D01*
X137345018Y-80335854D01*
X137331115Y-80326954D01*
X137319232Y-80295471D01*
X137300201Y-80221824D01*
X137275843Y-80114109D01*
X137247978Y-79980424D01*
X137218428Y-79828867D01*
X137214942Y-79810328D01*
X137122655Y-79317588D01*
X136051817Y-79317588D01*
X135959530Y-79810328D01*
D15*
X147800000Y-41501020D03*
X147800000Y-45498980D03*
X147600000Y-51701020D03*
X147600000Y-55698980D03*
D16*
X130050000Y-73000000D03*
X127550000Y-73000000D03*
X132550000Y-66800000D03*
X130050000Y-66800000D03*
X132950000Y-58030000D03*
X130450000Y-58030000D03*
X132550000Y-75800000D03*
X130050000Y-75800000D03*
X137350000Y-75800000D03*
X134850000Y-75800000D03*
D17*
X154330000Y-77480000D03*
X154330000Y-79980000D03*
X168330000Y-77480000D03*
X168330000Y-79980000D03*
X182330000Y-77480000D03*
X182330000Y-79980000D03*
X108700000Y-45250000D03*
X108700000Y-47750000D03*
X108800000Y-55750000D03*
X108800000Y-58250000D03*
X108800000Y-66360000D03*
X108800000Y-68860000D03*
X108790000Y-76950000D03*
X108790000Y-79450000D03*
D16*
X178950000Y-44600000D03*
X176450000Y-44600000D03*
D18*
X165398980Y-51100000D03*
X161401020Y-51100000D03*
D19*
X127449640Y-40850900D03*
X123050360Y-40850900D03*
D20*
X184600000Y-55000000D03*
D21*
X187140000Y-55000000D03*
X184600000Y-57540000D03*
X187140000Y-57540000D03*
X184600000Y-60080000D03*
X187140000Y-60080000D03*
X184600000Y-62620000D03*
X187140000Y-62620000D03*
X184600000Y-65160000D03*
X187140000Y-65160000D03*
D22*
X137100000Y-49600000D03*
D23*
X137100000Y-47060000D03*
X137100000Y-44520000D03*
X137100000Y-41980000D03*
D24*
X159830000Y-44230000D03*
X160830000Y-44230000D03*
X161830000Y-44230000D03*
X162830000Y-44230000D03*
X163830000Y-44230000D03*
X164830000Y-44230000D03*
X165830000Y-44230000D03*
X166830000Y-44230000D03*
D25*
X169830000Y-41230000D03*
X156830000Y-41230000D03*
D26*
X160300260Y-55800000D03*
X166299740Y-55800000D03*
D27*
X126900000Y-83150000D03*
X126900000Y-80450000D03*
X121700000Y-83150000D03*
X121700000Y-80450000D03*
X124300000Y-83150000D03*
X124300000Y-80450000D03*
X119100000Y-83150000D03*
X119100000Y-80450000D03*
X144330000Y-80080000D03*
X144330000Y-77380000D03*
X158330000Y-80080000D03*
X158330000Y-77380000D03*
X172330000Y-80080000D03*
X172330000Y-77380000D03*
X114700000Y-47850000D03*
X114700000Y-45150000D03*
X114700000Y-58350000D03*
X114700000Y-55650000D03*
X114600000Y-68960000D03*
X114600000Y-66260000D03*
X114690000Y-79750000D03*
X114690000Y-77050000D03*
D28*
X179150000Y-53000000D03*
X176450000Y-53000000D03*
X179150000Y-48800000D03*
X176450000Y-48800000D03*
D27*
X156200000Y-50050000D03*
X156200000Y-47350000D03*
X156200000Y-53650000D03*
X156200000Y-56350000D03*
D28*
X130550000Y-48100000D03*
X133250000Y-48100000D03*
X137150000Y-54800000D03*
X134450000Y-54800000D03*
X123150000Y-48100000D03*
X120450000Y-48100000D03*
D29*
X177700000Y-65900000D03*
X170500000Y-65900000D03*
X163300000Y-65900000D03*
X156100000Y-65900000D03*
X148900000Y-65900000D03*
D30*
X114050000Y-38610000D03*
X185900000Y-45300000D03*
M02*
