G04 #@! TF.FileFunction,Paste,Bot*
%FSLAX46Y46*%
G04 Gerber Fmt 4.6, Leading zero omitted, Abs format (unit mm)*
G04 Created by KiCad (PCBNEW 4.0.7-e1-6374~58~ubuntu16.04.1) date Sat Aug 19 03:02:01 2017*
%MOMM*%
%LPD*%
G01*
G04 APERTURE LIST*
%ADD10C,0.100000*%
%ADD11R,1.250000X1.500000*%
%ADD12R,1.500000X1.250000*%
%ADD13R,1.600000X0.550000*%
%ADD14R,0.550000X1.600000*%
%ADD15R,0.800000X0.900000*%
%ADD16R,1.300000X1.500000*%
%ADD17R,1.500000X1.300000*%
%ADD18R,2.000000X3.800000*%
%ADD19R,2.000000X1.500000*%
%ADD20R,3.200000X1.500000*%
%ADD21R,2.000000X4.500000*%
G04 APERTURE END LIST*
D10*
D11*
X131064000Y-126091000D03*
X131064000Y-123591000D03*
D12*
X148062000Y-88392000D03*
X145562000Y-88392000D03*
D11*
X126238000Y-90444000D03*
X126238000Y-92944000D03*
X126238000Y-86848000D03*
X126238000Y-84348000D03*
X126238000Y-78379000D03*
X126238000Y-80879000D03*
X122000000Y-113950000D03*
X122000000Y-111450000D03*
X136000000Y-113950000D03*
X136000000Y-111450000D03*
X150100000Y-114050000D03*
X150100000Y-111550000D03*
X135128000Y-132862000D03*
X135128000Y-135362000D03*
X143300000Y-135350000D03*
X143300000Y-132850000D03*
X157300000Y-135350000D03*
X157300000Y-132850000D03*
X171323000Y-135489000D03*
X171323000Y-132989000D03*
X134874000Y-71267000D03*
X134874000Y-73767000D03*
D13*
X134850000Y-90300000D03*
X134850000Y-89500000D03*
X134850000Y-88700000D03*
X134850000Y-87900000D03*
X134850000Y-87100000D03*
X134850000Y-86300000D03*
X134850000Y-85500000D03*
X134850000Y-84700000D03*
D14*
X136300000Y-83250000D03*
X137100000Y-83250000D03*
X137900000Y-83250000D03*
X138700000Y-83250000D03*
X139500000Y-83250000D03*
X140300000Y-83250000D03*
X141100000Y-83250000D03*
X141900000Y-83250000D03*
D13*
X143350000Y-84700000D03*
X143350000Y-85500000D03*
X143350000Y-86300000D03*
X143350000Y-87100000D03*
X143350000Y-87900000D03*
X143350000Y-88700000D03*
X143350000Y-89500000D03*
X143350000Y-90300000D03*
D14*
X141900000Y-91750000D03*
X141100000Y-91750000D03*
X140300000Y-91750000D03*
X139500000Y-91750000D03*
X138700000Y-91750000D03*
X137900000Y-91750000D03*
X137100000Y-91750000D03*
X136300000Y-91750000D03*
D15*
X139766000Y-76724000D03*
X141666000Y-76724000D03*
X140716000Y-78724000D03*
D16*
X148590000Y-71294000D03*
X148590000Y-73994000D03*
D17*
X127550000Y-97800000D03*
X130250000Y-97800000D03*
D16*
X151257000Y-71294000D03*
X151257000Y-73994000D03*
D17*
X127550000Y-102600000D03*
X130250000Y-102600000D03*
D16*
X127508000Y-111172000D03*
X127508000Y-113872000D03*
X141478000Y-111299000D03*
X141478000Y-113999000D03*
X144400000Y-111350000D03*
X144400000Y-114050000D03*
X153800000Y-127050000D03*
X153800000Y-129750000D03*
X156200000Y-126950000D03*
X156200000Y-129650000D03*
X162800000Y-132850000D03*
X162800000Y-135550000D03*
X165600000Y-132850000D03*
X165600000Y-135550000D03*
D17*
X120150000Y-89300000D03*
X117450000Y-89300000D03*
D16*
X159258000Y-87329000D03*
X159258000Y-84629000D03*
D17*
X120250000Y-100800000D03*
X117550000Y-100800000D03*
D16*
X159258000Y-91233000D03*
X159258000Y-93933000D03*
X139573000Y-73994000D03*
X139573000Y-71294000D03*
X141986000Y-71294000D03*
X141986000Y-73994000D03*
D18*
X120802000Y-125984000D03*
D19*
X127102000Y-125984000D03*
X127102000Y-128284000D03*
X127102000Y-123684000D03*
D20*
X125889000Y-131826000D03*
X129889000Y-131826000D03*
X126016000Y-120015000D03*
X130016000Y-120015000D03*
D21*
X129800000Y-86850000D03*
X129800000Y-78350000D03*
D12*
X178709000Y-109982000D03*
X181209000Y-109982000D03*
D17*
X181309000Y-113538000D03*
X178609000Y-113538000D03*
M02*
