G04 #@! TF.FileFunction,Profile,NP*
%FSLAX46Y46*%
G04 Gerber Fmt 4.6, Leading zero omitted, Abs format (unit mm)*
G04 Created by KiCad (PCBNEW 4.0.7-e1-6374~58~ubuntu16.04.1) date Thu Aug 10 00:10:15 2017*
%MOMM*%
%LPD*%
G01*
G04 APERTURE LIST*
%ADD10C,0.100000*%
%ADD11C,0.150000*%
G04 APERTURE END LIST*
D10*
D11*
X123481000Y-66611400D02*
G75*
G03X123481000Y-66611400I-1700000J0D01*
G01*
D10*
X116003020Y-142219142D02*
X115767380Y-142188825D01*
X116827090Y-142242569D02*
X116003020Y-142219142D01*
X118530330Y-142260483D02*
X116827090Y-142242569D01*
X121403570Y-142274263D02*
X118530330Y-142260483D01*
X125740200Y-142282532D02*
X121403570Y-142274263D01*
X131832600Y-142286666D02*
X125740200Y-142282532D01*
X139969900Y-142289422D02*
X131832600Y-142286666D01*
X150448400Y-142290800D02*
X139969900Y-142289422D01*
X160925600Y-142289422D02*
X150448400Y-142290800D01*
X169063100Y-142286666D02*
X160925600Y-142289422D01*
X175155200Y-142282532D02*
X169063100Y-142286666D01*
X179491900Y-142274263D02*
X175155200Y-142282532D01*
X182366700Y-142260483D02*
X179491900Y-142274263D01*
X184069900Y-142242569D02*
X182366700Y-142260483D01*
X184894000Y-142219142D02*
X184069900Y-142242569D01*
X185131100Y-142188825D02*
X184894000Y-142219142D01*
X185166700Y-142124057D02*
X185131100Y-142188825D01*
X185194200Y-141972473D02*
X185166700Y-142124057D01*
X185215000Y-141687218D02*
X185194200Y-141972473D01*
X185230200Y-141228330D02*
X185215000Y-141687218D01*
X185241100Y-140551710D02*
X185230200Y-141228330D01*
X185246800Y-139614650D02*
X185241100Y-140551710D01*
X185249600Y-138373030D02*
X185246800Y-139614650D01*
X185250700Y-136785530D02*
X185249600Y-138373030D01*
X185250700Y-131481500D02*
X185250700Y-136785530D01*
X186426100Y-131481500D02*
X185250700Y-131481500D01*
X187054800Y-131477300D02*
X186426100Y-131481500D01*
X187426600Y-131460800D02*
X187054800Y-131477300D01*
X187625200Y-131425000D02*
X187426600Y-131460800D01*
X187730000Y-131362900D02*
X187625200Y-131425000D01*
X187768400Y-131269200D02*
X187730000Y-131362900D01*
X187798800Y-130999200D02*
X187768400Y-131269200D01*
X187821000Y-130446600D02*
X187798800Y-130999200D01*
X187834800Y-129499900D02*
X187821000Y-130446600D01*
X187841500Y-128050100D02*
X187834800Y-129499900D01*
X187844300Y-125990000D02*
X187841500Y-128050100D01*
X187840100Y-123211900D02*
X187844300Y-125990000D01*
X187834800Y-119604200D02*
X187840100Y-123211900D01*
X187811100Y-107966600D02*
X187834800Y-119604200D01*
X187640400Y-107342400D02*
X187811100Y-107966600D01*
X186343600Y-104495200D02*
X187640400Y-107342400D01*
X183929200Y-101795800D02*
X186343600Y-104495200D01*
X180149500Y-99028600D02*
X183929200Y-101795800D01*
X174761200Y-95977800D02*
X180149500Y-99028600D01*
X170697500Y-93761600D02*
X174761200Y-95977800D01*
X168124700Y-92117700D02*
X170697500Y-93761600D01*
X166515000Y-90614500D02*
X168124700Y-92117700D01*
X165043200Y-88625900D02*
X166515000Y-90614500D01*
X164130900Y-87003800D02*
X165043200Y-88625900D01*
X163257400Y-85033200D02*
X164130900Y-87003800D01*
X162288700Y-82384500D02*
X163257400Y-85033200D01*
X161092400Y-78724500D02*
X162288700Y-82384500D01*
X160689900Y-77467900D02*
X161092400Y-78724500D01*
X160298700Y-76260700D02*
X160689900Y-77467900D01*
X159961100Y-75239700D02*
X160298700Y-76260700D01*
X159724000Y-74542300D02*
X159961100Y-75239700D01*
X158583100Y-71633300D02*
X159724000Y-74542300D01*
X157349800Y-69144400D02*
X158583100Y-71633300D01*
X155981400Y-66998900D02*
X157349800Y-69144400D01*
X154432400Y-65116400D02*
X155981400Y-66998900D01*
X151158200Y-62251500D02*
X154432400Y-65116400D01*
X147302400Y-60022000D02*
X151158200Y-62251500D01*
X142985000Y-58482800D02*
X147302400Y-60022000D01*
X138323100Y-57689000D02*
X142985000Y-58482800D01*
X137365400Y-57639300D02*
X138323100Y-57689000D01*
X136172000Y-57622700D02*
X137365400Y-57639300D01*
X134975800Y-57639300D02*
X136172000Y-57622700D01*
X134012600Y-57687600D02*
X134975800Y-57639300D01*
X128431500Y-58729400D02*
X134012600Y-57687600D01*
X123389300Y-60851300D02*
X128431500Y-58729400D01*
X119813320Y-63307000D02*
X123389300Y-60851300D01*
X116915280Y-66296100D02*
X119813320Y-63307000D01*
X115542760Y-68112200D02*
X116915280Y-66296100D01*
X114393480Y-69960400D02*
X115542760Y-68112200D01*
X113563897Y-71948700D02*
X114393480Y-69960400D01*
X113153241Y-74186700D02*
X113563897Y-71948700D01*
X113089851Y-75089500D02*
X113153241Y-74186700D01*
X113065046Y-103183600D02*
X113089851Y-75089500D01*
X113058156Y-111732800D02*
X113065046Y-103183600D01*
X113054022Y-118363900D02*
X113058156Y-111732800D01*
X113056778Y-123318000D02*
X113054022Y-118363900D01*
X113063668Y-126836100D02*
X113056778Y-123318000D01*
X113076071Y-129159500D02*
X113063668Y-126836100D01*
X113096741Y-130530600D02*
X113076071Y-129159500D01*
X113125680Y-131189300D02*
X113096741Y-130530600D01*
X113162887Y-131379500D02*
X113125680Y-131189300D01*
X113485348Y-131460800D02*
X113162887Y-131379500D01*
X114465130Y-131481500D02*
X113485348Y-131460800D01*
X115646110Y-131481500D02*
X114465130Y-131481500D01*
X115646110Y-136785530D02*
X115646110Y-131481500D01*
X115646110Y-138373030D02*
X115646110Y-136785530D01*
X115648870Y-139614650D02*
X115646110Y-138373030D01*
X115655760Y-140551710D02*
X115648870Y-139614650D01*
X115665410Y-141228330D02*
X115655760Y-140551710D01*
X115680560Y-141687218D02*
X115665410Y-141228330D01*
X115702610Y-141972473D02*
X115680560Y-141687218D01*
X115730170Y-142124057D02*
X115702610Y-141972473D01*
X115767380Y-142188825D02*
X115730170Y-142124057D01*
D11*
X152437000Y-66611400D02*
G75*
G03X152437000Y-66611400I-1700000J0D01*
G01*
X121849200Y-137627000D02*
G75*
G03X121849200Y-137627000I-1700000J0D01*
G01*
X182303200Y-137627000D02*
G75*
G03X182303200Y-137627000I-1700000J0D01*
G01*
M02*
