M48
;DRILL file {KiCad 4.0.7-e1-6374~58~ubuntu16.04.1} date Thu Aug 10 00:08:56 2017
;FORMAT={-:-/ absolute / inch / decimal}
FMAT,2
INCH,TZ
T1C0.016
T2C0.039
T3C0.040
T4C0.079
T5C0.035
T6C0.059
%
G90
G05
M72
T1
X4.6078Y-3.4494
X4.6078Y-3.9085
X4.7795Y-4.3268
X4.83Y-4.565
X4.87Y-4.435
X4.975Y-3.73
X5.Y-4.56
X5.11Y-3.25
X5.155Y-5.28
X5.22Y-5.3
X5.265Y-2.775
X5.29Y-3.075
X5.355Y-2.755
X5.385Y-2.7
X5.385Y-2.74
X5.414Y-3.3409
X5.42Y-3.805
X5.42Y-4.43
X5.45Y-3.505
X5.45Y-3.785
X5.4588Y-3.2181
X5.48Y-3.77
X5.4882Y-3.3386
X5.52Y-3.205
X5.54Y-4.555
X5.5862Y-3.3294
X5.705Y-5.26
X5.715Y-3.125
X5.7465Y-5.2989
X5.84Y-4.435
X5.8818Y-4.5425
X5.8858Y-5.3583
X6.07Y-3.465
X6.0748Y-3.4331
X6.075Y-3.395
X6.18Y-3.345
X6.185Y-3.815
X6.252Y-5.2598
X6.3159Y-5.2989
X6.58Y-5.295
X6.685Y-5.25
X6.92Y-4.53
T2
X7.135Y-4.6575
X7.135Y-4.7575
X7.135Y-4.8575
X7.135Y-4.9575
X7.2795Y-4.6575
X7.2795Y-4.7575
X7.2795Y-4.8575
X7.2795Y-4.9575
T3
X6.7047Y-4.3189
X6.7047Y-4.4189
X6.7047Y-4.5189
X6.8047Y-4.3189
X6.8047Y-4.4189
X6.8047Y-4.5189
T4
X4.6831Y-3.0157
X6.0413Y-4.0591
T5
X5.2638Y-2.5157
X5.437Y-2.5157
T6
X4.565Y-2.8287
X4.565Y-2.8484
X4.565Y-2.878
X4.565Y-2.9075
X4.565Y-2.9272
X4.565Y-3.6161
X4.565Y-3.6457
X4.565Y-3.6654
X4.565Y-3.6949
X4.565Y-3.7146
X6.1594Y-2.8287
X6.1594Y-2.8484
X6.1594Y-2.878
X6.1594Y-2.8976
X6.1594Y-2.9272
X6.1594Y-3.6161
X6.1594Y-3.6358
X6.1594Y-3.6654
X6.1594Y-3.685
X6.1594Y-3.7146
T0
M30
