G04 #@! TF.FileFunction,Soldermask,Bot*
%FSLAX46Y46*%
G04 Gerber Fmt 4.6, Leading zero omitted, Abs format (unit mm)*
G04 Created by KiCad (PCBNEW 4.0.7-e1-6374~58~ubuntu16.04.1) date Sat Aug 19 03:02:01 2017*
%MOMM*%
%LPD*%
G01*
G04 APERTURE LIST*
%ADD10C,0.100000*%
%ADD11C,0.250000*%
%ADD12C,0.150000*%
%ADD13C,0.002000*%
%ADD14C,1.900000*%
%ADD15R,1.900000X3.400000*%
%ADD16O,2.400000X4.900000*%
%ADD17C,1.300000*%
%ADD18R,1.650000X1.900000*%
%ADD19R,1.900000X1.650000*%
%ADD20R,2.000000X0.950000*%
%ADD21R,0.950000X2.000000*%
%ADD22R,2.100000X2.100000*%
%ADD23O,2.100000X2.100000*%
%ADD24R,1.200000X1.300000*%
%ADD25R,1.700000X1.900000*%
%ADD26R,1.900000X1.700000*%
%ADD27R,2.400000X4.200000*%
%ADD28R,2.400000X1.900000*%
%ADD29R,3.600000X1.900000*%
%ADD30R,2.400000X4.900000*%
%ADD31R,2.127200X2.127200*%
%ADD32O,2.127200X2.127200*%
G04 APERTURE END LIST*
D10*
D11*
X148826476Y-126868143D02*
X148874095Y-126915762D01*
X149016952Y-126963381D01*
X149112190Y-126963381D01*
X149255048Y-126915762D01*
X149350286Y-126820524D01*
X149397905Y-126725286D01*
X149445524Y-126534810D01*
X149445524Y-126391952D01*
X149397905Y-126201476D01*
X149350286Y-126106238D01*
X149255048Y-126011000D01*
X149112190Y-125963381D01*
X149016952Y-125963381D01*
X148874095Y-126011000D01*
X148826476Y-126058619D01*
X148397905Y-126439571D02*
X148064571Y-126439571D01*
X147921714Y-126963381D02*
X148397905Y-126963381D01*
X148397905Y-125963381D01*
X147921714Y-125963381D01*
X146921714Y-126963381D02*
X147255048Y-126487190D01*
X147493143Y-126963381D02*
X147493143Y-125963381D01*
X147112190Y-125963381D01*
X147016952Y-126011000D01*
X146969333Y-126058619D01*
X146921714Y-126153857D01*
X146921714Y-126296714D01*
X146969333Y-126391952D01*
X147016952Y-126439571D01*
X147112190Y-126487190D01*
X147493143Y-126487190D01*
X146493143Y-126963381D02*
X146493143Y-125963381D01*
X145921714Y-126963381D01*
X145921714Y-125963381D01*
X144493143Y-125963381D02*
X144302666Y-125963381D01*
X144207428Y-126011000D01*
X144112190Y-126106238D01*
X144064571Y-126296714D01*
X144064571Y-126630048D01*
X144112190Y-126820524D01*
X144207428Y-126915762D01*
X144302666Y-126963381D01*
X144493143Y-126963381D01*
X144588381Y-126915762D01*
X144683619Y-126820524D01*
X144731238Y-126630048D01*
X144731238Y-126296714D01*
X144683619Y-126106238D01*
X144588381Y-126011000D01*
X144493143Y-125963381D01*
X143636000Y-126963381D02*
X143636000Y-125963381D01*
X143636000Y-126439571D02*
X143064571Y-126439571D01*
X143064571Y-126963381D02*
X143064571Y-125963381D01*
X142112190Y-126963381D02*
X142588381Y-126963381D01*
X142588381Y-125963381D01*
X141112190Y-126296714D02*
X140874095Y-126963381D01*
X140635999Y-126296714D01*
X140255047Y-126868143D02*
X140207428Y-126915762D01*
X140255047Y-126963381D01*
X140302666Y-126915762D01*
X140255047Y-126868143D01*
X140255047Y-126963381D01*
X139255047Y-126963381D02*
X139826476Y-126963381D01*
X139540762Y-126963381D02*
X139540762Y-125963381D01*
X139636000Y-126106238D01*
X139731238Y-126201476D01*
X139826476Y-126249095D01*
X138826476Y-126868143D02*
X138778857Y-126915762D01*
X138826476Y-126963381D01*
X138874095Y-126915762D01*
X138826476Y-126868143D01*
X138826476Y-126963381D01*
X138397905Y-126058619D02*
X138350286Y-126011000D01*
X138255048Y-125963381D01*
X138016952Y-125963381D01*
X137921714Y-126011000D01*
X137874095Y-126058619D01*
X137826476Y-126153857D01*
X137826476Y-126249095D01*
X137874095Y-126391952D01*
X138445524Y-126963381D01*
X137826476Y-126963381D01*
D12*
X148886000Y-125382429D02*
X149386000Y-125382429D01*
X149386000Y-124782429D01*
X148536000Y-125382429D02*
X148536000Y-124982429D01*
X148536000Y-124782429D02*
X148586000Y-124811000D01*
X148536000Y-124839571D01*
X148486000Y-124811000D01*
X148536000Y-124782429D01*
X148536000Y-124839571D01*
X147586000Y-125353857D02*
X147686000Y-125382429D01*
X147886000Y-125382429D01*
X147986000Y-125353857D01*
X148036000Y-125325286D01*
X148086000Y-125268143D01*
X148086000Y-125096714D01*
X148036000Y-125039571D01*
X147986000Y-125011000D01*
X147886000Y-124982429D01*
X147686000Y-124982429D01*
X147586000Y-125011000D01*
X146736000Y-125353857D02*
X146836000Y-125382429D01*
X147036000Y-125382429D01*
X147136000Y-125353857D01*
X147186000Y-125296714D01*
X147186000Y-125068143D01*
X147136000Y-125011000D01*
X147036000Y-124982429D01*
X146836000Y-124982429D01*
X146736000Y-125011000D01*
X146686000Y-125068143D01*
X146686000Y-125125286D01*
X147186000Y-125182429D01*
X146236000Y-124982429D02*
X146236000Y-125382429D01*
X146236000Y-125039571D02*
X146186000Y-125011000D01*
X146086000Y-124982429D01*
X145936000Y-124982429D01*
X145836000Y-125011000D01*
X145786000Y-125068143D01*
X145786000Y-125382429D01*
X145336000Y-125353857D02*
X145236000Y-125382429D01*
X145036000Y-125382429D01*
X144936000Y-125353857D01*
X144886000Y-125296714D01*
X144886000Y-125268143D01*
X144936000Y-125211000D01*
X145036000Y-125182429D01*
X145186000Y-125182429D01*
X145286000Y-125153857D01*
X145336000Y-125096714D01*
X145336000Y-125068143D01*
X145286000Y-125011000D01*
X145186000Y-124982429D01*
X145036000Y-124982429D01*
X144936000Y-125011000D01*
X144036000Y-125353857D02*
X144136000Y-125382429D01*
X144336000Y-125382429D01*
X144436000Y-125353857D01*
X144486000Y-125296714D01*
X144486000Y-125068143D01*
X144436000Y-125011000D01*
X144336000Y-124982429D01*
X144136000Y-124982429D01*
X144036000Y-125011000D01*
X143986000Y-125068143D01*
X143986000Y-125125286D01*
X144486000Y-125182429D01*
X143086000Y-125382429D02*
X143086000Y-124782429D01*
X143086000Y-125353857D02*
X143186000Y-125382429D01*
X143386000Y-125382429D01*
X143486000Y-125353857D01*
X143536000Y-125325286D01*
X143586000Y-125268143D01*
X143586000Y-125096714D01*
X143536000Y-125039571D01*
X143486000Y-125011000D01*
X143386000Y-124982429D01*
X143186000Y-124982429D01*
X143086000Y-125011000D01*
X141336000Y-124982429D02*
X141336000Y-125382429D01*
X141786000Y-124982429D02*
X141786000Y-125296714D01*
X141736000Y-125353857D01*
X141636000Y-125382429D01*
X141486000Y-125382429D01*
X141386000Y-125353857D01*
X141336000Y-125325286D01*
X140836000Y-124982429D02*
X140836000Y-125382429D01*
X140836000Y-125039571D02*
X140786000Y-125011000D01*
X140686000Y-124982429D01*
X140536000Y-124982429D01*
X140436000Y-125011000D01*
X140386000Y-125068143D01*
X140386000Y-125382429D01*
X139436000Y-125382429D02*
X139436000Y-124782429D01*
X139436000Y-125353857D02*
X139536000Y-125382429D01*
X139736000Y-125382429D01*
X139836000Y-125353857D01*
X139886000Y-125325286D01*
X139936000Y-125268143D01*
X139936000Y-125096714D01*
X139886000Y-125039571D01*
X139836000Y-125011000D01*
X139736000Y-124982429D01*
X139536000Y-124982429D01*
X139436000Y-125011000D01*
X138536000Y-125353857D02*
X138636000Y-125382429D01*
X138836000Y-125382429D01*
X138936000Y-125353857D01*
X138986000Y-125296714D01*
X138986000Y-125068143D01*
X138936000Y-125011000D01*
X138836000Y-124982429D01*
X138636000Y-124982429D01*
X138536000Y-125011000D01*
X138486000Y-125068143D01*
X138486000Y-125125286D01*
X138986000Y-125182429D01*
X138036000Y-125382429D02*
X138036000Y-124982429D01*
X138036000Y-125096714D02*
X137986000Y-125039571D01*
X137936000Y-125011000D01*
X137836000Y-124982429D01*
X137736000Y-124982429D01*
D13*
G36*
X142996530Y-117506328D02*
X142966902Y-117659449D01*
X142938746Y-117795644D01*
X142913883Y-117906818D01*
X142894134Y-117984872D01*
X142881320Y-118021710D01*
X142880357Y-118022954D01*
X142848496Y-118041112D01*
X142779900Y-118072930D01*
X142685554Y-118113918D01*
X142576444Y-118159586D01*
X142463556Y-118205446D01*
X142357876Y-118247007D01*
X142270389Y-118279780D01*
X142212080Y-118299276D01*
X142195744Y-118302734D01*
X142166779Y-118288887D01*
X142103014Y-118250371D01*
X142011526Y-118191723D01*
X141899392Y-118117481D01*
X141773686Y-118032180D01*
X141772807Y-118031576D01*
X141646344Y-117945290D01*
X141532925Y-117868896D01*
X141439796Y-117807195D01*
X141374208Y-117764991D01*
X141343500Y-117747122D01*
X141315436Y-117760137D01*
X141259328Y-117803903D01*
X141181897Y-117871781D01*
X141089862Y-117957132D01*
X140989944Y-118053314D01*
X140888863Y-118153688D01*
X140793338Y-118251613D01*
X140710089Y-118340451D01*
X140645836Y-118413560D01*
X140607299Y-118464301D01*
X140599211Y-118482565D01*
X140613066Y-118515566D01*
X140651584Y-118583047D01*
X140710195Y-118677627D01*
X140784330Y-118791929D01*
X140867251Y-118915397D01*
X140952000Y-119041209D01*
X141025726Y-119153794D01*
X141083880Y-119245950D01*
X141121917Y-119310472D01*
X141135292Y-119339988D01*
X141125467Y-119374578D01*
X141099034Y-119444968D01*
X141060556Y-119540500D01*
X141014597Y-119650518D01*
X140965720Y-119764363D01*
X140918487Y-119871377D01*
X140877462Y-119960902D01*
X140847209Y-120022280D01*
X140833938Y-120043846D01*
X140806085Y-120052568D01*
X140737478Y-120068805D01*
X140637544Y-120090665D01*
X140515712Y-120116253D01*
X140381408Y-120143678D01*
X140244061Y-120171047D01*
X140113097Y-120196467D01*
X139997944Y-120218045D01*
X139908029Y-120233889D01*
X139852780Y-120242105D01*
X139842806Y-120242834D01*
X139837459Y-120266820D01*
X139833877Y-120332685D01*
X139831921Y-120431287D01*
X139831455Y-120553484D01*
X139832338Y-120690135D01*
X139834434Y-120832098D01*
X139837605Y-120970233D01*
X139841712Y-121095397D01*
X139846617Y-121198450D01*
X139852182Y-121270249D01*
X139858269Y-121301654D01*
X139858806Y-121302167D01*
X139891088Y-121311760D01*
X139965029Y-121328709D01*
X140072066Y-121351207D01*
X140203631Y-121377447D01*
X140332964Y-121402210D01*
X140482010Y-121431810D01*
X140613304Y-121460907D01*
X140718336Y-121487384D01*
X140788598Y-121509123D01*
X140814387Y-121522024D01*
X140835275Y-121557981D01*
X140869330Y-121630727D01*
X140912176Y-121729408D01*
X140959439Y-121843169D01*
X141006744Y-121961157D01*
X141049716Y-122072517D01*
X141083979Y-122166395D01*
X141105160Y-122231936D01*
X141109859Y-122255089D01*
X141095916Y-122286255D01*
X141057301Y-122351693D01*
X140998738Y-122443933D01*
X140924951Y-122555503D01*
X140854487Y-122658948D01*
X140771402Y-122781735D01*
X140699624Y-122892326D01*
X140643903Y-122983032D01*
X140608987Y-123046166D01*
X140599211Y-123072161D01*
X140616420Y-123100816D01*
X140663563Y-123157962D01*
X140733914Y-123236681D01*
X140820747Y-123330057D01*
X140917335Y-123431174D01*
X141016953Y-123533116D01*
X141112874Y-123628965D01*
X141198372Y-123711807D01*
X141266722Y-123774724D01*
X141311196Y-123810801D01*
X141323281Y-123816703D01*
X141350448Y-123802926D01*
X141412151Y-123764779D01*
X141501009Y-123707037D01*
X141609638Y-123634477D01*
X141699237Y-123573484D01*
X141819691Y-123491568D01*
X141927641Y-123419487D01*
X142015163Y-123362430D01*
X142074334Y-123325582D01*
X142094869Y-123314503D01*
X142136928Y-123317412D01*
X142209684Y-123339964D01*
X142298870Y-123377625D01*
X142309563Y-123382734D01*
X142397835Y-123421589D01*
X142471158Y-123446898D01*
X142515435Y-123453915D01*
X142518633Y-123453122D01*
X142533948Y-123428305D01*
X142565944Y-123362864D01*
X142611813Y-123263360D01*
X142668743Y-123136358D01*
X142733925Y-122988420D01*
X142804549Y-122826109D01*
X142877804Y-122655990D01*
X142950882Y-122484624D01*
X143020971Y-122318574D01*
X143085262Y-122164405D01*
X143140945Y-122028679D01*
X143185210Y-121917959D01*
X143215246Y-121838808D01*
X143228244Y-121797789D01*
X143228558Y-121795006D01*
X143209435Y-121773774D01*
X143158370Y-121730510D01*
X143084823Y-121673060D01*
X143050852Y-121647586D01*
X142872944Y-121487800D01*
X142737517Y-121307344D01*
X142644986Y-121111978D01*
X142595767Y-120907461D01*
X142590274Y-120699552D01*
X142628922Y-120494010D01*
X142712127Y-120296595D01*
X142840304Y-120113065D01*
X142933314Y-120017180D01*
X143109364Y-119886241D01*
X143298478Y-119800272D01*
X143494959Y-119756760D01*
X143693112Y-119753193D01*
X143887240Y-119787056D01*
X144071649Y-119855836D01*
X144240642Y-119957020D01*
X144388524Y-120088094D01*
X144509599Y-120246546D01*
X144598171Y-120429861D01*
X144648544Y-120635526D01*
X144658106Y-120778278D01*
X144633973Y-121006942D01*
X144562070Y-121218294D01*
X144443135Y-121410937D01*
X144277909Y-121583474D01*
X144197621Y-121647586D01*
X144117668Y-121708545D01*
X144056373Y-121758490D01*
X144023195Y-121789576D01*
X144019915Y-121795006D01*
X144029627Y-121828796D01*
X144056889Y-121901854D01*
X144098888Y-122007614D01*
X144152813Y-122139514D01*
X144215849Y-122290991D01*
X144285186Y-122455481D01*
X144358011Y-122626421D01*
X144431511Y-122797249D01*
X144502874Y-122961399D01*
X144569288Y-123112310D01*
X144627939Y-123243418D01*
X144676017Y-123348160D01*
X144710708Y-123419973D01*
X144729199Y-123452292D01*
X144730544Y-123453392D01*
X144769254Y-123449219D01*
X144839373Y-123425686D01*
X144927304Y-123387543D01*
X144948532Y-123377245D01*
X145130367Y-123287223D01*
X145517328Y-123551963D01*
X145641404Y-123636073D01*
X145751390Y-123709161D01*
X145840243Y-123766665D01*
X145900921Y-123804024D01*
X145926112Y-123816703D01*
X145950092Y-123799434D01*
X146004010Y-123751321D01*
X146081990Y-123677907D01*
X146178156Y-123584735D01*
X146286630Y-123477347D01*
X146298598Y-123465368D01*
X146407297Y-123354356D01*
X146502285Y-123253324D01*
X146577976Y-123168547D01*
X146628782Y-123106300D01*
X146649117Y-123072859D01*
X146649261Y-123071488D01*
X146635301Y-123037409D01*
X146596586Y-122969334D01*
X146537863Y-122874935D01*
X146463880Y-122761885D01*
X146393985Y-122658948D01*
X146311043Y-122536894D01*
X146239348Y-122427881D01*
X146183622Y-122339379D01*
X146148591Y-122278859D01*
X146138614Y-122255089D01*
X146148088Y-122215716D01*
X146173695Y-122140442D01*
X146211059Y-122040120D01*
X146255806Y-121925606D01*
X146303560Y-121807752D01*
X146349947Y-121697415D01*
X146390591Y-121605446D01*
X146421118Y-121542702D01*
X146434086Y-121522024D01*
X146469128Y-121505809D01*
X146545984Y-121483103D01*
X146656146Y-121456024D01*
X146791104Y-121426689D01*
X146915509Y-121402210D01*
X147061580Y-121374173D01*
X147190663Y-121348285D01*
X147294194Y-121326355D01*
X147363605Y-121310191D01*
X147389666Y-121302167D01*
X147395791Y-121274619D01*
X147401406Y-121205899D01*
X147406373Y-121105149D01*
X147410553Y-120981509D01*
X147413808Y-120844121D01*
X147416001Y-120702128D01*
X147416993Y-120564669D01*
X147416646Y-120440888D01*
X147414823Y-120339924D01*
X147411385Y-120270920D01*
X147406193Y-120243018D01*
X147405666Y-120242834D01*
X147366137Y-120238028D01*
X147288344Y-120224873D01*
X147181713Y-120205260D01*
X147055672Y-120181084D01*
X146919649Y-120154236D01*
X146783071Y-120126609D01*
X146655365Y-120100096D01*
X146545960Y-120076590D01*
X146464281Y-120057983D01*
X146419758Y-120046168D01*
X146414534Y-120043846D01*
X146395993Y-120012182D01*
X146363083Y-119943966D01*
X146320366Y-119849856D01*
X146272405Y-119740510D01*
X146223764Y-119626586D01*
X146179006Y-119518742D01*
X146142694Y-119427635D01*
X146119391Y-119363924D01*
X146113181Y-119339988D01*
X146126993Y-119309675D01*
X146165396Y-119244642D01*
X146223843Y-119152093D01*
X146297786Y-119039233D01*
X146381221Y-118915397D01*
X146466098Y-118788966D01*
X146539909Y-118675058D01*
X146598085Y-118581050D01*
X146636056Y-118514322D01*
X146649261Y-118482565D01*
X146631894Y-118450688D01*
X146584272Y-118391958D01*
X146513116Y-118313015D01*
X146425145Y-118220499D01*
X146327080Y-118121051D01*
X146225639Y-118021310D01*
X146127544Y-117927916D01*
X146039513Y-117847510D01*
X145968268Y-117786731D01*
X145920527Y-117752219D01*
X145904972Y-117747122D01*
X145873853Y-117765248D01*
X145808006Y-117807634D01*
X145714679Y-117869476D01*
X145601121Y-117945973D01*
X145475666Y-118031576D01*
X145349893Y-118116936D01*
X145237643Y-118191269D01*
X145145991Y-118250037D01*
X145082015Y-118288704D01*
X145052792Y-118302733D01*
X145052729Y-118302734D01*
X145016984Y-118293263D01*
X144945527Y-118267846D01*
X144849343Y-118230970D01*
X144739418Y-118187126D01*
X144626737Y-118140803D01*
X144522287Y-118096491D01*
X144437052Y-118058678D01*
X144382018Y-118031854D01*
X144368115Y-118022954D01*
X144356232Y-117991471D01*
X144337201Y-117917824D01*
X144312843Y-117810109D01*
X144284978Y-117676424D01*
X144255428Y-117524867D01*
X144251942Y-117506328D01*
X144159655Y-117013588D01*
X143088817Y-117013588D01*
X142996530Y-117506328D01*
X142996530Y-117506328D01*
G37*
X142996530Y-117506328D02*
X142966902Y-117659449D01*
X142938746Y-117795644D01*
X142913883Y-117906818D01*
X142894134Y-117984872D01*
X142881320Y-118021710D01*
X142880357Y-118022954D01*
X142848496Y-118041112D01*
X142779900Y-118072930D01*
X142685554Y-118113918D01*
X142576444Y-118159586D01*
X142463556Y-118205446D01*
X142357876Y-118247007D01*
X142270389Y-118279780D01*
X142212080Y-118299276D01*
X142195744Y-118302734D01*
X142166779Y-118288887D01*
X142103014Y-118250371D01*
X142011526Y-118191723D01*
X141899392Y-118117481D01*
X141773686Y-118032180D01*
X141772807Y-118031576D01*
X141646344Y-117945290D01*
X141532925Y-117868896D01*
X141439796Y-117807195D01*
X141374208Y-117764991D01*
X141343500Y-117747122D01*
X141315436Y-117760137D01*
X141259328Y-117803903D01*
X141181897Y-117871781D01*
X141089862Y-117957132D01*
X140989944Y-118053314D01*
X140888863Y-118153688D01*
X140793338Y-118251613D01*
X140710089Y-118340451D01*
X140645836Y-118413560D01*
X140607299Y-118464301D01*
X140599211Y-118482565D01*
X140613066Y-118515566D01*
X140651584Y-118583047D01*
X140710195Y-118677627D01*
X140784330Y-118791929D01*
X140867251Y-118915397D01*
X140952000Y-119041209D01*
X141025726Y-119153794D01*
X141083880Y-119245950D01*
X141121917Y-119310472D01*
X141135292Y-119339988D01*
X141125467Y-119374578D01*
X141099034Y-119444968D01*
X141060556Y-119540500D01*
X141014597Y-119650518D01*
X140965720Y-119764363D01*
X140918487Y-119871377D01*
X140877462Y-119960902D01*
X140847209Y-120022280D01*
X140833938Y-120043846D01*
X140806085Y-120052568D01*
X140737478Y-120068805D01*
X140637544Y-120090665D01*
X140515712Y-120116253D01*
X140381408Y-120143678D01*
X140244061Y-120171047D01*
X140113097Y-120196467D01*
X139997944Y-120218045D01*
X139908029Y-120233889D01*
X139852780Y-120242105D01*
X139842806Y-120242834D01*
X139837459Y-120266820D01*
X139833877Y-120332685D01*
X139831921Y-120431287D01*
X139831455Y-120553484D01*
X139832338Y-120690135D01*
X139834434Y-120832098D01*
X139837605Y-120970233D01*
X139841712Y-121095397D01*
X139846617Y-121198450D01*
X139852182Y-121270249D01*
X139858269Y-121301654D01*
X139858806Y-121302167D01*
X139891088Y-121311760D01*
X139965029Y-121328709D01*
X140072066Y-121351207D01*
X140203631Y-121377447D01*
X140332964Y-121402210D01*
X140482010Y-121431810D01*
X140613304Y-121460907D01*
X140718336Y-121487384D01*
X140788598Y-121509123D01*
X140814387Y-121522024D01*
X140835275Y-121557981D01*
X140869330Y-121630727D01*
X140912176Y-121729408D01*
X140959439Y-121843169D01*
X141006744Y-121961157D01*
X141049716Y-122072517D01*
X141083979Y-122166395D01*
X141105160Y-122231936D01*
X141109859Y-122255089D01*
X141095916Y-122286255D01*
X141057301Y-122351693D01*
X140998738Y-122443933D01*
X140924951Y-122555503D01*
X140854487Y-122658948D01*
X140771402Y-122781735D01*
X140699624Y-122892326D01*
X140643903Y-122983032D01*
X140608987Y-123046166D01*
X140599211Y-123072161D01*
X140616420Y-123100816D01*
X140663563Y-123157962D01*
X140733914Y-123236681D01*
X140820747Y-123330057D01*
X140917335Y-123431174D01*
X141016953Y-123533116D01*
X141112874Y-123628965D01*
X141198372Y-123711807D01*
X141266722Y-123774724D01*
X141311196Y-123810801D01*
X141323281Y-123816703D01*
X141350448Y-123802926D01*
X141412151Y-123764779D01*
X141501009Y-123707037D01*
X141609638Y-123634477D01*
X141699237Y-123573484D01*
X141819691Y-123491568D01*
X141927641Y-123419487D01*
X142015163Y-123362430D01*
X142074334Y-123325582D01*
X142094869Y-123314503D01*
X142136928Y-123317412D01*
X142209684Y-123339964D01*
X142298870Y-123377625D01*
X142309563Y-123382734D01*
X142397835Y-123421589D01*
X142471158Y-123446898D01*
X142515435Y-123453915D01*
X142518633Y-123453122D01*
X142533948Y-123428305D01*
X142565944Y-123362864D01*
X142611813Y-123263360D01*
X142668743Y-123136358D01*
X142733925Y-122988420D01*
X142804549Y-122826109D01*
X142877804Y-122655990D01*
X142950882Y-122484624D01*
X143020971Y-122318574D01*
X143085262Y-122164405D01*
X143140945Y-122028679D01*
X143185210Y-121917959D01*
X143215246Y-121838808D01*
X143228244Y-121797789D01*
X143228558Y-121795006D01*
X143209435Y-121773774D01*
X143158370Y-121730510D01*
X143084823Y-121673060D01*
X143050852Y-121647586D01*
X142872944Y-121487800D01*
X142737517Y-121307344D01*
X142644986Y-121111978D01*
X142595767Y-120907461D01*
X142590274Y-120699552D01*
X142628922Y-120494010D01*
X142712127Y-120296595D01*
X142840304Y-120113065D01*
X142933314Y-120017180D01*
X143109364Y-119886241D01*
X143298478Y-119800272D01*
X143494959Y-119756760D01*
X143693112Y-119753193D01*
X143887240Y-119787056D01*
X144071649Y-119855836D01*
X144240642Y-119957020D01*
X144388524Y-120088094D01*
X144509599Y-120246546D01*
X144598171Y-120429861D01*
X144648544Y-120635526D01*
X144658106Y-120778278D01*
X144633973Y-121006942D01*
X144562070Y-121218294D01*
X144443135Y-121410937D01*
X144277909Y-121583474D01*
X144197621Y-121647586D01*
X144117668Y-121708545D01*
X144056373Y-121758490D01*
X144023195Y-121789576D01*
X144019915Y-121795006D01*
X144029627Y-121828796D01*
X144056889Y-121901854D01*
X144098888Y-122007614D01*
X144152813Y-122139514D01*
X144215849Y-122290991D01*
X144285186Y-122455481D01*
X144358011Y-122626421D01*
X144431511Y-122797249D01*
X144502874Y-122961399D01*
X144569288Y-123112310D01*
X144627939Y-123243418D01*
X144676017Y-123348160D01*
X144710708Y-123419973D01*
X144729199Y-123452292D01*
X144730544Y-123453392D01*
X144769254Y-123449219D01*
X144839373Y-123425686D01*
X144927304Y-123387543D01*
X144948532Y-123377245D01*
X145130367Y-123287223D01*
X145517328Y-123551963D01*
X145641404Y-123636073D01*
X145751390Y-123709161D01*
X145840243Y-123766665D01*
X145900921Y-123804024D01*
X145926112Y-123816703D01*
X145950092Y-123799434D01*
X146004010Y-123751321D01*
X146081990Y-123677907D01*
X146178156Y-123584735D01*
X146286630Y-123477347D01*
X146298598Y-123465368D01*
X146407297Y-123354356D01*
X146502285Y-123253324D01*
X146577976Y-123168547D01*
X146628782Y-123106300D01*
X146649117Y-123072859D01*
X146649261Y-123071488D01*
X146635301Y-123037409D01*
X146596586Y-122969334D01*
X146537863Y-122874935D01*
X146463880Y-122761885D01*
X146393985Y-122658948D01*
X146311043Y-122536894D01*
X146239348Y-122427881D01*
X146183622Y-122339379D01*
X146148591Y-122278859D01*
X146138614Y-122255089D01*
X146148088Y-122215716D01*
X146173695Y-122140442D01*
X146211059Y-122040120D01*
X146255806Y-121925606D01*
X146303560Y-121807752D01*
X146349947Y-121697415D01*
X146390591Y-121605446D01*
X146421118Y-121542702D01*
X146434086Y-121522024D01*
X146469128Y-121505809D01*
X146545984Y-121483103D01*
X146656146Y-121456024D01*
X146791104Y-121426689D01*
X146915509Y-121402210D01*
X147061580Y-121374173D01*
X147190663Y-121348285D01*
X147294194Y-121326355D01*
X147363605Y-121310191D01*
X147389666Y-121302167D01*
X147395791Y-121274619D01*
X147401406Y-121205899D01*
X147406373Y-121105149D01*
X147410553Y-120981509D01*
X147413808Y-120844121D01*
X147416001Y-120702128D01*
X147416993Y-120564669D01*
X147416646Y-120440888D01*
X147414823Y-120339924D01*
X147411385Y-120270920D01*
X147406193Y-120243018D01*
X147405666Y-120242834D01*
X147366137Y-120238028D01*
X147288344Y-120224873D01*
X147181713Y-120205260D01*
X147055672Y-120181084D01*
X146919649Y-120154236D01*
X146783071Y-120126609D01*
X146655365Y-120100096D01*
X146545960Y-120076590D01*
X146464281Y-120057983D01*
X146419758Y-120046168D01*
X146414534Y-120043846D01*
X146395993Y-120012182D01*
X146363083Y-119943966D01*
X146320366Y-119849856D01*
X146272405Y-119740510D01*
X146223764Y-119626586D01*
X146179006Y-119518742D01*
X146142694Y-119427635D01*
X146119391Y-119363924D01*
X146113181Y-119339988D01*
X146126993Y-119309675D01*
X146165396Y-119244642D01*
X146223843Y-119152093D01*
X146297786Y-119039233D01*
X146381221Y-118915397D01*
X146466098Y-118788966D01*
X146539909Y-118675058D01*
X146598085Y-118581050D01*
X146636056Y-118514322D01*
X146649261Y-118482565D01*
X146631894Y-118450688D01*
X146584272Y-118391958D01*
X146513116Y-118313015D01*
X146425145Y-118220499D01*
X146327080Y-118121051D01*
X146225639Y-118021310D01*
X146127544Y-117927916D01*
X146039513Y-117847510D01*
X145968268Y-117786731D01*
X145920527Y-117752219D01*
X145904972Y-117747122D01*
X145873853Y-117765248D01*
X145808006Y-117807634D01*
X145714679Y-117869476D01*
X145601121Y-117945973D01*
X145475666Y-118031576D01*
X145349893Y-118116936D01*
X145237643Y-118191269D01*
X145145991Y-118250037D01*
X145082015Y-118288704D01*
X145052792Y-118302733D01*
X145052729Y-118302734D01*
X145016984Y-118293263D01*
X144945527Y-118267846D01*
X144849343Y-118230970D01*
X144739418Y-118187126D01*
X144626737Y-118140803D01*
X144522287Y-118096491D01*
X144437052Y-118058678D01*
X144382018Y-118031854D01*
X144368115Y-118022954D01*
X144356232Y-117991471D01*
X144337201Y-117917824D01*
X144312843Y-117810109D01*
X144284978Y-117676424D01*
X144255428Y-117524867D01*
X144251942Y-117506328D01*
X144159655Y-117013588D01*
X143088817Y-117013588D01*
X142996530Y-117506328D01*
D14*
X156450000Y-93600000D03*
X156450000Y-92350000D03*
X115950000Y-93850000D03*
X115950000Y-92600000D03*
X115950000Y-94350000D03*
X115950000Y-91850000D03*
X115950000Y-74350000D03*
X115950000Y-73850000D03*
X115950000Y-71850000D03*
X115950000Y-72350000D03*
X156450000Y-94350000D03*
X156450000Y-91850000D03*
X156450000Y-73600000D03*
D15*
X155200000Y-73100000D03*
X155200000Y-93100000D03*
X117200000Y-93100000D03*
X117200000Y-73100000D03*
D16*
X156450000Y-93100000D03*
X115950000Y-93100000D03*
X156450000Y-73100000D03*
X115950000Y-73100000D03*
D14*
X156450000Y-71850000D03*
X156450000Y-74350000D03*
X156450000Y-72350000D03*
D17*
X138100000Y-63900000D03*
X133700000Y-63900000D03*
D18*
X131064000Y-126091000D03*
X131064000Y-123591000D03*
D19*
X148062000Y-88392000D03*
X145562000Y-88392000D03*
D18*
X126238000Y-90444000D03*
X126238000Y-92944000D03*
X126238000Y-86848000D03*
X126238000Y-84348000D03*
X126238000Y-78379000D03*
X126238000Y-80879000D03*
X122000000Y-113950000D03*
X122000000Y-111450000D03*
X136000000Y-113950000D03*
X136000000Y-111450000D03*
X150100000Y-114050000D03*
X150100000Y-111550000D03*
X135128000Y-132862000D03*
X135128000Y-135362000D03*
X143300000Y-135350000D03*
X143300000Y-132850000D03*
X157300000Y-135350000D03*
X157300000Y-132850000D03*
X171323000Y-135489000D03*
X171323000Y-132989000D03*
X134874000Y-71267000D03*
X134874000Y-73767000D03*
D20*
X134850000Y-90300000D03*
X134850000Y-89500000D03*
X134850000Y-88700000D03*
X134850000Y-87900000D03*
X134850000Y-87100000D03*
X134850000Y-86300000D03*
X134850000Y-85500000D03*
X134850000Y-84700000D03*
D21*
X136300000Y-83250000D03*
X137100000Y-83250000D03*
X137900000Y-83250000D03*
X138700000Y-83250000D03*
X139500000Y-83250000D03*
X140300000Y-83250000D03*
X141100000Y-83250000D03*
X141900000Y-83250000D03*
D20*
X143350000Y-84700000D03*
X143350000Y-85500000D03*
X143350000Y-86300000D03*
X143350000Y-87100000D03*
X143350000Y-87900000D03*
X143350000Y-88700000D03*
X143350000Y-89500000D03*
X143350000Y-90300000D03*
D21*
X141900000Y-91750000D03*
X141100000Y-91750000D03*
X140300000Y-91750000D03*
X139500000Y-91750000D03*
X138700000Y-91750000D03*
X137900000Y-91750000D03*
X137100000Y-91750000D03*
X136300000Y-91750000D03*
D22*
X184900000Y-118300000D03*
D23*
X184900000Y-120840000D03*
X184900000Y-123380000D03*
X184900000Y-125920000D03*
D24*
X139766000Y-76724000D03*
X141666000Y-76724000D03*
X140716000Y-78724000D03*
D25*
X148590000Y-71294000D03*
X148590000Y-73994000D03*
D26*
X127550000Y-97800000D03*
X130250000Y-97800000D03*
D25*
X151257000Y-71294000D03*
X151257000Y-73994000D03*
D26*
X127550000Y-102600000D03*
X130250000Y-102600000D03*
D25*
X127508000Y-111172000D03*
X127508000Y-113872000D03*
X141478000Y-111299000D03*
X141478000Y-113999000D03*
X144400000Y-111350000D03*
X144400000Y-114050000D03*
X153800000Y-127050000D03*
X153800000Y-129750000D03*
X156200000Y-126950000D03*
X156200000Y-129650000D03*
X162800000Y-132850000D03*
X162800000Y-135550000D03*
X165600000Y-132850000D03*
X165600000Y-135550000D03*
D26*
X120150000Y-89300000D03*
X117450000Y-89300000D03*
D25*
X159258000Y-87329000D03*
X159258000Y-84629000D03*
D26*
X120250000Y-100800000D03*
X117550000Y-100800000D03*
D25*
X159258000Y-91233000D03*
X159258000Y-93933000D03*
X139573000Y-73994000D03*
X139573000Y-71294000D03*
X141986000Y-71294000D03*
X141986000Y-73994000D03*
D27*
X120802000Y-125984000D03*
D28*
X127102000Y-125984000D03*
X127102000Y-128284000D03*
X127102000Y-123684000D03*
D29*
X125889000Y-131826000D03*
X129889000Y-131826000D03*
X126016000Y-120015000D03*
X130016000Y-120015000D03*
D30*
X129800000Y-86850000D03*
X129800000Y-78350000D03*
D31*
X170300000Y-109700000D03*
D32*
X172840000Y-109700000D03*
X170300000Y-112240000D03*
X172840000Y-112240000D03*
X170300000Y-114780000D03*
X172840000Y-114780000D03*
D22*
X181229000Y-118300500D03*
D23*
X181229000Y-120840500D03*
X181229000Y-123380500D03*
X181229000Y-125920500D03*
D19*
X178709000Y-109982000D03*
X181209000Y-109982000D03*
D26*
X181309000Y-113538000D03*
X178609000Y-113538000D03*
M02*
