G04 #@! TF.FileFunction,Soldermask,Bot*
%FSLAX46Y46*%
G04 Gerber Fmt 4.6, Leading zero omitted, Abs format (unit mm)*
G04 Created by KiCad (PCBNEW 4.0.1-2.201512121406+6195~38~ubuntu14.04.1-stable) date Tue 15 Dec 2015 12:34:50 AM EET*
%MOMM*%
G01*
G04 APERTURE LIST*
%ADD10C,0.100000*%
%ADD11C,0.002000*%
%ADD12R,1.901140X3.399740*%
%ADD13R,1.900000X1.650000*%
%ADD14R,1.650000X1.900000*%
%ADD15R,3.399740X1.901140*%
%ADD16C,1.299160*%
%ADD17R,2.127200X2.127200*%
%ADD18O,2.127200X2.127200*%
%ADD19R,2.432000X2.127200*%
%ADD20O,2.432000X2.127200*%
%ADD21R,1.000000X2.400000*%
%ADD22R,3.400000X4.400000*%
%ADD23R,2.398980X3.399740*%
%ADD24R,1.700000X1.900000*%
%ADD25R,1.900000X1.700000*%
%ADD26R,4.464000X4.464000*%
%ADD27R,2.635200X2.635200*%
G04 APERTURE END LIST*
D10*
D11*
G36*
X135959530Y-79810328D02*
X135929902Y-79963449D01*
X135901746Y-80099644D01*
X135876883Y-80210818D01*
X135857134Y-80288872D01*
X135844320Y-80325710D01*
X135843357Y-80326954D01*
X135811496Y-80345112D01*
X135742900Y-80376930D01*
X135648554Y-80417918D01*
X135539444Y-80463586D01*
X135426556Y-80509446D01*
X135320876Y-80551007D01*
X135233389Y-80583780D01*
X135175080Y-80603276D01*
X135158744Y-80606734D01*
X135129779Y-80592887D01*
X135066014Y-80554371D01*
X134974526Y-80495723D01*
X134862392Y-80421481D01*
X134736686Y-80336180D01*
X134735807Y-80335576D01*
X134609344Y-80249290D01*
X134495925Y-80172896D01*
X134402796Y-80111195D01*
X134337208Y-80068991D01*
X134306500Y-80051122D01*
X134278436Y-80064137D01*
X134222328Y-80107903D01*
X134144897Y-80175781D01*
X134052862Y-80261132D01*
X133952944Y-80357314D01*
X133851863Y-80457688D01*
X133756338Y-80555613D01*
X133673089Y-80644451D01*
X133608836Y-80717560D01*
X133570299Y-80768301D01*
X133562211Y-80786565D01*
X133576066Y-80819566D01*
X133614584Y-80887047D01*
X133673195Y-80981627D01*
X133747330Y-81095929D01*
X133830251Y-81219397D01*
X133915000Y-81345209D01*
X133988726Y-81457794D01*
X134046880Y-81549950D01*
X134084917Y-81614472D01*
X134098292Y-81643988D01*
X134088467Y-81678578D01*
X134062034Y-81748968D01*
X134023556Y-81844500D01*
X133977597Y-81954518D01*
X133928720Y-82068363D01*
X133881487Y-82175377D01*
X133840462Y-82264902D01*
X133810209Y-82326280D01*
X133796938Y-82347846D01*
X133769085Y-82356568D01*
X133700478Y-82372805D01*
X133600544Y-82394665D01*
X133478712Y-82420253D01*
X133344408Y-82447678D01*
X133207061Y-82475047D01*
X133076097Y-82500467D01*
X132960944Y-82522045D01*
X132871029Y-82537889D01*
X132815780Y-82546105D01*
X132805806Y-82546834D01*
X132800459Y-82570820D01*
X132796877Y-82636685D01*
X132794921Y-82735287D01*
X132794455Y-82857484D01*
X132795338Y-82994135D01*
X132797434Y-83136098D01*
X132800605Y-83274233D01*
X132804712Y-83399397D01*
X132809617Y-83502450D01*
X132815182Y-83574249D01*
X132821269Y-83605654D01*
X132821806Y-83606167D01*
X132854088Y-83615760D01*
X132928029Y-83632709D01*
X133035066Y-83655207D01*
X133166631Y-83681447D01*
X133295964Y-83706210D01*
X133445010Y-83735810D01*
X133576304Y-83764907D01*
X133681336Y-83791384D01*
X133751598Y-83813123D01*
X133777387Y-83826024D01*
X133798275Y-83861981D01*
X133832330Y-83934727D01*
X133875176Y-84033408D01*
X133922439Y-84147169D01*
X133969744Y-84265157D01*
X134012716Y-84376517D01*
X134046979Y-84470395D01*
X134068160Y-84535936D01*
X134072859Y-84559089D01*
X134058916Y-84590255D01*
X134020301Y-84655693D01*
X133961738Y-84747933D01*
X133887951Y-84859503D01*
X133817487Y-84962948D01*
X133734402Y-85085735D01*
X133662624Y-85196326D01*
X133606903Y-85287032D01*
X133571987Y-85350166D01*
X133562211Y-85376161D01*
X133579420Y-85404816D01*
X133626563Y-85461962D01*
X133696914Y-85540681D01*
X133783747Y-85634057D01*
X133880335Y-85735174D01*
X133979953Y-85837116D01*
X134075874Y-85932965D01*
X134161372Y-86015807D01*
X134229722Y-86078724D01*
X134274196Y-86114801D01*
X134286281Y-86120703D01*
X134313448Y-86106926D01*
X134375151Y-86068779D01*
X134464009Y-86011037D01*
X134572638Y-85938477D01*
X134662237Y-85877484D01*
X134782691Y-85795568D01*
X134890641Y-85723487D01*
X134978163Y-85666430D01*
X135037334Y-85629582D01*
X135057869Y-85618503D01*
X135099928Y-85621412D01*
X135172684Y-85643964D01*
X135261870Y-85681625D01*
X135272563Y-85686734D01*
X135360835Y-85725589D01*
X135434158Y-85750898D01*
X135478435Y-85757915D01*
X135481633Y-85757122D01*
X135496948Y-85732305D01*
X135528944Y-85666864D01*
X135574813Y-85567360D01*
X135631743Y-85440358D01*
X135696925Y-85292420D01*
X135767549Y-85130109D01*
X135840804Y-84959990D01*
X135913882Y-84788624D01*
X135983971Y-84622574D01*
X136048262Y-84468405D01*
X136103945Y-84332679D01*
X136148210Y-84221959D01*
X136178246Y-84142808D01*
X136191244Y-84101789D01*
X136191558Y-84099006D01*
X136172435Y-84077774D01*
X136121370Y-84034510D01*
X136047823Y-83977060D01*
X136013852Y-83951586D01*
X135835944Y-83791800D01*
X135700517Y-83611344D01*
X135607986Y-83415978D01*
X135558767Y-83211461D01*
X135553274Y-83003552D01*
X135591922Y-82798010D01*
X135675127Y-82600595D01*
X135803304Y-82417065D01*
X135896314Y-82321180D01*
X136072364Y-82190241D01*
X136261478Y-82104272D01*
X136457959Y-82060760D01*
X136656112Y-82057193D01*
X136850240Y-82091056D01*
X137034649Y-82159836D01*
X137203642Y-82261020D01*
X137351524Y-82392094D01*
X137472599Y-82550546D01*
X137561171Y-82733861D01*
X137611544Y-82939526D01*
X137621106Y-83082278D01*
X137596973Y-83310942D01*
X137525070Y-83522294D01*
X137406135Y-83714937D01*
X137240909Y-83887474D01*
X137160621Y-83951586D01*
X137080668Y-84012545D01*
X137019373Y-84062490D01*
X136986195Y-84093576D01*
X136982915Y-84099006D01*
X136992627Y-84132796D01*
X137019889Y-84205854D01*
X137061888Y-84311614D01*
X137115813Y-84443514D01*
X137178849Y-84594991D01*
X137248186Y-84759481D01*
X137321011Y-84930421D01*
X137394511Y-85101249D01*
X137465874Y-85265399D01*
X137532288Y-85416310D01*
X137590939Y-85547418D01*
X137639017Y-85652160D01*
X137673708Y-85723973D01*
X137692199Y-85756292D01*
X137693544Y-85757392D01*
X137732254Y-85753219D01*
X137802373Y-85729686D01*
X137890304Y-85691543D01*
X137911532Y-85681245D01*
X138093367Y-85591223D01*
X138480328Y-85855963D01*
X138604404Y-85940073D01*
X138714390Y-86013161D01*
X138803243Y-86070665D01*
X138863921Y-86108024D01*
X138889112Y-86120703D01*
X138913092Y-86103434D01*
X138967010Y-86055321D01*
X139044990Y-85981907D01*
X139141156Y-85888735D01*
X139249630Y-85781347D01*
X139261598Y-85769368D01*
X139370297Y-85658356D01*
X139465285Y-85557324D01*
X139540976Y-85472547D01*
X139591782Y-85410300D01*
X139612117Y-85376859D01*
X139612261Y-85375488D01*
X139598301Y-85341409D01*
X139559586Y-85273334D01*
X139500863Y-85178935D01*
X139426880Y-85065885D01*
X139356985Y-84962948D01*
X139274043Y-84840894D01*
X139202348Y-84731881D01*
X139146622Y-84643379D01*
X139111591Y-84582859D01*
X139101614Y-84559089D01*
X139111088Y-84519716D01*
X139136695Y-84444442D01*
X139174059Y-84344120D01*
X139218806Y-84229606D01*
X139266560Y-84111752D01*
X139312947Y-84001415D01*
X139353591Y-83909446D01*
X139384118Y-83846702D01*
X139397086Y-83826024D01*
X139432128Y-83809809D01*
X139508984Y-83787103D01*
X139619146Y-83760024D01*
X139754104Y-83730689D01*
X139878509Y-83706210D01*
X140024580Y-83678173D01*
X140153663Y-83652285D01*
X140257194Y-83630355D01*
X140326605Y-83614191D01*
X140352666Y-83606167D01*
X140358791Y-83578619D01*
X140364406Y-83509899D01*
X140369373Y-83409149D01*
X140373553Y-83285509D01*
X140376808Y-83148121D01*
X140379001Y-83006128D01*
X140379993Y-82868669D01*
X140379646Y-82744888D01*
X140377823Y-82643924D01*
X140374385Y-82574920D01*
X140369193Y-82547018D01*
X140368666Y-82546834D01*
X140329137Y-82542028D01*
X140251344Y-82528873D01*
X140144713Y-82509260D01*
X140018672Y-82485084D01*
X139882649Y-82458236D01*
X139746071Y-82430609D01*
X139618365Y-82404096D01*
X139508960Y-82380590D01*
X139427281Y-82361983D01*
X139382758Y-82350168D01*
X139377534Y-82347846D01*
X139358993Y-82316182D01*
X139326083Y-82247966D01*
X139283366Y-82153856D01*
X139235405Y-82044510D01*
X139186764Y-81930586D01*
X139142006Y-81822742D01*
X139105694Y-81731635D01*
X139082391Y-81667924D01*
X139076181Y-81643988D01*
X139089993Y-81613675D01*
X139128396Y-81548642D01*
X139186843Y-81456093D01*
X139260786Y-81343233D01*
X139344221Y-81219397D01*
X139429098Y-81092966D01*
X139502909Y-80979058D01*
X139561085Y-80885050D01*
X139599056Y-80818322D01*
X139612261Y-80786565D01*
X139594894Y-80754688D01*
X139547272Y-80695958D01*
X139476116Y-80617015D01*
X139388145Y-80524499D01*
X139290080Y-80425051D01*
X139188639Y-80325310D01*
X139090544Y-80231916D01*
X139002513Y-80151510D01*
X138931268Y-80090731D01*
X138883527Y-80056219D01*
X138867972Y-80051122D01*
X138836853Y-80069248D01*
X138771006Y-80111634D01*
X138677679Y-80173476D01*
X138564121Y-80249973D01*
X138438666Y-80335576D01*
X138312893Y-80420936D01*
X138200643Y-80495269D01*
X138108991Y-80554037D01*
X138045015Y-80592704D01*
X138015792Y-80606733D01*
X138015729Y-80606734D01*
X137979984Y-80597263D01*
X137908527Y-80571846D01*
X137812343Y-80534970D01*
X137702418Y-80491126D01*
X137589737Y-80444803D01*
X137485287Y-80400491D01*
X137400052Y-80362678D01*
X137345018Y-80335854D01*
X137331115Y-80326954D01*
X137319232Y-80295471D01*
X137300201Y-80221824D01*
X137275843Y-80114109D01*
X137247978Y-79980424D01*
X137218428Y-79828867D01*
X137214942Y-79810328D01*
X137122655Y-79317588D01*
X136051817Y-79317588D01*
X135959530Y-79810328D01*
X135959530Y-79810328D01*
G37*
X135959530Y-79810328D02*
X135929902Y-79963449D01*
X135901746Y-80099644D01*
X135876883Y-80210818D01*
X135857134Y-80288872D01*
X135844320Y-80325710D01*
X135843357Y-80326954D01*
X135811496Y-80345112D01*
X135742900Y-80376930D01*
X135648554Y-80417918D01*
X135539444Y-80463586D01*
X135426556Y-80509446D01*
X135320876Y-80551007D01*
X135233389Y-80583780D01*
X135175080Y-80603276D01*
X135158744Y-80606734D01*
X135129779Y-80592887D01*
X135066014Y-80554371D01*
X134974526Y-80495723D01*
X134862392Y-80421481D01*
X134736686Y-80336180D01*
X134735807Y-80335576D01*
X134609344Y-80249290D01*
X134495925Y-80172896D01*
X134402796Y-80111195D01*
X134337208Y-80068991D01*
X134306500Y-80051122D01*
X134278436Y-80064137D01*
X134222328Y-80107903D01*
X134144897Y-80175781D01*
X134052862Y-80261132D01*
X133952944Y-80357314D01*
X133851863Y-80457688D01*
X133756338Y-80555613D01*
X133673089Y-80644451D01*
X133608836Y-80717560D01*
X133570299Y-80768301D01*
X133562211Y-80786565D01*
X133576066Y-80819566D01*
X133614584Y-80887047D01*
X133673195Y-80981627D01*
X133747330Y-81095929D01*
X133830251Y-81219397D01*
X133915000Y-81345209D01*
X133988726Y-81457794D01*
X134046880Y-81549950D01*
X134084917Y-81614472D01*
X134098292Y-81643988D01*
X134088467Y-81678578D01*
X134062034Y-81748968D01*
X134023556Y-81844500D01*
X133977597Y-81954518D01*
X133928720Y-82068363D01*
X133881487Y-82175377D01*
X133840462Y-82264902D01*
X133810209Y-82326280D01*
X133796938Y-82347846D01*
X133769085Y-82356568D01*
X133700478Y-82372805D01*
X133600544Y-82394665D01*
X133478712Y-82420253D01*
X133344408Y-82447678D01*
X133207061Y-82475047D01*
X133076097Y-82500467D01*
X132960944Y-82522045D01*
X132871029Y-82537889D01*
X132815780Y-82546105D01*
X132805806Y-82546834D01*
X132800459Y-82570820D01*
X132796877Y-82636685D01*
X132794921Y-82735287D01*
X132794455Y-82857484D01*
X132795338Y-82994135D01*
X132797434Y-83136098D01*
X132800605Y-83274233D01*
X132804712Y-83399397D01*
X132809617Y-83502450D01*
X132815182Y-83574249D01*
X132821269Y-83605654D01*
X132821806Y-83606167D01*
X132854088Y-83615760D01*
X132928029Y-83632709D01*
X133035066Y-83655207D01*
X133166631Y-83681447D01*
X133295964Y-83706210D01*
X133445010Y-83735810D01*
X133576304Y-83764907D01*
X133681336Y-83791384D01*
X133751598Y-83813123D01*
X133777387Y-83826024D01*
X133798275Y-83861981D01*
X133832330Y-83934727D01*
X133875176Y-84033408D01*
X133922439Y-84147169D01*
X133969744Y-84265157D01*
X134012716Y-84376517D01*
X134046979Y-84470395D01*
X134068160Y-84535936D01*
X134072859Y-84559089D01*
X134058916Y-84590255D01*
X134020301Y-84655693D01*
X133961738Y-84747933D01*
X133887951Y-84859503D01*
X133817487Y-84962948D01*
X133734402Y-85085735D01*
X133662624Y-85196326D01*
X133606903Y-85287032D01*
X133571987Y-85350166D01*
X133562211Y-85376161D01*
X133579420Y-85404816D01*
X133626563Y-85461962D01*
X133696914Y-85540681D01*
X133783747Y-85634057D01*
X133880335Y-85735174D01*
X133979953Y-85837116D01*
X134075874Y-85932965D01*
X134161372Y-86015807D01*
X134229722Y-86078724D01*
X134274196Y-86114801D01*
X134286281Y-86120703D01*
X134313448Y-86106926D01*
X134375151Y-86068779D01*
X134464009Y-86011037D01*
X134572638Y-85938477D01*
X134662237Y-85877484D01*
X134782691Y-85795568D01*
X134890641Y-85723487D01*
X134978163Y-85666430D01*
X135037334Y-85629582D01*
X135057869Y-85618503D01*
X135099928Y-85621412D01*
X135172684Y-85643964D01*
X135261870Y-85681625D01*
X135272563Y-85686734D01*
X135360835Y-85725589D01*
X135434158Y-85750898D01*
X135478435Y-85757915D01*
X135481633Y-85757122D01*
X135496948Y-85732305D01*
X135528944Y-85666864D01*
X135574813Y-85567360D01*
X135631743Y-85440358D01*
X135696925Y-85292420D01*
X135767549Y-85130109D01*
X135840804Y-84959990D01*
X135913882Y-84788624D01*
X135983971Y-84622574D01*
X136048262Y-84468405D01*
X136103945Y-84332679D01*
X136148210Y-84221959D01*
X136178246Y-84142808D01*
X136191244Y-84101789D01*
X136191558Y-84099006D01*
X136172435Y-84077774D01*
X136121370Y-84034510D01*
X136047823Y-83977060D01*
X136013852Y-83951586D01*
X135835944Y-83791800D01*
X135700517Y-83611344D01*
X135607986Y-83415978D01*
X135558767Y-83211461D01*
X135553274Y-83003552D01*
X135591922Y-82798010D01*
X135675127Y-82600595D01*
X135803304Y-82417065D01*
X135896314Y-82321180D01*
X136072364Y-82190241D01*
X136261478Y-82104272D01*
X136457959Y-82060760D01*
X136656112Y-82057193D01*
X136850240Y-82091056D01*
X137034649Y-82159836D01*
X137203642Y-82261020D01*
X137351524Y-82392094D01*
X137472599Y-82550546D01*
X137561171Y-82733861D01*
X137611544Y-82939526D01*
X137621106Y-83082278D01*
X137596973Y-83310942D01*
X137525070Y-83522294D01*
X137406135Y-83714937D01*
X137240909Y-83887474D01*
X137160621Y-83951586D01*
X137080668Y-84012545D01*
X137019373Y-84062490D01*
X136986195Y-84093576D01*
X136982915Y-84099006D01*
X136992627Y-84132796D01*
X137019889Y-84205854D01*
X137061888Y-84311614D01*
X137115813Y-84443514D01*
X137178849Y-84594991D01*
X137248186Y-84759481D01*
X137321011Y-84930421D01*
X137394511Y-85101249D01*
X137465874Y-85265399D01*
X137532288Y-85416310D01*
X137590939Y-85547418D01*
X137639017Y-85652160D01*
X137673708Y-85723973D01*
X137692199Y-85756292D01*
X137693544Y-85757392D01*
X137732254Y-85753219D01*
X137802373Y-85729686D01*
X137890304Y-85691543D01*
X137911532Y-85681245D01*
X138093367Y-85591223D01*
X138480328Y-85855963D01*
X138604404Y-85940073D01*
X138714390Y-86013161D01*
X138803243Y-86070665D01*
X138863921Y-86108024D01*
X138889112Y-86120703D01*
X138913092Y-86103434D01*
X138967010Y-86055321D01*
X139044990Y-85981907D01*
X139141156Y-85888735D01*
X139249630Y-85781347D01*
X139261598Y-85769368D01*
X139370297Y-85658356D01*
X139465285Y-85557324D01*
X139540976Y-85472547D01*
X139591782Y-85410300D01*
X139612117Y-85376859D01*
X139612261Y-85375488D01*
X139598301Y-85341409D01*
X139559586Y-85273334D01*
X139500863Y-85178935D01*
X139426880Y-85065885D01*
X139356985Y-84962948D01*
X139274043Y-84840894D01*
X139202348Y-84731881D01*
X139146622Y-84643379D01*
X139111591Y-84582859D01*
X139101614Y-84559089D01*
X139111088Y-84519716D01*
X139136695Y-84444442D01*
X139174059Y-84344120D01*
X139218806Y-84229606D01*
X139266560Y-84111752D01*
X139312947Y-84001415D01*
X139353591Y-83909446D01*
X139384118Y-83846702D01*
X139397086Y-83826024D01*
X139432128Y-83809809D01*
X139508984Y-83787103D01*
X139619146Y-83760024D01*
X139754104Y-83730689D01*
X139878509Y-83706210D01*
X140024580Y-83678173D01*
X140153663Y-83652285D01*
X140257194Y-83630355D01*
X140326605Y-83614191D01*
X140352666Y-83606167D01*
X140358791Y-83578619D01*
X140364406Y-83509899D01*
X140369373Y-83409149D01*
X140373553Y-83285509D01*
X140376808Y-83148121D01*
X140379001Y-83006128D01*
X140379993Y-82868669D01*
X140379646Y-82744888D01*
X140377823Y-82643924D01*
X140374385Y-82574920D01*
X140369193Y-82547018D01*
X140368666Y-82546834D01*
X140329137Y-82542028D01*
X140251344Y-82528873D01*
X140144713Y-82509260D01*
X140018672Y-82485084D01*
X139882649Y-82458236D01*
X139746071Y-82430609D01*
X139618365Y-82404096D01*
X139508960Y-82380590D01*
X139427281Y-82361983D01*
X139382758Y-82350168D01*
X139377534Y-82347846D01*
X139358993Y-82316182D01*
X139326083Y-82247966D01*
X139283366Y-82153856D01*
X139235405Y-82044510D01*
X139186764Y-81930586D01*
X139142006Y-81822742D01*
X139105694Y-81731635D01*
X139082391Y-81667924D01*
X139076181Y-81643988D01*
X139089993Y-81613675D01*
X139128396Y-81548642D01*
X139186843Y-81456093D01*
X139260786Y-81343233D01*
X139344221Y-81219397D01*
X139429098Y-81092966D01*
X139502909Y-80979058D01*
X139561085Y-80885050D01*
X139599056Y-80818322D01*
X139612261Y-80786565D01*
X139594894Y-80754688D01*
X139547272Y-80695958D01*
X139476116Y-80617015D01*
X139388145Y-80524499D01*
X139290080Y-80425051D01*
X139188639Y-80325310D01*
X139090544Y-80231916D01*
X139002513Y-80151510D01*
X138931268Y-80090731D01*
X138883527Y-80056219D01*
X138867972Y-80051122D01*
X138836853Y-80069248D01*
X138771006Y-80111634D01*
X138677679Y-80173476D01*
X138564121Y-80249973D01*
X138438666Y-80335576D01*
X138312893Y-80420936D01*
X138200643Y-80495269D01*
X138108991Y-80554037D01*
X138045015Y-80592704D01*
X138015792Y-80606733D01*
X138015729Y-80606734D01*
X137979984Y-80597263D01*
X137908527Y-80571846D01*
X137812343Y-80534970D01*
X137702418Y-80491126D01*
X137589737Y-80444803D01*
X137485287Y-80400491D01*
X137400052Y-80362678D01*
X137345018Y-80335854D01*
X137331115Y-80326954D01*
X137319232Y-80295471D01*
X137300201Y-80221824D01*
X137275843Y-80114109D01*
X137247978Y-79980424D01*
X137218428Y-79828867D01*
X137214942Y-79810328D01*
X137122655Y-79317588D01*
X136051817Y-79317588D01*
X135959530Y-79810328D01*
D12*
X147800000Y-41501020D03*
X147800000Y-45498980D03*
X147600000Y-51701020D03*
X147600000Y-55698980D03*
D13*
X130050000Y-73000000D03*
X127550000Y-73000000D03*
X132550000Y-66800000D03*
X130050000Y-66800000D03*
X132950000Y-58030000D03*
X130450000Y-58030000D03*
X132550000Y-75800000D03*
X130050000Y-75800000D03*
X137350000Y-75800000D03*
X134850000Y-75800000D03*
D14*
X154330000Y-77480000D03*
X154330000Y-79980000D03*
X168330000Y-77480000D03*
X168330000Y-79980000D03*
X182330000Y-77480000D03*
X182330000Y-79980000D03*
X108700000Y-45250000D03*
X108700000Y-47750000D03*
X108800000Y-55750000D03*
X108800000Y-58250000D03*
X108800000Y-66360000D03*
X108800000Y-68860000D03*
X108790000Y-76950000D03*
X108790000Y-79450000D03*
D13*
X178950000Y-44600000D03*
X176450000Y-44600000D03*
D15*
X165398980Y-51100000D03*
X161401020Y-51100000D03*
D16*
X127449640Y-40850900D03*
X123050360Y-40850900D03*
D17*
X184600000Y-55000000D03*
D18*
X187140000Y-55000000D03*
X184600000Y-57540000D03*
X187140000Y-57540000D03*
X184600000Y-60080000D03*
X187140000Y-60080000D03*
X184600000Y-62620000D03*
X187140000Y-62620000D03*
X184600000Y-65160000D03*
X187140000Y-65160000D03*
D19*
X137100000Y-49600000D03*
D20*
X137100000Y-47060000D03*
X137100000Y-44520000D03*
X137100000Y-41980000D03*
D21*
X159830000Y-44230000D03*
X160830000Y-44230000D03*
X161830000Y-44230000D03*
X162830000Y-44230000D03*
X163830000Y-44230000D03*
X164830000Y-44230000D03*
X165830000Y-44230000D03*
X166830000Y-44230000D03*
D22*
X169830000Y-41230000D03*
X156830000Y-41230000D03*
D23*
X160300260Y-55800000D03*
X166299740Y-55800000D03*
D24*
X126900000Y-83150000D03*
X126900000Y-80450000D03*
X121700000Y-83150000D03*
X121700000Y-80450000D03*
X124300000Y-83150000D03*
X124300000Y-80450000D03*
X119100000Y-83150000D03*
X119100000Y-80450000D03*
X144330000Y-80080000D03*
X144330000Y-77380000D03*
X158330000Y-80080000D03*
X158330000Y-77380000D03*
X172330000Y-80080000D03*
X172330000Y-77380000D03*
X114700000Y-47850000D03*
X114700000Y-45150000D03*
X114700000Y-58350000D03*
X114700000Y-55650000D03*
X114600000Y-68960000D03*
X114600000Y-66260000D03*
X114690000Y-79750000D03*
X114690000Y-77050000D03*
D25*
X179150000Y-53000000D03*
X176450000Y-53000000D03*
X179150000Y-48800000D03*
X176450000Y-48800000D03*
D24*
X156200000Y-50050000D03*
X156200000Y-47350000D03*
X156200000Y-53650000D03*
X156200000Y-56350000D03*
D25*
X130550000Y-48100000D03*
X133250000Y-48100000D03*
X137150000Y-54800000D03*
X134450000Y-54800000D03*
X123150000Y-48100000D03*
X120450000Y-48100000D03*
D26*
X177700000Y-65900000D03*
X170500000Y-65900000D03*
X163300000Y-65900000D03*
X156100000Y-65900000D03*
X148900000Y-65900000D03*
D27*
X114050000Y-38610000D03*
X185900000Y-45300000D03*
M02*
