G04 #@! TF.FileFunction,Soldermask,Top*
%FSLAX46Y46*%
G04 Gerber Fmt 4.6, Leading zero omitted, Abs format (unit mm)*
G04 Created by KiCad (PCBNEW 4.0.1-3.201512161002+6197~38~ubuntu14.04.1-stable) date Sat 19 Dec 2015 01:41:55 AM EET*
%MOMM*%
G01*
G04 APERTURE LIST*
%ADD10C,0.100000*%
%ADD11R,3.150000X1.400000*%
%ADD12R,0.950000X2.000000*%
%ADD13R,2.000000X0.950000*%
%ADD14R,0.900380X2.701240*%
%ADD15R,2.398980X2.899360*%
%ADD16C,1.299160*%
%ADD17R,2.127200X2.127200*%
%ADD18O,2.127200X2.127200*%
%ADD19R,2.432000X2.127200*%
%ADD20O,2.432000X2.127200*%
%ADD21R,2.432000X4.057600*%
%ADD22R,2.432000X1.416000*%
%ADD23R,1.800000X1.600000*%
%ADD24R,2.635200X2.635200*%
G04 APERTURE END LIST*
D10*
D11*
X108905000Y-80470000D03*
X114655000Y-80470000D03*
X114655000Y-76470000D03*
X108905000Y-76470000D03*
D12*
X127660000Y-69600000D03*
X128460000Y-69600000D03*
X129260000Y-69600000D03*
X130060000Y-69600000D03*
X130860000Y-69600000D03*
X131660000Y-69600000D03*
X132460000Y-69600000D03*
X133260000Y-69600000D03*
D13*
X134710000Y-68150000D03*
X134710000Y-67350000D03*
X134710000Y-66550000D03*
X134710000Y-65750000D03*
X134710000Y-64950000D03*
X134710000Y-64150000D03*
X134710000Y-63350000D03*
X134710000Y-62550000D03*
D12*
X133260000Y-61100000D03*
X132460000Y-61100000D03*
X131660000Y-61100000D03*
X130860000Y-61100000D03*
X130060000Y-61100000D03*
X129260000Y-61100000D03*
X128460000Y-61100000D03*
X127660000Y-61100000D03*
D13*
X126210000Y-62550000D03*
X126210000Y-63350000D03*
X126210000Y-64150000D03*
X126210000Y-64950000D03*
X126210000Y-65750000D03*
X126210000Y-66550000D03*
X126210000Y-67350000D03*
X126210000Y-68150000D03*
D14*
X126850200Y-43449320D03*
X126050100Y-43449320D03*
X125250000Y-43449320D03*
X124449900Y-43449320D03*
X123649800Y-43449320D03*
D15*
X129700080Y-43350260D03*
X129700080Y-37851160D03*
X120799920Y-43350260D03*
X120799920Y-37851160D03*
D16*
X127449640Y-40850900D03*
X123050360Y-40850900D03*
D17*
X184600000Y-55000000D03*
D18*
X187140000Y-55000000D03*
X184600000Y-57540000D03*
X187140000Y-57540000D03*
X184600000Y-60080000D03*
X187140000Y-60080000D03*
X184600000Y-62620000D03*
X187140000Y-62620000D03*
X184600000Y-65160000D03*
X187140000Y-65160000D03*
D19*
X137100000Y-49600000D03*
D20*
X137100000Y-47060000D03*
X137100000Y-44520000D03*
X137100000Y-41980000D03*
D11*
X108825000Y-48570000D03*
X114575000Y-48570000D03*
X114575000Y-44570000D03*
X108825000Y-44570000D03*
X146455000Y-80730000D03*
X152205000Y-80730000D03*
X152205000Y-76730000D03*
X146455000Y-76730000D03*
X108875000Y-59110000D03*
X114625000Y-59110000D03*
X114625000Y-55110000D03*
X108875000Y-55110000D03*
X160455000Y-80730000D03*
X166205000Y-80730000D03*
X166205000Y-76730000D03*
X160455000Y-76730000D03*
X108875000Y-69670000D03*
X114625000Y-69670000D03*
X114625000Y-65670000D03*
X108875000Y-65670000D03*
X174455000Y-80730000D03*
X180205000Y-80730000D03*
X180205000Y-76730000D03*
X174455000Y-76730000D03*
D21*
X122098000Y-51300000D03*
D22*
X128702000Y-51300000D03*
X128702000Y-49014000D03*
X128702000Y-53586000D03*
D23*
X133200000Y-73800000D03*
X135400000Y-73800000D03*
X133200000Y-72200000D03*
X135400000Y-72200000D03*
D24*
X114050000Y-38610000D03*
X185900000Y-45300000D03*
M02*
