G04 #@! TF.FileFunction,Legend,Top*
%FSLAX46Y46*%
G04 Gerber Fmt 4.6, Leading zero omitted, Abs format (unit mm)*
G04 Created by KiCad (PCBNEW 4.0.7-e1-6374~58~ubuntu16.04.1) date Thu Aug 10 00:10:15 2017*
%MOMM*%
%LPD*%
G01*
G04 APERTURE LIST*
%ADD10C,0.100000*%
%ADD11C,0.300000*%
%ADD12C,0.200000*%
%ADD13C,0.150000*%
%ADD14C,0.120000*%
%ADD15C,0.010000*%
G04 APERTURE END LIST*
D10*
D11*
X179240571Y-123011285D02*
X179169143Y-123154143D01*
X179097714Y-123225571D01*
X178954857Y-123297000D01*
X178526286Y-123297000D01*
X178383429Y-123225571D01*
X178312000Y-123154143D01*
X178240571Y-123011285D01*
X178240571Y-122797000D01*
X178312000Y-122654143D01*
X178383429Y-122582714D01*
X178526286Y-122511285D01*
X178954857Y-122511285D01*
X179097714Y-122582714D01*
X179169143Y-122654143D01*
X179240571Y-122797000D01*
X179240571Y-123011285D01*
X178240571Y-122082714D02*
X178240571Y-121511285D01*
X179240571Y-121868428D02*
X177954857Y-121868428D01*
X177812000Y-121797000D01*
X177740571Y-121654142D01*
X177740571Y-121511285D01*
X178240571Y-121225571D02*
X178240571Y-120654142D01*
X179240571Y-121011285D02*
X177954857Y-121011285D01*
X177812000Y-120939857D01*
X177740571Y-120796999D01*
X177740571Y-120654142D01*
X177867571Y-118824142D02*
X177867571Y-117895571D01*
X178439000Y-118395571D01*
X178439000Y-118181285D01*
X178510429Y-118038428D01*
X178581857Y-117966999D01*
X178724714Y-117895571D01*
X179081857Y-117895571D01*
X179224714Y-117966999D01*
X179296143Y-118038428D01*
X179367571Y-118181285D01*
X179367571Y-118609857D01*
X179296143Y-118752714D01*
X179224714Y-118824142D01*
X177867571Y-117467000D02*
X179367571Y-116967000D01*
X177867571Y-116467000D01*
X177867571Y-116109857D02*
X177867571Y-115181286D01*
X178439000Y-115681286D01*
X178439000Y-115467000D01*
X178510429Y-115324143D01*
X178581857Y-115252714D01*
X178724714Y-115181286D01*
X179081857Y-115181286D01*
X179224714Y-115252714D01*
X179296143Y-115324143D01*
X179367571Y-115467000D01*
X179367571Y-115895572D01*
X179296143Y-116038429D01*
X179224714Y-116109857D01*
X177740571Y-128126999D02*
X177740571Y-128841285D01*
X178454857Y-128912714D01*
X178383429Y-128841285D01*
X178312000Y-128698428D01*
X178312000Y-128341285D01*
X178383429Y-128198428D01*
X178454857Y-128126999D01*
X178597714Y-128055571D01*
X178954857Y-128055571D01*
X179097714Y-128126999D01*
X179169143Y-128198428D01*
X179240571Y-128341285D01*
X179240571Y-128698428D01*
X179169143Y-128841285D01*
X179097714Y-128912714D01*
X177740571Y-127627000D02*
X179240571Y-127127000D01*
X177740571Y-126627000D01*
X177740571Y-125841286D02*
X177740571Y-125698429D01*
X177812000Y-125555572D01*
X177883429Y-125484143D01*
X178026286Y-125412714D01*
X178312000Y-125341286D01*
X178669143Y-125341286D01*
X178954857Y-125412714D01*
X179097714Y-125484143D01*
X179169143Y-125555572D01*
X179240571Y-125698429D01*
X179240571Y-125841286D01*
X179169143Y-125984143D01*
X179097714Y-126055572D01*
X178954857Y-126127000D01*
X178669143Y-126198429D01*
X178312000Y-126198429D01*
X178026286Y-126127000D01*
X177883429Y-126055572D01*
X177812000Y-125984143D01*
X177740571Y-125841286D01*
X124785716Y-103133333D02*
X124785716Y-101733333D01*
X125300002Y-103133333D02*
X125300002Y-102400000D01*
X125242859Y-102266667D01*
X125128573Y-102200000D01*
X124957145Y-102200000D01*
X124842859Y-102266667D01*
X124785716Y-102333333D01*
X125700002Y-102200000D02*
X126157145Y-102200000D01*
X125871430Y-101733333D02*
X125871430Y-102933333D01*
X125928573Y-103066667D01*
X126042859Y-103133333D01*
X126157145Y-103133333D01*
X126385716Y-102200000D02*
X126842859Y-102200000D01*
X126557144Y-101733333D02*
X126557144Y-102933333D01*
X126614287Y-103066667D01*
X126728573Y-103133333D01*
X126842859Y-103133333D01*
X127242858Y-102200000D02*
X127242858Y-103600000D01*
X127242858Y-102266667D02*
X127357144Y-102200000D01*
X127585715Y-102200000D01*
X127700001Y-102266667D01*
X127757144Y-102333333D01*
X127814287Y-102466667D01*
X127814287Y-102866667D01*
X127757144Y-103000000D01*
X127700001Y-103066667D01*
X127585715Y-103133333D01*
X127357144Y-103133333D01*
X127242858Y-103066667D01*
X128328572Y-103000000D02*
X128385715Y-103066667D01*
X128328572Y-103133333D01*
X128271429Y-103066667D01*
X128328572Y-103000000D01*
X128328572Y-103133333D01*
X128328572Y-102266667D02*
X128385715Y-102333333D01*
X128328572Y-102400000D01*
X128271429Y-102333333D01*
X128328572Y-102266667D01*
X128328572Y-102400000D01*
X129757144Y-101666667D02*
X128728573Y-103466667D01*
X131014287Y-101666667D02*
X129985716Y-103466667D01*
X131928573Y-102200000D02*
X131928573Y-103133333D01*
X131642859Y-101666667D02*
X131357144Y-102666667D01*
X132100002Y-102666667D01*
X133071430Y-103066667D02*
X132957144Y-103133333D01*
X132728573Y-103133333D01*
X132614287Y-103066667D01*
X132557144Y-103000000D01*
X132500001Y-102866667D01*
X132500001Y-102466667D01*
X132557144Y-102333333D01*
X132614287Y-102266667D01*
X132728573Y-102200000D01*
X132957144Y-102200000D01*
X133071430Y-102266667D01*
X133585715Y-103133333D02*
X133585715Y-101733333D01*
X134100001Y-103133333D02*
X134100001Y-102400000D01*
X134042858Y-102266667D01*
X133928572Y-102200000D01*
X133757144Y-102200000D01*
X133642858Y-102266667D01*
X133585715Y-102333333D01*
X134842858Y-103133333D02*
X134728572Y-103066667D01*
X134671429Y-103000000D01*
X134614286Y-102866667D01*
X134614286Y-102466667D01*
X134671429Y-102333333D01*
X134728572Y-102266667D01*
X134842858Y-102200000D01*
X135014286Y-102200000D01*
X135128572Y-102266667D01*
X135185715Y-102333333D01*
X135242858Y-102466667D01*
X135242858Y-102866667D01*
X135185715Y-103000000D01*
X135128572Y-103066667D01*
X135014286Y-103133333D01*
X134842858Y-103133333D01*
X135757143Y-103133333D02*
X135757143Y-102200000D01*
X135757143Y-102466667D02*
X135814286Y-102333333D01*
X135871429Y-102266667D01*
X135985715Y-102200000D01*
X136100000Y-102200000D01*
X137014286Y-103133333D02*
X137014286Y-101733333D01*
X137014286Y-103066667D02*
X136900000Y-103133333D01*
X136671429Y-103133333D01*
X136557143Y-103066667D01*
X136500000Y-103000000D01*
X136442857Y-102866667D01*
X136442857Y-102466667D01*
X136500000Y-102333333D01*
X136557143Y-102266667D01*
X136671429Y-102200000D01*
X136900000Y-102200000D01*
X137014286Y-102266667D01*
X137585714Y-103000000D02*
X137642857Y-103066667D01*
X137585714Y-103133333D01*
X137528571Y-103066667D01*
X137585714Y-103000000D01*
X137585714Y-103133333D01*
X138671429Y-103066667D02*
X138557143Y-103133333D01*
X138328572Y-103133333D01*
X138214286Y-103066667D01*
X138157143Y-103000000D01*
X138100000Y-102866667D01*
X138100000Y-102466667D01*
X138157143Y-102333333D01*
X138214286Y-102266667D01*
X138328572Y-102200000D01*
X138557143Y-102200000D01*
X138671429Y-102266667D01*
X139185714Y-103133333D02*
X139185714Y-102200000D01*
X139185714Y-102466667D02*
X139242857Y-102333333D01*
X139300000Y-102266667D01*
X139414286Y-102200000D01*
X139528571Y-102200000D01*
X140442857Y-103133333D02*
X140442857Y-102400000D01*
X140385714Y-102266667D01*
X140271428Y-102200000D01*
X140042857Y-102200000D01*
X139928571Y-102266667D01*
X140442857Y-103066667D02*
X140328571Y-103133333D01*
X140042857Y-103133333D01*
X139928571Y-103066667D01*
X139871428Y-102933333D01*
X139871428Y-102800000D01*
X139928571Y-102666667D01*
X140042857Y-102600000D01*
X140328571Y-102600000D01*
X140442857Y-102533333D01*
X141014285Y-102200000D02*
X141014285Y-103600000D01*
X141014285Y-102266667D02*
X141128571Y-102200000D01*
X141357142Y-102200000D01*
X141471428Y-102266667D01*
X141528571Y-102333333D01*
X141585714Y-102466667D01*
X141585714Y-102866667D01*
X141528571Y-103000000D01*
X141471428Y-103066667D01*
X141357142Y-103133333D01*
X141128571Y-103133333D01*
X141014285Y-103066667D01*
X142271428Y-103133333D02*
X142157142Y-103066667D01*
X142099999Y-102933333D01*
X142099999Y-101733333D01*
X143242856Y-103133333D02*
X143242856Y-102400000D01*
X143185713Y-102266667D01*
X143071427Y-102200000D01*
X142842856Y-102200000D01*
X142728570Y-102266667D01*
X143242856Y-103066667D02*
X143128570Y-103133333D01*
X142842856Y-103133333D01*
X142728570Y-103066667D01*
X142671427Y-102933333D01*
X142671427Y-102800000D01*
X142728570Y-102666667D01*
X142842856Y-102600000D01*
X143128570Y-102600000D01*
X143242856Y-102533333D01*
X143814284Y-103133333D02*
X143814284Y-101733333D01*
X143814284Y-102266667D02*
X143928570Y-102200000D01*
X144157141Y-102200000D01*
X144271427Y-102266667D01*
X144328570Y-102333333D01*
X144385713Y-102466667D01*
X144385713Y-102866667D01*
X144328570Y-103000000D01*
X144271427Y-103066667D01*
X144157141Y-103133333D01*
X143928570Y-103133333D01*
X143814284Y-103066667D01*
X144899998Y-103000000D02*
X144957141Y-103066667D01*
X144899998Y-103133333D01*
X144842855Y-103066667D01*
X144899998Y-103000000D01*
X144899998Y-103133333D01*
X145299999Y-102200000D02*
X145757142Y-102200000D01*
X145471427Y-103133333D02*
X145471427Y-101933333D01*
X145528570Y-101800000D01*
X145642856Y-101733333D01*
X145757142Y-101733333D01*
X146157141Y-103133333D02*
X146157141Y-102200000D01*
X146157141Y-101733333D02*
X146099998Y-101800000D01*
X146157141Y-101866667D01*
X146214284Y-101800000D01*
X146157141Y-101733333D01*
X146157141Y-101866667D01*
X147585713Y-101666667D02*
X146557142Y-103466667D01*
D12*
X118950000Y-83150000D02*
X119950000Y-83150000D01*
X119450000Y-83250000D02*
X118950000Y-83750000D01*
X118950000Y-83750000D02*
X119950000Y-83750000D01*
X119950000Y-83750000D02*
X119450000Y-83250000D01*
X153450000Y-83750000D02*
X152950000Y-83250000D01*
X152450000Y-83750000D02*
X153450000Y-83750000D01*
X152950000Y-83250000D02*
X152450000Y-83750000D01*
X152450000Y-83150000D02*
X153450000Y-83150000D01*
X152400000Y-96200000D02*
X153400000Y-96200000D01*
X152900000Y-96300000D02*
X152400000Y-96800000D01*
X152400000Y-96800000D02*
X153400000Y-96800000D01*
X153400000Y-96800000D02*
X152900000Y-96300000D01*
X120000000Y-96900000D02*
X119500000Y-96400000D01*
X119000000Y-96900000D02*
X120000000Y-96900000D01*
X119500000Y-96400000D02*
X119000000Y-96900000D01*
X119000000Y-96300000D02*
X120000000Y-96300000D01*
D13*
X116200000Y-70600000D02*
X116200000Y-105350000D01*
X156200000Y-70600000D02*
X156200000Y-105350000D01*
X156200000Y-94600000D02*
X153700000Y-94600000D01*
X153700000Y-94600000D02*
X153700000Y-98600000D01*
X153700000Y-98600000D02*
X156200000Y-98600000D01*
X116200000Y-94600000D02*
X118700000Y-94600000D01*
X118700000Y-94600000D02*
X118700000Y-98600000D01*
X118700000Y-98600000D02*
X116200000Y-98600000D01*
X156200000Y-81600000D02*
X153700000Y-81600000D01*
X153700000Y-81600000D02*
X153700000Y-85600000D01*
X153700000Y-85600000D02*
X156200000Y-85600000D01*
X116200000Y-81600000D02*
X118700000Y-81600000D01*
X118700000Y-81600000D02*
X118700000Y-85600000D01*
X118700000Y-85600000D02*
X116200000Y-85600000D01*
X156200000Y-105350000D02*
X116200000Y-105350000D01*
X116200000Y-70600000D02*
X156200000Y-70600000D01*
D14*
X139750000Y-59450000D02*
X132050000Y-59450000D01*
X139750000Y-58450000D02*
X132050000Y-58450000D01*
X132050000Y-58450000D02*
X132050000Y-67650000D01*
X132050000Y-67650000D02*
X139750000Y-67650000D01*
X139750000Y-67650000D02*
X139750000Y-58450000D01*
X118200000Y-81800000D02*
X116800000Y-81800000D01*
X116800000Y-81800000D02*
X116800000Y-84600000D01*
X118200000Y-81800000D02*
X118200000Y-84600000D01*
X155700000Y-81800000D02*
X154300000Y-81800000D01*
X154300000Y-81800000D02*
X154300000Y-84600000D01*
X155700000Y-81800000D02*
X155700000Y-84600000D01*
X118200000Y-94900000D02*
X116800000Y-94900000D01*
X116800000Y-94900000D02*
X116800000Y-97700000D01*
X118200000Y-94900000D02*
X118200000Y-97700000D01*
X155600000Y-94800000D02*
X154200000Y-94800000D01*
X154200000Y-94800000D02*
X154200000Y-97600000D01*
X155600000Y-94800000D02*
X155600000Y-97600000D01*
X183570000Y-119570000D02*
X183570000Y-127250000D01*
X183570000Y-127250000D02*
X186230000Y-127250000D01*
X186230000Y-127250000D02*
X186230000Y-119570000D01*
X186230000Y-119570000D02*
X183570000Y-119570000D01*
X183570000Y-118300000D02*
X183570000Y-116970000D01*
X183570000Y-116970000D02*
X184900000Y-116970000D01*
X118850000Y-115350000D02*
X118850000Y-115800000D01*
X118850000Y-115800000D02*
X125150000Y-115800000D01*
X125150000Y-115800000D02*
X125150000Y-115400000D01*
X118850000Y-114050000D02*
X118850000Y-111350000D01*
X125150000Y-111350000D02*
X125150000Y-114050000D01*
X118850000Y-109600000D02*
X125150000Y-109600000D01*
X125150000Y-109600000D02*
X125150000Y-110050000D01*
X118850000Y-110050000D02*
X118850000Y-109600000D01*
X132850000Y-115350000D02*
X132850000Y-115800000D01*
X132850000Y-115800000D02*
X139150000Y-115800000D01*
X139150000Y-115800000D02*
X139150000Y-115400000D01*
X132850000Y-114050000D02*
X132850000Y-111350000D01*
X139150000Y-111350000D02*
X139150000Y-114050000D01*
X132850000Y-109600000D02*
X139150000Y-109600000D01*
X139150000Y-109600000D02*
X139150000Y-110050000D01*
X132850000Y-110050000D02*
X132850000Y-109600000D01*
X146850000Y-115350000D02*
X146850000Y-115800000D01*
X146850000Y-115800000D02*
X153150000Y-115800000D01*
X153150000Y-115800000D02*
X153150000Y-115400000D01*
X146850000Y-114050000D02*
X146850000Y-111350000D01*
X153150000Y-111350000D02*
X153150000Y-114050000D01*
X146850000Y-109600000D02*
X153150000Y-109600000D01*
X153150000Y-109600000D02*
X153150000Y-110050000D01*
X146850000Y-110050000D02*
X146850000Y-109600000D01*
X126150000Y-136750000D02*
X126150000Y-137200000D01*
X126150000Y-137200000D02*
X132450000Y-137200000D01*
X132450000Y-137200000D02*
X132450000Y-136800000D01*
X126150000Y-135450000D02*
X126150000Y-132750000D01*
X132450000Y-132750000D02*
X132450000Y-135450000D01*
X126150000Y-131000000D02*
X132450000Y-131000000D01*
X132450000Y-131000000D02*
X132450000Y-131450000D01*
X126150000Y-131450000D02*
X126150000Y-131000000D01*
X140150000Y-136750000D02*
X140150000Y-137200000D01*
X140150000Y-137200000D02*
X146450000Y-137200000D01*
X146450000Y-137200000D02*
X146450000Y-136800000D01*
X140150000Y-135450000D02*
X140150000Y-132750000D01*
X146450000Y-132750000D02*
X146450000Y-135450000D01*
X140150000Y-131000000D02*
X146450000Y-131000000D01*
X146450000Y-131000000D02*
X146450000Y-131450000D01*
X140150000Y-131450000D02*
X140150000Y-131000000D01*
X154150000Y-136750000D02*
X154150000Y-137200000D01*
X154150000Y-137200000D02*
X160450000Y-137200000D01*
X160450000Y-137200000D02*
X160450000Y-136800000D01*
X154150000Y-135450000D02*
X154150000Y-132750000D01*
X160450000Y-132750000D02*
X160450000Y-135450000D01*
X154150000Y-131000000D02*
X160450000Y-131000000D01*
X160450000Y-131000000D02*
X160450000Y-131450000D01*
X154150000Y-131450000D02*
X154150000Y-131000000D01*
X168150000Y-136750000D02*
X168150000Y-137200000D01*
X168150000Y-137200000D02*
X174450000Y-137200000D01*
X174450000Y-137200000D02*
X174450000Y-136800000D01*
X168150000Y-135450000D02*
X168150000Y-132750000D01*
X174450000Y-132750000D02*
X174450000Y-135450000D01*
X168150000Y-131000000D02*
X174450000Y-131000000D01*
X174450000Y-131000000D02*
X174450000Y-131450000D01*
X168150000Y-131450000D02*
X168150000Y-131000000D01*
D10*
X176120000Y-104620000D02*
X176120000Y-119860000D01*
X175570000Y-105160000D02*
X175570000Y-119300000D01*
X167020000Y-104620000D02*
X167020000Y-119860000D01*
X167570000Y-105160000D02*
X167570000Y-109990000D01*
X167570000Y-114490000D02*
X167570000Y-119300000D01*
X167570000Y-109990000D02*
X167020000Y-109990000D01*
X167570000Y-114490000D02*
X167020000Y-114490000D01*
X176120000Y-104620000D02*
X167020000Y-104620000D01*
X175570000Y-105160000D02*
X167570000Y-105160000D01*
X176120000Y-119860000D02*
X167020000Y-119860000D01*
X175570000Y-119300000D02*
X167570000Y-119300000D01*
X176120000Y-104620000D02*
X175570000Y-105160000D01*
X176120000Y-119860000D02*
X175570000Y-119300000D01*
X167020000Y-104620000D02*
X167570000Y-105160000D01*
X167020000Y-119860000D02*
X167570000Y-119300000D01*
D14*
X176370000Y-104370000D02*
X176370000Y-120110000D01*
X176370000Y-120110000D02*
X166770000Y-120110000D01*
X166770000Y-120110000D02*
X166770000Y-104370000D01*
X166770000Y-104370000D02*
X176370000Y-104370000D01*
X179899000Y-127250500D02*
X182559000Y-127250500D01*
X179899000Y-119570500D02*
X179899000Y-127250500D01*
X182559000Y-119570500D02*
X182559000Y-127250500D01*
X179899000Y-119570500D02*
X182559000Y-119570500D01*
X179899000Y-118300500D02*
X179899000Y-116970500D01*
X179899000Y-116970500D02*
X181229000Y-116970500D01*
D15*
G36*
X148364222Y-100485222D02*
X123669778Y-100485222D01*
X123669778Y-94840778D01*
X124375333Y-94840778D01*
X124375333Y-99779666D01*
X129314222Y-99779666D01*
X129314222Y-96251889D01*
X130019778Y-96251889D01*
X130019778Y-98368555D01*
X130725333Y-98368555D01*
X130725333Y-99074111D01*
X131430889Y-99074111D01*
X131430889Y-99779666D01*
X135664222Y-99779666D01*
X135664222Y-99074111D01*
X137075333Y-99074111D01*
X137075333Y-99779666D01*
X138486444Y-99779666D01*
X138486444Y-99074111D01*
X137780889Y-99074111D01*
X137780889Y-98368555D01*
X135664222Y-98368555D01*
X135664222Y-97663000D01*
X137075333Y-97663000D01*
X137075333Y-96957444D01*
X134958666Y-96957444D01*
X134958666Y-96251889D01*
X137780889Y-96251889D01*
X137780889Y-98368555D01*
X138486444Y-98368555D01*
X139192000Y-98368555D01*
X139192000Y-99074111D01*
X139897555Y-99074111D01*
X141308666Y-99074111D01*
X141308666Y-99779666D01*
X142014222Y-99779666D01*
X142014222Y-99074111D01*
X141308666Y-99074111D01*
X139897555Y-99074111D01*
X139897555Y-98368555D01*
X139192000Y-98368555D01*
X138486444Y-98368555D01*
X138486444Y-97663000D01*
X139897555Y-97663000D01*
X139897555Y-98368555D01*
X141308666Y-98368555D01*
X141308666Y-97663000D01*
X142014222Y-97663000D01*
X142014222Y-99074111D01*
X142719778Y-99074111D01*
X142719778Y-98368555D01*
X143425333Y-98368555D01*
X143425333Y-99074111D01*
X144130889Y-99074111D01*
X144130889Y-98368555D01*
X144836444Y-98368555D01*
X144836444Y-99074111D01*
X145542000Y-99074111D01*
X145542000Y-99779666D01*
X146953111Y-99779666D01*
X146953111Y-99074111D01*
X145542000Y-99074111D01*
X145542000Y-98368555D01*
X144836444Y-98368555D01*
X144130889Y-98368555D01*
X143425333Y-98368555D01*
X143425333Y-97663000D01*
X142014222Y-97663000D01*
X141308666Y-97663000D01*
X139897555Y-97663000D01*
X139897555Y-96957444D01*
X140603111Y-96957444D01*
X140603111Y-96251889D01*
X137780889Y-96251889D01*
X134958666Y-96251889D01*
X134253111Y-96251889D01*
X134253111Y-95546333D01*
X135664222Y-95546333D01*
X135664222Y-94840778D01*
X134958666Y-94840778D01*
X134958666Y-94135222D01*
X134253111Y-94135222D01*
X134253111Y-94840778D01*
X133547555Y-94840778D01*
X133547555Y-93429666D01*
X134958666Y-93429666D01*
X134958666Y-94135222D01*
X137075333Y-94135222D01*
X137075333Y-95546333D01*
X137780889Y-95546333D01*
X137780889Y-94840778D01*
X138486444Y-94840778D01*
X138486444Y-95546333D01*
X139192000Y-95546333D01*
X139192000Y-94840778D01*
X139897555Y-94840778D01*
X139897555Y-95546333D01*
X140603111Y-95546333D01*
X140603111Y-96251889D01*
X141308666Y-96251889D01*
X141308666Y-96957444D01*
X144130889Y-96957444D01*
X144130889Y-97663000D01*
X145542000Y-97663000D01*
X145542000Y-96957444D01*
X144836444Y-96957444D01*
X144836444Y-96251889D01*
X146247555Y-96251889D01*
X146247555Y-97663000D01*
X146953111Y-97663000D01*
X146953111Y-96251889D01*
X146247555Y-96251889D01*
X146247555Y-95546333D01*
X146953111Y-95546333D01*
X146953111Y-94840778D01*
X145542000Y-94840778D01*
X145542000Y-94135222D01*
X146953111Y-94135222D01*
X146953111Y-94840778D01*
X147658666Y-94840778D01*
X147658666Y-94135222D01*
X146953111Y-94135222D01*
X145542000Y-94135222D01*
X144836444Y-94135222D01*
X144836444Y-93429666D01*
X146953111Y-93429666D01*
X146953111Y-92018555D01*
X147658666Y-92018555D01*
X147658666Y-89196333D01*
X145542000Y-89196333D01*
X145542000Y-89901889D01*
X144836444Y-89901889D01*
X144836444Y-90607444D01*
X144130889Y-90607444D01*
X144130889Y-91313000D01*
X145542000Y-91313000D01*
X145542000Y-90607444D01*
X146247555Y-90607444D01*
X146247555Y-92018555D01*
X145542000Y-92018555D01*
X145542000Y-92724111D01*
X144836444Y-92724111D01*
X144836444Y-92018555D01*
X144130889Y-92018555D01*
X144130889Y-93429666D01*
X142014222Y-93429666D01*
X142014222Y-92724111D01*
X141308666Y-92724111D01*
X141308666Y-94840778D01*
X139897555Y-94840778D01*
X139192000Y-94840778D01*
X138486444Y-94840778D01*
X138486444Y-94135222D01*
X139897555Y-94135222D01*
X139897555Y-93429666D01*
X140603111Y-93429666D01*
X140603111Y-92724111D01*
X140600408Y-92400138D01*
X140589488Y-92192443D01*
X140566132Y-92076248D01*
X140526122Y-92026777D01*
X140482998Y-92018555D01*
X140347495Y-92071022D01*
X140179823Y-92200503D01*
X140022377Y-92365121D01*
X139917554Y-92522997D01*
X139897555Y-92596840D01*
X139889782Y-92636131D01*
X139855679Y-92666408D01*
X139779075Y-92688836D01*
X139643797Y-92704584D01*
X139433671Y-92714818D01*
X139132525Y-92720706D01*
X138724186Y-92723413D01*
X138192482Y-92724107D01*
X138133666Y-92724111D01*
X136369778Y-92724111D01*
X136369778Y-93429666D01*
X134958666Y-93429666D01*
X133547555Y-93429666D01*
X132842000Y-93429666D01*
X132842000Y-94840778D01*
X132136444Y-94840778D01*
X132136444Y-95546333D01*
X130725333Y-95546333D01*
X130725333Y-96251889D01*
X130019778Y-96251889D01*
X129314222Y-96251889D01*
X129314222Y-94840778D01*
X124375333Y-94840778D01*
X123669778Y-94840778D01*
X123669778Y-91313000D01*
X124375333Y-91313000D01*
X124375333Y-94135222D01*
X125080889Y-94135222D01*
X125080889Y-92724111D01*
X125786444Y-92724111D01*
X125786444Y-94135222D01*
X126492000Y-94135222D01*
X126492000Y-92724111D01*
X127197555Y-92724111D01*
X127197555Y-94135222D01*
X130019778Y-94135222D01*
X130019778Y-94840778D01*
X131430889Y-94840778D01*
X131430889Y-94135222D01*
X130725333Y-94135222D01*
X130725333Y-92018555D01*
X131262048Y-92018555D01*
X131533007Y-92015447D01*
X131688712Y-92001769D01*
X131754961Y-91970993D01*
X131757555Y-91916589D01*
X131749935Y-91895083D01*
X131703524Y-91738040D01*
X131662599Y-91542305D01*
X131624092Y-91313000D01*
X130019778Y-91313000D01*
X130019778Y-90932014D01*
X132148757Y-90932014D01*
X132170123Y-91372420D01*
X132294382Y-91723214D01*
X132519424Y-91979152D01*
X132589408Y-92026621D01*
X132646931Y-92057576D01*
X132717365Y-92083314D01*
X132813418Y-92104313D01*
X132947796Y-92121056D01*
X133133208Y-92134022D01*
X133382360Y-92143691D01*
X133707960Y-92150543D01*
X134122715Y-92155060D01*
X134639333Y-92157721D01*
X135270521Y-92159006D01*
X136028987Y-92159395D01*
X136102739Y-92159403D01*
X139398756Y-92159666D01*
X139643848Y-91944473D01*
X139891422Y-91641097D01*
X140015226Y-91272629D01*
X140022952Y-90892056D01*
X139964908Y-90649443D01*
X139827821Y-90317690D01*
X139609867Y-89893672D01*
X139309222Y-89374262D01*
X138924064Y-88756336D01*
X138452569Y-88036766D01*
X137892914Y-87212428D01*
X137786809Y-87058661D01*
X137357555Y-86437933D01*
X137357555Y-85246762D01*
X137358073Y-84811768D01*
X137361387Y-84497679D01*
X137370142Y-84284289D01*
X137386978Y-84151393D01*
X137414541Y-84078783D01*
X137455472Y-84046254D01*
X137512414Y-84033601D01*
X137516305Y-84033046D01*
X137615538Y-83998312D01*
X137668267Y-83905148D01*
X137693834Y-83715175D01*
X137696560Y-83675361D01*
X137718065Y-83340222D01*
X134315935Y-83340222D01*
X134337439Y-83675361D01*
X134358257Y-83879802D01*
X134402224Y-83982830D01*
X134493275Y-84024139D01*
X134552972Y-84032825D01*
X134747000Y-84055150D01*
X134747000Y-86524183D01*
X134069218Y-87489841D01*
X133774989Y-87920179D01*
X133447344Y-88417481D01*
X133122395Y-88925916D01*
X132836252Y-89389652D01*
X132783892Y-89477107D01*
X132557324Y-89861635D01*
X132394015Y-90151344D01*
X132282972Y-90371413D01*
X132213205Y-90547021D01*
X132173723Y-90703346D01*
X132153532Y-90865567D01*
X132148757Y-90932014D01*
X130019778Y-90932014D01*
X130019778Y-90607444D01*
X131430889Y-90607444D01*
X131430889Y-89196333D01*
X128608666Y-89196333D01*
X128608666Y-89901889D01*
X129314222Y-89901889D01*
X129314222Y-90607444D01*
X128608666Y-90607444D01*
X128608666Y-91313000D01*
X127903111Y-91313000D01*
X127903111Y-92018555D01*
X128608666Y-92018555D01*
X128608666Y-92724111D01*
X127197555Y-92724111D01*
X126492000Y-92724111D01*
X125786444Y-92724111D01*
X125080889Y-92724111D01*
X125080889Y-91313000D01*
X124375333Y-91313000D01*
X123669778Y-91313000D01*
X123669778Y-88490778D01*
X124375333Y-88490778D01*
X124375333Y-89196333D01*
X125080889Y-89196333D01*
X125080889Y-91313000D01*
X125786444Y-91313000D01*
X125786444Y-90607444D01*
X126492000Y-90607444D01*
X126492000Y-91313000D01*
X127197555Y-91313000D01*
X127197555Y-90607444D01*
X126492000Y-90607444D01*
X125786444Y-90607444D01*
X125786444Y-89901889D01*
X126492000Y-89901889D01*
X126492000Y-89196333D01*
X127197555Y-89196333D01*
X127197555Y-90607444D01*
X127903111Y-90607444D01*
X127903111Y-87785222D01*
X128608666Y-87785222D01*
X128608666Y-88490778D01*
X130019778Y-88490778D01*
X130019778Y-87079666D01*
X130725333Y-87079666D01*
X130725333Y-88490778D01*
X131430889Y-88490778D01*
X131430889Y-89196333D01*
X131778493Y-89196333D01*
X131998798Y-89207705D01*
X132112180Y-89248963D01*
X132149367Y-89317165D01*
X132192804Y-89332732D01*
X132290781Y-89222013D01*
X132436763Y-88994609D01*
X132565083Y-88775365D01*
X132658997Y-88607605D01*
X132700325Y-88523922D01*
X132700889Y-88520999D01*
X132638221Y-88502064D01*
X132481693Y-88491542D01*
X132418666Y-88490778D01*
X132136444Y-88490778D01*
X132136444Y-87785222D01*
X133181258Y-87785222D01*
X133429909Y-87450083D01*
X133678561Y-87114944D01*
X133260280Y-87093939D01*
X132842000Y-87072933D01*
X132842000Y-86374111D01*
X132136444Y-86374111D01*
X132136444Y-84963000D01*
X130725333Y-84963000D01*
X130725333Y-86374111D01*
X130019778Y-86374111D01*
X130019778Y-84963000D01*
X128608666Y-84963000D01*
X128608666Y-85668555D01*
X129314222Y-85668555D01*
X129314222Y-86374111D01*
X127197555Y-86374111D01*
X127197555Y-87785222D01*
X125786444Y-87785222D01*
X125786444Y-88490778D01*
X124375333Y-88490778D01*
X123669778Y-88490778D01*
X123669778Y-87079666D01*
X124375333Y-87079666D01*
X124375333Y-87785222D01*
X125786444Y-87785222D01*
X125786444Y-87079666D01*
X124375333Y-87079666D01*
X123669778Y-87079666D01*
X123669778Y-84963000D01*
X124375333Y-84963000D01*
X124375333Y-85668555D01*
X125786444Y-85668555D01*
X125786444Y-87079666D01*
X126492000Y-87079666D01*
X126492000Y-85668555D01*
X125786444Y-85668555D01*
X125786444Y-84963000D01*
X124375333Y-84963000D01*
X123669778Y-84963000D01*
X123669778Y-82846333D01*
X124375333Y-82846333D01*
X124375333Y-83551889D01*
X125080889Y-83551889D01*
X125080889Y-84257444D01*
X125786444Y-84257444D01*
X125786444Y-83551889D01*
X125080889Y-83551889D01*
X125080889Y-82846333D01*
X124375333Y-82846333D01*
X123669778Y-82846333D01*
X123669778Y-82140778D01*
X125786444Y-82140778D01*
X125786444Y-82846333D01*
X126492000Y-82846333D01*
X126492000Y-83551889D01*
X127197555Y-83551889D01*
X127197555Y-84257444D01*
X125786444Y-84257444D01*
X125786444Y-84963000D01*
X127197555Y-84963000D01*
X127197555Y-85668555D01*
X127903111Y-85668555D01*
X127903111Y-83551889D01*
X128608666Y-83551889D01*
X128608666Y-84257444D01*
X130019778Y-84257444D01*
X130019778Y-83551889D01*
X128608666Y-83551889D01*
X127903111Y-83551889D01*
X127903111Y-82140778D01*
X128608666Y-82140778D01*
X128608666Y-82846333D01*
X129314222Y-82846333D01*
X129314222Y-82140778D01*
X128608666Y-82140778D01*
X127903111Y-82140778D01*
X125786444Y-82140778D01*
X123669778Y-82140778D01*
X123669778Y-76496333D01*
X124375333Y-76496333D01*
X124375333Y-81435222D01*
X129314222Y-81435222D01*
X129314222Y-80024111D01*
X130019778Y-80024111D01*
X130019778Y-83551889D01*
X130725333Y-83551889D01*
X131430889Y-83551889D01*
X131430889Y-84257444D01*
X132136444Y-84257444D01*
X132136444Y-83551889D01*
X131430889Y-83551889D01*
X130725333Y-83551889D01*
X130725333Y-80729666D01*
X131430889Y-80729666D01*
X131430889Y-82140778D01*
X132136444Y-82140778D01*
X132136444Y-83551889D01*
X132842000Y-83551889D01*
X132842000Y-84963000D01*
X133547555Y-84963000D01*
X133547555Y-82140778D01*
X132136444Y-82140778D01*
X132136444Y-80729666D01*
X132842000Y-80729666D01*
X132842000Y-81435222D01*
X133547555Y-81435222D01*
X133547555Y-80729666D01*
X134253111Y-80729666D01*
X134253111Y-81435222D01*
X134958666Y-81435222D01*
X134958666Y-82140778D01*
X135664222Y-82140778D01*
X135664222Y-82846333D01*
X137075333Y-82846333D01*
X137075333Y-81435222D01*
X137780889Y-81435222D01*
X137780889Y-82140778D01*
X140603111Y-82140778D01*
X140603111Y-83551889D01*
X141308666Y-83551889D01*
X141308666Y-84257444D01*
X139897555Y-84257444D01*
X139897555Y-82846333D01*
X138486444Y-82846333D01*
X138486444Y-83551889D01*
X139192000Y-83551889D01*
X139192000Y-84257444D01*
X138486444Y-84257444D01*
X138486444Y-85668555D01*
X137851444Y-85668555D01*
X137851444Y-85941338D01*
X137863167Y-86063705D01*
X137906029Y-86200216D01*
X137991570Y-86372242D01*
X138131328Y-86601153D01*
X138336845Y-86908316D01*
X138504083Y-87149913D01*
X138757699Y-87508080D01*
X138943681Y-87756821D01*
X139070248Y-87905700D01*
X139145620Y-87964281D01*
X139178018Y-87942128D01*
X139179268Y-87935463D01*
X139198398Y-87866890D01*
X139248671Y-87823109D01*
X139356692Y-87798592D01*
X139549066Y-87787811D01*
X139852399Y-87785241D01*
X139902462Y-87785222D01*
X140603111Y-87785222D01*
X140603111Y-88490778D01*
X139409495Y-88490778D01*
X139628794Y-88843555D01*
X139848092Y-89196333D01*
X141308666Y-89196333D01*
X141308666Y-89901889D01*
X140955889Y-89901889D01*
X140746132Y-89908029D01*
X140641475Y-89937682D01*
X140606064Y-90007690D01*
X140603111Y-90067632D01*
X140597268Y-90217653D01*
X140581865Y-90458884D01*
X140560093Y-90742003D01*
X140557480Y-90773188D01*
X140511849Y-91313000D01*
X141308666Y-91313000D01*
X141308666Y-92018555D01*
X142014222Y-92018555D01*
X142014222Y-91313000D01*
X143425333Y-91313000D01*
X143425333Y-90607444D01*
X144130889Y-90607444D01*
X144130889Y-89901889D01*
X143425333Y-89901889D01*
X143425333Y-88490778D01*
X142719778Y-88490778D01*
X142719778Y-89196333D01*
X142014222Y-89196333D01*
X142014222Y-87785222D01*
X141308666Y-87785222D01*
X141308666Y-87079666D01*
X142014222Y-87079666D01*
X142719778Y-87079666D01*
X142719778Y-87785222D01*
X143425333Y-87785222D01*
X143425333Y-88490778D01*
X146247555Y-88490778D01*
X146247555Y-87785222D01*
X146953111Y-87785222D01*
X146953111Y-88490778D01*
X147658666Y-88490778D01*
X147658666Y-87785222D01*
X146953111Y-87785222D01*
X146953111Y-86374111D01*
X146247555Y-86374111D01*
X146247555Y-85668555D01*
X146953111Y-85668555D01*
X146953111Y-86374111D01*
X147658666Y-86374111D01*
X147658666Y-85668555D01*
X146953111Y-85668555D01*
X146247555Y-85668555D01*
X145542000Y-85668555D01*
X145542000Y-86374111D01*
X144836444Y-86374111D01*
X144836444Y-87079666D01*
X145542000Y-87079666D01*
X145542000Y-87785222D01*
X144130889Y-87785222D01*
X144130889Y-87079666D01*
X142719778Y-87079666D01*
X142014222Y-87079666D01*
X142014222Y-86374111D01*
X141308666Y-86374111D01*
X141308666Y-85668555D01*
X142719778Y-85668555D01*
X142719778Y-86374111D01*
X144130889Y-86374111D01*
X144130889Y-85668555D01*
X142719778Y-85668555D01*
X142719778Y-84963000D01*
X143425333Y-84963000D01*
X143425333Y-84257444D01*
X144130889Y-84257444D01*
X144836444Y-84257444D01*
X144836444Y-84963000D01*
X147658666Y-84963000D01*
X147658666Y-84257444D01*
X146953111Y-84257444D01*
X146953111Y-83551889D01*
X147658666Y-83551889D01*
X147658666Y-82140778D01*
X145542000Y-82140778D01*
X145542000Y-84257444D01*
X144836444Y-84257444D01*
X144130889Y-84257444D01*
X144130889Y-83551889D01*
X143425333Y-83551889D01*
X143425333Y-82846333D01*
X144130889Y-82846333D01*
X144130889Y-82140778D01*
X141308666Y-82140778D01*
X141308666Y-81435222D01*
X142014222Y-81435222D01*
X142014222Y-80024111D01*
X140603111Y-80024111D01*
X140603111Y-79318555D01*
X142014222Y-79318555D01*
X142014222Y-78613000D01*
X141308666Y-78613000D01*
X141308666Y-77907444D01*
X139192000Y-77907444D01*
X139192000Y-78613000D01*
X139897555Y-78613000D01*
X139897555Y-80024111D01*
X139192000Y-80024111D01*
X139192000Y-80729666D01*
X138486444Y-80729666D01*
X138486444Y-81435222D01*
X137780889Y-81435222D01*
X137780889Y-80729666D01*
X137075333Y-80729666D01*
X137075333Y-80024111D01*
X137780889Y-80024111D01*
X137780889Y-79318555D01*
X137075333Y-79318555D01*
X137075333Y-78613000D01*
X137780889Y-78613000D01*
X137780889Y-77907444D01*
X138486444Y-77907444D01*
X138486444Y-77201889D01*
X137780889Y-77201889D01*
X137780889Y-76496333D01*
X138486444Y-76496333D01*
X138486444Y-77201889D01*
X139897555Y-77201889D01*
X139897555Y-76496333D01*
X140603111Y-76496333D01*
X140603111Y-77201889D01*
X142014222Y-77201889D01*
X142014222Y-76496333D01*
X142719778Y-76496333D01*
X142719778Y-81435222D01*
X147658666Y-81435222D01*
X147658666Y-76496333D01*
X142719778Y-76496333D01*
X142014222Y-76496333D01*
X140603111Y-76496333D01*
X139897555Y-76496333D01*
X138486444Y-76496333D01*
X137780889Y-76496333D01*
X136369778Y-76496333D01*
X136369778Y-77907444D01*
X135664222Y-77907444D01*
X135664222Y-78613000D01*
X134253111Y-78613000D01*
X134253111Y-77907444D01*
X134958666Y-77907444D01*
X134958666Y-77201889D01*
X134253111Y-77201889D01*
X134253111Y-76496333D01*
X133547555Y-76496333D01*
X133547555Y-77201889D01*
X132136444Y-77201889D01*
X132136444Y-76496333D01*
X131430889Y-76496333D01*
X131430889Y-77907444D01*
X132136444Y-77907444D01*
X132136444Y-79318555D01*
X131430889Y-79318555D01*
X131430889Y-80024111D01*
X130019778Y-80024111D01*
X129314222Y-80024111D01*
X129314222Y-76496333D01*
X130019778Y-76496333D01*
X130019778Y-78613000D01*
X131430889Y-78613000D01*
X131430889Y-77907444D01*
X130725333Y-77907444D01*
X130725333Y-76496333D01*
X130019778Y-76496333D01*
X129314222Y-76496333D01*
X124375333Y-76496333D01*
X123669778Y-76496333D01*
X123669778Y-75790778D01*
X148364222Y-75790778D01*
X148364222Y-100485222D01*
X148364222Y-100485222D01*
G37*
X148364222Y-100485222D02*
X123669778Y-100485222D01*
X123669778Y-94840778D01*
X124375333Y-94840778D01*
X124375333Y-99779666D01*
X129314222Y-99779666D01*
X129314222Y-96251889D01*
X130019778Y-96251889D01*
X130019778Y-98368555D01*
X130725333Y-98368555D01*
X130725333Y-99074111D01*
X131430889Y-99074111D01*
X131430889Y-99779666D01*
X135664222Y-99779666D01*
X135664222Y-99074111D01*
X137075333Y-99074111D01*
X137075333Y-99779666D01*
X138486444Y-99779666D01*
X138486444Y-99074111D01*
X137780889Y-99074111D01*
X137780889Y-98368555D01*
X135664222Y-98368555D01*
X135664222Y-97663000D01*
X137075333Y-97663000D01*
X137075333Y-96957444D01*
X134958666Y-96957444D01*
X134958666Y-96251889D01*
X137780889Y-96251889D01*
X137780889Y-98368555D01*
X138486444Y-98368555D01*
X139192000Y-98368555D01*
X139192000Y-99074111D01*
X139897555Y-99074111D01*
X141308666Y-99074111D01*
X141308666Y-99779666D01*
X142014222Y-99779666D01*
X142014222Y-99074111D01*
X141308666Y-99074111D01*
X139897555Y-99074111D01*
X139897555Y-98368555D01*
X139192000Y-98368555D01*
X138486444Y-98368555D01*
X138486444Y-97663000D01*
X139897555Y-97663000D01*
X139897555Y-98368555D01*
X141308666Y-98368555D01*
X141308666Y-97663000D01*
X142014222Y-97663000D01*
X142014222Y-99074111D01*
X142719778Y-99074111D01*
X142719778Y-98368555D01*
X143425333Y-98368555D01*
X143425333Y-99074111D01*
X144130889Y-99074111D01*
X144130889Y-98368555D01*
X144836444Y-98368555D01*
X144836444Y-99074111D01*
X145542000Y-99074111D01*
X145542000Y-99779666D01*
X146953111Y-99779666D01*
X146953111Y-99074111D01*
X145542000Y-99074111D01*
X145542000Y-98368555D01*
X144836444Y-98368555D01*
X144130889Y-98368555D01*
X143425333Y-98368555D01*
X143425333Y-97663000D01*
X142014222Y-97663000D01*
X141308666Y-97663000D01*
X139897555Y-97663000D01*
X139897555Y-96957444D01*
X140603111Y-96957444D01*
X140603111Y-96251889D01*
X137780889Y-96251889D01*
X134958666Y-96251889D01*
X134253111Y-96251889D01*
X134253111Y-95546333D01*
X135664222Y-95546333D01*
X135664222Y-94840778D01*
X134958666Y-94840778D01*
X134958666Y-94135222D01*
X134253111Y-94135222D01*
X134253111Y-94840778D01*
X133547555Y-94840778D01*
X133547555Y-93429666D01*
X134958666Y-93429666D01*
X134958666Y-94135222D01*
X137075333Y-94135222D01*
X137075333Y-95546333D01*
X137780889Y-95546333D01*
X137780889Y-94840778D01*
X138486444Y-94840778D01*
X138486444Y-95546333D01*
X139192000Y-95546333D01*
X139192000Y-94840778D01*
X139897555Y-94840778D01*
X139897555Y-95546333D01*
X140603111Y-95546333D01*
X140603111Y-96251889D01*
X141308666Y-96251889D01*
X141308666Y-96957444D01*
X144130889Y-96957444D01*
X144130889Y-97663000D01*
X145542000Y-97663000D01*
X145542000Y-96957444D01*
X144836444Y-96957444D01*
X144836444Y-96251889D01*
X146247555Y-96251889D01*
X146247555Y-97663000D01*
X146953111Y-97663000D01*
X146953111Y-96251889D01*
X146247555Y-96251889D01*
X146247555Y-95546333D01*
X146953111Y-95546333D01*
X146953111Y-94840778D01*
X145542000Y-94840778D01*
X145542000Y-94135222D01*
X146953111Y-94135222D01*
X146953111Y-94840778D01*
X147658666Y-94840778D01*
X147658666Y-94135222D01*
X146953111Y-94135222D01*
X145542000Y-94135222D01*
X144836444Y-94135222D01*
X144836444Y-93429666D01*
X146953111Y-93429666D01*
X146953111Y-92018555D01*
X147658666Y-92018555D01*
X147658666Y-89196333D01*
X145542000Y-89196333D01*
X145542000Y-89901889D01*
X144836444Y-89901889D01*
X144836444Y-90607444D01*
X144130889Y-90607444D01*
X144130889Y-91313000D01*
X145542000Y-91313000D01*
X145542000Y-90607444D01*
X146247555Y-90607444D01*
X146247555Y-92018555D01*
X145542000Y-92018555D01*
X145542000Y-92724111D01*
X144836444Y-92724111D01*
X144836444Y-92018555D01*
X144130889Y-92018555D01*
X144130889Y-93429666D01*
X142014222Y-93429666D01*
X142014222Y-92724111D01*
X141308666Y-92724111D01*
X141308666Y-94840778D01*
X139897555Y-94840778D01*
X139192000Y-94840778D01*
X138486444Y-94840778D01*
X138486444Y-94135222D01*
X139897555Y-94135222D01*
X139897555Y-93429666D01*
X140603111Y-93429666D01*
X140603111Y-92724111D01*
X140600408Y-92400138D01*
X140589488Y-92192443D01*
X140566132Y-92076248D01*
X140526122Y-92026777D01*
X140482998Y-92018555D01*
X140347495Y-92071022D01*
X140179823Y-92200503D01*
X140022377Y-92365121D01*
X139917554Y-92522997D01*
X139897555Y-92596840D01*
X139889782Y-92636131D01*
X139855679Y-92666408D01*
X139779075Y-92688836D01*
X139643797Y-92704584D01*
X139433671Y-92714818D01*
X139132525Y-92720706D01*
X138724186Y-92723413D01*
X138192482Y-92724107D01*
X138133666Y-92724111D01*
X136369778Y-92724111D01*
X136369778Y-93429666D01*
X134958666Y-93429666D01*
X133547555Y-93429666D01*
X132842000Y-93429666D01*
X132842000Y-94840778D01*
X132136444Y-94840778D01*
X132136444Y-95546333D01*
X130725333Y-95546333D01*
X130725333Y-96251889D01*
X130019778Y-96251889D01*
X129314222Y-96251889D01*
X129314222Y-94840778D01*
X124375333Y-94840778D01*
X123669778Y-94840778D01*
X123669778Y-91313000D01*
X124375333Y-91313000D01*
X124375333Y-94135222D01*
X125080889Y-94135222D01*
X125080889Y-92724111D01*
X125786444Y-92724111D01*
X125786444Y-94135222D01*
X126492000Y-94135222D01*
X126492000Y-92724111D01*
X127197555Y-92724111D01*
X127197555Y-94135222D01*
X130019778Y-94135222D01*
X130019778Y-94840778D01*
X131430889Y-94840778D01*
X131430889Y-94135222D01*
X130725333Y-94135222D01*
X130725333Y-92018555D01*
X131262048Y-92018555D01*
X131533007Y-92015447D01*
X131688712Y-92001769D01*
X131754961Y-91970993D01*
X131757555Y-91916589D01*
X131749935Y-91895083D01*
X131703524Y-91738040D01*
X131662599Y-91542305D01*
X131624092Y-91313000D01*
X130019778Y-91313000D01*
X130019778Y-90932014D01*
X132148757Y-90932014D01*
X132170123Y-91372420D01*
X132294382Y-91723214D01*
X132519424Y-91979152D01*
X132589408Y-92026621D01*
X132646931Y-92057576D01*
X132717365Y-92083314D01*
X132813418Y-92104313D01*
X132947796Y-92121056D01*
X133133208Y-92134022D01*
X133382360Y-92143691D01*
X133707960Y-92150543D01*
X134122715Y-92155060D01*
X134639333Y-92157721D01*
X135270521Y-92159006D01*
X136028987Y-92159395D01*
X136102739Y-92159403D01*
X139398756Y-92159666D01*
X139643848Y-91944473D01*
X139891422Y-91641097D01*
X140015226Y-91272629D01*
X140022952Y-90892056D01*
X139964908Y-90649443D01*
X139827821Y-90317690D01*
X139609867Y-89893672D01*
X139309222Y-89374262D01*
X138924064Y-88756336D01*
X138452569Y-88036766D01*
X137892914Y-87212428D01*
X137786809Y-87058661D01*
X137357555Y-86437933D01*
X137357555Y-85246762D01*
X137358073Y-84811768D01*
X137361387Y-84497679D01*
X137370142Y-84284289D01*
X137386978Y-84151393D01*
X137414541Y-84078783D01*
X137455472Y-84046254D01*
X137512414Y-84033601D01*
X137516305Y-84033046D01*
X137615538Y-83998312D01*
X137668267Y-83905148D01*
X137693834Y-83715175D01*
X137696560Y-83675361D01*
X137718065Y-83340222D01*
X134315935Y-83340222D01*
X134337439Y-83675361D01*
X134358257Y-83879802D01*
X134402224Y-83982830D01*
X134493275Y-84024139D01*
X134552972Y-84032825D01*
X134747000Y-84055150D01*
X134747000Y-86524183D01*
X134069218Y-87489841D01*
X133774989Y-87920179D01*
X133447344Y-88417481D01*
X133122395Y-88925916D01*
X132836252Y-89389652D01*
X132783892Y-89477107D01*
X132557324Y-89861635D01*
X132394015Y-90151344D01*
X132282972Y-90371413D01*
X132213205Y-90547021D01*
X132173723Y-90703346D01*
X132153532Y-90865567D01*
X132148757Y-90932014D01*
X130019778Y-90932014D01*
X130019778Y-90607444D01*
X131430889Y-90607444D01*
X131430889Y-89196333D01*
X128608666Y-89196333D01*
X128608666Y-89901889D01*
X129314222Y-89901889D01*
X129314222Y-90607444D01*
X128608666Y-90607444D01*
X128608666Y-91313000D01*
X127903111Y-91313000D01*
X127903111Y-92018555D01*
X128608666Y-92018555D01*
X128608666Y-92724111D01*
X127197555Y-92724111D01*
X126492000Y-92724111D01*
X125786444Y-92724111D01*
X125080889Y-92724111D01*
X125080889Y-91313000D01*
X124375333Y-91313000D01*
X123669778Y-91313000D01*
X123669778Y-88490778D01*
X124375333Y-88490778D01*
X124375333Y-89196333D01*
X125080889Y-89196333D01*
X125080889Y-91313000D01*
X125786444Y-91313000D01*
X125786444Y-90607444D01*
X126492000Y-90607444D01*
X126492000Y-91313000D01*
X127197555Y-91313000D01*
X127197555Y-90607444D01*
X126492000Y-90607444D01*
X125786444Y-90607444D01*
X125786444Y-89901889D01*
X126492000Y-89901889D01*
X126492000Y-89196333D01*
X127197555Y-89196333D01*
X127197555Y-90607444D01*
X127903111Y-90607444D01*
X127903111Y-87785222D01*
X128608666Y-87785222D01*
X128608666Y-88490778D01*
X130019778Y-88490778D01*
X130019778Y-87079666D01*
X130725333Y-87079666D01*
X130725333Y-88490778D01*
X131430889Y-88490778D01*
X131430889Y-89196333D01*
X131778493Y-89196333D01*
X131998798Y-89207705D01*
X132112180Y-89248963D01*
X132149367Y-89317165D01*
X132192804Y-89332732D01*
X132290781Y-89222013D01*
X132436763Y-88994609D01*
X132565083Y-88775365D01*
X132658997Y-88607605D01*
X132700325Y-88523922D01*
X132700889Y-88520999D01*
X132638221Y-88502064D01*
X132481693Y-88491542D01*
X132418666Y-88490778D01*
X132136444Y-88490778D01*
X132136444Y-87785222D01*
X133181258Y-87785222D01*
X133429909Y-87450083D01*
X133678561Y-87114944D01*
X133260280Y-87093939D01*
X132842000Y-87072933D01*
X132842000Y-86374111D01*
X132136444Y-86374111D01*
X132136444Y-84963000D01*
X130725333Y-84963000D01*
X130725333Y-86374111D01*
X130019778Y-86374111D01*
X130019778Y-84963000D01*
X128608666Y-84963000D01*
X128608666Y-85668555D01*
X129314222Y-85668555D01*
X129314222Y-86374111D01*
X127197555Y-86374111D01*
X127197555Y-87785222D01*
X125786444Y-87785222D01*
X125786444Y-88490778D01*
X124375333Y-88490778D01*
X123669778Y-88490778D01*
X123669778Y-87079666D01*
X124375333Y-87079666D01*
X124375333Y-87785222D01*
X125786444Y-87785222D01*
X125786444Y-87079666D01*
X124375333Y-87079666D01*
X123669778Y-87079666D01*
X123669778Y-84963000D01*
X124375333Y-84963000D01*
X124375333Y-85668555D01*
X125786444Y-85668555D01*
X125786444Y-87079666D01*
X126492000Y-87079666D01*
X126492000Y-85668555D01*
X125786444Y-85668555D01*
X125786444Y-84963000D01*
X124375333Y-84963000D01*
X123669778Y-84963000D01*
X123669778Y-82846333D01*
X124375333Y-82846333D01*
X124375333Y-83551889D01*
X125080889Y-83551889D01*
X125080889Y-84257444D01*
X125786444Y-84257444D01*
X125786444Y-83551889D01*
X125080889Y-83551889D01*
X125080889Y-82846333D01*
X124375333Y-82846333D01*
X123669778Y-82846333D01*
X123669778Y-82140778D01*
X125786444Y-82140778D01*
X125786444Y-82846333D01*
X126492000Y-82846333D01*
X126492000Y-83551889D01*
X127197555Y-83551889D01*
X127197555Y-84257444D01*
X125786444Y-84257444D01*
X125786444Y-84963000D01*
X127197555Y-84963000D01*
X127197555Y-85668555D01*
X127903111Y-85668555D01*
X127903111Y-83551889D01*
X128608666Y-83551889D01*
X128608666Y-84257444D01*
X130019778Y-84257444D01*
X130019778Y-83551889D01*
X128608666Y-83551889D01*
X127903111Y-83551889D01*
X127903111Y-82140778D01*
X128608666Y-82140778D01*
X128608666Y-82846333D01*
X129314222Y-82846333D01*
X129314222Y-82140778D01*
X128608666Y-82140778D01*
X127903111Y-82140778D01*
X125786444Y-82140778D01*
X123669778Y-82140778D01*
X123669778Y-76496333D01*
X124375333Y-76496333D01*
X124375333Y-81435222D01*
X129314222Y-81435222D01*
X129314222Y-80024111D01*
X130019778Y-80024111D01*
X130019778Y-83551889D01*
X130725333Y-83551889D01*
X131430889Y-83551889D01*
X131430889Y-84257444D01*
X132136444Y-84257444D01*
X132136444Y-83551889D01*
X131430889Y-83551889D01*
X130725333Y-83551889D01*
X130725333Y-80729666D01*
X131430889Y-80729666D01*
X131430889Y-82140778D01*
X132136444Y-82140778D01*
X132136444Y-83551889D01*
X132842000Y-83551889D01*
X132842000Y-84963000D01*
X133547555Y-84963000D01*
X133547555Y-82140778D01*
X132136444Y-82140778D01*
X132136444Y-80729666D01*
X132842000Y-80729666D01*
X132842000Y-81435222D01*
X133547555Y-81435222D01*
X133547555Y-80729666D01*
X134253111Y-80729666D01*
X134253111Y-81435222D01*
X134958666Y-81435222D01*
X134958666Y-82140778D01*
X135664222Y-82140778D01*
X135664222Y-82846333D01*
X137075333Y-82846333D01*
X137075333Y-81435222D01*
X137780889Y-81435222D01*
X137780889Y-82140778D01*
X140603111Y-82140778D01*
X140603111Y-83551889D01*
X141308666Y-83551889D01*
X141308666Y-84257444D01*
X139897555Y-84257444D01*
X139897555Y-82846333D01*
X138486444Y-82846333D01*
X138486444Y-83551889D01*
X139192000Y-83551889D01*
X139192000Y-84257444D01*
X138486444Y-84257444D01*
X138486444Y-85668555D01*
X137851444Y-85668555D01*
X137851444Y-85941338D01*
X137863167Y-86063705D01*
X137906029Y-86200216D01*
X137991570Y-86372242D01*
X138131328Y-86601153D01*
X138336845Y-86908316D01*
X138504083Y-87149913D01*
X138757699Y-87508080D01*
X138943681Y-87756821D01*
X139070248Y-87905700D01*
X139145620Y-87964281D01*
X139178018Y-87942128D01*
X139179268Y-87935463D01*
X139198398Y-87866890D01*
X139248671Y-87823109D01*
X139356692Y-87798592D01*
X139549066Y-87787811D01*
X139852399Y-87785241D01*
X139902462Y-87785222D01*
X140603111Y-87785222D01*
X140603111Y-88490778D01*
X139409495Y-88490778D01*
X139628794Y-88843555D01*
X139848092Y-89196333D01*
X141308666Y-89196333D01*
X141308666Y-89901889D01*
X140955889Y-89901889D01*
X140746132Y-89908029D01*
X140641475Y-89937682D01*
X140606064Y-90007690D01*
X140603111Y-90067632D01*
X140597268Y-90217653D01*
X140581865Y-90458884D01*
X140560093Y-90742003D01*
X140557480Y-90773188D01*
X140511849Y-91313000D01*
X141308666Y-91313000D01*
X141308666Y-92018555D01*
X142014222Y-92018555D01*
X142014222Y-91313000D01*
X143425333Y-91313000D01*
X143425333Y-90607444D01*
X144130889Y-90607444D01*
X144130889Y-89901889D01*
X143425333Y-89901889D01*
X143425333Y-88490778D01*
X142719778Y-88490778D01*
X142719778Y-89196333D01*
X142014222Y-89196333D01*
X142014222Y-87785222D01*
X141308666Y-87785222D01*
X141308666Y-87079666D01*
X142014222Y-87079666D01*
X142719778Y-87079666D01*
X142719778Y-87785222D01*
X143425333Y-87785222D01*
X143425333Y-88490778D01*
X146247555Y-88490778D01*
X146247555Y-87785222D01*
X146953111Y-87785222D01*
X146953111Y-88490778D01*
X147658666Y-88490778D01*
X147658666Y-87785222D01*
X146953111Y-87785222D01*
X146953111Y-86374111D01*
X146247555Y-86374111D01*
X146247555Y-85668555D01*
X146953111Y-85668555D01*
X146953111Y-86374111D01*
X147658666Y-86374111D01*
X147658666Y-85668555D01*
X146953111Y-85668555D01*
X146247555Y-85668555D01*
X145542000Y-85668555D01*
X145542000Y-86374111D01*
X144836444Y-86374111D01*
X144836444Y-87079666D01*
X145542000Y-87079666D01*
X145542000Y-87785222D01*
X144130889Y-87785222D01*
X144130889Y-87079666D01*
X142719778Y-87079666D01*
X142014222Y-87079666D01*
X142014222Y-86374111D01*
X141308666Y-86374111D01*
X141308666Y-85668555D01*
X142719778Y-85668555D01*
X142719778Y-86374111D01*
X144130889Y-86374111D01*
X144130889Y-85668555D01*
X142719778Y-85668555D01*
X142719778Y-84963000D01*
X143425333Y-84963000D01*
X143425333Y-84257444D01*
X144130889Y-84257444D01*
X144836444Y-84257444D01*
X144836444Y-84963000D01*
X147658666Y-84963000D01*
X147658666Y-84257444D01*
X146953111Y-84257444D01*
X146953111Y-83551889D01*
X147658666Y-83551889D01*
X147658666Y-82140778D01*
X145542000Y-82140778D01*
X145542000Y-84257444D01*
X144836444Y-84257444D01*
X144130889Y-84257444D01*
X144130889Y-83551889D01*
X143425333Y-83551889D01*
X143425333Y-82846333D01*
X144130889Y-82846333D01*
X144130889Y-82140778D01*
X141308666Y-82140778D01*
X141308666Y-81435222D01*
X142014222Y-81435222D01*
X142014222Y-80024111D01*
X140603111Y-80024111D01*
X140603111Y-79318555D01*
X142014222Y-79318555D01*
X142014222Y-78613000D01*
X141308666Y-78613000D01*
X141308666Y-77907444D01*
X139192000Y-77907444D01*
X139192000Y-78613000D01*
X139897555Y-78613000D01*
X139897555Y-80024111D01*
X139192000Y-80024111D01*
X139192000Y-80729666D01*
X138486444Y-80729666D01*
X138486444Y-81435222D01*
X137780889Y-81435222D01*
X137780889Y-80729666D01*
X137075333Y-80729666D01*
X137075333Y-80024111D01*
X137780889Y-80024111D01*
X137780889Y-79318555D01*
X137075333Y-79318555D01*
X137075333Y-78613000D01*
X137780889Y-78613000D01*
X137780889Y-77907444D01*
X138486444Y-77907444D01*
X138486444Y-77201889D01*
X137780889Y-77201889D01*
X137780889Y-76496333D01*
X138486444Y-76496333D01*
X138486444Y-77201889D01*
X139897555Y-77201889D01*
X139897555Y-76496333D01*
X140603111Y-76496333D01*
X140603111Y-77201889D01*
X142014222Y-77201889D01*
X142014222Y-76496333D01*
X142719778Y-76496333D01*
X142719778Y-81435222D01*
X147658666Y-81435222D01*
X147658666Y-76496333D01*
X142719778Y-76496333D01*
X142014222Y-76496333D01*
X140603111Y-76496333D01*
X139897555Y-76496333D01*
X138486444Y-76496333D01*
X137780889Y-76496333D01*
X136369778Y-76496333D01*
X136369778Y-77907444D01*
X135664222Y-77907444D01*
X135664222Y-78613000D01*
X134253111Y-78613000D01*
X134253111Y-77907444D01*
X134958666Y-77907444D01*
X134958666Y-77201889D01*
X134253111Y-77201889D01*
X134253111Y-76496333D01*
X133547555Y-76496333D01*
X133547555Y-77201889D01*
X132136444Y-77201889D01*
X132136444Y-76496333D01*
X131430889Y-76496333D01*
X131430889Y-77907444D01*
X132136444Y-77907444D01*
X132136444Y-79318555D01*
X131430889Y-79318555D01*
X131430889Y-80024111D01*
X130019778Y-80024111D01*
X129314222Y-80024111D01*
X129314222Y-76496333D01*
X130019778Y-76496333D01*
X130019778Y-78613000D01*
X131430889Y-78613000D01*
X131430889Y-77907444D01*
X130725333Y-77907444D01*
X130725333Y-76496333D01*
X130019778Y-76496333D01*
X129314222Y-76496333D01*
X124375333Y-76496333D01*
X123669778Y-76496333D01*
X123669778Y-75790778D01*
X148364222Y-75790778D01*
X148364222Y-100485222D01*
G36*
X128608666Y-99074111D02*
X125080889Y-99074111D01*
X125080889Y-96251889D01*
X125786444Y-96251889D01*
X125786444Y-98368555D01*
X127903111Y-98368555D01*
X127903111Y-96251889D01*
X125786444Y-96251889D01*
X125080889Y-96251889D01*
X125080889Y-95546333D01*
X128608666Y-95546333D01*
X128608666Y-99074111D01*
X128608666Y-99074111D01*
G37*
X128608666Y-99074111D02*
X125080889Y-99074111D01*
X125080889Y-96251889D01*
X125786444Y-96251889D01*
X125786444Y-98368555D01*
X127903111Y-98368555D01*
X127903111Y-96251889D01*
X125786444Y-96251889D01*
X125080889Y-96251889D01*
X125080889Y-95546333D01*
X128608666Y-95546333D01*
X128608666Y-99074111D01*
G36*
X134958666Y-96957444D02*
X134958666Y-97663000D01*
X133547555Y-97663000D01*
X133547555Y-99074111D01*
X132136444Y-99074111D01*
X132136444Y-98368555D01*
X130725333Y-98368555D01*
X130725333Y-96957444D01*
X132136444Y-96957444D01*
X132136444Y-97663000D01*
X132842000Y-97663000D01*
X132842000Y-96957444D01*
X132136444Y-96957444D01*
X132136444Y-95546333D01*
X133547555Y-95546333D01*
X133547555Y-96251889D01*
X132842000Y-96251889D01*
X132842000Y-96957444D01*
X134958666Y-96957444D01*
X134958666Y-96957444D01*
G37*
X134958666Y-96957444D02*
X134958666Y-97663000D01*
X133547555Y-97663000D01*
X133547555Y-99074111D01*
X132136444Y-99074111D01*
X132136444Y-98368555D01*
X130725333Y-98368555D01*
X130725333Y-96957444D01*
X132136444Y-96957444D01*
X132136444Y-97663000D01*
X132842000Y-97663000D01*
X132842000Y-96957444D01*
X132136444Y-96957444D01*
X132136444Y-95546333D01*
X133547555Y-95546333D01*
X133547555Y-96251889D01*
X132842000Y-96251889D01*
X132842000Y-96957444D01*
X134958666Y-96957444D01*
G36*
X144130889Y-96251889D02*
X142014222Y-96251889D01*
X142014222Y-94840778D01*
X142719778Y-94840778D01*
X142719778Y-95546333D01*
X143425333Y-95546333D01*
X143425333Y-94840778D01*
X142719778Y-94840778D01*
X142014222Y-94840778D01*
X142014222Y-94135222D01*
X144130889Y-94135222D01*
X144130889Y-96251889D01*
X144130889Y-96251889D01*
G37*
X144130889Y-96251889D02*
X142014222Y-96251889D01*
X142014222Y-94840778D01*
X142719778Y-94840778D01*
X142719778Y-95546333D01*
X143425333Y-95546333D01*
X143425333Y-94840778D01*
X142719778Y-94840778D01*
X142014222Y-94840778D01*
X142014222Y-94135222D01*
X144130889Y-94135222D01*
X144130889Y-96251889D01*
G36*
X145542000Y-95546333D02*
X144836444Y-95546333D01*
X144836444Y-94840778D01*
X145542000Y-94840778D01*
X145542000Y-95546333D01*
X145542000Y-95546333D01*
G37*
X145542000Y-95546333D02*
X144836444Y-95546333D01*
X144836444Y-94840778D01*
X145542000Y-94840778D01*
X145542000Y-95546333D01*
G36*
X138486444Y-94135222D02*
X137075333Y-94135222D01*
X137075333Y-93429666D01*
X138486444Y-93429666D01*
X138486444Y-94135222D01*
X138486444Y-94135222D01*
G37*
X138486444Y-94135222D02*
X137075333Y-94135222D01*
X137075333Y-93429666D01*
X138486444Y-93429666D01*
X138486444Y-94135222D01*
G36*
X142014222Y-91313000D02*
X141308666Y-91313000D01*
X141308666Y-90607444D01*
X142014222Y-90607444D01*
X142014222Y-91313000D01*
X142014222Y-91313000D01*
G37*
X142014222Y-91313000D02*
X141308666Y-91313000D01*
X141308666Y-90607444D01*
X142014222Y-90607444D01*
X142014222Y-91313000D01*
G36*
X142719778Y-90607444D02*
X142014222Y-90607444D01*
X142014222Y-89901889D01*
X142719778Y-89901889D01*
X142719778Y-90607444D01*
X142719778Y-90607444D01*
G37*
X142719778Y-90607444D02*
X142014222Y-90607444D01*
X142014222Y-89901889D01*
X142719778Y-89901889D01*
X142719778Y-90607444D01*
G36*
X146953111Y-90607444D02*
X146247555Y-90607444D01*
X146247555Y-89901889D01*
X146953111Y-89901889D01*
X146953111Y-90607444D01*
X146953111Y-90607444D01*
G37*
X146953111Y-90607444D02*
X146247555Y-90607444D01*
X146247555Y-89901889D01*
X146953111Y-89901889D01*
X146953111Y-90607444D01*
G36*
X139897555Y-87079666D02*
X138486444Y-87079666D01*
X138486444Y-86374111D01*
X139192000Y-86374111D01*
X139192000Y-85668555D01*
X139897555Y-85668555D01*
X139897555Y-87079666D01*
X139897555Y-87079666D01*
G37*
X139897555Y-87079666D02*
X138486444Y-87079666D01*
X138486444Y-86374111D01*
X139192000Y-86374111D01*
X139192000Y-85668555D01*
X139897555Y-85668555D01*
X139897555Y-87079666D01*
G36*
X141308666Y-85668555D02*
X139897555Y-85668555D01*
X139897555Y-84963000D01*
X141308666Y-84963000D01*
X141308666Y-85668555D01*
X141308666Y-85668555D01*
G37*
X141308666Y-85668555D02*
X139897555Y-85668555D01*
X139897555Y-84963000D01*
X141308666Y-84963000D01*
X141308666Y-85668555D01*
G36*
X143425333Y-84257444D02*
X142719778Y-84257444D01*
X142719778Y-84963000D01*
X141308666Y-84963000D01*
X141308666Y-84257444D01*
X142014222Y-84257444D01*
X142014222Y-83551889D01*
X143425333Y-83551889D01*
X143425333Y-84257444D01*
X143425333Y-84257444D01*
G37*
X143425333Y-84257444D02*
X142719778Y-84257444D01*
X142719778Y-84963000D01*
X141308666Y-84963000D01*
X141308666Y-84257444D01*
X142014222Y-84257444D01*
X142014222Y-83551889D01*
X143425333Y-83551889D01*
X143425333Y-84257444D01*
G36*
X142014222Y-83551889D02*
X141308666Y-83551889D01*
X141308666Y-82846333D01*
X142014222Y-82846333D01*
X142014222Y-83551889D01*
X142014222Y-83551889D01*
G37*
X142014222Y-83551889D02*
X141308666Y-83551889D01*
X141308666Y-82846333D01*
X142014222Y-82846333D01*
X142014222Y-83551889D01*
G36*
X141308666Y-87079666D02*
X140603111Y-87079666D01*
X140603111Y-86374111D01*
X141308666Y-86374111D01*
X141308666Y-87079666D01*
X141308666Y-87079666D01*
G37*
X141308666Y-87079666D02*
X140603111Y-87079666D01*
X140603111Y-86374111D01*
X141308666Y-86374111D01*
X141308666Y-87079666D01*
G36*
X136369778Y-82140778D02*
X135664222Y-82140778D01*
X135664222Y-81435222D01*
X136369778Y-81435222D01*
X136369778Y-82140778D01*
X136369778Y-82140778D01*
G37*
X136369778Y-82140778D02*
X135664222Y-82140778D01*
X135664222Y-81435222D01*
X136369778Y-81435222D01*
X136369778Y-82140778D01*
G36*
X137075333Y-81435222D02*
X136369778Y-81435222D01*
X136369778Y-80729666D01*
X137075333Y-80729666D01*
X137075333Y-81435222D01*
X137075333Y-81435222D01*
G37*
X137075333Y-81435222D02*
X136369778Y-81435222D01*
X136369778Y-80729666D01*
X137075333Y-80729666D01*
X137075333Y-81435222D01*
G36*
X136369778Y-79318555D02*
X135664222Y-79318555D01*
X135664222Y-78613000D01*
X136369778Y-78613000D01*
X136369778Y-79318555D01*
X136369778Y-79318555D01*
G37*
X136369778Y-79318555D02*
X135664222Y-79318555D01*
X135664222Y-78613000D01*
X136369778Y-78613000D01*
X136369778Y-79318555D01*
G36*
X136369778Y-80024111D02*
X136369778Y-80729666D01*
X135664222Y-80729666D01*
X135664222Y-81435222D01*
X134958666Y-81435222D01*
X134958666Y-80729666D01*
X134253111Y-80729666D01*
X134253111Y-80024111D01*
X134958666Y-80024111D01*
X134958666Y-80729666D01*
X135664222Y-80729666D01*
X135664222Y-80024111D01*
X134958666Y-80024111D01*
X134253111Y-80024111D01*
X133547555Y-80024111D01*
X133547555Y-80729666D01*
X132842000Y-80729666D01*
X132842000Y-80024111D01*
X132136444Y-80024111D01*
X132136444Y-79318555D01*
X135664222Y-79318555D01*
X135664222Y-80024111D01*
X136369778Y-80024111D01*
X136369778Y-80024111D01*
G37*
X136369778Y-80024111D02*
X136369778Y-80729666D01*
X135664222Y-80729666D01*
X135664222Y-81435222D01*
X134958666Y-81435222D01*
X134958666Y-80729666D01*
X134253111Y-80729666D01*
X134253111Y-80024111D01*
X134958666Y-80024111D01*
X134958666Y-80729666D01*
X135664222Y-80729666D01*
X135664222Y-80024111D01*
X134958666Y-80024111D01*
X134253111Y-80024111D01*
X133547555Y-80024111D01*
X133547555Y-80729666D01*
X132842000Y-80729666D01*
X132842000Y-80024111D01*
X132136444Y-80024111D01*
X132136444Y-79318555D01*
X135664222Y-79318555D01*
X135664222Y-80024111D01*
X136369778Y-80024111D01*
G36*
X141308666Y-81435222D02*
X140603111Y-81435222D01*
X140603111Y-80729666D01*
X141308666Y-80729666D01*
X141308666Y-81435222D01*
X141308666Y-81435222D01*
G37*
X141308666Y-81435222D02*
X140603111Y-81435222D01*
X140603111Y-80729666D01*
X141308666Y-80729666D01*
X141308666Y-81435222D01*
G36*
X139897555Y-81435222D02*
X139192000Y-81435222D01*
X139192000Y-80729666D01*
X139897555Y-80729666D01*
X139897555Y-81435222D01*
X139897555Y-81435222D01*
G37*
X139897555Y-81435222D02*
X139192000Y-81435222D01*
X139192000Y-80729666D01*
X139897555Y-80729666D01*
X139897555Y-81435222D01*
G36*
X140603111Y-80729666D02*
X139897555Y-80729666D01*
X139897555Y-80024111D01*
X140603111Y-80024111D01*
X140603111Y-80729666D01*
X140603111Y-80729666D01*
G37*
X140603111Y-80729666D02*
X139897555Y-80729666D01*
X139897555Y-80024111D01*
X140603111Y-80024111D01*
X140603111Y-80729666D01*
G36*
X133547555Y-78613000D02*
X132842000Y-78613000D01*
X132842000Y-77907444D01*
X133547555Y-77907444D01*
X133547555Y-78613000D01*
X133547555Y-78613000D01*
G37*
X133547555Y-78613000D02*
X132842000Y-78613000D01*
X132842000Y-77907444D01*
X133547555Y-77907444D01*
X133547555Y-78613000D01*
G36*
X134253111Y-77907444D02*
X133547555Y-77907444D01*
X133547555Y-77201889D01*
X134253111Y-77201889D01*
X134253111Y-77907444D01*
X134253111Y-77907444D01*
G37*
X134253111Y-77907444D02*
X133547555Y-77907444D01*
X133547555Y-77201889D01*
X134253111Y-77201889D01*
X134253111Y-77907444D01*
G36*
X130019778Y-93429666D02*
X128608666Y-93429666D01*
X128608666Y-92724111D01*
X130019778Y-92724111D01*
X130019778Y-93429666D01*
X130019778Y-93429666D01*
G37*
X130019778Y-93429666D02*
X128608666Y-93429666D01*
X128608666Y-92724111D01*
X130019778Y-92724111D01*
X130019778Y-93429666D01*
G36*
X130019778Y-92018555D02*
X128608666Y-92018555D01*
X128608666Y-91313000D01*
X130019778Y-91313000D01*
X130019778Y-92018555D01*
X130019778Y-92018555D01*
G37*
X130019778Y-92018555D02*
X128608666Y-92018555D01*
X128608666Y-91313000D01*
X130019778Y-91313000D01*
X130019778Y-92018555D01*
G36*
X129314222Y-87785222D02*
X128608666Y-87785222D01*
X128608666Y-87079666D01*
X129314222Y-87079666D01*
X129314222Y-87785222D01*
X129314222Y-87785222D01*
G37*
X129314222Y-87785222D02*
X128608666Y-87785222D01*
X128608666Y-87079666D01*
X129314222Y-87079666D01*
X129314222Y-87785222D01*
G36*
X130019778Y-87079666D02*
X129314222Y-87079666D01*
X129314222Y-86374111D01*
X130019778Y-86374111D01*
X130019778Y-87079666D01*
X130019778Y-87079666D01*
G37*
X130019778Y-87079666D02*
X129314222Y-87079666D01*
X129314222Y-86374111D01*
X130019778Y-86374111D01*
X130019778Y-87079666D01*
G36*
X132136444Y-87785222D02*
X131430889Y-87785222D01*
X131430889Y-87079666D01*
X132136444Y-87079666D01*
X132136444Y-87785222D01*
X132136444Y-87785222D01*
G37*
X132136444Y-87785222D02*
X131430889Y-87785222D01*
X131430889Y-87079666D01*
X132136444Y-87079666D01*
X132136444Y-87785222D01*
G36*
X134590046Y-87890648D02*
X134593385Y-87910432D01*
X134667149Y-88066673D01*
X134788210Y-88183653D01*
X134935862Y-88309187D01*
X135116438Y-88503038D01*
X135304674Y-88732397D01*
X135475303Y-88964455D01*
X135603060Y-89166404D01*
X135662677Y-89305436D01*
X135664222Y-89321170D01*
X135714722Y-89482374D01*
X135770055Y-89549111D01*
X135820841Y-89661395D01*
X135856100Y-89876072D01*
X135875320Y-90155224D01*
X135877985Y-90460936D01*
X135863581Y-90755288D01*
X135831592Y-91000364D01*
X135791626Y-91138519D01*
X135742696Y-91310789D01*
X135789032Y-91454169D01*
X135792224Y-91459339D01*
X135815412Y-91504051D01*
X135810537Y-91537697D01*
X135761053Y-91561850D01*
X135650416Y-91578080D01*
X135462081Y-91587960D01*
X135179504Y-91593062D01*
X134786141Y-91594958D01*
X134362024Y-91595222D01*
X133861192Y-91594532D01*
X133483068Y-91591408D01*
X133209256Y-91584269D01*
X133021356Y-91571534D01*
X132900970Y-91551622D01*
X132829698Y-91522951D01*
X132789143Y-91483941D01*
X132773927Y-91458749D01*
X132727686Y-91302977D01*
X132702461Y-91083071D01*
X132700889Y-91017217D01*
X132711504Y-90882347D01*
X132750153Y-90733483D01*
X132827042Y-90548179D01*
X132952375Y-90303991D01*
X133136357Y-89978474D01*
X133300101Y-89699336D01*
X133530733Y-89315785D01*
X133766772Y-88934100D01*
X133986398Y-88588855D01*
X134167787Y-88314623D01*
X134234963Y-88218229D01*
X134401084Y-87992782D01*
X134505278Y-87871933D01*
X134563085Y-87842337D01*
X134590046Y-87890648D01*
X134590046Y-87890648D01*
G37*
X134590046Y-87890648D02*
X134593385Y-87910432D01*
X134667149Y-88066673D01*
X134788210Y-88183653D01*
X134935862Y-88309187D01*
X135116438Y-88503038D01*
X135304674Y-88732397D01*
X135475303Y-88964455D01*
X135603060Y-89166404D01*
X135662677Y-89305436D01*
X135664222Y-89321170D01*
X135714722Y-89482374D01*
X135770055Y-89549111D01*
X135820841Y-89661395D01*
X135856100Y-89876072D01*
X135875320Y-90155224D01*
X135877985Y-90460936D01*
X135863581Y-90755288D01*
X135831592Y-91000364D01*
X135791626Y-91138519D01*
X135742696Y-91310789D01*
X135789032Y-91454169D01*
X135792224Y-91459339D01*
X135815412Y-91504051D01*
X135810537Y-91537697D01*
X135761053Y-91561850D01*
X135650416Y-91578080D01*
X135462081Y-91587960D01*
X135179504Y-91593062D01*
X134786141Y-91594958D01*
X134362024Y-91595222D01*
X133861192Y-91594532D01*
X133483068Y-91591408D01*
X133209256Y-91584269D01*
X133021356Y-91571534D01*
X132900970Y-91551622D01*
X132829698Y-91522951D01*
X132789143Y-91483941D01*
X132773927Y-91458749D01*
X132727686Y-91302977D01*
X132702461Y-91083071D01*
X132700889Y-91017217D01*
X132711504Y-90882347D01*
X132750153Y-90733483D01*
X132827042Y-90548179D01*
X132952375Y-90303991D01*
X133136357Y-89978474D01*
X133300101Y-89699336D01*
X133530733Y-89315785D01*
X133766772Y-88934100D01*
X133986398Y-88588855D01*
X134167787Y-88314623D01*
X134234963Y-88218229D01*
X134401084Y-87992782D01*
X134505278Y-87871933D01*
X134563085Y-87842337D01*
X134590046Y-87890648D01*
G36*
X137714329Y-87942980D02*
X137838428Y-88111555D01*
X138004511Y-88356248D01*
X138250588Y-88732006D01*
X138513237Y-89146409D01*
X138773078Y-89567651D01*
X139010729Y-89963929D01*
X139206811Y-90303438D01*
X139332050Y-90534808D01*
X139448878Y-90866600D01*
X139461387Y-91177647D01*
X139368315Y-91432719D01*
X139364388Y-91438412D01*
X139323341Y-91490599D01*
X139270596Y-91529701D01*
X139187011Y-91557604D01*
X139053448Y-91576197D01*
X138850765Y-91587367D01*
X138559824Y-91593002D01*
X138161483Y-91594990D01*
X137774405Y-91595222D01*
X137282576Y-91594837D01*
X136915003Y-91592555D01*
X136654833Y-91586682D01*
X136485210Y-91575524D01*
X136389280Y-91557389D01*
X136350189Y-91530583D01*
X136351083Y-91493413D01*
X136369778Y-91454111D01*
X136405922Y-91269492D01*
X136372260Y-91176527D01*
X136330745Y-91022051D01*
X136306406Y-90773439D01*
X136298401Y-90470493D01*
X136305889Y-90153015D01*
X136328030Y-89860807D01*
X136363983Y-89633671D01*
X136407299Y-89517987D01*
X136489953Y-89356971D01*
X136510889Y-89251358D01*
X136556209Y-89135140D01*
X136674514Y-88951445D01*
X136839313Y-88732889D01*
X137024121Y-88512086D01*
X137202449Y-88321648D01*
X137347809Y-88194191D01*
X137390529Y-88168271D01*
X137514973Y-88051164D01*
X137568545Y-87932914D01*
X137594038Y-87867885D01*
X137637749Y-87866498D01*
X137714329Y-87942980D01*
X137714329Y-87942980D01*
G37*
X137714329Y-87942980D02*
X137838428Y-88111555D01*
X138004511Y-88356248D01*
X138250588Y-88732006D01*
X138513237Y-89146409D01*
X138773078Y-89567651D01*
X139010729Y-89963929D01*
X139206811Y-90303438D01*
X139332050Y-90534808D01*
X139448878Y-90866600D01*
X139461387Y-91177647D01*
X139368315Y-91432719D01*
X139364388Y-91438412D01*
X139323341Y-91490599D01*
X139270596Y-91529701D01*
X139187011Y-91557604D01*
X139053448Y-91576197D01*
X138850765Y-91587367D01*
X138559824Y-91593002D01*
X138161483Y-91594990D01*
X137774405Y-91595222D01*
X137282576Y-91594837D01*
X136915003Y-91592555D01*
X136654833Y-91586682D01*
X136485210Y-91575524D01*
X136389280Y-91557389D01*
X136350189Y-91530583D01*
X136351083Y-91493413D01*
X136369778Y-91454111D01*
X136405922Y-91269492D01*
X136372260Y-91176527D01*
X136330745Y-91022051D01*
X136306406Y-90773439D01*
X136298401Y-90470493D01*
X136305889Y-90153015D01*
X136328030Y-89860807D01*
X136363983Y-89633671D01*
X136407299Y-89517987D01*
X136489953Y-89356971D01*
X136510889Y-89251358D01*
X136556209Y-89135140D01*
X136674514Y-88951445D01*
X136839313Y-88732889D01*
X137024121Y-88512086D01*
X137202449Y-88321648D01*
X137347809Y-88194191D01*
X137390529Y-88168271D01*
X137514973Y-88051164D01*
X137568545Y-87932914D01*
X137594038Y-87867885D01*
X137637749Y-87866498D01*
X137714329Y-87942980D01*
G36*
X136793111Y-85302801D02*
X136794136Y-85742757D01*
X136799221Y-86067448D01*
X136811381Y-86302714D01*
X136833632Y-86474397D01*
X136868989Y-86608339D01*
X136920467Y-86730382D01*
X136971210Y-86829163D01*
X137111120Y-87073086D01*
X137260175Y-87304806D01*
X137319210Y-87386874D01*
X137489112Y-87609626D01*
X137264584Y-87609229D01*
X137092131Y-87636261D01*
X136977837Y-87744116D01*
X136926986Y-87835130D01*
X136822635Y-88010334D01*
X136669244Y-88229447D01*
X136493336Y-88458965D01*
X136321435Y-88665383D01*
X136180061Y-88815197D01*
X136106150Y-88872043D01*
X136024169Y-88837402D01*
X135881379Y-88710570D01*
X135700700Y-88512941D01*
X135629900Y-88427477D01*
X135454215Y-88198426D01*
X135319806Y-88001083D01*
X135247637Y-87867169D01*
X135240889Y-87838975D01*
X135179682Y-87688369D01*
X135026533Y-87597862D01*
X134850822Y-87591208D01*
X134727023Y-87606646D01*
X134721291Y-87560733D01*
X134777383Y-87476039D01*
X134948650Y-87231813D01*
X135075675Y-87033744D01*
X135165737Y-86853830D01*
X135226114Y-86664069D01*
X135264087Y-86436461D01*
X135286933Y-86143002D01*
X135301934Y-85755693D01*
X135311444Y-85421611D01*
X135346722Y-84151611D01*
X136069916Y-84131504D01*
X136793111Y-84111397D01*
X136793111Y-85302801D01*
X136793111Y-85302801D01*
G37*
X136793111Y-85302801D02*
X136794136Y-85742757D01*
X136799221Y-86067448D01*
X136811381Y-86302714D01*
X136833632Y-86474397D01*
X136868989Y-86608339D01*
X136920467Y-86730382D01*
X136971210Y-86829163D01*
X137111120Y-87073086D01*
X137260175Y-87304806D01*
X137319210Y-87386874D01*
X137489112Y-87609626D01*
X137264584Y-87609229D01*
X137092131Y-87636261D01*
X136977837Y-87744116D01*
X136926986Y-87835130D01*
X136822635Y-88010334D01*
X136669244Y-88229447D01*
X136493336Y-88458965D01*
X136321435Y-88665383D01*
X136180061Y-88815197D01*
X136106150Y-88872043D01*
X136024169Y-88837402D01*
X135881379Y-88710570D01*
X135700700Y-88512941D01*
X135629900Y-88427477D01*
X135454215Y-88198426D01*
X135319806Y-88001083D01*
X135247637Y-87867169D01*
X135240889Y-87838975D01*
X135179682Y-87688369D01*
X135026533Y-87597862D01*
X134850822Y-87591208D01*
X134727023Y-87606646D01*
X134721291Y-87560733D01*
X134777383Y-87476039D01*
X134948650Y-87231813D01*
X135075675Y-87033744D01*
X135165737Y-86853830D01*
X135226114Y-86664069D01*
X135264087Y-86436461D01*
X135286933Y-86143002D01*
X135301934Y-85755693D01*
X135311444Y-85421611D01*
X135346722Y-84151611D01*
X136069916Y-84131504D01*
X136793111Y-84111397D01*
X136793111Y-85302801D01*
G36*
X146953111Y-83551889D02*
X146247555Y-83551889D01*
X146247555Y-82846333D01*
X146953111Y-82846333D01*
X146953111Y-83551889D01*
X146953111Y-83551889D01*
G37*
X146953111Y-83551889D02*
X146247555Y-83551889D01*
X146247555Y-82846333D01*
X146953111Y-82846333D01*
X146953111Y-83551889D01*
G36*
X128608666Y-80729666D02*
X125080889Y-80729666D01*
X125080889Y-77907444D01*
X125786444Y-77907444D01*
X125786444Y-80024111D01*
X127903111Y-80024111D01*
X127903111Y-77907444D01*
X125786444Y-77907444D01*
X125080889Y-77907444D01*
X125080889Y-77201889D01*
X128608666Y-77201889D01*
X128608666Y-80729666D01*
X128608666Y-80729666D01*
G37*
X128608666Y-80729666D02*
X125080889Y-80729666D01*
X125080889Y-77907444D01*
X125786444Y-77907444D01*
X125786444Y-80024111D01*
X127903111Y-80024111D01*
X127903111Y-77907444D01*
X125786444Y-77907444D01*
X125080889Y-77907444D01*
X125080889Y-77201889D01*
X128608666Y-77201889D01*
X128608666Y-80729666D01*
G36*
X146953111Y-80729666D02*
X143425333Y-80729666D01*
X143425333Y-77907444D01*
X144130889Y-77907444D01*
X144130889Y-80024111D01*
X146247555Y-80024111D01*
X146247555Y-77907444D01*
X144130889Y-77907444D01*
X143425333Y-77907444D01*
X143425333Y-77201889D01*
X146953111Y-77201889D01*
X146953111Y-80729666D01*
X146953111Y-80729666D01*
G37*
X146953111Y-80729666D02*
X143425333Y-80729666D01*
X143425333Y-77907444D01*
X144130889Y-77907444D01*
X144130889Y-80024111D01*
X146247555Y-80024111D01*
X146247555Y-77907444D01*
X144130889Y-77907444D01*
X143425333Y-77907444D01*
X143425333Y-77201889D01*
X146953111Y-77201889D01*
X146953111Y-80729666D01*
D11*
X122808905Y-117193286D02*
X121285095Y-117907571D01*
X122808905Y-118621857D01*
X132838429Y-118336143D02*
X133052715Y-118407571D01*
X133409858Y-118407571D01*
X133552715Y-118336143D01*
X133624144Y-118264714D01*
X133695572Y-118121857D01*
X133695572Y-117979000D01*
X133624144Y-117836143D01*
X133552715Y-117764714D01*
X133409858Y-117693286D01*
X133124144Y-117621857D01*
X132981286Y-117550429D01*
X132909858Y-117479000D01*
X132838429Y-117336143D01*
X132838429Y-117193286D01*
X132909858Y-117050429D01*
X132981286Y-116979000D01*
X133124144Y-116907571D01*
X133481286Y-116907571D01*
X133695572Y-116979000D01*
X134909857Y-118336143D02*
X134767000Y-118407571D01*
X134481286Y-118407571D01*
X134338429Y-118336143D01*
X134267000Y-118193286D01*
X134267000Y-117621857D01*
X134338429Y-117479000D01*
X134481286Y-117407571D01*
X134767000Y-117407571D01*
X134909857Y-117479000D01*
X134981286Y-117621857D01*
X134981286Y-117764714D01*
X134267000Y-117907571D01*
X135838429Y-118407571D02*
X135695571Y-118336143D01*
X135624143Y-118193286D01*
X135624143Y-116907571D01*
X136981285Y-118336143D02*
X136838428Y-118407571D01*
X136552714Y-118407571D01*
X136409857Y-118336143D01*
X136338428Y-118193286D01*
X136338428Y-117621857D01*
X136409857Y-117479000D01*
X136552714Y-117407571D01*
X136838428Y-117407571D01*
X136981285Y-117479000D01*
X137052714Y-117621857D01*
X137052714Y-117764714D01*
X136338428Y-117907571D01*
X138338428Y-118336143D02*
X138195571Y-118407571D01*
X137909857Y-118407571D01*
X137766999Y-118336143D01*
X137695571Y-118264714D01*
X137624142Y-118121857D01*
X137624142Y-117693286D01*
X137695571Y-117550429D01*
X137766999Y-117479000D01*
X137909857Y-117407571D01*
X138195571Y-117407571D01*
X138338428Y-117479000D01*
X138766999Y-117407571D02*
X139338428Y-117407571D01*
X138981285Y-116907571D02*
X138981285Y-118193286D01*
X139052713Y-118336143D01*
X139195571Y-118407571D01*
X139338428Y-118407571D01*
X149225095Y-117193286D02*
X150748905Y-117907571D01*
X149225095Y-118621857D01*
X129286000Y-139743571D02*
X129286000Y-138243571D01*
X142589333Y-138243571D02*
X143256000Y-139743571D01*
X143922667Y-138243571D01*
X156400619Y-138743571D02*
X156876810Y-139743571D01*
X157353000Y-138743571D01*
X158114905Y-139743571D02*
X158114905Y-138743571D01*
X158114905Y-138243571D02*
X158019667Y-138315000D01*
X158114905Y-138386429D01*
X158210144Y-138315000D01*
X158114905Y-138243571D01*
X158114905Y-138386429D01*
X170465857Y-139743571D02*
X170465857Y-138243571D01*
X171132524Y-138243571D02*
X171799191Y-139743571D01*
X172465858Y-138243571D01*
D13*
X175152381Y-117009524D02*
X174152381Y-117009524D01*
X174152381Y-116628571D01*
X174200000Y-116533333D01*
X174247619Y-116485714D01*
X174342857Y-116438095D01*
X174485714Y-116438095D01*
X174580952Y-116485714D01*
X174628571Y-116533333D01*
X174676190Y-116628571D01*
X174676190Y-117009524D01*
X175152381Y-116009524D02*
X174485714Y-116009524D01*
X174676190Y-116009524D02*
X174580952Y-115961905D01*
X174533333Y-115914286D01*
X174485714Y-115819048D01*
X174485714Y-115723809D01*
X175152381Y-115247619D02*
X175104762Y-115342857D01*
X175057143Y-115390476D01*
X174961905Y-115438095D01*
X174676190Y-115438095D01*
X174580952Y-115390476D01*
X174533333Y-115342857D01*
X174485714Y-115247619D01*
X174485714Y-115104761D01*
X174533333Y-115009523D01*
X174580952Y-114961904D01*
X174676190Y-114914285D01*
X174961905Y-114914285D01*
X175057143Y-114961904D01*
X175104762Y-115009523D01*
X175152381Y-115104761D01*
X175152381Y-115247619D01*
X174485714Y-114057142D02*
X175295238Y-114057142D01*
X175390476Y-114104761D01*
X175438095Y-114152380D01*
X175485714Y-114247619D01*
X175485714Y-114390476D01*
X175438095Y-114485714D01*
X175104762Y-114057142D02*
X175152381Y-114152380D01*
X175152381Y-114342857D01*
X175104762Y-114438095D01*
X175057143Y-114485714D01*
X174961905Y-114533333D01*
X174676190Y-114533333D01*
X174580952Y-114485714D01*
X174533333Y-114438095D01*
X174485714Y-114342857D01*
X174485714Y-114152380D01*
X174533333Y-114057142D01*
X175152381Y-113580952D02*
X174485714Y-113580952D01*
X174676190Y-113580952D02*
X174580952Y-113533333D01*
X174533333Y-113485714D01*
X174485714Y-113390476D01*
X174485714Y-113295237D01*
X175152381Y-112533332D02*
X174628571Y-112533332D01*
X174533333Y-112580951D01*
X174485714Y-112676189D01*
X174485714Y-112866666D01*
X174533333Y-112961904D01*
X175104762Y-112533332D02*
X175152381Y-112628570D01*
X175152381Y-112866666D01*
X175104762Y-112961904D01*
X175009524Y-113009523D01*
X174914286Y-113009523D01*
X174819048Y-112961904D01*
X174771429Y-112866666D01*
X174771429Y-112628570D01*
X174723810Y-112533332D01*
X175152381Y-112057142D02*
X174485714Y-112057142D01*
X174580952Y-112057142D02*
X174533333Y-112009523D01*
X174485714Y-111914285D01*
X174485714Y-111771427D01*
X174533333Y-111676189D01*
X174628571Y-111628570D01*
X175152381Y-111628570D01*
X174628571Y-111628570D02*
X174533333Y-111580951D01*
X174485714Y-111485713D01*
X174485714Y-111342856D01*
X174533333Y-111247618D01*
X174628571Y-111199999D01*
X175152381Y-111199999D01*
X175152381Y-110723809D02*
X174485714Y-110723809D01*
X174580952Y-110723809D02*
X174533333Y-110676190D01*
X174485714Y-110580952D01*
X174485714Y-110438094D01*
X174533333Y-110342856D01*
X174628571Y-110295237D01*
X175152381Y-110295237D01*
X174628571Y-110295237D02*
X174533333Y-110247618D01*
X174485714Y-110152380D01*
X174485714Y-110009523D01*
X174533333Y-109914285D01*
X174628571Y-109866666D01*
X175152381Y-109866666D01*
X175104762Y-109009523D02*
X175152381Y-109104761D01*
X175152381Y-109295238D01*
X175104762Y-109390476D01*
X175009524Y-109438095D01*
X174628571Y-109438095D01*
X174533333Y-109390476D01*
X174485714Y-109295238D01*
X174485714Y-109104761D01*
X174533333Y-109009523D01*
X174628571Y-108961904D01*
X174723810Y-108961904D01*
X174819048Y-109438095D01*
X175152381Y-108533333D02*
X174485714Y-108533333D01*
X174676190Y-108533333D02*
X174580952Y-108485714D01*
X174533333Y-108438095D01*
X174485714Y-108342857D01*
X174485714Y-108247618D01*
D14*
X169032381Y-109434285D02*
X169032381Y-110005714D01*
X169032381Y-109720000D02*
X168032381Y-109720000D01*
X168175238Y-109815238D01*
X168270476Y-109910476D01*
X168318095Y-110005714D01*
M02*
