G04 #@! TF.FileFunction,Copper,L1,Top,Signal*
%FSLAX46Y46*%
G04 Gerber Fmt 4.6, Leading zero omitted, Abs format (unit mm)*
G04 Created by KiCad (PCBNEW 4.0.1-2.201512121406+6195~38~ubuntu14.04.1-stable) date Tue 15 Dec 2015 12:34:50 AM EET*
%MOMM*%
G01*
G04 APERTURE LIST*
%ADD10C,0.100000*%
%ADD11R,2.750000X1.000000*%
%ADD12R,0.550000X1.600000*%
%ADD13R,1.600000X0.550000*%
%ADD14R,0.500380X2.301240*%
%ADD15R,1.998980X2.499360*%
%ADD16R,1.727200X1.727200*%
%ADD17O,1.727200X1.727200*%
%ADD18R,2.032000X1.727200*%
%ADD19O,2.032000X1.727200*%
%ADD20R,2.032000X3.657600*%
%ADD21R,2.032000X1.016000*%
%ADD22R,1.400000X1.200000*%
%ADD23R,2.235200X2.235200*%
%ADD24C,0.600000*%
%ADD25C,0.250000*%
%ADD26C,0.254000*%
G04 APERTURE END LIST*
D10*
D11*
X108905000Y-80470000D03*
X114655000Y-80470000D03*
X114655000Y-76470000D03*
X108905000Y-76470000D03*
D12*
X127660000Y-69600000D03*
X128460000Y-69600000D03*
X129260000Y-69600000D03*
X130060000Y-69600000D03*
X130860000Y-69600000D03*
X131660000Y-69600000D03*
X132460000Y-69600000D03*
X133260000Y-69600000D03*
D13*
X134710000Y-68150000D03*
X134710000Y-67350000D03*
X134710000Y-66550000D03*
X134710000Y-65750000D03*
X134710000Y-64950000D03*
X134710000Y-64150000D03*
X134710000Y-63350000D03*
X134710000Y-62550000D03*
D12*
X133260000Y-61100000D03*
X132460000Y-61100000D03*
X131660000Y-61100000D03*
X130860000Y-61100000D03*
X130060000Y-61100000D03*
X129260000Y-61100000D03*
X128460000Y-61100000D03*
X127660000Y-61100000D03*
D13*
X126210000Y-62550000D03*
X126210000Y-63350000D03*
X126210000Y-64150000D03*
X126210000Y-64950000D03*
X126210000Y-65750000D03*
X126210000Y-66550000D03*
X126210000Y-67350000D03*
X126210000Y-68150000D03*
D14*
X126850200Y-43449320D03*
X126050100Y-43449320D03*
X125250000Y-43449320D03*
X124449900Y-43449320D03*
X123649800Y-43449320D03*
D15*
X129700080Y-43350260D03*
X129700080Y-37851160D03*
X120799920Y-43350260D03*
X120799920Y-37851160D03*
D16*
X184600000Y-55000000D03*
D17*
X187140000Y-55000000D03*
X184600000Y-57540000D03*
X187140000Y-57540000D03*
X184600000Y-60080000D03*
X187140000Y-60080000D03*
X184600000Y-62620000D03*
X187140000Y-62620000D03*
X184600000Y-65160000D03*
X187140000Y-65160000D03*
D18*
X137100000Y-49600000D03*
D19*
X137100000Y-47060000D03*
X137100000Y-44520000D03*
X137100000Y-41980000D03*
D11*
X108825000Y-48570000D03*
X114575000Y-48570000D03*
X114575000Y-44570000D03*
X108825000Y-44570000D03*
X146455000Y-80730000D03*
X152205000Y-80730000D03*
X152205000Y-76730000D03*
X146455000Y-76730000D03*
X108875000Y-59110000D03*
X114625000Y-59110000D03*
X114625000Y-55110000D03*
X108875000Y-55110000D03*
X160455000Y-80730000D03*
X166205000Y-80730000D03*
X166205000Y-76730000D03*
X160455000Y-76730000D03*
X108875000Y-69670000D03*
X114625000Y-69670000D03*
X114625000Y-65670000D03*
X108875000Y-65670000D03*
X174455000Y-80730000D03*
X180205000Y-80730000D03*
X180205000Y-76730000D03*
X174455000Y-76730000D03*
D20*
X122098000Y-51300000D03*
D21*
X128702000Y-51300000D03*
X128702000Y-49014000D03*
X128702000Y-53586000D03*
D22*
X133200000Y-73800000D03*
X135400000Y-73800000D03*
X133200000Y-72200000D03*
X135400000Y-72200000D03*
D23*
X114050000Y-38610000D03*
X185900000Y-45300000D03*
D24*
X129100000Y-71200000D03*
X130800000Y-67800000D03*
X130300000Y-59300000D03*
X178149000Y-80877600D03*
X129289000Y-47998000D03*
X139400000Y-54300000D03*
X166200000Y-42400000D03*
X130000000Y-71300000D03*
X131800000Y-67800000D03*
X132500000Y-59200000D03*
X131650000Y-73396200D03*
X137515000Y-73439100D03*
X149355000Y-76247800D03*
X163752000Y-76247800D03*
X178149000Y-76951800D03*
X110710000Y-44697900D03*
X111866000Y-55733200D03*
X111346000Y-65394700D03*
X111328000Y-76247800D03*
X124988000Y-78686800D03*
X127360000Y-78686800D03*
X144301000Y-78730000D03*
X156100000Y-76400000D03*
X170100000Y-76100000D03*
X152600000Y-50000000D03*
X151400000Y-58600000D03*
X146367000Y-65671100D03*
X168400000Y-51200000D03*
X166100000Y-47700000D03*
X160474000Y-64950000D03*
X152365000Y-64150000D03*
X165600000Y-41500000D03*
X166797000Y-64513400D03*
X165349000Y-45732800D03*
X124797000Y-59051000D03*
X117770000Y-59974700D03*
X117372000Y-67693000D03*
X124366000Y-63350000D03*
X133000000Y-64900000D03*
X129365000Y-65641100D03*
X128234800Y-67737500D03*
X121901000Y-78686800D03*
X131931000Y-47762500D03*
X126178000Y-45125600D03*
X125500000Y-46400000D03*
X123306000Y-46878000D03*
D25*
X129260000Y-71040000D02*
X129260000Y-69600000D01*
X129100000Y-71200000D02*
X129260000Y-71040000D01*
X130860000Y-67860000D02*
X130860000Y-69600000D01*
X130800000Y-67800000D02*
X130860000Y-67860000D01*
X130060000Y-59540000D02*
X130300000Y-59300000D01*
X130060000Y-61100000D02*
X130060000Y-59540000D01*
X114625000Y-59110000D02*
X108875000Y-59110000D01*
X114575000Y-48570000D02*
X108825000Y-48570000D01*
X114655000Y-80470000D02*
X108905000Y-80470000D01*
X114575000Y-48570000D02*
X116275000Y-48570000D01*
X123650000Y-43449300D02*
X123650000Y-41973400D01*
X123419000Y-41742900D02*
X123650000Y-41973400D01*
X116936000Y-41742900D02*
X123419000Y-41742900D01*
X116936000Y-40052900D02*
X116936000Y-41742900D01*
X115493000Y-38610000D02*
X116936000Y-40052900D01*
X114050000Y-38610000D02*
X115493000Y-38610000D01*
X116936000Y-47909500D02*
X116275000Y-48570000D01*
X116936000Y-41742900D02*
X116936000Y-47909500D01*
X123848000Y-41775200D02*
X123650000Y-41973400D01*
X135554000Y-41775200D02*
X123848000Y-41775200D01*
X135759000Y-41980000D02*
X135554000Y-41775200D01*
X137100000Y-41980000D02*
X135759000Y-41980000D01*
X130043000Y-59043300D02*
X130300000Y-59300000D01*
X130043000Y-53586000D02*
X130043000Y-59043300D01*
X128702000Y-53586000D02*
X130043000Y-53586000D01*
X178357000Y-80877600D02*
X178149000Y-80877600D01*
X178505000Y-80730000D02*
X178357000Y-80877600D01*
X180205000Y-80730000D02*
X178505000Y-80730000D01*
X176303000Y-80877600D02*
X178149000Y-80877600D01*
X176155000Y-80730000D02*
X176303000Y-80877600D01*
X174455000Y-80730000D02*
X176155000Y-80730000D01*
X128702000Y-53586000D02*
X116971000Y-53586000D01*
X116971000Y-49265900D02*
X116275000Y-48570000D01*
X116971000Y-53586000D02*
X116971000Y-49265900D01*
X116971000Y-58464100D02*
X116971000Y-53586000D01*
X116325000Y-59110000D02*
X116971000Y-58464100D01*
X114625000Y-59110000D02*
X116325000Y-59110000D01*
X108875000Y-69670000D02*
X114625000Y-69670000D01*
X185900000Y-55482600D02*
X185900000Y-45300000D01*
X186768000Y-56351100D02*
X185900000Y-55482600D01*
X187140000Y-56351100D02*
X186768000Y-56351100D01*
X187140000Y-57540000D02*
X187140000Y-56351100D01*
X174455000Y-80730000D02*
X166205000Y-80730000D01*
X166205000Y-80730000D02*
X160455000Y-80730000D01*
X160455000Y-80730000D02*
X152205000Y-80730000D01*
X152205000Y-80730000D02*
X146455000Y-80730000D01*
X127710000Y-47998000D02*
X129289000Y-47998000D01*
X127361000Y-48347200D02*
X127710000Y-47998000D01*
X127361000Y-49014000D02*
X127361000Y-48347200D01*
X128702000Y-49014000D02*
X127361000Y-49014000D01*
X135500000Y-50400000D02*
X139400000Y-54300000D01*
X129500000Y-50400000D02*
X135500000Y-50400000D01*
X128702000Y-51198000D02*
X129500000Y-50400000D01*
X128702000Y-51300000D02*
X128702000Y-51198000D01*
X138800000Y-49600000D02*
X137100000Y-49600000D01*
X146000000Y-42400000D02*
X138800000Y-49600000D01*
X166200000Y-42400000D02*
X146000000Y-42400000D01*
X132460000Y-59240000D02*
X132460000Y-61100000D01*
X132500000Y-59200000D02*
X132460000Y-59240000D01*
X131660000Y-67940000D02*
X131660000Y-69600000D01*
X131800000Y-67800000D02*
X131660000Y-67940000D01*
X130060000Y-71240000D02*
X130060000Y-70779400D01*
X130000000Y-71300000D02*
X130060000Y-71240000D01*
X130060000Y-70779400D02*
X130060000Y-69600000D01*
X130114000Y-70725300D02*
X130060000Y-70779400D01*
X131660000Y-70725300D02*
X130114000Y-70725300D01*
X131660000Y-69600000D02*
X131660000Y-70725300D01*
X131650000Y-73396200D02*
X132030000Y-73396200D01*
X132030000Y-73655200D02*
X132030000Y-73396200D01*
X132175000Y-73800000D02*
X132030000Y-73655200D01*
X133200000Y-73800000D02*
X132175000Y-73800000D01*
X132460000Y-70846000D02*
X132460000Y-69600000D01*
X132030000Y-71276100D02*
X132460000Y-70846000D01*
X132030000Y-73396200D02*
X132030000Y-71276100D01*
X135218000Y-72199900D02*
X135035000Y-72199900D01*
X136275000Y-72199900D02*
X137515000Y-73439100D01*
X135400000Y-72199900D02*
X136275000Y-72199900D01*
X135400000Y-72200000D02*
X135400000Y-72199900D01*
X135400000Y-72199900D02*
X135218000Y-72199900D01*
X134609100Y-71591200D02*
X135218000Y-72199900D01*
X134609100Y-71591200D02*
X134609100Y-71899900D01*
X134800000Y-71899900D02*
X134609100Y-71899900D01*
X134609100Y-71899900D02*
X134435000Y-71899900D01*
X133743000Y-70725300D02*
X134609100Y-71591200D01*
X133260000Y-70725300D02*
X133743000Y-70725300D01*
X133260000Y-69600000D02*
X133260000Y-70725300D01*
X148873000Y-76730000D02*
X149355000Y-76247800D01*
X146455000Y-76730000D02*
X148873000Y-76730000D01*
X150505000Y-76730000D02*
X152205000Y-76730000D01*
X150022000Y-76247800D02*
X150505000Y-76730000D01*
X149355000Y-76247800D02*
X150022000Y-76247800D01*
X163270000Y-76730000D02*
X163752000Y-76247800D01*
X160455000Y-76730000D02*
X163270000Y-76730000D01*
X164505000Y-76730000D02*
X166205000Y-76730000D01*
X164022000Y-76247800D02*
X164505000Y-76730000D01*
X163752000Y-76247800D02*
X164022000Y-76247800D01*
X178283000Y-76951800D02*
X178149000Y-76951800D01*
X178505000Y-76730000D02*
X178283000Y-76951800D01*
X180205000Y-76730000D02*
X178505000Y-76730000D01*
X177927000Y-76730000D02*
X178149000Y-76951800D01*
X174455000Y-76730000D02*
X177927000Y-76730000D01*
X110653000Y-44697900D02*
X110710000Y-44697900D01*
X110525000Y-44570000D02*
X110653000Y-44697900D01*
X108825000Y-44570000D02*
X110525000Y-44570000D01*
X112747000Y-44697900D02*
X110710000Y-44697900D01*
X112875000Y-44570000D02*
X112747000Y-44697900D01*
X114575000Y-44570000D02*
X112875000Y-44570000D01*
X111198000Y-55733200D02*
X111866000Y-55733200D01*
X110575000Y-55110000D02*
X111198000Y-55733200D01*
X108875000Y-55110000D02*
X110575000Y-55110000D01*
X112302000Y-55733200D02*
X111866000Y-55733200D01*
X112925000Y-55110000D02*
X112302000Y-55733200D01*
X114625000Y-55110000D02*
X112925000Y-55110000D01*
X110851000Y-65394700D02*
X111346000Y-65394700D01*
X110575000Y-65670000D02*
X110851000Y-65394700D01*
X108875000Y-65670000D02*
X110575000Y-65670000D01*
X112925000Y-65670000D02*
X114625000Y-65670000D01*
X112649000Y-65394700D02*
X112925000Y-65670000D01*
X111346000Y-65394700D02*
X112649000Y-65394700D01*
X110828000Y-76247800D02*
X111328000Y-76247800D01*
X110605000Y-76470000D02*
X110828000Y-76247800D01*
X108905000Y-76470000D02*
X110605000Y-76470000D01*
X112732000Y-76247800D02*
X111328000Y-76247800D01*
X112955000Y-76470000D02*
X112732000Y-76247800D01*
X114655000Y-76470000D02*
X112955000Y-76470000D01*
X124988000Y-73397800D02*
X124988000Y-78686800D01*
X127660000Y-70725300D02*
X124988000Y-73397800D01*
X127660000Y-69600000D02*
X127660000Y-70725300D01*
X128460000Y-77586600D02*
X128460000Y-69600000D01*
X127360000Y-78686800D02*
X128460000Y-77586600D01*
X135835000Y-70264400D02*
X144301000Y-78730000D01*
X135835000Y-68150000D02*
X135835000Y-70264400D01*
X134710000Y-68150000D02*
X135835000Y-68150000D01*
X147050000Y-67350000D02*
X156100000Y-76400000D01*
X134710000Y-67350000D02*
X147050000Y-67350000D01*
X160550000Y-66550000D02*
X170100000Y-76100000D01*
X134710000Y-66550000D02*
X160550000Y-66550000D01*
X152600000Y-57400000D02*
X152600000Y-50000000D01*
X151400000Y-58600000D02*
X152600000Y-57400000D01*
X135914000Y-65671100D02*
X146367000Y-65671100D01*
X135835000Y-65750000D02*
X135914000Y-65671100D01*
X134710000Y-65750000D02*
X135835000Y-65750000D01*
X168400000Y-50000000D02*
X166100000Y-47700000D01*
X168400000Y-51200000D02*
X168400000Y-50000000D01*
X160474000Y-64950000D02*
X134710000Y-64950000D01*
X152365000Y-64150000D02*
X134710000Y-64150000D01*
X176800000Y-41500000D02*
X165600000Y-41500000D01*
X184600000Y-49300000D02*
X176800000Y-41500000D01*
X184600000Y-55000000D02*
X184600000Y-49300000D01*
X165634000Y-63350000D02*
X134710000Y-63350000D01*
X166797000Y-64513400D02*
X165634000Y-63350000D01*
X183411000Y-65160000D02*
X184600000Y-65160000D01*
X180801000Y-62550000D02*
X183411000Y-65160000D01*
X134710000Y-62550000D02*
X180801000Y-62550000D01*
X133960000Y-61800000D02*
X133260000Y-61100000D01*
X180800000Y-61800000D02*
X133960000Y-61800000D01*
X181620000Y-62620000D02*
X180800000Y-61800000D01*
X183411000Y-62620000D02*
X181620000Y-62620000D01*
X165349000Y-56872900D02*
X165349000Y-45732800D01*
X177664000Y-56872900D02*
X165349000Y-56872900D01*
X183411000Y-62620000D02*
X177664000Y-56872900D01*
X184600000Y-62620000D02*
X183411000Y-62620000D01*
X184600000Y-62620000D02*
X183411000Y-62620000D01*
X127536000Y-59051000D02*
X124797000Y-59051000D01*
X128460000Y-59974700D02*
X127536000Y-59051000D01*
X128460000Y-61100000D02*
X128460000Y-59974700D01*
X127660000Y-59974700D02*
X127660000Y-61100000D01*
X117770000Y-59974700D02*
X127660000Y-59974700D01*
X122515000Y-62550000D02*
X126210000Y-62550000D01*
X117372000Y-67693000D02*
X122515000Y-62550000D01*
X124366000Y-63350000D02*
X126210000Y-63350000D01*
X129000000Y-64900000D02*
X133000000Y-64900000D01*
X128150000Y-65750000D02*
X129000000Y-64900000D01*
X126210000Y-65750000D02*
X128150000Y-65750000D01*
X128456100Y-66550000D02*
X126210000Y-66550000D01*
X129365000Y-65641100D02*
X128456100Y-66550000D01*
X127847300Y-67350000D02*
X126210000Y-67350000D01*
X128234800Y-67737500D02*
X127847300Y-67350000D01*
X121901000Y-71333400D02*
X121901000Y-78686800D01*
X125085000Y-68150000D02*
X121901000Y-71333400D01*
X126210000Y-68150000D02*
X125085000Y-68150000D01*
X126850000Y-44925200D02*
X126850000Y-44556200D01*
X128326000Y-44925200D02*
X126850000Y-44925200D01*
X131163000Y-47762500D02*
X128326000Y-44925200D01*
X131931000Y-47762500D02*
X131163000Y-47762500D01*
X126850000Y-44556200D02*
X126850000Y-44556000D01*
X126850000Y-44556000D02*
X126850000Y-44187200D01*
X126850000Y-44556200D02*
X126850000Y-44556000D01*
X126850000Y-44556000D02*
X126850000Y-44187200D01*
X126850000Y-44187200D02*
X126850000Y-44002700D01*
X126850000Y-44002700D02*
X126850000Y-43818200D01*
X126850200Y-44002500D02*
X126850200Y-43449300D01*
X126850000Y-44002700D02*
X126850200Y-44002500D01*
X126050000Y-44925200D02*
X126050000Y-44556200D01*
X126178000Y-45053300D02*
X126050000Y-44925200D01*
X126178000Y-45125600D02*
X126178000Y-45053300D01*
X126050000Y-44556200D02*
X126050000Y-44556100D01*
X126050000Y-44556100D02*
X126050000Y-44187200D01*
X126050000Y-44556200D02*
X126050000Y-44556100D01*
X126050000Y-44556100D02*
X126050000Y-44187200D01*
X126050000Y-44187200D02*
X126050000Y-44002700D01*
X126050000Y-44002700D02*
X126050000Y-43818200D01*
X126050100Y-44002600D02*
X126050100Y-43449300D01*
X126050000Y-44002700D02*
X126050100Y-44002600D01*
X125250000Y-46150000D02*
X125250000Y-43449300D01*
X125500000Y-46400000D02*
X125250000Y-46150000D01*
X124450000Y-45733600D02*
X124450000Y-45162500D01*
X123306000Y-46878000D02*
X124450000Y-45733600D01*
X124450000Y-45162500D02*
X124450000Y-45162400D01*
X124450000Y-45162400D02*
X124450000Y-44591400D01*
X124450000Y-45162500D02*
X124450000Y-45162400D01*
X124450000Y-45162400D02*
X124450000Y-44591400D01*
X124450000Y-44591400D02*
X124450000Y-44305800D01*
X124450000Y-44305800D02*
X124450000Y-44020300D01*
X124449900Y-44305700D02*
X124449900Y-43449300D01*
X124450000Y-44305800D02*
X124449900Y-44305700D01*
D26*
G36*
X183473000Y-37446517D02*
X183410559Y-37539967D01*
X183223575Y-38480000D01*
X183410559Y-39420033D01*
X183473000Y-39513483D01*
X183473000Y-40600000D01*
X183483006Y-40649410D01*
X183511447Y-40691035D01*
X183553841Y-40718315D01*
X183600000Y-40727000D01*
X184706382Y-40727000D01*
X184739967Y-40749441D01*
X185680000Y-40936425D01*
X186620033Y-40749441D01*
X186653618Y-40727000D01*
X188490000Y-40727000D01*
X188490000Y-54330900D01*
X188229029Y-53940330D01*
X187742848Y-53615474D01*
X187169359Y-53501400D01*
X187110641Y-53501400D01*
X186537152Y-53615474D01*
X186071558Y-53926574D01*
X186066762Y-53901083D01*
X185927690Y-53684959D01*
X185715490Y-53539969D01*
X185463600Y-53488960D01*
X185360000Y-53488960D01*
X185360000Y-49300000D01*
X185302148Y-49009161D01*
X185137401Y-48762599D01*
X181960552Y-45585750D01*
X184147400Y-45585750D01*
X184147400Y-46543910D01*
X184244073Y-46777299D01*
X184422702Y-46955927D01*
X184656091Y-47052600D01*
X185614250Y-47052600D01*
X185773000Y-46893850D01*
X185773000Y-45427000D01*
X186027000Y-45427000D01*
X186027000Y-46893850D01*
X186185750Y-47052600D01*
X187143909Y-47052600D01*
X187377298Y-46955927D01*
X187555927Y-46777299D01*
X187652600Y-46543910D01*
X187652600Y-45585750D01*
X187493850Y-45427000D01*
X186027000Y-45427000D01*
X185773000Y-45427000D01*
X184306150Y-45427000D01*
X184147400Y-45585750D01*
X181960552Y-45585750D01*
X180430892Y-44056090D01*
X184147400Y-44056090D01*
X184147400Y-45014250D01*
X184306150Y-45173000D01*
X185773000Y-45173000D01*
X185773000Y-43706150D01*
X186027000Y-43706150D01*
X186027000Y-45173000D01*
X187493850Y-45173000D01*
X187652600Y-45014250D01*
X187652600Y-44056090D01*
X187555927Y-43822701D01*
X187377298Y-43644073D01*
X187143909Y-43547400D01*
X186185750Y-43547400D01*
X186027000Y-43706150D01*
X185773000Y-43706150D01*
X185614250Y-43547400D01*
X184656091Y-43547400D01*
X184422702Y-43644073D01*
X184244073Y-43822701D01*
X184147400Y-44056090D01*
X180430892Y-44056090D01*
X177337401Y-40962599D01*
X177090839Y-40797852D01*
X176800000Y-40740000D01*
X166162463Y-40740000D01*
X166130327Y-40707808D01*
X165786799Y-40565162D01*
X165414833Y-40564838D01*
X165071057Y-40706883D01*
X164807808Y-40969673D01*
X164665162Y-41313201D01*
X164664877Y-41640000D01*
X146000000Y-41640000D01*
X145709161Y-41697852D01*
X145462599Y-41862599D01*
X138735783Y-48589415D01*
X138719162Y-48501083D01*
X138580090Y-48284959D01*
X138367890Y-48139969D01*
X138326561Y-48131600D01*
X138344415Y-48119670D01*
X138669271Y-47633489D01*
X138783345Y-47060000D01*
X138669271Y-46486511D01*
X138344415Y-46000330D01*
X138029634Y-45790000D01*
X138344415Y-45579670D01*
X138669271Y-45093489D01*
X138783345Y-44520000D01*
X138669271Y-43946511D01*
X138344415Y-43460330D01*
X138034931Y-43253539D01*
X138450732Y-42882036D01*
X138704709Y-42354791D01*
X138707358Y-42339026D01*
X138586217Y-42107000D01*
X137227000Y-42107000D01*
X137227000Y-42127000D01*
X136973000Y-42127000D01*
X136973000Y-42107000D01*
X135613783Y-42107000D01*
X135492642Y-42339026D01*
X135495291Y-42354791D01*
X135749268Y-42882036D01*
X136165069Y-43253539D01*
X135855585Y-43460330D01*
X135530729Y-43946511D01*
X135416655Y-44520000D01*
X135530729Y-45093489D01*
X135855585Y-45579670D01*
X136170366Y-45790000D01*
X135855585Y-46000330D01*
X135530729Y-46486511D01*
X135416655Y-47060000D01*
X135530729Y-47633489D01*
X135855585Y-48119670D01*
X135869913Y-48129243D01*
X135848683Y-48133238D01*
X135632559Y-48272310D01*
X135487569Y-48484510D01*
X135436560Y-48736400D01*
X135436560Y-49640000D01*
X130341544Y-49640000D01*
X130365440Y-49522000D01*
X130365440Y-48506000D01*
X130321162Y-48270683D01*
X130223895Y-48119526D01*
X130224088Y-47898348D01*
X130625570Y-48299873D01*
X130625589Y-48299885D01*
X130625599Y-48299901D01*
X130743592Y-48378741D01*
X130872123Y-48464632D01*
X130872143Y-48464636D01*
X130872161Y-48464648D01*
X131021840Y-48494421D01*
X131162960Y-48522500D01*
X131162980Y-48522496D01*
X131163000Y-48522500D01*
X131368537Y-48522500D01*
X131400673Y-48554692D01*
X131744201Y-48697338D01*
X132116167Y-48697662D01*
X132459943Y-48555617D01*
X132723192Y-48292827D01*
X132865838Y-47949299D01*
X132866162Y-47577333D01*
X132724117Y-47233557D01*
X132461327Y-46970308D01*
X132117799Y-46827662D01*
X131745833Y-46827338D01*
X131432242Y-46956911D01*
X129722892Y-45247380D01*
X130699570Y-45247380D01*
X130934887Y-45203102D01*
X131151011Y-45064030D01*
X131296001Y-44851830D01*
X131347010Y-44599940D01*
X131347010Y-42100580D01*
X131302732Y-41865263D01*
X131163660Y-41649139D01*
X131122440Y-41620974D01*
X135492642Y-41620974D01*
X135613783Y-41853000D01*
X136973000Y-41853000D01*
X136973000Y-40639076D01*
X137227000Y-40639076D01*
X137227000Y-41853000D01*
X138586217Y-41853000D01*
X138707358Y-41620974D01*
X138704709Y-41605209D01*
X138450732Y-41077964D01*
X138014320Y-40688046D01*
X137461913Y-40494816D01*
X137227000Y-40639076D01*
X136973000Y-40639076D01*
X136738087Y-40494816D01*
X136185680Y-40688046D01*
X135749268Y-41077964D01*
X135495291Y-41605209D01*
X135492642Y-41620974D01*
X131122440Y-41620974D01*
X130951460Y-41504149D01*
X130699570Y-41453140D01*
X128700590Y-41453140D01*
X128465273Y-41497418D01*
X128249149Y-41636490D01*
X128104159Y-41848690D01*
X128053150Y-42100580D01*
X128053150Y-44165200D01*
X127747830Y-44165200D01*
X127747830Y-42298700D01*
X127703552Y-42063383D01*
X127621345Y-41935630D01*
X127664430Y-41935668D01*
X128063203Y-41770898D01*
X128368566Y-41466067D01*
X128534031Y-41067583D01*
X128534408Y-40636110D01*
X128369638Y-40237337D01*
X128064807Y-39931974D01*
X127666323Y-39766509D01*
X127234850Y-39766132D01*
X126836077Y-39930902D01*
X126530714Y-40235733D01*
X126365249Y-40634217D01*
X126364872Y-41065690D01*
X126529642Y-41464463D01*
X126716114Y-41651260D01*
X126600010Y-41651260D01*
X126444648Y-41680493D01*
X126300290Y-41651260D01*
X125799910Y-41651260D01*
X125644548Y-41680493D01*
X125500190Y-41651260D01*
X124999810Y-41651260D01*
X124844448Y-41680493D01*
X124700090Y-41651260D01*
X124199710Y-41651260D01*
X124059816Y-41677583D01*
X124026300Y-41663700D01*
X123933645Y-41663700D01*
X123788845Y-41808500D01*
X123776802Y-41816249D01*
X123776802Y-41663700D01*
X123771308Y-41663700D01*
X123969286Y-41466067D01*
X124134751Y-41067583D01*
X124135128Y-40636110D01*
X123970358Y-40237337D01*
X123665527Y-39931974D01*
X123267043Y-39766509D01*
X122835570Y-39766132D01*
X122436797Y-39930902D01*
X122131434Y-40235733D01*
X121965969Y-40634217D01*
X121965592Y-41065690D01*
X122130362Y-41464463D01*
X122435193Y-41769826D01*
X122833677Y-41935291D01*
X122864967Y-41935318D01*
X122861283Y-41939002D01*
X122764610Y-42172391D01*
X122764610Y-43163570D01*
X122923360Y-43322320D01*
X123524705Y-43322320D01*
X123524705Y-43302320D01*
X123552270Y-43302320D01*
X123552270Y-44599940D01*
X123596548Y-44835257D01*
X123690000Y-44980486D01*
X123690000Y-45418876D01*
X123166181Y-45942878D01*
X123120833Y-45942838D01*
X122777057Y-46084883D01*
X122513808Y-46347673D01*
X122371162Y-46691201D01*
X122370838Y-47063167D01*
X122512883Y-47406943D01*
X122775673Y-47670192D01*
X123119201Y-47812838D01*
X123491167Y-47813162D01*
X123834943Y-47671117D01*
X124098192Y-47408327D01*
X124240838Y-47064799D01*
X124240879Y-47017784D01*
X124596571Y-46661967D01*
X124706883Y-46928943D01*
X124969673Y-47192192D01*
X125313201Y-47334838D01*
X125685167Y-47335162D01*
X126028943Y-47193117D01*
X126292192Y-46930327D01*
X126434838Y-46586799D01*
X126435162Y-46214833D01*
X126370286Y-46057821D01*
X126706943Y-45918717D01*
X126940868Y-45685200D01*
X128011173Y-45685200D01*
X129388914Y-47063086D01*
X129103833Y-47062838D01*
X128760057Y-47204883D01*
X128726882Y-47238000D01*
X127710000Y-47238000D01*
X127709891Y-47238022D01*
X127709782Y-47238000D01*
X127563790Y-47267083D01*
X127419161Y-47295852D01*
X127419069Y-47295913D01*
X127418960Y-47295935D01*
X127295458Y-47378507D01*
X127172599Y-47460599D01*
X127172537Y-47460691D01*
X127172445Y-47460753D01*
X126823445Y-47809953D01*
X126741270Y-47933013D01*
X126658852Y-48056361D01*
X126658830Y-48056470D01*
X126658769Y-48056562D01*
X126630000Y-48201409D01*
X126601000Y-48347200D01*
X126601000Y-49014000D01*
X126658852Y-49304839D01*
X126823599Y-49551401D01*
X127070161Y-49716148D01*
X127075283Y-49717167D01*
X127082838Y-49757317D01*
X127221910Y-49973441D01*
X127434110Y-50118431D01*
X127622314Y-50156543D01*
X127450683Y-50188838D01*
X127234559Y-50327910D01*
X127089569Y-50540110D01*
X127038560Y-50792000D01*
X127038560Y-51808000D01*
X127082838Y-52043317D01*
X127221910Y-52259441D01*
X127434110Y-52404431D01*
X127624569Y-52443000D01*
X127559690Y-52443000D01*
X127326301Y-52539673D01*
X127147673Y-52718302D01*
X127051000Y-52951691D01*
X127051000Y-53300250D01*
X127209750Y-53459000D01*
X128575000Y-53459000D01*
X128575000Y-53439000D01*
X128829000Y-53439000D01*
X128829000Y-53459000D01*
X130194250Y-53459000D01*
X130353000Y-53300250D01*
X130353000Y-52951691D01*
X130256327Y-52718302D01*
X130077699Y-52539673D01*
X129844310Y-52443000D01*
X129784113Y-52443000D01*
X129953317Y-52411162D01*
X130169441Y-52272090D01*
X130314431Y-52059890D01*
X130365440Y-51808000D01*
X130365440Y-51160000D01*
X135185198Y-51160000D01*
X138464878Y-54439680D01*
X138464838Y-54485167D01*
X138606883Y-54828943D01*
X138869673Y-55092192D01*
X139213201Y-55234838D01*
X139585167Y-55235162D01*
X139928943Y-55093117D01*
X140192192Y-54830327D01*
X140334838Y-54486799D01*
X140335162Y-54114833D01*
X140193117Y-53771057D01*
X139930327Y-53507808D01*
X139586799Y-53365162D01*
X139539923Y-53365121D01*
X137285842Y-51111040D01*
X138116000Y-51111040D01*
X138351317Y-51066762D01*
X138567441Y-50927690D01*
X138712431Y-50715490D01*
X138763440Y-50463600D01*
X138763440Y-50360000D01*
X138800000Y-50360000D01*
X139090839Y-50302148D01*
X139337401Y-50137401D01*
X146314802Y-43160000D01*
X165637537Y-43160000D01*
X165669673Y-43192192D01*
X166013201Y-43334838D01*
X166385167Y-43335162D01*
X166728943Y-43193117D01*
X166992192Y-42930327D01*
X167134838Y-42586799D01*
X167135123Y-42260000D01*
X176485198Y-42260000D01*
X183840000Y-49614802D01*
X183840000Y-53488960D01*
X183736400Y-53488960D01*
X183501083Y-53533238D01*
X183284959Y-53672310D01*
X183139969Y-53884510D01*
X183088960Y-54136400D01*
X183088960Y-55863600D01*
X183133238Y-56098917D01*
X183272310Y-56315041D01*
X183484510Y-56460031D01*
X183528131Y-56468864D01*
X183510971Y-56480330D01*
X183186115Y-56966511D01*
X183072041Y-57540000D01*
X183186115Y-58113489D01*
X183510971Y-58599670D01*
X183825752Y-58810000D01*
X183510971Y-59020330D01*
X183186115Y-59506511D01*
X183072041Y-60080000D01*
X183186115Y-60653489D01*
X183510971Y-61139670D01*
X183825752Y-61350000D01*
X183510971Y-61560330D01*
X183476993Y-61611182D01*
X178201406Y-56335504D01*
X178201403Y-56335502D01*
X178201401Y-56335499D01*
X178048090Y-56233060D01*
X177954845Y-56170755D01*
X177954843Y-56170755D01*
X177954839Y-56170752D01*
X177790601Y-56138083D01*
X177664007Y-56112900D01*
X177664003Y-56112901D01*
X177664000Y-56112900D01*
X166109000Y-56112900D01*
X166109000Y-48783802D01*
X167640000Y-50314802D01*
X167640000Y-50637537D01*
X167607808Y-50669673D01*
X167465162Y-51013201D01*
X167464838Y-51385167D01*
X167606883Y-51728943D01*
X167869673Y-51992192D01*
X168213201Y-52134838D01*
X168585167Y-52135162D01*
X168928943Y-51993117D01*
X169192192Y-51730327D01*
X169334838Y-51386799D01*
X169335162Y-51014833D01*
X169193117Y-50671057D01*
X169160000Y-50637882D01*
X169160000Y-50000000D01*
X169122843Y-49813201D01*
X169102148Y-49709160D01*
X168937401Y-49462599D01*
X167035122Y-47560320D01*
X167035162Y-47514833D01*
X166893117Y-47171057D01*
X166630327Y-46907808D01*
X166286799Y-46765162D01*
X166109000Y-46765007D01*
X166109000Y-46295263D01*
X166141192Y-46263127D01*
X166283838Y-45919599D01*
X166284162Y-45547633D01*
X166142117Y-45203857D01*
X165879327Y-44940608D01*
X165535799Y-44797962D01*
X165163833Y-44797638D01*
X164820057Y-44939683D01*
X164556808Y-45202473D01*
X164414162Y-45546001D01*
X164413838Y-45917967D01*
X164555883Y-46261743D01*
X164589000Y-46294918D01*
X164589000Y-56872900D01*
X164646852Y-57163739D01*
X164811599Y-57410301D01*
X165058161Y-57575048D01*
X165349000Y-57632900D01*
X177349194Y-57632900D01*
X180756235Y-61040000D01*
X134274803Y-61040000D01*
X134182440Y-60947637D01*
X134182440Y-60300000D01*
X134138162Y-60064683D01*
X133999090Y-59848559D01*
X133786890Y-59703569D01*
X133535000Y-59652560D01*
X133324484Y-59652560D01*
X133434838Y-59386799D01*
X133435162Y-59014833D01*
X133340267Y-58785167D01*
X150464838Y-58785167D01*
X150606883Y-59128943D01*
X150869673Y-59392192D01*
X151213201Y-59534838D01*
X151585167Y-59535162D01*
X151928943Y-59393117D01*
X152192192Y-59130327D01*
X152334838Y-58786799D01*
X152334879Y-58739923D01*
X153137401Y-57937401D01*
X153302148Y-57690840D01*
X153360000Y-57400000D01*
X153360000Y-50562463D01*
X153392192Y-50530327D01*
X153534838Y-50186799D01*
X153535162Y-49814833D01*
X153393117Y-49471057D01*
X153130327Y-49207808D01*
X152786799Y-49065162D01*
X152414833Y-49064838D01*
X152071057Y-49206883D01*
X151807808Y-49469673D01*
X151665162Y-49813201D01*
X151664838Y-50185167D01*
X151806883Y-50528943D01*
X151840000Y-50562118D01*
X151840000Y-57085198D01*
X151260320Y-57664878D01*
X151214833Y-57664838D01*
X150871057Y-57806883D01*
X150607808Y-58069673D01*
X150465162Y-58413201D01*
X150464838Y-58785167D01*
X133340267Y-58785167D01*
X133293117Y-58671057D01*
X133030327Y-58407808D01*
X132686799Y-58265162D01*
X132314833Y-58264838D01*
X131971057Y-58406883D01*
X131707808Y-58669673D01*
X131565162Y-59013201D01*
X131564838Y-59385167D01*
X131675322Y-59652560D01*
X131385000Y-59652560D01*
X131255411Y-59676944D01*
X131135000Y-59652560D01*
X130585000Y-59652560D01*
X130479295Y-59672450D01*
X130461310Y-59665000D01*
X130345750Y-59665000D01*
X130249349Y-59761401D01*
X130133559Y-59835910D01*
X130060116Y-59943397D01*
X129999090Y-59848559D01*
X129868755Y-59759505D01*
X129774250Y-59665000D01*
X129658690Y-59665000D01*
X129638247Y-59673468D01*
X129535000Y-59652560D01*
X129141255Y-59652560D01*
X129078783Y-59559096D01*
X128997401Y-59437299D01*
X128997350Y-59437265D01*
X128997314Y-59437211D01*
X128073314Y-58513512D01*
X127950664Y-58431589D01*
X127826839Y-58348852D01*
X127826777Y-58348840D01*
X127826725Y-58348805D01*
X127681726Y-58319987D01*
X127536000Y-58291000D01*
X125359463Y-58291000D01*
X125327327Y-58258808D01*
X124983799Y-58116162D01*
X124611833Y-58115838D01*
X124268057Y-58257883D01*
X124004808Y-58520673D01*
X123862162Y-58864201D01*
X123861857Y-59214700D01*
X118332463Y-59214700D01*
X118300327Y-59182508D01*
X117956799Y-59039862D01*
X117584833Y-59039538D01*
X117241057Y-59181583D01*
X116977808Y-59444373D01*
X116835162Y-59787901D01*
X116834838Y-60159867D01*
X116976883Y-60503643D01*
X117239673Y-60766892D01*
X117583201Y-60909538D01*
X117955167Y-60909862D01*
X118298943Y-60767817D01*
X118332118Y-60734700D01*
X126737560Y-60734700D01*
X126737560Y-61627560D01*
X125410000Y-61627560D01*
X125174683Y-61671838D01*
X124991054Y-61790000D01*
X122515000Y-61790000D01*
X122224160Y-61847852D01*
X121977599Y-62012599D01*
X117232320Y-66757878D01*
X117186833Y-66757838D01*
X116843057Y-66899883D01*
X116579808Y-67162673D01*
X116437162Y-67506201D01*
X116436838Y-67878167D01*
X116578883Y-68221943D01*
X116841673Y-68485192D01*
X117185201Y-68627838D01*
X117557167Y-68628162D01*
X117900943Y-68486117D01*
X118164192Y-68223327D01*
X118306838Y-67879799D01*
X118306879Y-67832923D01*
X122829802Y-63310000D01*
X123431034Y-63310000D01*
X123430838Y-63535167D01*
X123572883Y-63878943D01*
X123835673Y-64142192D01*
X124179201Y-64284838D01*
X124551167Y-64285162D01*
X124762560Y-64197816D01*
X124762560Y-64425000D01*
X124786944Y-64554589D01*
X124762560Y-64675000D01*
X124762560Y-65225000D01*
X124786944Y-65354589D01*
X124762560Y-65475000D01*
X124762560Y-66025000D01*
X124786944Y-66154589D01*
X124762560Y-66275000D01*
X124762560Y-66825000D01*
X124786944Y-66954589D01*
X124762560Y-67075000D01*
X124762560Y-67468967D01*
X124670298Y-67530614D01*
X124547650Y-67612548D01*
X121363649Y-70795948D01*
X121363628Y-70795980D01*
X121363599Y-70795999D01*
X121283394Y-70916035D01*
X121198880Y-71042494D01*
X121198873Y-71042530D01*
X121198852Y-71042561D01*
X121169590Y-71189671D01*
X121141000Y-71333328D01*
X121141007Y-71333364D01*
X121141000Y-71333400D01*
X121141000Y-78124337D01*
X121108808Y-78156473D01*
X120966162Y-78500001D01*
X120965838Y-78871967D01*
X121107883Y-79215743D01*
X121370673Y-79478992D01*
X121714201Y-79621638D01*
X122086167Y-79621962D01*
X122429943Y-79479917D01*
X122693192Y-79217127D01*
X122835838Y-78873599D01*
X122836162Y-78501633D01*
X122694117Y-78157857D01*
X122661000Y-78124682D01*
X122661000Y-71648245D01*
X125266380Y-69043356D01*
X125410000Y-69072440D01*
X126737560Y-69072440D01*
X126737560Y-70400000D01*
X126764958Y-70545606D01*
X124450549Y-72860449D01*
X124367789Y-72984334D01*
X124285852Y-73106961D01*
X124285845Y-73106996D01*
X124285825Y-73107026D01*
X124257113Y-73251441D01*
X124228000Y-73397800D01*
X124228000Y-78124337D01*
X124195808Y-78156473D01*
X124053162Y-78500001D01*
X124052838Y-78871967D01*
X124194883Y-79215743D01*
X124457673Y-79478992D01*
X124801201Y-79621638D01*
X125173167Y-79621962D01*
X125516943Y-79479917D01*
X125780192Y-79217127D01*
X125922838Y-78873599D01*
X125923162Y-78501633D01*
X125781117Y-78157857D01*
X125748000Y-78124682D01*
X125748000Y-73712560D01*
X127700000Y-71760195D01*
X127700000Y-77271838D01*
X127220248Y-77751678D01*
X127174833Y-77751638D01*
X126831057Y-77893683D01*
X126567808Y-78156473D01*
X126425162Y-78500001D01*
X126424838Y-78871967D01*
X126566883Y-79215743D01*
X126829673Y-79478992D01*
X127173201Y-79621638D01*
X127545167Y-79621962D01*
X127888943Y-79479917D01*
X128152192Y-79217127D01*
X128294838Y-78873599D01*
X128294879Y-78826651D01*
X128997450Y-78123953D01*
X129081888Y-77997557D01*
X129162148Y-77877439D01*
X129162155Y-77877405D01*
X129162174Y-77877376D01*
X129190814Y-77733326D01*
X129220000Y-77586600D01*
X129220000Y-71842083D01*
X129469673Y-72092192D01*
X129813201Y-72234838D01*
X130185167Y-72235162D01*
X130528943Y-72093117D01*
X130792192Y-71830327D01*
X130934838Y-71486799D01*
X130934839Y-71485300D01*
X131270000Y-71485300D01*
X131270000Y-72541541D01*
X131121057Y-72603083D01*
X130857808Y-72865873D01*
X130715162Y-73209401D01*
X130714838Y-73581367D01*
X130856883Y-73925143D01*
X131119673Y-74188392D01*
X131463201Y-74331038D01*
X131631373Y-74331184D01*
X131637970Y-74337772D01*
X131761328Y-74420074D01*
X131870000Y-74492686D01*
X131896838Y-74635317D01*
X132035910Y-74851441D01*
X132248110Y-74996431D01*
X132500000Y-75047440D01*
X133900000Y-75047440D01*
X134135317Y-75003162D01*
X134301477Y-74896241D01*
X134448110Y-74996431D01*
X134700000Y-75047440D01*
X136100000Y-75047440D01*
X136335317Y-75003162D01*
X136551441Y-74864090D01*
X136696431Y-74651890D01*
X136747440Y-74400000D01*
X136747440Y-73993645D01*
X136984673Y-74231292D01*
X137328201Y-74373938D01*
X137700167Y-74374262D01*
X138043943Y-74232217D01*
X138307192Y-73969427D01*
X138353602Y-73857660D01*
X143365878Y-78869699D01*
X143365838Y-78915167D01*
X143507883Y-79258943D01*
X143770673Y-79522192D01*
X144114201Y-79664838D01*
X144486167Y-79665162D01*
X144829943Y-79523117D01*
X145093192Y-79260327D01*
X145235838Y-78916799D01*
X145236162Y-78544833D01*
X145094117Y-78201057D01*
X144831327Y-77937808D01*
X144487799Y-77795162D01*
X144440904Y-77795121D01*
X142875710Y-76230000D01*
X144432560Y-76230000D01*
X144432560Y-77230000D01*
X144476838Y-77465317D01*
X144615910Y-77681441D01*
X144828110Y-77826431D01*
X145080000Y-77877440D01*
X147830000Y-77877440D01*
X148065317Y-77833162D01*
X148281441Y-77694090D01*
X148420890Y-77490000D01*
X148873000Y-77490000D01*
X148873079Y-77489984D01*
X148873158Y-77490000D01*
X149017355Y-77461286D01*
X149163839Y-77432148D01*
X149163907Y-77432103D01*
X149163985Y-77432087D01*
X149287909Y-77349247D01*
X149410401Y-77267401D01*
X149410445Y-77267336D01*
X149410513Y-77267290D01*
X149494845Y-77182923D01*
X149540167Y-77182962D01*
X149782658Y-77082767D01*
X149968045Y-77267847D01*
X150091442Y-77350150D01*
X150214161Y-77432148D01*
X150214475Y-77432211D01*
X150214743Y-77432389D01*
X150220871Y-77433603D01*
X150226838Y-77465317D01*
X150365910Y-77681441D01*
X150578110Y-77826431D01*
X150830000Y-77877440D01*
X153580000Y-77877440D01*
X153815317Y-77833162D01*
X154031441Y-77694090D01*
X154176431Y-77481890D01*
X154227440Y-77230000D01*
X154227440Y-76230000D01*
X154183162Y-75994683D01*
X154044090Y-75778559D01*
X153831890Y-75633569D01*
X153580000Y-75582560D01*
X150830000Y-75582560D01*
X150594683Y-75626838D01*
X150513074Y-75679352D01*
X150435697Y-75627743D01*
X150312839Y-75545652D01*
X150312525Y-75545589D01*
X150312257Y-75545411D01*
X150166862Y-75516615D01*
X150022000Y-75487800D01*
X149917463Y-75487800D01*
X149885327Y-75455608D01*
X149541799Y-75312962D01*
X149169833Y-75312638D01*
X148826057Y-75454683D01*
X148562808Y-75717473D01*
X148457949Y-75970000D01*
X148417279Y-75970000D01*
X148294090Y-75778559D01*
X148081890Y-75633569D01*
X147830000Y-75582560D01*
X145080000Y-75582560D01*
X144844683Y-75626838D01*
X144628559Y-75765910D01*
X144483569Y-75978110D01*
X144432560Y-76230000D01*
X142875710Y-76230000D01*
X136595000Y-69949587D01*
X136595000Y-68150000D01*
X136587043Y-68110000D01*
X146735198Y-68110000D01*
X155164878Y-76539680D01*
X155164838Y-76585167D01*
X155306883Y-76928943D01*
X155569673Y-77192192D01*
X155913201Y-77334838D01*
X156285167Y-77335162D01*
X156628943Y-77193117D01*
X156892192Y-76930327D01*
X157034838Y-76586799D01*
X157035148Y-76230000D01*
X158432560Y-76230000D01*
X158432560Y-77230000D01*
X158476838Y-77465317D01*
X158615910Y-77681441D01*
X158828110Y-77826431D01*
X159080000Y-77877440D01*
X161830000Y-77877440D01*
X162065317Y-77833162D01*
X162281441Y-77694090D01*
X162420890Y-77490000D01*
X163270000Y-77490000D01*
X163270079Y-77489984D01*
X163270158Y-77490000D01*
X163414355Y-77461286D01*
X163560839Y-77432148D01*
X163560907Y-77432103D01*
X163560985Y-77432087D01*
X163684909Y-77349247D01*
X163807401Y-77267401D01*
X163807445Y-77267336D01*
X163807513Y-77267290D01*
X163887417Y-77187353D01*
X163968045Y-77267847D01*
X164091442Y-77350150D01*
X164214161Y-77432148D01*
X164214475Y-77432211D01*
X164214743Y-77432389D01*
X164220871Y-77433603D01*
X164226838Y-77465317D01*
X164365910Y-77681441D01*
X164578110Y-77826431D01*
X164830000Y-77877440D01*
X167580000Y-77877440D01*
X167815317Y-77833162D01*
X168031441Y-77694090D01*
X168176431Y-77481890D01*
X168227440Y-77230000D01*
X168227440Y-76230000D01*
X168183162Y-75994683D01*
X168044090Y-75778559D01*
X167831890Y-75633569D01*
X167580000Y-75582560D01*
X164830000Y-75582560D01*
X164594683Y-75626838D01*
X164513074Y-75679352D01*
X164490950Y-75664596D01*
X164282327Y-75455608D01*
X163938799Y-75312962D01*
X163566833Y-75312638D01*
X163223057Y-75454683D01*
X162959808Y-75717473D01*
X162854949Y-75970000D01*
X162417279Y-75970000D01*
X162294090Y-75778559D01*
X162081890Y-75633569D01*
X161830000Y-75582560D01*
X159080000Y-75582560D01*
X158844683Y-75626838D01*
X158628559Y-75765910D01*
X158483569Y-75978110D01*
X158432560Y-76230000D01*
X157035148Y-76230000D01*
X157035162Y-76214833D01*
X156893117Y-75871057D01*
X156630327Y-75607808D01*
X156286799Y-75465162D01*
X156239923Y-75465121D01*
X148084802Y-67310000D01*
X160235198Y-67310000D01*
X169164878Y-76239680D01*
X169164838Y-76285167D01*
X169306883Y-76628943D01*
X169569673Y-76892192D01*
X169913201Y-77034838D01*
X170285167Y-77035162D01*
X170628943Y-76893117D01*
X170892192Y-76630327D01*
X171034838Y-76286799D01*
X171034887Y-76230000D01*
X172432560Y-76230000D01*
X172432560Y-77230000D01*
X172476838Y-77465317D01*
X172615910Y-77681441D01*
X172828110Y-77826431D01*
X173080000Y-77877440D01*
X175830000Y-77877440D01*
X176065317Y-77833162D01*
X176281441Y-77694090D01*
X176420890Y-77490000D01*
X177365124Y-77490000D01*
X177618673Y-77743992D01*
X177962201Y-77886638D01*
X178334167Y-77886962D01*
X178541388Y-77801340D01*
X178578110Y-77826431D01*
X178830000Y-77877440D01*
X181580000Y-77877440D01*
X181815317Y-77833162D01*
X182031441Y-77694090D01*
X182176431Y-77481890D01*
X182227440Y-77230000D01*
X182227440Y-76230000D01*
X182183162Y-75994683D01*
X182044090Y-75778559D01*
X181831890Y-75633569D01*
X181580000Y-75582560D01*
X178830000Y-75582560D01*
X178594683Y-75626838D01*
X178378559Y-75765910D01*
X178233569Y-75978110D01*
X178225721Y-76016866D01*
X178162546Y-76016811D01*
X178071968Y-75998836D01*
X177927000Y-75970000D01*
X176417279Y-75970000D01*
X176294090Y-75778559D01*
X176081890Y-75633569D01*
X175830000Y-75582560D01*
X173080000Y-75582560D01*
X172844683Y-75626838D01*
X172628559Y-75765910D01*
X172483569Y-75978110D01*
X172432560Y-76230000D01*
X171034887Y-76230000D01*
X171035162Y-75914833D01*
X170893117Y-75571057D01*
X170630327Y-75307808D01*
X170286799Y-75165162D01*
X170239923Y-75165121D01*
X161087401Y-66012599D01*
X160840839Y-65847852D01*
X160779158Y-65835583D01*
X161002943Y-65743117D01*
X161266192Y-65480327D01*
X161408838Y-65136799D01*
X161409162Y-64764833D01*
X161267117Y-64421057D01*
X161004327Y-64157808D01*
X160889193Y-64110000D01*
X165319120Y-64110000D01*
X165861878Y-64652944D01*
X165861838Y-64698567D01*
X166003883Y-65042343D01*
X166266673Y-65305592D01*
X166610201Y-65448238D01*
X166982167Y-65448562D01*
X167325943Y-65306517D01*
X167589192Y-65043727D01*
X167731838Y-64700199D01*
X167732162Y-64328233D01*
X167590117Y-63984457D01*
X167327327Y-63721208D01*
X166983799Y-63578562D01*
X166937060Y-63578521D01*
X166668632Y-63310000D01*
X180486198Y-63310000D01*
X182873599Y-65697401D01*
X183120160Y-65862148D01*
X183295369Y-65896999D01*
X183510971Y-66219670D01*
X183997152Y-66544526D01*
X184570641Y-66658600D01*
X184629359Y-66658600D01*
X185202848Y-66544526D01*
X185689029Y-66219670D01*
X185869992Y-65948839D01*
X186251510Y-66366821D01*
X186780973Y-66614968D01*
X187013000Y-66494469D01*
X187013000Y-65287000D01*
X186993000Y-65287000D01*
X186993000Y-65033000D01*
X187013000Y-65033000D01*
X187013000Y-62747000D01*
X186993000Y-62747000D01*
X186993000Y-62493000D01*
X187013000Y-62493000D01*
X187013000Y-60207000D01*
X186993000Y-60207000D01*
X186993000Y-59953000D01*
X187013000Y-59953000D01*
X187013000Y-57667000D01*
X186993000Y-57667000D01*
X186993000Y-57413000D01*
X187013000Y-57413000D01*
X187013000Y-57393000D01*
X187267000Y-57393000D01*
X187267000Y-57413000D01*
X187287000Y-57413000D01*
X187287000Y-57667000D01*
X187267000Y-57667000D01*
X187267000Y-59953000D01*
X187287000Y-59953000D01*
X187287000Y-60207000D01*
X187267000Y-60207000D01*
X187267000Y-62493000D01*
X187287000Y-62493000D01*
X187287000Y-62747000D01*
X187267000Y-62747000D01*
X187267000Y-65033000D01*
X187287000Y-65033000D01*
X187287000Y-65287000D01*
X187267000Y-65287000D01*
X187267000Y-66494469D01*
X187499027Y-66614968D01*
X188028490Y-66366821D01*
X188422688Y-65934947D01*
X188490000Y-65772432D01*
X188490000Y-83173000D01*
X186638652Y-83173000D01*
X186620033Y-83160559D01*
X185680000Y-82973575D01*
X184739967Y-83160559D01*
X184721348Y-83173000D01*
X183600000Y-83173000D01*
X183550590Y-83183006D01*
X183508965Y-83211447D01*
X183481685Y-83253841D01*
X183473000Y-83300000D01*
X183473000Y-84396517D01*
X183410559Y-84489967D01*
X183223575Y-85430000D01*
X183410559Y-86370033D01*
X183473000Y-86463483D01*
X183473000Y-88270000D01*
X109327000Y-88270000D01*
X109327000Y-86478381D01*
X109419441Y-86340033D01*
X109606425Y-85400000D01*
X109419441Y-84459967D01*
X109327000Y-84321619D01*
X109327000Y-83300000D01*
X109316994Y-83250590D01*
X109288553Y-83208965D01*
X109246159Y-83181685D01*
X109200000Y-83173000D01*
X108153550Y-83173000D01*
X108090033Y-83130559D01*
X107150000Y-82943575D01*
X106209967Y-83130559D01*
X106146450Y-83173000D01*
X104310000Y-83173000D01*
X104310000Y-80755750D01*
X106895000Y-80755750D01*
X106895000Y-81096310D01*
X106991673Y-81329699D01*
X107170302Y-81508327D01*
X107403691Y-81605000D01*
X108619250Y-81605000D01*
X108778000Y-81446250D01*
X108778000Y-80597000D01*
X109032000Y-80597000D01*
X109032000Y-81446250D01*
X109190750Y-81605000D01*
X110406309Y-81605000D01*
X110639698Y-81508327D01*
X110818327Y-81329699D01*
X110915000Y-81096310D01*
X110915000Y-80755750D01*
X112645000Y-80755750D01*
X112645000Y-81096310D01*
X112741673Y-81329699D01*
X112920302Y-81508327D01*
X113153691Y-81605000D01*
X114369250Y-81605000D01*
X114528000Y-81446250D01*
X114528000Y-80597000D01*
X114782000Y-80597000D01*
X114782000Y-81446250D01*
X114940750Y-81605000D01*
X116156309Y-81605000D01*
X116389698Y-81508327D01*
X116568327Y-81329699D01*
X116665000Y-81096310D01*
X116665000Y-81015750D01*
X144445000Y-81015750D01*
X144445000Y-81356310D01*
X144541673Y-81589699D01*
X144720302Y-81768327D01*
X144953691Y-81865000D01*
X146169250Y-81865000D01*
X146328000Y-81706250D01*
X146328000Y-80857000D01*
X146582000Y-80857000D01*
X146582000Y-81706250D01*
X146740750Y-81865000D01*
X147956309Y-81865000D01*
X148189698Y-81768327D01*
X148368327Y-81589699D01*
X148465000Y-81356310D01*
X148465000Y-81015750D01*
X150195000Y-81015750D01*
X150195000Y-81356310D01*
X150291673Y-81589699D01*
X150470302Y-81768327D01*
X150703691Y-81865000D01*
X151919250Y-81865000D01*
X152078000Y-81706250D01*
X152078000Y-80857000D01*
X152332000Y-80857000D01*
X152332000Y-81706250D01*
X152490750Y-81865000D01*
X153706309Y-81865000D01*
X153939698Y-81768327D01*
X154118327Y-81589699D01*
X154215000Y-81356310D01*
X154215000Y-81015750D01*
X158445000Y-81015750D01*
X158445000Y-81356310D01*
X158541673Y-81589699D01*
X158720302Y-81768327D01*
X158953691Y-81865000D01*
X160169250Y-81865000D01*
X160328000Y-81706250D01*
X160328000Y-80857000D01*
X160582000Y-80857000D01*
X160582000Y-81706250D01*
X160740750Y-81865000D01*
X161956309Y-81865000D01*
X162189698Y-81768327D01*
X162368327Y-81589699D01*
X162465000Y-81356310D01*
X162465000Y-81015750D01*
X164195000Y-81015750D01*
X164195000Y-81356310D01*
X164291673Y-81589699D01*
X164470302Y-81768327D01*
X164703691Y-81865000D01*
X165919250Y-81865000D01*
X166078000Y-81706250D01*
X166078000Y-80857000D01*
X166332000Y-80857000D01*
X166332000Y-81706250D01*
X166490750Y-81865000D01*
X167706309Y-81865000D01*
X167939698Y-81768327D01*
X168118327Y-81589699D01*
X168215000Y-81356310D01*
X168215000Y-81015750D01*
X172445000Y-81015750D01*
X172445000Y-81356310D01*
X172541673Y-81589699D01*
X172720302Y-81768327D01*
X172953691Y-81865000D01*
X174169250Y-81865000D01*
X174328000Y-81706250D01*
X174328000Y-80857000D01*
X174582000Y-80857000D01*
X174582000Y-81706250D01*
X174740750Y-81865000D01*
X175956309Y-81865000D01*
X176189698Y-81768327D01*
X176368327Y-81589699D01*
X176465000Y-81356310D01*
X176465000Y-81015750D01*
X178195000Y-81015750D01*
X178195000Y-81356310D01*
X178291673Y-81589699D01*
X178470302Y-81768327D01*
X178703691Y-81865000D01*
X179919250Y-81865000D01*
X180078000Y-81706250D01*
X180078000Y-80857000D01*
X180332000Y-80857000D01*
X180332000Y-81706250D01*
X180490750Y-81865000D01*
X181706309Y-81865000D01*
X181939698Y-81768327D01*
X182118327Y-81589699D01*
X182215000Y-81356310D01*
X182215000Y-81015750D01*
X182056250Y-80857000D01*
X180332000Y-80857000D01*
X180078000Y-80857000D01*
X178353750Y-80857000D01*
X178195000Y-81015750D01*
X176465000Y-81015750D01*
X176306250Y-80857000D01*
X174582000Y-80857000D01*
X174328000Y-80857000D01*
X172603750Y-80857000D01*
X172445000Y-81015750D01*
X168215000Y-81015750D01*
X168056250Y-80857000D01*
X166332000Y-80857000D01*
X166078000Y-80857000D01*
X164353750Y-80857000D01*
X164195000Y-81015750D01*
X162465000Y-81015750D01*
X162306250Y-80857000D01*
X160582000Y-80857000D01*
X160328000Y-80857000D01*
X158603750Y-80857000D01*
X158445000Y-81015750D01*
X154215000Y-81015750D01*
X154056250Y-80857000D01*
X152332000Y-80857000D01*
X152078000Y-80857000D01*
X150353750Y-80857000D01*
X150195000Y-81015750D01*
X148465000Y-81015750D01*
X148306250Y-80857000D01*
X146582000Y-80857000D01*
X146328000Y-80857000D01*
X144603750Y-80857000D01*
X144445000Y-81015750D01*
X116665000Y-81015750D01*
X116665000Y-80755750D01*
X116506250Y-80597000D01*
X114782000Y-80597000D01*
X114528000Y-80597000D01*
X112803750Y-80597000D01*
X112645000Y-80755750D01*
X110915000Y-80755750D01*
X110756250Y-80597000D01*
X109032000Y-80597000D01*
X108778000Y-80597000D01*
X107053750Y-80597000D01*
X106895000Y-80755750D01*
X104310000Y-80755750D01*
X104310000Y-79843690D01*
X106895000Y-79843690D01*
X106895000Y-80184250D01*
X107053750Y-80343000D01*
X108778000Y-80343000D01*
X108778000Y-79493750D01*
X109032000Y-79493750D01*
X109032000Y-80343000D01*
X110756250Y-80343000D01*
X110915000Y-80184250D01*
X110915000Y-79843690D01*
X112645000Y-79843690D01*
X112645000Y-80184250D01*
X112803750Y-80343000D01*
X114528000Y-80343000D01*
X114528000Y-79493750D01*
X114782000Y-79493750D01*
X114782000Y-80343000D01*
X116506250Y-80343000D01*
X116665000Y-80184250D01*
X116665000Y-80103690D01*
X144445000Y-80103690D01*
X144445000Y-80444250D01*
X144603750Y-80603000D01*
X146328000Y-80603000D01*
X146328000Y-79753750D01*
X146582000Y-79753750D01*
X146582000Y-80603000D01*
X148306250Y-80603000D01*
X148465000Y-80444250D01*
X148465000Y-80103690D01*
X150195000Y-80103690D01*
X150195000Y-80444250D01*
X150353750Y-80603000D01*
X152078000Y-80603000D01*
X152078000Y-79753750D01*
X152332000Y-79753750D01*
X152332000Y-80603000D01*
X154056250Y-80603000D01*
X154215000Y-80444250D01*
X154215000Y-80103690D01*
X158445000Y-80103690D01*
X158445000Y-80444250D01*
X158603750Y-80603000D01*
X160328000Y-80603000D01*
X160328000Y-79753750D01*
X160582000Y-79753750D01*
X160582000Y-80603000D01*
X162306250Y-80603000D01*
X162465000Y-80444250D01*
X162465000Y-80103690D01*
X164195000Y-80103690D01*
X164195000Y-80444250D01*
X164353750Y-80603000D01*
X166078000Y-80603000D01*
X166078000Y-79753750D01*
X166332000Y-79753750D01*
X166332000Y-80603000D01*
X168056250Y-80603000D01*
X168215000Y-80444250D01*
X168215000Y-80103690D01*
X172445000Y-80103690D01*
X172445000Y-80444250D01*
X172603750Y-80603000D01*
X174328000Y-80603000D01*
X174328000Y-79753750D01*
X174582000Y-79753750D01*
X174582000Y-80603000D01*
X176306250Y-80603000D01*
X176465000Y-80444250D01*
X176465000Y-80103690D01*
X178195000Y-80103690D01*
X178195000Y-80444250D01*
X178353750Y-80603000D01*
X180078000Y-80603000D01*
X180078000Y-79753750D01*
X180332000Y-79753750D01*
X180332000Y-80603000D01*
X182056250Y-80603000D01*
X182215000Y-80444250D01*
X182215000Y-80103690D01*
X182118327Y-79870301D01*
X181939698Y-79691673D01*
X181706309Y-79595000D01*
X180490750Y-79595000D01*
X180332000Y-79753750D01*
X180078000Y-79753750D01*
X179919250Y-79595000D01*
X178703691Y-79595000D01*
X178470302Y-79691673D01*
X178291673Y-79870301D01*
X178195000Y-80103690D01*
X176465000Y-80103690D01*
X176368327Y-79870301D01*
X176189698Y-79691673D01*
X175956309Y-79595000D01*
X174740750Y-79595000D01*
X174582000Y-79753750D01*
X174328000Y-79753750D01*
X174169250Y-79595000D01*
X172953691Y-79595000D01*
X172720302Y-79691673D01*
X172541673Y-79870301D01*
X172445000Y-80103690D01*
X168215000Y-80103690D01*
X168118327Y-79870301D01*
X167939698Y-79691673D01*
X167706309Y-79595000D01*
X166490750Y-79595000D01*
X166332000Y-79753750D01*
X166078000Y-79753750D01*
X165919250Y-79595000D01*
X164703691Y-79595000D01*
X164470302Y-79691673D01*
X164291673Y-79870301D01*
X164195000Y-80103690D01*
X162465000Y-80103690D01*
X162368327Y-79870301D01*
X162189698Y-79691673D01*
X161956309Y-79595000D01*
X160740750Y-79595000D01*
X160582000Y-79753750D01*
X160328000Y-79753750D01*
X160169250Y-79595000D01*
X158953691Y-79595000D01*
X158720302Y-79691673D01*
X158541673Y-79870301D01*
X158445000Y-80103690D01*
X154215000Y-80103690D01*
X154118327Y-79870301D01*
X153939698Y-79691673D01*
X153706309Y-79595000D01*
X152490750Y-79595000D01*
X152332000Y-79753750D01*
X152078000Y-79753750D01*
X151919250Y-79595000D01*
X150703691Y-79595000D01*
X150470302Y-79691673D01*
X150291673Y-79870301D01*
X150195000Y-80103690D01*
X148465000Y-80103690D01*
X148368327Y-79870301D01*
X148189698Y-79691673D01*
X147956309Y-79595000D01*
X146740750Y-79595000D01*
X146582000Y-79753750D01*
X146328000Y-79753750D01*
X146169250Y-79595000D01*
X144953691Y-79595000D01*
X144720302Y-79691673D01*
X144541673Y-79870301D01*
X144445000Y-80103690D01*
X116665000Y-80103690D01*
X116665000Y-79843690D01*
X116568327Y-79610301D01*
X116389698Y-79431673D01*
X116156309Y-79335000D01*
X114940750Y-79335000D01*
X114782000Y-79493750D01*
X114528000Y-79493750D01*
X114369250Y-79335000D01*
X113153691Y-79335000D01*
X112920302Y-79431673D01*
X112741673Y-79610301D01*
X112645000Y-79843690D01*
X110915000Y-79843690D01*
X110818327Y-79610301D01*
X110639698Y-79431673D01*
X110406309Y-79335000D01*
X109190750Y-79335000D01*
X109032000Y-79493750D01*
X108778000Y-79493750D01*
X108619250Y-79335000D01*
X107403691Y-79335000D01*
X107170302Y-79431673D01*
X106991673Y-79610301D01*
X106895000Y-79843690D01*
X104310000Y-79843690D01*
X104310000Y-75970000D01*
X106882560Y-75970000D01*
X106882560Y-76970000D01*
X106926838Y-77205317D01*
X107065910Y-77421441D01*
X107278110Y-77566431D01*
X107530000Y-77617440D01*
X110280000Y-77617440D01*
X110515317Y-77573162D01*
X110731441Y-77434090D01*
X110876431Y-77221890D01*
X110886059Y-77174348D01*
X110894577Y-77172669D01*
X110895156Y-77172284D01*
X110895839Y-77172148D01*
X110980196Y-77115783D01*
X111141201Y-77182638D01*
X111513167Y-77182962D01*
X111856943Y-77040917D01*
X111890118Y-77007800D01*
X112417997Y-77007800D01*
X112418565Y-77008366D01*
X112541603Y-77090257D01*
X112664161Y-77172148D01*
X112664843Y-77172284D01*
X112665422Y-77172669D01*
X112670898Y-77173748D01*
X112676838Y-77205317D01*
X112815910Y-77421441D01*
X113028110Y-77566431D01*
X113280000Y-77617440D01*
X116030000Y-77617440D01*
X116265317Y-77573162D01*
X116481441Y-77434090D01*
X116626431Y-77221890D01*
X116677440Y-76970000D01*
X116677440Y-75970000D01*
X116633162Y-75734683D01*
X116494090Y-75518559D01*
X116281890Y-75373569D01*
X116030000Y-75322560D01*
X113280000Y-75322560D01*
X113044683Y-75366838D01*
X112828559Y-75505910D01*
X112827899Y-75506876D01*
X112732000Y-75487800D01*
X111890463Y-75487800D01*
X111858327Y-75455608D01*
X111514799Y-75312962D01*
X111142833Y-75312638D01*
X110799057Y-75454683D01*
X110750424Y-75503231D01*
X110728143Y-75507663D01*
X110531890Y-75373569D01*
X110280000Y-75322560D01*
X107530000Y-75322560D01*
X107294683Y-75366838D01*
X107078559Y-75505910D01*
X106933569Y-75718110D01*
X106882560Y-75970000D01*
X104310000Y-75970000D01*
X104310000Y-69955750D01*
X106865000Y-69955750D01*
X106865000Y-70296310D01*
X106961673Y-70529699D01*
X107140302Y-70708327D01*
X107373691Y-70805000D01*
X108589250Y-70805000D01*
X108748000Y-70646250D01*
X108748000Y-69797000D01*
X109002000Y-69797000D01*
X109002000Y-70646250D01*
X109160750Y-70805000D01*
X110376309Y-70805000D01*
X110609698Y-70708327D01*
X110788327Y-70529699D01*
X110885000Y-70296310D01*
X110885000Y-69955750D01*
X112615000Y-69955750D01*
X112615000Y-70296310D01*
X112711673Y-70529699D01*
X112890302Y-70708327D01*
X113123691Y-70805000D01*
X114339250Y-70805000D01*
X114498000Y-70646250D01*
X114498000Y-69797000D01*
X114752000Y-69797000D01*
X114752000Y-70646250D01*
X114910750Y-70805000D01*
X116126309Y-70805000D01*
X116359698Y-70708327D01*
X116538327Y-70529699D01*
X116635000Y-70296310D01*
X116635000Y-69955750D01*
X116476250Y-69797000D01*
X114752000Y-69797000D01*
X114498000Y-69797000D01*
X112773750Y-69797000D01*
X112615000Y-69955750D01*
X110885000Y-69955750D01*
X110726250Y-69797000D01*
X109002000Y-69797000D01*
X108748000Y-69797000D01*
X107023750Y-69797000D01*
X106865000Y-69955750D01*
X104310000Y-69955750D01*
X104310000Y-69043690D01*
X106865000Y-69043690D01*
X106865000Y-69384250D01*
X107023750Y-69543000D01*
X108748000Y-69543000D01*
X108748000Y-68693750D01*
X109002000Y-68693750D01*
X109002000Y-69543000D01*
X110726250Y-69543000D01*
X110885000Y-69384250D01*
X110885000Y-69043690D01*
X112615000Y-69043690D01*
X112615000Y-69384250D01*
X112773750Y-69543000D01*
X114498000Y-69543000D01*
X114498000Y-68693750D01*
X114752000Y-68693750D01*
X114752000Y-69543000D01*
X116476250Y-69543000D01*
X116635000Y-69384250D01*
X116635000Y-69043690D01*
X116538327Y-68810301D01*
X116359698Y-68631673D01*
X116126309Y-68535000D01*
X114910750Y-68535000D01*
X114752000Y-68693750D01*
X114498000Y-68693750D01*
X114339250Y-68535000D01*
X113123691Y-68535000D01*
X112890302Y-68631673D01*
X112711673Y-68810301D01*
X112615000Y-69043690D01*
X110885000Y-69043690D01*
X110788327Y-68810301D01*
X110609698Y-68631673D01*
X110376309Y-68535000D01*
X109160750Y-68535000D01*
X109002000Y-68693750D01*
X108748000Y-68693750D01*
X108589250Y-68535000D01*
X107373691Y-68535000D01*
X107140302Y-68631673D01*
X106961673Y-68810301D01*
X106865000Y-69043690D01*
X104310000Y-69043690D01*
X104310000Y-65170000D01*
X106852560Y-65170000D01*
X106852560Y-66170000D01*
X106896838Y-66405317D01*
X107035910Y-66621441D01*
X107248110Y-66766431D01*
X107500000Y-66817440D01*
X110250000Y-66817440D01*
X110485317Y-66773162D01*
X110701441Y-66634090D01*
X110846431Y-66421890D01*
X110856074Y-66374270D01*
X110864948Y-66372517D01*
X110865358Y-66372244D01*
X110865839Y-66372148D01*
X110988527Y-66290171D01*
X111017654Y-66270762D01*
X111159201Y-66329538D01*
X111531167Y-66329862D01*
X111874943Y-66187817D01*
X111908118Y-66154700D01*
X112334762Y-66154700D01*
X112388281Y-66208083D01*
X112511383Y-66290111D01*
X112634161Y-66372148D01*
X112634644Y-66372244D01*
X112635052Y-66372516D01*
X112640883Y-66373668D01*
X112646838Y-66405317D01*
X112785910Y-66621441D01*
X112998110Y-66766431D01*
X113250000Y-66817440D01*
X116000000Y-66817440D01*
X116235317Y-66773162D01*
X116451441Y-66634090D01*
X116596431Y-66421890D01*
X116647440Y-66170000D01*
X116647440Y-65170000D01*
X116603162Y-64934683D01*
X116464090Y-64718559D01*
X116251890Y-64573569D01*
X116000000Y-64522560D01*
X113250000Y-64522560D01*
X113014683Y-64566838D01*
X112847861Y-64674185D01*
X112793939Y-64663531D01*
X112649000Y-64634700D01*
X111908463Y-64634700D01*
X111876327Y-64602508D01*
X111532799Y-64459862D01*
X111160833Y-64459538D01*
X110817057Y-64601583D01*
X110767180Y-64651373D01*
X110705680Y-64663606D01*
X110649818Y-64674644D01*
X110501890Y-64573569D01*
X110250000Y-64522560D01*
X107500000Y-64522560D01*
X107264683Y-64566838D01*
X107048559Y-64705910D01*
X106903569Y-64918110D01*
X106852560Y-65170000D01*
X104310000Y-65170000D01*
X104310000Y-59395750D01*
X106865000Y-59395750D01*
X106865000Y-59736310D01*
X106961673Y-59969699D01*
X107140302Y-60148327D01*
X107373691Y-60245000D01*
X108589250Y-60245000D01*
X108748000Y-60086250D01*
X108748000Y-59237000D01*
X109002000Y-59237000D01*
X109002000Y-60086250D01*
X109160750Y-60245000D01*
X110376309Y-60245000D01*
X110609698Y-60148327D01*
X110788327Y-59969699D01*
X110885000Y-59736310D01*
X110885000Y-59395750D01*
X112615000Y-59395750D01*
X112615000Y-59736310D01*
X112711673Y-59969699D01*
X112890302Y-60148327D01*
X113123691Y-60245000D01*
X114339250Y-60245000D01*
X114498000Y-60086250D01*
X114498000Y-59237000D01*
X114752000Y-59237000D01*
X114752000Y-60086250D01*
X114910750Y-60245000D01*
X116126309Y-60245000D01*
X116359698Y-60148327D01*
X116538327Y-59969699D01*
X116635000Y-59736310D01*
X116635000Y-59395750D01*
X116476250Y-59237000D01*
X114752000Y-59237000D01*
X114498000Y-59237000D01*
X112773750Y-59237000D01*
X112615000Y-59395750D01*
X110885000Y-59395750D01*
X110726250Y-59237000D01*
X109002000Y-59237000D01*
X108748000Y-59237000D01*
X107023750Y-59237000D01*
X106865000Y-59395750D01*
X104310000Y-59395750D01*
X104310000Y-58483690D01*
X106865000Y-58483690D01*
X106865000Y-58824250D01*
X107023750Y-58983000D01*
X108748000Y-58983000D01*
X108748000Y-58133750D01*
X109002000Y-58133750D01*
X109002000Y-58983000D01*
X110726250Y-58983000D01*
X110885000Y-58824250D01*
X110885000Y-58483690D01*
X112615000Y-58483690D01*
X112615000Y-58824250D01*
X112773750Y-58983000D01*
X114498000Y-58983000D01*
X114498000Y-58133750D01*
X114752000Y-58133750D01*
X114752000Y-58983000D01*
X116476250Y-58983000D01*
X116635000Y-58824250D01*
X116635000Y-58483690D01*
X116538327Y-58250301D01*
X116359698Y-58071673D01*
X116126309Y-57975000D01*
X114910750Y-57975000D01*
X114752000Y-58133750D01*
X114498000Y-58133750D01*
X114339250Y-57975000D01*
X113123691Y-57975000D01*
X112890302Y-58071673D01*
X112711673Y-58250301D01*
X112615000Y-58483690D01*
X110885000Y-58483690D01*
X110788327Y-58250301D01*
X110609698Y-58071673D01*
X110376309Y-57975000D01*
X109160750Y-57975000D01*
X109002000Y-58133750D01*
X108748000Y-58133750D01*
X108589250Y-57975000D01*
X107373691Y-57975000D01*
X107140302Y-58071673D01*
X106961673Y-58250301D01*
X106865000Y-58483690D01*
X104310000Y-58483690D01*
X104310000Y-54610000D01*
X106852560Y-54610000D01*
X106852560Y-55610000D01*
X106896838Y-55845317D01*
X107035910Y-56061441D01*
X107248110Y-56206431D01*
X107500000Y-56257440D01*
X110250000Y-56257440D01*
X110485317Y-56213162D01*
X110557040Y-56167010D01*
X110660512Y-56270515D01*
X110660565Y-56270551D01*
X110660599Y-56270601D01*
X110782391Y-56351979D01*
X110907048Y-56435301D01*
X110907109Y-56435313D01*
X110907161Y-56435348D01*
X111056282Y-56465010D01*
X111197878Y-56493199D01*
X111197937Y-56493187D01*
X111198000Y-56493200D01*
X111303537Y-56493200D01*
X111335673Y-56525392D01*
X111679201Y-56668038D01*
X112051167Y-56668362D01*
X112394943Y-56526317D01*
X112459502Y-56461871D01*
X112592839Y-56435348D01*
X112592891Y-56435313D01*
X112592952Y-56435301D01*
X112716149Y-56352955D01*
X112839401Y-56270601D01*
X112839435Y-56270549D01*
X112839487Y-56270515D01*
X112941927Y-56168043D01*
X112998110Y-56206431D01*
X113250000Y-56257440D01*
X116000000Y-56257440D01*
X116235317Y-56213162D01*
X116451441Y-56074090D01*
X116596431Y-55861890D01*
X116647440Y-55610000D01*
X116647440Y-54610000D01*
X116603162Y-54374683D01*
X116464090Y-54158559D01*
X116251890Y-54013569D01*
X116000000Y-53962560D01*
X113250000Y-53962560D01*
X113014683Y-54006838D01*
X112798559Y-54145910D01*
X112653569Y-54358110D01*
X112643888Y-54405917D01*
X112634161Y-54407852D01*
X112634109Y-54407887D01*
X112634048Y-54407899D01*
X112509391Y-54491221D01*
X112387599Y-54572599D01*
X112387565Y-54572649D01*
X112387512Y-54572685D01*
X112129902Y-54830378D01*
X112052799Y-54798362D01*
X111680833Y-54798038D01*
X111438051Y-54898353D01*
X111112487Y-54572685D01*
X111112435Y-54572651D01*
X111112401Y-54572599D01*
X110989149Y-54490245D01*
X110865952Y-54407899D01*
X110865891Y-54407887D01*
X110865839Y-54407852D01*
X110859153Y-54406522D01*
X110853162Y-54374683D01*
X110714090Y-54158559D01*
X110501890Y-54013569D01*
X110250000Y-53962560D01*
X107500000Y-53962560D01*
X107264683Y-54006838D01*
X107048559Y-54145910D01*
X106903569Y-54358110D01*
X106852560Y-54610000D01*
X104310000Y-54610000D01*
X104310000Y-53871750D01*
X127051000Y-53871750D01*
X127051000Y-54220309D01*
X127147673Y-54453698D01*
X127326301Y-54632327D01*
X127559690Y-54729000D01*
X128416250Y-54729000D01*
X128575000Y-54570250D01*
X128575000Y-53713000D01*
X128829000Y-53713000D01*
X128829000Y-54570250D01*
X128987750Y-54729000D01*
X129844310Y-54729000D01*
X130077699Y-54632327D01*
X130256327Y-54453698D01*
X130353000Y-54220309D01*
X130353000Y-53871750D01*
X130194250Y-53713000D01*
X128829000Y-53713000D01*
X128575000Y-53713000D01*
X127209750Y-53713000D01*
X127051000Y-53871750D01*
X104310000Y-53871750D01*
X104310000Y-48855750D01*
X106815000Y-48855750D01*
X106815000Y-49196310D01*
X106911673Y-49429699D01*
X107090302Y-49608327D01*
X107323691Y-49705000D01*
X108539250Y-49705000D01*
X108698000Y-49546250D01*
X108698000Y-48697000D01*
X108952000Y-48697000D01*
X108952000Y-49546250D01*
X109110750Y-49705000D01*
X110326309Y-49705000D01*
X110559698Y-49608327D01*
X110738327Y-49429699D01*
X110835000Y-49196310D01*
X110835000Y-48855750D01*
X112565000Y-48855750D01*
X112565000Y-49196310D01*
X112661673Y-49429699D01*
X112840302Y-49608327D01*
X113073691Y-49705000D01*
X114289250Y-49705000D01*
X114448000Y-49546250D01*
X114448000Y-48697000D01*
X114702000Y-48697000D01*
X114702000Y-49546250D01*
X114860750Y-49705000D01*
X116076309Y-49705000D01*
X116309698Y-49608327D01*
X116446825Y-49471200D01*
X120434560Y-49471200D01*
X120434560Y-53128800D01*
X120478838Y-53364117D01*
X120617910Y-53580241D01*
X120830110Y-53725231D01*
X121082000Y-53776240D01*
X123114000Y-53776240D01*
X123349317Y-53731962D01*
X123565441Y-53592890D01*
X123710431Y-53380690D01*
X123761440Y-53128800D01*
X123761440Y-49471200D01*
X123717162Y-49235883D01*
X123578090Y-49019759D01*
X123365890Y-48874769D01*
X123114000Y-48823760D01*
X121082000Y-48823760D01*
X120846683Y-48868038D01*
X120630559Y-49007110D01*
X120485569Y-49219310D01*
X120434560Y-49471200D01*
X116446825Y-49471200D01*
X116488327Y-49429699D01*
X116585000Y-49196310D01*
X116585000Y-48855750D01*
X116426250Y-48697000D01*
X114702000Y-48697000D01*
X114448000Y-48697000D01*
X112723750Y-48697000D01*
X112565000Y-48855750D01*
X110835000Y-48855750D01*
X110676250Y-48697000D01*
X108952000Y-48697000D01*
X108698000Y-48697000D01*
X106973750Y-48697000D01*
X106815000Y-48855750D01*
X104310000Y-48855750D01*
X104310000Y-47943690D01*
X106815000Y-47943690D01*
X106815000Y-48284250D01*
X106973750Y-48443000D01*
X108698000Y-48443000D01*
X108698000Y-47593750D01*
X108952000Y-47593750D01*
X108952000Y-48443000D01*
X110676250Y-48443000D01*
X110835000Y-48284250D01*
X110835000Y-47943690D01*
X112565000Y-47943690D01*
X112565000Y-48284250D01*
X112723750Y-48443000D01*
X114448000Y-48443000D01*
X114448000Y-47593750D01*
X114702000Y-47593750D01*
X114702000Y-48443000D01*
X116426250Y-48443000D01*
X116585000Y-48284250D01*
X116585000Y-47943690D01*
X116488327Y-47710301D01*
X116309698Y-47531673D01*
X116076309Y-47435000D01*
X114860750Y-47435000D01*
X114702000Y-47593750D01*
X114448000Y-47593750D01*
X114289250Y-47435000D01*
X113073691Y-47435000D01*
X112840302Y-47531673D01*
X112661673Y-47710301D01*
X112565000Y-47943690D01*
X110835000Y-47943690D01*
X110738327Y-47710301D01*
X110559698Y-47531673D01*
X110326309Y-47435000D01*
X109110750Y-47435000D01*
X108952000Y-47593750D01*
X108698000Y-47593750D01*
X108539250Y-47435000D01*
X107323691Y-47435000D01*
X107090302Y-47531673D01*
X106911673Y-47710301D01*
X106815000Y-47943690D01*
X104310000Y-47943690D01*
X104310000Y-44070000D01*
X106802560Y-44070000D01*
X106802560Y-45070000D01*
X106846838Y-45305317D01*
X106985910Y-45521441D01*
X107198110Y-45666431D01*
X107450000Y-45717440D01*
X110200000Y-45717440D01*
X110435317Y-45673162D01*
X110507968Y-45626413D01*
X110523201Y-45632738D01*
X110895167Y-45633062D01*
X111238943Y-45491017D01*
X111272118Y-45457900D01*
X112695022Y-45457900D01*
X112735910Y-45521441D01*
X112948110Y-45666431D01*
X113200000Y-45717440D01*
X115950000Y-45717440D01*
X116185317Y-45673162D01*
X116401441Y-45534090D01*
X116546431Y-45321890D01*
X116597440Y-45070000D01*
X116597440Y-44070000D01*
X116553162Y-43834683D01*
X116414090Y-43618559D01*
X116201890Y-43473569D01*
X115950000Y-43422560D01*
X113200000Y-43422560D01*
X112964683Y-43466838D01*
X112748559Y-43605910D01*
X112603569Y-43818110D01*
X112593900Y-43865859D01*
X112584435Y-43867738D01*
X112584308Y-43867823D01*
X112584161Y-43867852D01*
X112479326Y-43937900D01*
X111272463Y-43937900D01*
X111240327Y-43905708D01*
X110896799Y-43763062D01*
X110756997Y-43762940D01*
X110664090Y-43618559D01*
X110451890Y-43473569D01*
X110200000Y-43422560D01*
X107450000Y-43422560D01*
X107214683Y-43466838D01*
X106998559Y-43605910D01*
X106853569Y-43818110D01*
X106802560Y-44070000D01*
X104310000Y-44070000D01*
X104310000Y-42100580D01*
X119152990Y-42100580D01*
X119152990Y-44599940D01*
X119197268Y-44835257D01*
X119336340Y-45051381D01*
X119548540Y-45196371D01*
X119800430Y-45247380D01*
X121799410Y-45247380D01*
X122034727Y-45203102D01*
X122250851Y-45064030D01*
X122395841Y-44851830D01*
X122446850Y-44599940D01*
X122446850Y-43735070D01*
X122764610Y-43735070D01*
X122764610Y-44726249D01*
X122861283Y-44959638D01*
X123039911Y-45138267D01*
X123273300Y-45234940D01*
X123365955Y-45234940D01*
X123524705Y-45076190D01*
X123524705Y-43576320D01*
X122923360Y-43576320D01*
X122764610Y-43735070D01*
X122446850Y-43735070D01*
X122446850Y-42100580D01*
X122402572Y-41865263D01*
X122263500Y-41649139D01*
X122051300Y-41504149D01*
X121799410Y-41453140D01*
X119800430Y-41453140D01*
X119565113Y-41497418D01*
X119348989Y-41636490D01*
X119203999Y-41848690D01*
X119152990Y-42100580D01*
X104310000Y-42100580D01*
X104310000Y-40827000D01*
X106196450Y-40827000D01*
X106259967Y-40869441D01*
X107200000Y-41056425D01*
X108140033Y-40869441D01*
X108203550Y-40827000D01*
X109300000Y-40827000D01*
X109349410Y-40816994D01*
X109391035Y-40788553D01*
X109418315Y-40746159D01*
X109427000Y-40700000D01*
X109427000Y-39603550D01*
X109469441Y-39540033D01*
X109597596Y-38895750D01*
X112297400Y-38895750D01*
X112297400Y-39853910D01*
X112394073Y-40087299D01*
X112572702Y-40265927D01*
X112806091Y-40362600D01*
X113764250Y-40362600D01*
X113923000Y-40203850D01*
X113923000Y-38737000D01*
X114177000Y-38737000D01*
X114177000Y-40203850D01*
X114335750Y-40362600D01*
X115293909Y-40362600D01*
X115527298Y-40265927D01*
X115705927Y-40087299D01*
X115802600Y-39853910D01*
X115802600Y-38895750D01*
X115643850Y-38737000D01*
X114177000Y-38737000D01*
X113923000Y-38737000D01*
X112456150Y-38737000D01*
X112297400Y-38895750D01*
X109597596Y-38895750D01*
X109656425Y-38600000D01*
X109469441Y-37659967D01*
X109427000Y-37596450D01*
X109427000Y-37366090D01*
X112297400Y-37366090D01*
X112297400Y-38324250D01*
X112456150Y-38483000D01*
X113923000Y-38483000D01*
X113923000Y-37016150D01*
X114177000Y-37016150D01*
X114177000Y-38483000D01*
X115643850Y-38483000D01*
X115802600Y-38324250D01*
X115802600Y-37366090D01*
X115705927Y-37132701D01*
X115527298Y-36954073D01*
X115293909Y-36857400D01*
X114335750Y-36857400D01*
X114177000Y-37016150D01*
X113923000Y-37016150D01*
X113764250Y-36857400D01*
X112806091Y-36857400D01*
X112572702Y-36954073D01*
X112394073Y-37132701D01*
X112297400Y-37366090D01*
X109427000Y-37366090D01*
X109427000Y-36601480D01*
X119152990Y-36601480D01*
X119152990Y-39100840D01*
X119197268Y-39336157D01*
X119336340Y-39552281D01*
X119548540Y-39697271D01*
X119800430Y-39748280D01*
X121799410Y-39748280D01*
X122034727Y-39704002D01*
X122250851Y-39564930D01*
X122395841Y-39352730D01*
X122446850Y-39100840D01*
X122446850Y-36601480D01*
X128053150Y-36601480D01*
X128053150Y-39100840D01*
X128097428Y-39336157D01*
X128236500Y-39552281D01*
X128448700Y-39697271D01*
X128700590Y-39748280D01*
X130699570Y-39748280D01*
X130934887Y-39704002D01*
X131151011Y-39564930D01*
X131296001Y-39352730D01*
X131347010Y-39100840D01*
X131347010Y-36601480D01*
X131302732Y-36366163D01*
X131163660Y-36150039D01*
X130951460Y-36005049D01*
X130699570Y-35954040D01*
X128700590Y-35954040D01*
X128465273Y-35998318D01*
X128249149Y-36137390D01*
X128104159Y-36349590D01*
X128053150Y-36601480D01*
X122446850Y-36601480D01*
X122402572Y-36366163D01*
X122263500Y-36150039D01*
X122051300Y-36005049D01*
X121799410Y-35954040D01*
X119800430Y-35954040D01*
X119565113Y-35998318D01*
X119348989Y-36137390D01*
X119203999Y-36349590D01*
X119152990Y-36601480D01*
X109427000Y-36601480D01*
X109427000Y-35710000D01*
X183473000Y-35710000D01*
X183473000Y-37446517D01*
X183473000Y-37446517D01*
G37*
X183473000Y-37446517D02*
X183410559Y-37539967D01*
X183223575Y-38480000D01*
X183410559Y-39420033D01*
X183473000Y-39513483D01*
X183473000Y-40600000D01*
X183483006Y-40649410D01*
X183511447Y-40691035D01*
X183553841Y-40718315D01*
X183600000Y-40727000D01*
X184706382Y-40727000D01*
X184739967Y-40749441D01*
X185680000Y-40936425D01*
X186620033Y-40749441D01*
X186653618Y-40727000D01*
X188490000Y-40727000D01*
X188490000Y-54330900D01*
X188229029Y-53940330D01*
X187742848Y-53615474D01*
X187169359Y-53501400D01*
X187110641Y-53501400D01*
X186537152Y-53615474D01*
X186071558Y-53926574D01*
X186066762Y-53901083D01*
X185927690Y-53684959D01*
X185715490Y-53539969D01*
X185463600Y-53488960D01*
X185360000Y-53488960D01*
X185360000Y-49300000D01*
X185302148Y-49009161D01*
X185137401Y-48762599D01*
X181960552Y-45585750D01*
X184147400Y-45585750D01*
X184147400Y-46543910D01*
X184244073Y-46777299D01*
X184422702Y-46955927D01*
X184656091Y-47052600D01*
X185614250Y-47052600D01*
X185773000Y-46893850D01*
X185773000Y-45427000D01*
X186027000Y-45427000D01*
X186027000Y-46893850D01*
X186185750Y-47052600D01*
X187143909Y-47052600D01*
X187377298Y-46955927D01*
X187555927Y-46777299D01*
X187652600Y-46543910D01*
X187652600Y-45585750D01*
X187493850Y-45427000D01*
X186027000Y-45427000D01*
X185773000Y-45427000D01*
X184306150Y-45427000D01*
X184147400Y-45585750D01*
X181960552Y-45585750D01*
X180430892Y-44056090D01*
X184147400Y-44056090D01*
X184147400Y-45014250D01*
X184306150Y-45173000D01*
X185773000Y-45173000D01*
X185773000Y-43706150D01*
X186027000Y-43706150D01*
X186027000Y-45173000D01*
X187493850Y-45173000D01*
X187652600Y-45014250D01*
X187652600Y-44056090D01*
X187555927Y-43822701D01*
X187377298Y-43644073D01*
X187143909Y-43547400D01*
X186185750Y-43547400D01*
X186027000Y-43706150D01*
X185773000Y-43706150D01*
X185614250Y-43547400D01*
X184656091Y-43547400D01*
X184422702Y-43644073D01*
X184244073Y-43822701D01*
X184147400Y-44056090D01*
X180430892Y-44056090D01*
X177337401Y-40962599D01*
X177090839Y-40797852D01*
X176800000Y-40740000D01*
X166162463Y-40740000D01*
X166130327Y-40707808D01*
X165786799Y-40565162D01*
X165414833Y-40564838D01*
X165071057Y-40706883D01*
X164807808Y-40969673D01*
X164665162Y-41313201D01*
X164664877Y-41640000D01*
X146000000Y-41640000D01*
X145709161Y-41697852D01*
X145462599Y-41862599D01*
X138735783Y-48589415D01*
X138719162Y-48501083D01*
X138580090Y-48284959D01*
X138367890Y-48139969D01*
X138326561Y-48131600D01*
X138344415Y-48119670D01*
X138669271Y-47633489D01*
X138783345Y-47060000D01*
X138669271Y-46486511D01*
X138344415Y-46000330D01*
X138029634Y-45790000D01*
X138344415Y-45579670D01*
X138669271Y-45093489D01*
X138783345Y-44520000D01*
X138669271Y-43946511D01*
X138344415Y-43460330D01*
X138034931Y-43253539D01*
X138450732Y-42882036D01*
X138704709Y-42354791D01*
X138707358Y-42339026D01*
X138586217Y-42107000D01*
X137227000Y-42107000D01*
X137227000Y-42127000D01*
X136973000Y-42127000D01*
X136973000Y-42107000D01*
X135613783Y-42107000D01*
X135492642Y-42339026D01*
X135495291Y-42354791D01*
X135749268Y-42882036D01*
X136165069Y-43253539D01*
X135855585Y-43460330D01*
X135530729Y-43946511D01*
X135416655Y-44520000D01*
X135530729Y-45093489D01*
X135855585Y-45579670D01*
X136170366Y-45790000D01*
X135855585Y-46000330D01*
X135530729Y-46486511D01*
X135416655Y-47060000D01*
X135530729Y-47633489D01*
X135855585Y-48119670D01*
X135869913Y-48129243D01*
X135848683Y-48133238D01*
X135632559Y-48272310D01*
X135487569Y-48484510D01*
X135436560Y-48736400D01*
X135436560Y-49640000D01*
X130341544Y-49640000D01*
X130365440Y-49522000D01*
X130365440Y-48506000D01*
X130321162Y-48270683D01*
X130223895Y-48119526D01*
X130224088Y-47898348D01*
X130625570Y-48299873D01*
X130625589Y-48299885D01*
X130625599Y-48299901D01*
X130743592Y-48378741D01*
X130872123Y-48464632D01*
X130872143Y-48464636D01*
X130872161Y-48464648D01*
X131021840Y-48494421D01*
X131162960Y-48522500D01*
X131162980Y-48522496D01*
X131163000Y-48522500D01*
X131368537Y-48522500D01*
X131400673Y-48554692D01*
X131744201Y-48697338D01*
X132116167Y-48697662D01*
X132459943Y-48555617D01*
X132723192Y-48292827D01*
X132865838Y-47949299D01*
X132866162Y-47577333D01*
X132724117Y-47233557D01*
X132461327Y-46970308D01*
X132117799Y-46827662D01*
X131745833Y-46827338D01*
X131432242Y-46956911D01*
X129722892Y-45247380D01*
X130699570Y-45247380D01*
X130934887Y-45203102D01*
X131151011Y-45064030D01*
X131296001Y-44851830D01*
X131347010Y-44599940D01*
X131347010Y-42100580D01*
X131302732Y-41865263D01*
X131163660Y-41649139D01*
X131122440Y-41620974D01*
X135492642Y-41620974D01*
X135613783Y-41853000D01*
X136973000Y-41853000D01*
X136973000Y-40639076D01*
X137227000Y-40639076D01*
X137227000Y-41853000D01*
X138586217Y-41853000D01*
X138707358Y-41620974D01*
X138704709Y-41605209D01*
X138450732Y-41077964D01*
X138014320Y-40688046D01*
X137461913Y-40494816D01*
X137227000Y-40639076D01*
X136973000Y-40639076D01*
X136738087Y-40494816D01*
X136185680Y-40688046D01*
X135749268Y-41077964D01*
X135495291Y-41605209D01*
X135492642Y-41620974D01*
X131122440Y-41620974D01*
X130951460Y-41504149D01*
X130699570Y-41453140D01*
X128700590Y-41453140D01*
X128465273Y-41497418D01*
X128249149Y-41636490D01*
X128104159Y-41848690D01*
X128053150Y-42100580D01*
X128053150Y-44165200D01*
X127747830Y-44165200D01*
X127747830Y-42298700D01*
X127703552Y-42063383D01*
X127621345Y-41935630D01*
X127664430Y-41935668D01*
X128063203Y-41770898D01*
X128368566Y-41466067D01*
X128534031Y-41067583D01*
X128534408Y-40636110D01*
X128369638Y-40237337D01*
X128064807Y-39931974D01*
X127666323Y-39766509D01*
X127234850Y-39766132D01*
X126836077Y-39930902D01*
X126530714Y-40235733D01*
X126365249Y-40634217D01*
X126364872Y-41065690D01*
X126529642Y-41464463D01*
X126716114Y-41651260D01*
X126600010Y-41651260D01*
X126444648Y-41680493D01*
X126300290Y-41651260D01*
X125799910Y-41651260D01*
X125644548Y-41680493D01*
X125500190Y-41651260D01*
X124999810Y-41651260D01*
X124844448Y-41680493D01*
X124700090Y-41651260D01*
X124199710Y-41651260D01*
X124059816Y-41677583D01*
X124026300Y-41663700D01*
X123933645Y-41663700D01*
X123788845Y-41808500D01*
X123776802Y-41816249D01*
X123776802Y-41663700D01*
X123771308Y-41663700D01*
X123969286Y-41466067D01*
X124134751Y-41067583D01*
X124135128Y-40636110D01*
X123970358Y-40237337D01*
X123665527Y-39931974D01*
X123267043Y-39766509D01*
X122835570Y-39766132D01*
X122436797Y-39930902D01*
X122131434Y-40235733D01*
X121965969Y-40634217D01*
X121965592Y-41065690D01*
X122130362Y-41464463D01*
X122435193Y-41769826D01*
X122833677Y-41935291D01*
X122864967Y-41935318D01*
X122861283Y-41939002D01*
X122764610Y-42172391D01*
X122764610Y-43163570D01*
X122923360Y-43322320D01*
X123524705Y-43322320D01*
X123524705Y-43302320D01*
X123552270Y-43302320D01*
X123552270Y-44599940D01*
X123596548Y-44835257D01*
X123690000Y-44980486D01*
X123690000Y-45418876D01*
X123166181Y-45942878D01*
X123120833Y-45942838D01*
X122777057Y-46084883D01*
X122513808Y-46347673D01*
X122371162Y-46691201D01*
X122370838Y-47063167D01*
X122512883Y-47406943D01*
X122775673Y-47670192D01*
X123119201Y-47812838D01*
X123491167Y-47813162D01*
X123834943Y-47671117D01*
X124098192Y-47408327D01*
X124240838Y-47064799D01*
X124240879Y-47017784D01*
X124596571Y-46661967D01*
X124706883Y-46928943D01*
X124969673Y-47192192D01*
X125313201Y-47334838D01*
X125685167Y-47335162D01*
X126028943Y-47193117D01*
X126292192Y-46930327D01*
X126434838Y-46586799D01*
X126435162Y-46214833D01*
X126370286Y-46057821D01*
X126706943Y-45918717D01*
X126940868Y-45685200D01*
X128011173Y-45685200D01*
X129388914Y-47063086D01*
X129103833Y-47062838D01*
X128760057Y-47204883D01*
X128726882Y-47238000D01*
X127710000Y-47238000D01*
X127709891Y-47238022D01*
X127709782Y-47238000D01*
X127563790Y-47267083D01*
X127419161Y-47295852D01*
X127419069Y-47295913D01*
X127418960Y-47295935D01*
X127295458Y-47378507D01*
X127172599Y-47460599D01*
X127172537Y-47460691D01*
X127172445Y-47460753D01*
X126823445Y-47809953D01*
X126741270Y-47933013D01*
X126658852Y-48056361D01*
X126658830Y-48056470D01*
X126658769Y-48056562D01*
X126630000Y-48201409D01*
X126601000Y-48347200D01*
X126601000Y-49014000D01*
X126658852Y-49304839D01*
X126823599Y-49551401D01*
X127070161Y-49716148D01*
X127075283Y-49717167D01*
X127082838Y-49757317D01*
X127221910Y-49973441D01*
X127434110Y-50118431D01*
X127622314Y-50156543D01*
X127450683Y-50188838D01*
X127234559Y-50327910D01*
X127089569Y-50540110D01*
X127038560Y-50792000D01*
X127038560Y-51808000D01*
X127082838Y-52043317D01*
X127221910Y-52259441D01*
X127434110Y-52404431D01*
X127624569Y-52443000D01*
X127559690Y-52443000D01*
X127326301Y-52539673D01*
X127147673Y-52718302D01*
X127051000Y-52951691D01*
X127051000Y-53300250D01*
X127209750Y-53459000D01*
X128575000Y-53459000D01*
X128575000Y-53439000D01*
X128829000Y-53439000D01*
X128829000Y-53459000D01*
X130194250Y-53459000D01*
X130353000Y-53300250D01*
X130353000Y-52951691D01*
X130256327Y-52718302D01*
X130077699Y-52539673D01*
X129844310Y-52443000D01*
X129784113Y-52443000D01*
X129953317Y-52411162D01*
X130169441Y-52272090D01*
X130314431Y-52059890D01*
X130365440Y-51808000D01*
X130365440Y-51160000D01*
X135185198Y-51160000D01*
X138464878Y-54439680D01*
X138464838Y-54485167D01*
X138606883Y-54828943D01*
X138869673Y-55092192D01*
X139213201Y-55234838D01*
X139585167Y-55235162D01*
X139928943Y-55093117D01*
X140192192Y-54830327D01*
X140334838Y-54486799D01*
X140335162Y-54114833D01*
X140193117Y-53771057D01*
X139930327Y-53507808D01*
X139586799Y-53365162D01*
X139539923Y-53365121D01*
X137285842Y-51111040D01*
X138116000Y-51111040D01*
X138351317Y-51066762D01*
X138567441Y-50927690D01*
X138712431Y-50715490D01*
X138763440Y-50463600D01*
X138763440Y-50360000D01*
X138800000Y-50360000D01*
X139090839Y-50302148D01*
X139337401Y-50137401D01*
X146314802Y-43160000D01*
X165637537Y-43160000D01*
X165669673Y-43192192D01*
X166013201Y-43334838D01*
X166385167Y-43335162D01*
X166728943Y-43193117D01*
X166992192Y-42930327D01*
X167134838Y-42586799D01*
X167135123Y-42260000D01*
X176485198Y-42260000D01*
X183840000Y-49614802D01*
X183840000Y-53488960D01*
X183736400Y-53488960D01*
X183501083Y-53533238D01*
X183284959Y-53672310D01*
X183139969Y-53884510D01*
X183088960Y-54136400D01*
X183088960Y-55863600D01*
X183133238Y-56098917D01*
X183272310Y-56315041D01*
X183484510Y-56460031D01*
X183528131Y-56468864D01*
X183510971Y-56480330D01*
X183186115Y-56966511D01*
X183072041Y-57540000D01*
X183186115Y-58113489D01*
X183510971Y-58599670D01*
X183825752Y-58810000D01*
X183510971Y-59020330D01*
X183186115Y-59506511D01*
X183072041Y-60080000D01*
X183186115Y-60653489D01*
X183510971Y-61139670D01*
X183825752Y-61350000D01*
X183510971Y-61560330D01*
X183476993Y-61611182D01*
X178201406Y-56335504D01*
X178201403Y-56335502D01*
X178201401Y-56335499D01*
X178048090Y-56233060D01*
X177954845Y-56170755D01*
X177954843Y-56170755D01*
X177954839Y-56170752D01*
X177790601Y-56138083D01*
X177664007Y-56112900D01*
X177664003Y-56112901D01*
X177664000Y-56112900D01*
X166109000Y-56112900D01*
X166109000Y-48783802D01*
X167640000Y-50314802D01*
X167640000Y-50637537D01*
X167607808Y-50669673D01*
X167465162Y-51013201D01*
X167464838Y-51385167D01*
X167606883Y-51728943D01*
X167869673Y-51992192D01*
X168213201Y-52134838D01*
X168585167Y-52135162D01*
X168928943Y-51993117D01*
X169192192Y-51730327D01*
X169334838Y-51386799D01*
X169335162Y-51014833D01*
X169193117Y-50671057D01*
X169160000Y-50637882D01*
X169160000Y-50000000D01*
X169122843Y-49813201D01*
X169102148Y-49709160D01*
X168937401Y-49462599D01*
X167035122Y-47560320D01*
X167035162Y-47514833D01*
X166893117Y-47171057D01*
X166630327Y-46907808D01*
X166286799Y-46765162D01*
X166109000Y-46765007D01*
X166109000Y-46295263D01*
X166141192Y-46263127D01*
X166283838Y-45919599D01*
X166284162Y-45547633D01*
X166142117Y-45203857D01*
X165879327Y-44940608D01*
X165535799Y-44797962D01*
X165163833Y-44797638D01*
X164820057Y-44939683D01*
X164556808Y-45202473D01*
X164414162Y-45546001D01*
X164413838Y-45917967D01*
X164555883Y-46261743D01*
X164589000Y-46294918D01*
X164589000Y-56872900D01*
X164646852Y-57163739D01*
X164811599Y-57410301D01*
X165058161Y-57575048D01*
X165349000Y-57632900D01*
X177349194Y-57632900D01*
X180756235Y-61040000D01*
X134274803Y-61040000D01*
X134182440Y-60947637D01*
X134182440Y-60300000D01*
X134138162Y-60064683D01*
X133999090Y-59848559D01*
X133786890Y-59703569D01*
X133535000Y-59652560D01*
X133324484Y-59652560D01*
X133434838Y-59386799D01*
X133435162Y-59014833D01*
X133340267Y-58785167D01*
X150464838Y-58785167D01*
X150606883Y-59128943D01*
X150869673Y-59392192D01*
X151213201Y-59534838D01*
X151585167Y-59535162D01*
X151928943Y-59393117D01*
X152192192Y-59130327D01*
X152334838Y-58786799D01*
X152334879Y-58739923D01*
X153137401Y-57937401D01*
X153302148Y-57690840D01*
X153360000Y-57400000D01*
X153360000Y-50562463D01*
X153392192Y-50530327D01*
X153534838Y-50186799D01*
X153535162Y-49814833D01*
X153393117Y-49471057D01*
X153130327Y-49207808D01*
X152786799Y-49065162D01*
X152414833Y-49064838D01*
X152071057Y-49206883D01*
X151807808Y-49469673D01*
X151665162Y-49813201D01*
X151664838Y-50185167D01*
X151806883Y-50528943D01*
X151840000Y-50562118D01*
X151840000Y-57085198D01*
X151260320Y-57664878D01*
X151214833Y-57664838D01*
X150871057Y-57806883D01*
X150607808Y-58069673D01*
X150465162Y-58413201D01*
X150464838Y-58785167D01*
X133340267Y-58785167D01*
X133293117Y-58671057D01*
X133030327Y-58407808D01*
X132686799Y-58265162D01*
X132314833Y-58264838D01*
X131971057Y-58406883D01*
X131707808Y-58669673D01*
X131565162Y-59013201D01*
X131564838Y-59385167D01*
X131675322Y-59652560D01*
X131385000Y-59652560D01*
X131255411Y-59676944D01*
X131135000Y-59652560D01*
X130585000Y-59652560D01*
X130479295Y-59672450D01*
X130461310Y-59665000D01*
X130345750Y-59665000D01*
X130249349Y-59761401D01*
X130133559Y-59835910D01*
X130060116Y-59943397D01*
X129999090Y-59848559D01*
X129868755Y-59759505D01*
X129774250Y-59665000D01*
X129658690Y-59665000D01*
X129638247Y-59673468D01*
X129535000Y-59652560D01*
X129141255Y-59652560D01*
X129078783Y-59559096D01*
X128997401Y-59437299D01*
X128997350Y-59437265D01*
X128997314Y-59437211D01*
X128073314Y-58513512D01*
X127950664Y-58431589D01*
X127826839Y-58348852D01*
X127826777Y-58348840D01*
X127826725Y-58348805D01*
X127681726Y-58319987D01*
X127536000Y-58291000D01*
X125359463Y-58291000D01*
X125327327Y-58258808D01*
X124983799Y-58116162D01*
X124611833Y-58115838D01*
X124268057Y-58257883D01*
X124004808Y-58520673D01*
X123862162Y-58864201D01*
X123861857Y-59214700D01*
X118332463Y-59214700D01*
X118300327Y-59182508D01*
X117956799Y-59039862D01*
X117584833Y-59039538D01*
X117241057Y-59181583D01*
X116977808Y-59444373D01*
X116835162Y-59787901D01*
X116834838Y-60159867D01*
X116976883Y-60503643D01*
X117239673Y-60766892D01*
X117583201Y-60909538D01*
X117955167Y-60909862D01*
X118298943Y-60767817D01*
X118332118Y-60734700D01*
X126737560Y-60734700D01*
X126737560Y-61627560D01*
X125410000Y-61627560D01*
X125174683Y-61671838D01*
X124991054Y-61790000D01*
X122515000Y-61790000D01*
X122224160Y-61847852D01*
X121977599Y-62012599D01*
X117232320Y-66757878D01*
X117186833Y-66757838D01*
X116843057Y-66899883D01*
X116579808Y-67162673D01*
X116437162Y-67506201D01*
X116436838Y-67878167D01*
X116578883Y-68221943D01*
X116841673Y-68485192D01*
X117185201Y-68627838D01*
X117557167Y-68628162D01*
X117900943Y-68486117D01*
X118164192Y-68223327D01*
X118306838Y-67879799D01*
X118306879Y-67832923D01*
X122829802Y-63310000D01*
X123431034Y-63310000D01*
X123430838Y-63535167D01*
X123572883Y-63878943D01*
X123835673Y-64142192D01*
X124179201Y-64284838D01*
X124551167Y-64285162D01*
X124762560Y-64197816D01*
X124762560Y-64425000D01*
X124786944Y-64554589D01*
X124762560Y-64675000D01*
X124762560Y-65225000D01*
X124786944Y-65354589D01*
X124762560Y-65475000D01*
X124762560Y-66025000D01*
X124786944Y-66154589D01*
X124762560Y-66275000D01*
X124762560Y-66825000D01*
X124786944Y-66954589D01*
X124762560Y-67075000D01*
X124762560Y-67468967D01*
X124670298Y-67530614D01*
X124547650Y-67612548D01*
X121363649Y-70795948D01*
X121363628Y-70795980D01*
X121363599Y-70795999D01*
X121283394Y-70916035D01*
X121198880Y-71042494D01*
X121198873Y-71042530D01*
X121198852Y-71042561D01*
X121169590Y-71189671D01*
X121141000Y-71333328D01*
X121141007Y-71333364D01*
X121141000Y-71333400D01*
X121141000Y-78124337D01*
X121108808Y-78156473D01*
X120966162Y-78500001D01*
X120965838Y-78871967D01*
X121107883Y-79215743D01*
X121370673Y-79478992D01*
X121714201Y-79621638D01*
X122086167Y-79621962D01*
X122429943Y-79479917D01*
X122693192Y-79217127D01*
X122835838Y-78873599D01*
X122836162Y-78501633D01*
X122694117Y-78157857D01*
X122661000Y-78124682D01*
X122661000Y-71648245D01*
X125266380Y-69043356D01*
X125410000Y-69072440D01*
X126737560Y-69072440D01*
X126737560Y-70400000D01*
X126764958Y-70545606D01*
X124450549Y-72860449D01*
X124367789Y-72984334D01*
X124285852Y-73106961D01*
X124285845Y-73106996D01*
X124285825Y-73107026D01*
X124257113Y-73251441D01*
X124228000Y-73397800D01*
X124228000Y-78124337D01*
X124195808Y-78156473D01*
X124053162Y-78500001D01*
X124052838Y-78871967D01*
X124194883Y-79215743D01*
X124457673Y-79478992D01*
X124801201Y-79621638D01*
X125173167Y-79621962D01*
X125516943Y-79479917D01*
X125780192Y-79217127D01*
X125922838Y-78873599D01*
X125923162Y-78501633D01*
X125781117Y-78157857D01*
X125748000Y-78124682D01*
X125748000Y-73712560D01*
X127700000Y-71760195D01*
X127700000Y-77271838D01*
X127220248Y-77751678D01*
X127174833Y-77751638D01*
X126831057Y-77893683D01*
X126567808Y-78156473D01*
X126425162Y-78500001D01*
X126424838Y-78871967D01*
X126566883Y-79215743D01*
X126829673Y-79478992D01*
X127173201Y-79621638D01*
X127545167Y-79621962D01*
X127888943Y-79479917D01*
X128152192Y-79217127D01*
X128294838Y-78873599D01*
X128294879Y-78826651D01*
X128997450Y-78123953D01*
X129081888Y-77997557D01*
X129162148Y-77877439D01*
X129162155Y-77877405D01*
X129162174Y-77877376D01*
X129190814Y-77733326D01*
X129220000Y-77586600D01*
X129220000Y-71842083D01*
X129469673Y-72092192D01*
X129813201Y-72234838D01*
X130185167Y-72235162D01*
X130528943Y-72093117D01*
X130792192Y-71830327D01*
X130934838Y-71486799D01*
X130934839Y-71485300D01*
X131270000Y-71485300D01*
X131270000Y-72541541D01*
X131121057Y-72603083D01*
X130857808Y-72865873D01*
X130715162Y-73209401D01*
X130714838Y-73581367D01*
X130856883Y-73925143D01*
X131119673Y-74188392D01*
X131463201Y-74331038D01*
X131631373Y-74331184D01*
X131637970Y-74337772D01*
X131761328Y-74420074D01*
X131870000Y-74492686D01*
X131896838Y-74635317D01*
X132035910Y-74851441D01*
X132248110Y-74996431D01*
X132500000Y-75047440D01*
X133900000Y-75047440D01*
X134135317Y-75003162D01*
X134301477Y-74896241D01*
X134448110Y-74996431D01*
X134700000Y-75047440D01*
X136100000Y-75047440D01*
X136335317Y-75003162D01*
X136551441Y-74864090D01*
X136696431Y-74651890D01*
X136747440Y-74400000D01*
X136747440Y-73993645D01*
X136984673Y-74231292D01*
X137328201Y-74373938D01*
X137700167Y-74374262D01*
X138043943Y-74232217D01*
X138307192Y-73969427D01*
X138353602Y-73857660D01*
X143365878Y-78869699D01*
X143365838Y-78915167D01*
X143507883Y-79258943D01*
X143770673Y-79522192D01*
X144114201Y-79664838D01*
X144486167Y-79665162D01*
X144829943Y-79523117D01*
X145093192Y-79260327D01*
X145235838Y-78916799D01*
X145236162Y-78544833D01*
X145094117Y-78201057D01*
X144831327Y-77937808D01*
X144487799Y-77795162D01*
X144440904Y-77795121D01*
X142875710Y-76230000D01*
X144432560Y-76230000D01*
X144432560Y-77230000D01*
X144476838Y-77465317D01*
X144615910Y-77681441D01*
X144828110Y-77826431D01*
X145080000Y-77877440D01*
X147830000Y-77877440D01*
X148065317Y-77833162D01*
X148281441Y-77694090D01*
X148420890Y-77490000D01*
X148873000Y-77490000D01*
X148873079Y-77489984D01*
X148873158Y-77490000D01*
X149017355Y-77461286D01*
X149163839Y-77432148D01*
X149163907Y-77432103D01*
X149163985Y-77432087D01*
X149287909Y-77349247D01*
X149410401Y-77267401D01*
X149410445Y-77267336D01*
X149410513Y-77267290D01*
X149494845Y-77182923D01*
X149540167Y-77182962D01*
X149782658Y-77082767D01*
X149968045Y-77267847D01*
X150091442Y-77350150D01*
X150214161Y-77432148D01*
X150214475Y-77432211D01*
X150214743Y-77432389D01*
X150220871Y-77433603D01*
X150226838Y-77465317D01*
X150365910Y-77681441D01*
X150578110Y-77826431D01*
X150830000Y-77877440D01*
X153580000Y-77877440D01*
X153815317Y-77833162D01*
X154031441Y-77694090D01*
X154176431Y-77481890D01*
X154227440Y-77230000D01*
X154227440Y-76230000D01*
X154183162Y-75994683D01*
X154044090Y-75778559D01*
X153831890Y-75633569D01*
X153580000Y-75582560D01*
X150830000Y-75582560D01*
X150594683Y-75626838D01*
X150513074Y-75679352D01*
X150435697Y-75627743D01*
X150312839Y-75545652D01*
X150312525Y-75545589D01*
X150312257Y-75545411D01*
X150166862Y-75516615D01*
X150022000Y-75487800D01*
X149917463Y-75487800D01*
X149885327Y-75455608D01*
X149541799Y-75312962D01*
X149169833Y-75312638D01*
X148826057Y-75454683D01*
X148562808Y-75717473D01*
X148457949Y-75970000D01*
X148417279Y-75970000D01*
X148294090Y-75778559D01*
X148081890Y-75633569D01*
X147830000Y-75582560D01*
X145080000Y-75582560D01*
X144844683Y-75626838D01*
X144628559Y-75765910D01*
X144483569Y-75978110D01*
X144432560Y-76230000D01*
X142875710Y-76230000D01*
X136595000Y-69949587D01*
X136595000Y-68150000D01*
X136587043Y-68110000D01*
X146735198Y-68110000D01*
X155164878Y-76539680D01*
X155164838Y-76585167D01*
X155306883Y-76928943D01*
X155569673Y-77192192D01*
X155913201Y-77334838D01*
X156285167Y-77335162D01*
X156628943Y-77193117D01*
X156892192Y-76930327D01*
X157034838Y-76586799D01*
X157035148Y-76230000D01*
X158432560Y-76230000D01*
X158432560Y-77230000D01*
X158476838Y-77465317D01*
X158615910Y-77681441D01*
X158828110Y-77826431D01*
X159080000Y-77877440D01*
X161830000Y-77877440D01*
X162065317Y-77833162D01*
X162281441Y-77694090D01*
X162420890Y-77490000D01*
X163270000Y-77490000D01*
X163270079Y-77489984D01*
X163270158Y-77490000D01*
X163414355Y-77461286D01*
X163560839Y-77432148D01*
X163560907Y-77432103D01*
X163560985Y-77432087D01*
X163684909Y-77349247D01*
X163807401Y-77267401D01*
X163807445Y-77267336D01*
X163807513Y-77267290D01*
X163887417Y-77187353D01*
X163968045Y-77267847D01*
X164091442Y-77350150D01*
X164214161Y-77432148D01*
X164214475Y-77432211D01*
X164214743Y-77432389D01*
X164220871Y-77433603D01*
X164226838Y-77465317D01*
X164365910Y-77681441D01*
X164578110Y-77826431D01*
X164830000Y-77877440D01*
X167580000Y-77877440D01*
X167815317Y-77833162D01*
X168031441Y-77694090D01*
X168176431Y-77481890D01*
X168227440Y-77230000D01*
X168227440Y-76230000D01*
X168183162Y-75994683D01*
X168044090Y-75778559D01*
X167831890Y-75633569D01*
X167580000Y-75582560D01*
X164830000Y-75582560D01*
X164594683Y-75626838D01*
X164513074Y-75679352D01*
X164490950Y-75664596D01*
X164282327Y-75455608D01*
X163938799Y-75312962D01*
X163566833Y-75312638D01*
X163223057Y-75454683D01*
X162959808Y-75717473D01*
X162854949Y-75970000D01*
X162417279Y-75970000D01*
X162294090Y-75778559D01*
X162081890Y-75633569D01*
X161830000Y-75582560D01*
X159080000Y-75582560D01*
X158844683Y-75626838D01*
X158628559Y-75765910D01*
X158483569Y-75978110D01*
X158432560Y-76230000D01*
X157035148Y-76230000D01*
X157035162Y-76214833D01*
X156893117Y-75871057D01*
X156630327Y-75607808D01*
X156286799Y-75465162D01*
X156239923Y-75465121D01*
X148084802Y-67310000D01*
X160235198Y-67310000D01*
X169164878Y-76239680D01*
X169164838Y-76285167D01*
X169306883Y-76628943D01*
X169569673Y-76892192D01*
X169913201Y-77034838D01*
X170285167Y-77035162D01*
X170628943Y-76893117D01*
X170892192Y-76630327D01*
X171034838Y-76286799D01*
X171034887Y-76230000D01*
X172432560Y-76230000D01*
X172432560Y-77230000D01*
X172476838Y-77465317D01*
X172615910Y-77681441D01*
X172828110Y-77826431D01*
X173080000Y-77877440D01*
X175830000Y-77877440D01*
X176065317Y-77833162D01*
X176281441Y-77694090D01*
X176420890Y-77490000D01*
X177365124Y-77490000D01*
X177618673Y-77743992D01*
X177962201Y-77886638D01*
X178334167Y-77886962D01*
X178541388Y-77801340D01*
X178578110Y-77826431D01*
X178830000Y-77877440D01*
X181580000Y-77877440D01*
X181815317Y-77833162D01*
X182031441Y-77694090D01*
X182176431Y-77481890D01*
X182227440Y-77230000D01*
X182227440Y-76230000D01*
X182183162Y-75994683D01*
X182044090Y-75778559D01*
X181831890Y-75633569D01*
X181580000Y-75582560D01*
X178830000Y-75582560D01*
X178594683Y-75626838D01*
X178378559Y-75765910D01*
X178233569Y-75978110D01*
X178225721Y-76016866D01*
X178162546Y-76016811D01*
X178071968Y-75998836D01*
X177927000Y-75970000D01*
X176417279Y-75970000D01*
X176294090Y-75778559D01*
X176081890Y-75633569D01*
X175830000Y-75582560D01*
X173080000Y-75582560D01*
X172844683Y-75626838D01*
X172628559Y-75765910D01*
X172483569Y-75978110D01*
X172432560Y-76230000D01*
X171034887Y-76230000D01*
X171035162Y-75914833D01*
X170893117Y-75571057D01*
X170630327Y-75307808D01*
X170286799Y-75165162D01*
X170239923Y-75165121D01*
X161087401Y-66012599D01*
X160840839Y-65847852D01*
X160779158Y-65835583D01*
X161002943Y-65743117D01*
X161266192Y-65480327D01*
X161408838Y-65136799D01*
X161409162Y-64764833D01*
X161267117Y-64421057D01*
X161004327Y-64157808D01*
X160889193Y-64110000D01*
X165319120Y-64110000D01*
X165861878Y-64652944D01*
X165861838Y-64698567D01*
X166003883Y-65042343D01*
X166266673Y-65305592D01*
X166610201Y-65448238D01*
X166982167Y-65448562D01*
X167325943Y-65306517D01*
X167589192Y-65043727D01*
X167731838Y-64700199D01*
X167732162Y-64328233D01*
X167590117Y-63984457D01*
X167327327Y-63721208D01*
X166983799Y-63578562D01*
X166937060Y-63578521D01*
X166668632Y-63310000D01*
X180486198Y-63310000D01*
X182873599Y-65697401D01*
X183120160Y-65862148D01*
X183295369Y-65896999D01*
X183510971Y-66219670D01*
X183997152Y-66544526D01*
X184570641Y-66658600D01*
X184629359Y-66658600D01*
X185202848Y-66544526D01*
X185689029Y-66219670D01*
X185869992Y-65948839D01*
X186251510Y-66366821D01*
X186780973Y-66614968D01*
X187013000Y-66494469D01*
X187013000Y-65287000D01*
X186993000Y-65287000D01*
X186993000Y-65033000D01*
X187013000Y-65033000D01*
X187013000Y-62747000D01*
X186993000Y-62747000D01*
X186993000Y-62493000D01*
X187013000Y-62493000D01*
X187013000Y-60207000D01*
X186993000Y-60207000D01*
X186993000Y-59953000D01*
X187013000Y-59953000D01*
X187013000Y-57667000D01*
X186993000Y-57667000D01*
X186993000Y-57413000D01*
X187013000Y-57413000D01*
X187013000Y-57393000D01*
X187267000Y-57393000D01*
X187267000Y-57413000D01*
X187287000Y-57413000D01*
X187287000Y-57667000D01*
X187267000Y-57667000D01*
X187267000Y-59953000D01*
X187287000Y-59953000D01*
X187287000Y-60207000D01*
X187267000Y-60207000D01*
X187267000Y-62493000D01*
X187287000Y-62493000D01*
X187287000Y-62747000D01*
X187267000Y-62747000D01*
X187267000Y-65033000D01*
X187287000Y-65033000D01*
X187287000Y-65287000D01*
X187267000Y-65287000D01*
X187267000Y-66494469D01*
X187499027Y-66614968D01*
X188028490Y-66366821D01*
X188422688Y-65934947D01*
X188490000Y-65772432D01*
X188490000Y-83173000D01*
X186638652Y-83173000D01*
X186620033Y-83160559D01*
X185680000Y-82973575D01*
X184739967Y-83160559D01*
X184721348Y-83173000D01*
X183600000Y-83173000D01*
X183550590Y-83183006D01*
X183508965Y-83211447D01*
X183481685Y-83253841D01*
X183473000Y-83300000D01*
X183473000Y-84396517D01*
X183410559Y-84489967D01*
X183223575Y-85430000D01*
X183410559Y-86370033D01*
X183473000Y-86463483D01*
X183473000Y-88270000D01*
X109327000Y-88270000D01*
X109327000Y-86478381D01*
X109419441Y-86340033D01*
X109606425Y-85400000D01*
X109419441Y-84459967D01*
X109327000Y-84321619D01*
X109327000Y-83300000D01*
X109316994Y-83250590D01*
X109288553Y-83208965D01*
X109246159Y-83181685D01*
X109200000Y-83173000D01*
X108153550Y-83173000D01*
X108090033Y-83130559D01*
X107150000Y-82943575D01*
X106209967Y-83130559D01*
X106146450Y-83173000D01*
X104310000Y-83173000D01*
X104310000Y-80755750D01*
X106895000Y-80755750D01*
X106895000Y-81096310D01*
X106991673Y-81329699D01*
X107170302Y-81508327D01*
X107403691Y-81605000D01*
X108619250Y-81605000D01*
X108778000Y-81446250D01*
X108778000Y-80597000D01*
X109032000Y-80597000D01*
X109032000Y-81446250D01*
X109190750Y-81605000D01*
X110406309Y-81605000D01*
X110639698Y-81508327D01*
X110818327Y-81329699D01*
X110915000Y-81096310D01*
X110915000Y-80755750D01*
X112645000Y-80755750D01*
X112645000Y-81096310D01*
X112741673Y-81329699D01*
X112920302Y-81508327D01*
X113153691Y-81605000D01*
X114369250Y-81605000D01*
X114528000Y-81446250D01*
X114528000Y-80597000D01*
X114782000Y-80597000D01*
X114782000Y-81446250D01*
X114940750Y-81605000D01*
X116156309Y-81605000D01*
X116389698Y-81508327D01*
X116568327Y-81329699D01*
X116665000Y-81096310D01*
X116665000Y-81015750D01*
X144445000Y-81015750D01*
X144445000Y-81356310D01*
X144541673Y-81589699D01*
X144720302Y-81768327D01*
X144953691Y-81865000D01*
X146169250Y-81865000D01*
X146328000Y-81706250D01*
X146328000Y-80857000D01*
X146582000Y-80857000D01*
X146582000Y-81706250D01*
X146740750Y-81865000D01*
X147956309Y-81865000D01*
X148189698Y-81768327D01*
X148368327Y-81589699D01*
X148465000Y-81356310D01*
X148465000Y-81015750D01*
X150195000Y-81015750D01*
X150195000Y-81356310D01*
X150291673Y-81589699D01*
X150470302Y-81768327D01*
X150703691Y-81865000D01*
X151919250Y-81865000D01*
X152078000Y-81706250D01*
X152078000Y-80857000D01*
X152332000Y-80857000D01*
X152332000Y-81706250D01*
X152490750Y-81865000D01*
X153706309Y-81865000D01*
X153939698Y-81768327D01*
X154118327Y-81589699D01*
X154215000Y-81356310D01*
X154215000Y-81015750D01*
X158445000Y-81015750D01*
X158445000Y-81356310D01*
X158541673Y-81589699D01*
X158720302Y-81768327D01*
X158953691Y-81865000D01*
X160169250Y-81865000D01*
X160328000Y-81706250D01*
X160328000Y-80857000D01*
X160582000Y-80857000D01*
X160582000Y-81706250D01*
X160740750Y-81865000D01*
X161956309Y-81865000D01*
X162189698Y-81768327D01*
X162368327Y-81589699D01*
X162465000Y-81356310D01*
X162465000Y-81015750D01*
X164195000Y-81015750D01*
X164195000Y-81356310D01*
X164291673Y-81589699D01*
X164470302Y-81768327D01*
X164703691Y-81865000D01*
X165919250Y-81865000D01*
X166078000Y-81706250D01*
X166078000Y-80857000D01*
X166332000Y-80857000D01*
X166332000Y-81706250D01*
X166490750Y-81865000D01*
X167706309Y-81865000D01*
X167939698Y-81768327D01*
X168118327Y-81589699D01*
X168215000Y-81356310D01*
X168215000Y-81015750D01*
X172445000Y-81015750D01*
X172445000Y-81356310D01*
X172541673Y-81589699D01*
X172720302Y-81768327D01*
X172953691Y-81865000D01*
X174169250Y-81865000D01*
X174328000Y-81706250D01*
X174328000Y-80857000D01*
X174582000Y-80857000D01*
X174582000Y-81706250D01*
X174740750Y-81865000D01*
X175956309Y-81865000D01*
X176189698Y-81768327D01*
X176368327Y-81589699D01*
X176465000Y-81356310D01*
X176465000Y-81015750D01*
X178195000Y-81015750D01*
X178195000Y-81356310D01*
X178291673Y-81589699D01*
X178470302Y-81768327D01*
X178703691Y-81865000D01*
X179919250Y-81865000D01*
X180078000Y-81706250D01*
X180078000Y-80857000D01*
X180332000Y-80857000D01*
X180332000Y-81706250D01*
X180490750Y-81865000D01*
X181706309Y-81865000D01*
X181939698Y-81768327D01*
X182118327Y-81589699D01*
X182215000Y-81356310D01*
X182215000Y-81015750D01*
X182056250Y-80857000D01*
X180332000Y-80857000D01*
X180078000Y-80857000D01*
X178353750Y-80857000D01*
X178195000Y-81015750D01*
X176465000Y-81015750D01*
X176306250Y-80857000D01*
X174582000Y-80857000D01*
X174328000Y-80857000D01*
X172603750Y-80857000D01*
X172445000Y-81015750D01*
X168215000Y-81015750D01*
X168056250Y-80857000D01*
X166332000Y-80857000D01*
X166078000Y-80857000D01*
X164353750Y-80857000D01*
X164195000Y-81015750D01*
X162465000Y-81015750D01*
X162306250Y-80857000D01*
X160582000Y-80857000D01*
X160328000Y-80857000D01*
X158603750Y-80857000D01*
X158445000Y-81015750D01*
X154215000Y-81015750D01*
X154056250Y-80857000D01*
X152332000Y-80857000D01*
X152078000Y-80857000D01*
X150353750Y-80857000D01*
X150195000Y-81015750D01*
X148465000Y-81015750D01*
X148306250Y-80857000D01*
X146582000Y-80857000D01*
X146328000Y-80857000D01*
X144603750Y-80857000D01*
X144445000Y-81015750D01*
X116665000Y-81015750D01*
X116665000Y-80755750D01*
X116506250Y-80597000D01*
X114782000Y-80597000D01*
X114528000Y-80597000D01*
X112803750Y-80597000D01*
X112645000Y-80755750D01*
X110915000Y-80755750D01*
X110756250Y-80597000D01*
X109032000Y-80597000D01*
X108778000Y-80597000D01*
X107053750Y-80597000D01*
X106895000Y-80755750D01*
X104310000Y-80755750D01*
X104310000Y-79843690D01*
X106895000Y-79843690D01*
X106895000Y-80184250D01*
X107053750Y-80343000D01*
X108778000Y-80343000D01*
X108778000Y-79493750D01*
X109032000Y-79493750D01*
X109032000Y-80343000D01*
X110756250Y-80343000D01*
X110915000Y-80184250D01*
X110915000Y-79843690D01*
X112645000Y-79843690D01*
X112645000Y-80184250D01*
X112803750Y-80343000D01*
X114528000Y-80343000D01*
X114528000Y-79493750D01*
X114782000Y-79493750D01*
X114782000Y-80343000D01*
X116506250Y-80343000D01*
X116665000Y-80184250D01*
X116665000Y-80103690D01*
X144445000Y-80103690D01*
X144445000Y-80444250D01*
X144603750Y-80603000D01*
X146328000Y-80603000D01*
X146328000Y-79753750D01*
X146582000Y-79753750D01*
X146582000Y-80603000D01*
X148306250Y-80603000D01*
X148465000Y-80444250D01*
X148465000Y-80103690D01*
X150195000Y-80103690D01*
X150195000Y-80444250D01*
X150353750Y-80603000D01*
X152078000Y-80603000D01*
X152078000Y-79753750D01*
X152332000Y-79753750D01*
X152332000Y-80603000D01*
X154056250Y-80603000D01*
X154215000Y-80444250D01*
X154215000Y-80103690D01*
X158445000Y-80103690D01*
X158445000Y-80444250D01*
X158603750Y-80603000D01*
X160328000Y-80603000D01*
X160328000Y-79753750D01*
X160582000Y-79753750D01*
X160582000Y-80603000D01*
X162306250Y-80603000D01*
X162465000Y-80444250D01*
X162465000Y-80103690D01*
X164195000Y-80103690D01*
X164195000Y-80444250D01*
X164353750Y-80603000D01*
X166078000Y-80603000D01*
X166078000Y-79753750D01*
X166332000Y-79753750D01*
X166332000Y-80603000D01*
X168056250Y-80603000D01*
X168215000Y-80444250D01*
X168215000Y-80103690D01*
X172445000Y-80103690D01*
X172445000Y-80444250D01*
X172603750Y-80603000D01*
X174328000Y-80603000D01*
X174328000Y-79753750D01*
X174582000Y-79753750D01*
X174582000Y-80603000D01*
X176306250Y-80603000D01*
X176465000Y-80444250D01*
X176465000Y-80103690D01*
X178195000Y-80103690D01*
X178195000Y-80444250D01*
X178353750Y-80603000D01*
X180078000Y-80603000D01*
X180078000Y-79753750D01*
X180332000Y-79753750D01*
X180332000Y-80603000D01*
X182056250Y-80603000D01*
X182215000Y-80444250D01*
X182215000Y-80103690D01*
X182118327Y-79870301D01*
X181939698Y-79691673D01*
X181706309Y-79595000D01*
X180490750Y-79595000D01*
X180332000Y-79753750D01*
X180078000Y-79753750D01*
X179919250Y-79595000D01*
X178703691Y-79595000D01*
X178470302Y-79691673D01*
X178291673Y-79870301D01*
X178195000Y-80103690D01*
X176465000Y-80103690D01*
X176368327Y-79870301D01*
X176189698Y-79691673D01*
X175956309Y-79595000D01*
X174740750Y-79595000D01*
X174582000Y-79753750D01*
X174328000Y-79753750D01*
X174169250Y-79595000D01*
X172953691Y-79595000D01*
X172720302Y-79691673D01*
X172541673Y-79870301D01*
X172445000Y-80103690D01*
X168215000Y-80103690D01*
X168118327Y-79870301D01*
X167939698Y-79691673D01*
X167706309Y-79595000D01*
X166490750Y-79595000D01*
X166332000Y-79753750D01*
X166078000Y-79753750D01*
X165919250Y-79595000D01*
X164703691Y-79595000D01*
X164470302Y-79691673D01*
X164291673Y-79870301D01*
X164195000Y-80103690D01*
X162465000Y-80103690D01*
X162368327Y-79870301D01*
X162189698Y-79691673D01*
X161956309Y-79595000D01*
X160740750Y-79595000D01*
X160582000Y-79753750D01*
X160328000Y-79753750D01*
X160169250Y-79595000D01*
X158953691Y-79595000D01*
X158720302Y-79691673D01*
X158541673Y-79870301D01*
X158445000Y-80103690D01*
X154215000Y-80103690D01*
X154118327Y-79870301D01*
X153939698Y-79691673D01*
X153706309Y-79595000D01*
X152490750Y-79595000D01*
X152332000Y-79753750D01*
X152078000Y-79753750D01*
X151919250Y-79595000D01*
X150703691Y-79595000D01*
X150470302Y-79691673D01*
X150291673Y-79870301D01*
X150195000Y-80103690D01*
X148465000Y-80103690D01*
X148368327Y-79870301D01*
X148189698Y-79691673D01*
X147956309Y-79595000D01*
X146740750Y-79595000D01*
X146582000Y-79753750D01*
X146328000Y-79753750D01*
X146169250Y-79595000D01*
X144953691Y-79595000D01*
X144720302Y-79691673D01*
X144541673Y-79870301D01*
X144445000Y-80103690D01*
X116665000Y-80103690D01*
X116665000Y-79843690D01*
X116568327Y-79610301D01*
X116389698Y-79431673D01*
X116156309Y-79335000D01*
X114940750Y-79335000D01*
X114782000Y-79493750D01*
X114528000Y-79493750D01*
X114369250Y-79335000D01*
X113153691Y-79335000D01*
X112920302Y-79431673D01*
X112741673Y-79610301D01*
X112645000Y-79843690D01*
X110915000Y-79843690D01*
X110818327Y-79610301D01*
X110639698Y-79431673D01*
X110406309Y-79335000D01*
X109190750Y-79335000D01*
X109032000Y-79493750D01*
X108778000Y-79493750D01*
X108619250Y-79335000D01*
X107403691Y-79335000D01*
X107170302Y-79431673D01*
X106991673Y-79610301D01*
X106895000Y-79843690D01*
X104310000Y-79843690D01*
X104310000Y-75970000D01*
X106882560Y-75970000D01*
X106882560Y-76970000D01*
X106926838Y-77205317D01*
X107065910Y-77421441D01*
X107278110Y-77566431D01*
X107530000Y-77617440D01*
X110280000Y-77617440D01*
X110515317Y-77573162D01*
X110731441Y-77434090D01*
X110876431Y-77221890D01*
X110886059Y-77174348D01*
X110894577Y-77172669D01*
X110895156Y-77172284D01*
X110895839Y-77172148D01*
X110980196Y-77115783D01*
X111141201Y-77182638D01*
X111513167Y-77182962D01*
X111856943Y-77040917D01*
X111890118Y-77007800D01*
X112417997Y-77007800D01*
X112418565Y-77008366D01*
X112541603Y-77090257D01*
X112664161Y-77172148D01*
X112664843Y-77172284D01*
X112665422Y-77172669D01*
X112670898Y-77173748D01*
X112676838Y-77205317D01*
X112815910Y-77421441D01*
X113028110Y-77566431D01*
X113280000Y-77617440D01*
X116030000Y-77617440D01*
X116265317Y-77573162D01*
X116481441Y-77434090D01*
X116626431Y-77221890D01*
X116677440Y-76970000D01*
X116677440Y-75970000D01*
X116633162Y-75734683D01*
X116494090Y-75518559D01*
X116281890Y-75373569D01*
X116030000Y-75322560D01*
X113280000Y-75322560D01*
X113044683Y-75366838D01*
X112828559Y-75505910D01*
X112827899Y-75506876D01*
X112732000Y-75487800D01*
X111890463Y-75487800D01*
X111858327Y-75455608D01*
X111514799Y-75312962D01*
X111142833Y-75312638D01*
X110799057Y-75454683D01*
X110750424Y-75503231D01*
X110728143Y-75507663D01*
X110531890Y-75373569D01*
X110280000Y-75322560D01*
X107530000Y-75322560D01*
X107294683Y-75366838D01*
X107078559Y-75505910D01*
X106933569Y-75718110D01*
X106882560Y-75970000D01*
X104310000Y-75970000D01*
X104310000Y-69955750D01*
X106865000Y-69955750D01*
X106865000Y-70296310D01*
X106961673Y-70529699D01*
X107140302Y-70708327D01*
X107373691Y-70805000D01*
X108589250Y-70805000D01*
X108748000Y-70646250D01*
X108748000Y-69797000D01*
X109002000Y-69797000D01*
X109002000Y-70646250D01*
X109160750Y-70805000D01*
X110376309Y-70805000D01*
X110609698Y-70708327D01*
X110788327Y-70529699D01*
X110885000Y-70296310D01*
X110885000Y-69955750D01*
X112615000Y-69955750D01*
X112615000Y-70296310D01*
X112711673Y-70529699D01*
X112890302Y-70708327D01*
X113123691Y-70805000D01*
X114339250Y-70805000D01*
X114498000Y-70646250D01*
X114498000Y-69797000D01*
X114752000Y-69797000D01*
X114752000Y-70646250D01*
X114910750Y-70805000D01*
X116126309Y-70805000D01*
X116359698Y-70708327D01*
X116538327Y-70529699D01*
X116635000Y-70296310D01*
X116635000Y-69955750D01*
X116476250Y-69797000D01*
X114752000Y-69797000D01*
X114498000Y-69797000D01*
X112773750Y-69797000D01*
X112615000Y-69955750D01*
X110885000Y-69955750D01*
X110726250Y-69797000D01*
X109002000Y-69797000D01*
X108748000Y-69797000D01*
X107023750Y-69797000D01*
X106865000Y-69955750D01*
X104310000Y-69955750D01*
X104310000Y-69043690D01*
X106865000Y-69043690D01*
X106865000Y-69384250D01*
X107023750Y-69543000D01*
X108748000Y-69543000D01*
X108748000Y-68693750D01*
X109002000Y-68693750D01*
X109002000Y-69543000D01*
X110726250Y-69543000D01*
X110885000Y-69384250D01*
X110885000Y-69043690D01*
X112615000Y-69043690D01*
X112615000Y-69384250D01*
X112773750Y-69543000D01*
X114498000Y-69543000D01*
X114498000Y-68693750D01*
X114752000Y-68693750D01*
X114752000Y-69543000D01*
X116476250Y-69543000D01*
X116635000Y-69384250D01*
X116635000Y-69043690D01*
X116538327Y-68810301D01*
X116359698Y-68631673D01*
X116126309Y-68535000D01*
X114910750Y-68535000D01*
X114752000Y-68693750D01*
X114498000Y-68693750D01*
X114339250Y-68535000D01*
X113123691Y-68535000D01*
X112890302Y-68631673D01*
X112711673Y-68810301D01*
X112615000Y-69043690D01*
X110885000Y-69043690D01*
X110788327Y-68810301D01*
X110609698Y-68631673D01*
X110376309Y-68535000D01*
X109160750Y-68535000D01*
X109002000Y-68693750D01*
X108748000Y-68693750D01*
X108589250Y-68535000D01*
X107373691Y-68535000D01*
X107140302Y-68631673D01*
X106961673Y-68810301D01*
X106865000Y-69043690D01*
X104310000Y-69043690D01*
X104310000Y-65170000D01*
X106852560Y-65170000D01*
X106852560Y-66170000D01*
X106896838Y-66405317D01*
X107035910Y-66621441D01*
X107248110Y-66766431D01*
X107500000Y-66817440D01*
X110250000Y-66817440D01*
X110485317Y-66773162D01*
X110701441Y-66634090D01*
X110846431Y-66421890D01*
X110856074Y-66374270D01*
X110864948Y-66372517D01*
X110865358Y-66372244D01*
X110865839Y-66372148D01*
X110988527Y-66290171D01*
X111017654Y-66270762D01*
X111159201Y-66329538D01*
X111531167Y-66329862D01*
X111874943Y-66187817D01*
X111908118Y-66154700D01*
X112334762Y-66154700D01*
X112388281Y-66208083D01*
X112511383Y-66290111D01*
X112634161Y-66372148D01*
X112634644Y-66372244D01*
X112635052Y-66372516D01*
X112640883Y-66373668D01*
X112646838Y-66405317D01*
X112785910Y-66621441D01*
X112998110Y-66766431D01*
X113250000Y-66817440D01*
X116000000Y-66817440D01*
X116235317Y-66773162D01*
X116451441Y-66634090D01*
X116596431Y-66421890D01*
X116647440Y-66170000D01*
X116647440Y-65170000D01*
X116603162Y-64934683D01*
X116464090Y-64718559D01*
X116251890Y-64573569D01*
X116000000Y-64522560D01*
X113250000Y-64522560D01*
X113014683Y-64566838D01*
X112847861Y-64674185D01*
X112793939Y-64663531D01*
X112649000Y-64634700D01*
X111908463Y-64634700D01*
X111876327Y-64602508D01*
X111532799Y-64459862D01*
X111160833Y-64459538D01*
X110817057Y-64601583D01*
X110767180Y-64651373D01*
X110705680Y-64663606D01*
X110649818Y-64674644D01*
X110501890Y-64573569D01*
X110250000Y-64522560D01*
X107500000Y-64522560D01*
X107264683Y-64566838D01*
X107048559Y-64705910D01*
X106903569Y-64918110D01*
X106852560Y-65170000D01*
X104310000Y-65170000D01*
X104310000Y-59395750D01*
X106865000Y-59395750D01*
X106865000Y-59736310D01*
X106961673Y-59969699D01*
X107140302Y-60148327D01*
X107373691Y-60245000D01*
X108589250Y-60245000D01*
X108748000Y-60086250D01*
X108748000Y-59237000D01*
X109002000Y-59237000D01*
X109002000Y-60086250D01*
X109160750Y-60245000D01*
X110376309Y-60245000D01*
X110609698Y-60148327D01*
X110788327Y-59969699D01*
X110885000Y-59736310D01*
X110885000Y-59395750D01*
X112615000Y-59395750D01*
X112615000Y-59736310D01*
X112711673Y-59969699D01*
X112890302Y-60148327D01*
X113123691Y-60245000D01*
X114339250Y-60245000D01*
X114498000Y-60086250D01*
X114498000Y-59237000D01*
X114752000Y-59237000D01*
X114752000Y-60086250D01*
X114910750Y-60245000D01*
X116126309Y-60245000D01*
X116359698Y-60148327D01*
X116538327Y-59969699D01*
X116635000Y-59736310D01*
X116635000Y-59395750D01*
X116476250Y-59237000D01*
X114752000Y-59237000D01*
X114498000Y-59237000D01*
X112773750Y-59237000D01*
X112615000Y-59395750D01*
X110885000Y-59395750D01*
X110726250Y-59237000D01*
X109002000Y-59237000D01*
X108748000Y-59237000D01*
X107023750Y-59237000D01*
X106865000Y-59395750D01*
X104310000Y-59395750D01*
X104310000Y-58483690D01*
X106865000Y-58483690D01*
X106865000Y-58824250D01*
X107023750Y-58983000D01*
X108748000Y-58983000D01*
X108748000Y-58133750D01*
X109002000Y-58133750D01*
X109002000Y-58983000D01*
X110726250Y-58983000D01*
X110885000Y-58824250D01*
X110885000Y-58483690D01*
X112615000Y-58483690D01*
X112615000Y-58824250D01*
X112773750Y-58983000D01*
X114498000Y-58983000D01*
X114498000Y-58133750D01*
X114752000Y-58133750D01*
X114752000Y-58983000D01*
X116476250Y-58983000D01*
X116635000Y-58824250D01*
X116635000Y-58483690D01*
X116538327Y-58250301D01*
X116359698Y-58071673D01*
X116126309Y-57975000D01*
X114910750Y-57975000D01*
X114752000Y-58133750D01*
X114498000Y-58133750D01*
X114339250Y-57975000D01*
X113123691Y-57975000D01*
X112890302Y-58071673D01*
X112711673Y-58250301D01*
X112615000Y-58483690D01*
X110885000Y-58483690D01*
X110788327Y-58250301D01*
X110609698Y-58071673D01*
X110376309Y-57975000D01*
X109160750Y-57975000D01*
X109002000Y-58133750D01*
X108748000Y-58133750D01*
X108589250Y-57975000D01*
X107373691Y-57975000D01*
X107140302Y-58071673D01*
X106961673Y-58250301D01*
X106865000Y-58483690D01*
X104310000Y-58483690D01*
X104310000Y-54610000D01*
X106852560Y-54610000D01*
X106852560Y-55610000D01*
X106896838Y-55845317D01*
X107035910Y-56061441D01*
X107248110Y-56206431D01*
X107500000Y-56257440D01*
X110250000Y-56257440D01*
X110485317Y-56213162D01*
X110557040Y-56167010D01*
X110660512Y-56270515D01*
X110660565Y-56270551D01*
X110660599Y-56270601D01*
X110782391Y-56351979D01*
X110907048Y-56435301D01*
X110907109Y-56435313D01*
X110907161Y-56435348D01*
X111056282Y-56465010D01*
X111197878Y-56493199D01*
X111197937Y-56493187D01*
X111198000Y-56493200D01*
X111303537Y-56493200D01*
X111335673Y-56525392D01*
X111679201Y-56668038D01*
X112051167Y-56668362D01*
X112394943Y-56526317D01*
X112459502Y-56461871D01*
X112592839Y-56435348D01*
X112592891Y-56435313D01*
X112592952Y-56435301D01*
X112716149Y-56352955D01*
X112839401Y-56270601D01*
X112839435Y-56270549D01*
X112839487Y-56270515D01*
X112941927Y-56168043D01*
X112998110Y-56206431D01*
X113250000Y-56257440D01*
X116000000Y-56257440D01*
X116235317Y-56213162D01*
X116451441Y-56074090D01*
X116596431Y-55861890D01*
X116647440Y-55610000D01*
X116647440Y-54610000D01*
X116603162Y-54374683D01*
X116464090Y-54158559D01*
X116251890Y-54013569D01*
X116000000Y-53962560D01*
X113250000Y-53962560D01*
X113014683Y-54006838D01*
X112798559Y-54145910D01*
X112653569Y-54358110D01*
X112643888Y-54405917D01*
X112634161Y-54407852D01*
X112634109Y-54407887D01*
X112634048Y-54407899D01*
X112509391Y-54491221D01*
X112387599Y-54572599D01*
X112387565Y-54572649D01*
X112387512Y-54572685D01*
X112129902Y-54830378D01*
X112052799Y-54798362D01*
X111680833Y-54798038D01*
X111438051Y-54898353D01*
X111112487Y-54572685D01*
X111112435Y-54572651D01*
X111112401Y-54572599D01*
X110989149Y-54490245D01*
X110865952Y-54407899D01*
X110865891Y-54407887D01*
X110865839Y-54407852D01*
X110859153Y-54406522D01*
X110853162Y-54374683D01*
X110714090Y-54158559D01*
X110501890Y-54013569D01*
X110250000Y-53962560D01*
X107500000Y-53962560D01*
X107264683Y-54006838D01*
X107048559Y-54145910D01*
X106903569Y-54358110D01*
X106852560Y-54610000D01*
X104310000Y-54610000D01*
X104310000Y-53871750D01*
X127051000Y-53871750D01*
X127051000Y-54220309D01*
X127147673Y-54453698D01*
X127326301Y-54632327D01*
X127559690Y-54729000D01*
X128416250Y-54729000D01*
X128575000Y-54570250D01*
X128575000Y-53713000D01*
X128829000Y-53713000D01*
X128829000Y-54570250D01*
X128987750Y-54729000D01*
X129844310Y-54729000D01*
X130077699Y-54632327D01*
X130256327Y-54453698D01*
X130353000Y-54220309D01*
X130353000Y-53871750D01*
X130194250Y-53713000D01*
X128829000Y-53713000D01*
X128575000Y-53713000D01*
X127209750Y-53713000D01*
X127051000Y-53871750D01*
X104310000Y-53871750D01*
X104310000Y-48855750D01*
X106815000Y-48855750D01*
X106815000Y-49196310D01*
X106911673Y-49429699D01*
X107090302Y-49608327D01*
X107323691Y-49705000D01*
X108539250Y-49705000D01*
X108698000Y-49546250D01*
X108698000Y-48697000D01*
X108952000Y-48697000D01*
X108952000Y-49546250D01*
X109110750Y-49705000D01*
X110326309Y-49705000D01*
X110559698Y-49608327D01*
X110738327Y-49429699D01*
X110835000Y-49196310D01*
X110835000Y-48855750D01*
X112565000Y-48855750D01*
X112565000Y-49196310D01*
X112661673Y-49429699D01*
X112840302Y-49608327D01*
X113073691Y-49705000D01*
X114289250Y-49705000D01*
X114448000Y-49546250D01*
X114448000Y-48697000D01*
X114702000Y-48697000D01*
X114702000Y-49546250D01*
X114860750Y-49705000D01*
X116076309Y-49705000D01*
X116309698Y-49608327D01*
X116446825Y-49471200D01*
X120434560Y-49471200D01*
X120434560Y-53128800D01*
X120478838Y-53364117D01*
X120617910Y-53580241D01*
X120830110Y-53725231D01*
X121082000Y-53776240D01*
X123114000Y-53776240D01*
X123349317Y-53731962D01*
X123565441Y-53592890D01*
X123710431Y-53380690D01*
X123761440Y-53128800D01*
X123761440Y-49471200D01*
X123717162Y-49235883D01*
X123578090Y-49019759D01*
X123365890Y-48874769D01*
X123114000Y-48823760D01*
X121082000Y-48823760D01*
X120846683Y-48868038D01*
X120630559Y-49007110D01*
X120485569Y-49219310D01*
X120434560Y-49471200D01*
X116446825Y-49471200D01*
X116488327Y-49429699D01*
X116585000Y-49196310D01*
X116585000Y-48855750D01*
X116426250Y-48697000D01*
X114702000Y-48697000D01*
X114448000Y-48697000D01*
X112723750Y-48697000D01*
X112565000Y-48855750D01*
X110835000Y-48855750D01*
X110676250Y-48697000D01*
X108952000Y-48697000D01*
X108698000Y-48697000D01*
X106973750Y-48697000D01*
X106815000Y-48855750D01*
X104310000Y-48855750D01*
X104310000Y-47943690D01*
X106815000Y-47943690D01*
X106815000Y-48284250D01*
X106973750Y-48443000D01*
X108698000Y-48443000D01*
X108698000Y-47593750D01*
X108952000Y-47593750D01*
X108952000Y-48443000D01*
X110676250Y-48443000D01*
X110835000Y-48284250D01*
X110835000Y-47943690D01*
X112565000Y-47943690D01*
X112565000Y-48284250D01*
X112723750Y-48443000D01*
X114448000Y-48443000D01*
X114448000Y-47593750D01*
X114702000Y-47593750D01*
X114702000Y-48443000D01*
X116426250Y-48443000D01*
X116585000Y-48284250D01*
X116585000Y-47943690D01*
X116488327Y-47710301D01*
X116309698Y-47531673D01*
X116076309Y-47435000D01*
X114860750Y-47435000D01*
X114702000Y-47593750D01*
X114448000Y-47593750D01*
X114289250Y-47435000D01*
X113073691Y-47435000D01*
X112840302Y-47531673D01*
X112661673Y-47710301D01*
X112565000Y-47943690D01*
X110835000Y-47943690D01*
X110738327Y-47710301D01*
X110559698Y-47531673D01*
X110326309Y-47435000D01*
X109110750Y-47435000D01*
X108952000Y-47593750D01*
X108698000Y-47593750D01*
X108539250Y-47435000D01*
X107323691Y-47435000D01*
X107090302Y-47531673D01*
X106911673Y-47710301D01*
X106815000Y-47943690D01*
X104310000Y-47943690D01*
X104310000Y-44070000D01*
X106802560Y-44070000D01*
X106802560Y-45070000D01*
X106846838Y-45305317D01*
X106985910Y-45521441D01*
X107198110Y-45666431D01*
X107450000Y-45717440D01*
X110200000Y-45717440D01*
X110435317Y-45673162D01*
X110507968Y-45626413D01*
X110523201Y-45632738D01*
X110895167Y-45633062D01*
X111238943Y-45491017D01*
X111272118Y-45457900D01*
X112695022Y-45457900D01*
X112735910Y-45521441D01*
X112948110Y-45666431D01*
X113200000Y-45717440D01*
X115950000Y-45717440D01*
X116185317Y-45673162D01*
X116401441Y-45534090D01*
X116546431Y-45321890D01*
X116597440Y-45070000D01*
X116597440Y-44070000D01*
X116553162Y-43834683D01*
X116414090Y-43618559D01*
X116201890Y-43473569D01*
X115950000Y-43422560D01*
X113200000Y-43422560D01*
X112964683Y-43466838D01*
X112748559Y-43605910D01*
X112603569Y-43818110D01*
X112593900Y-43865859D01*
X112584435Y-43867738D01*
X112584308Y-43867823D01*
X112584161Y-43867852D01*
X112479326Y-43937900D01*
X111272463Y-43937900D01*
X111240327Y-43905708D01*
X110896799Y-43763062D01*
X110756997Y-43762940D01*
X110664090Y-43618559D01*
X110451890Y-43473569D01*
X110200000Y-43422560D01*
X107450000Y-43422560D01*
X107214683Y-43466838D01*
X106998559Y-43605910D01*
X106853569Y-43818110D01*
X106802560Y-44070000D01*
X104310000Y-44070000D01*
X104310000Y-42100580D01*
X119152990Y-42100580D01*
X119152990Y-44599940D01*
X119197268Y-44835257D01*
X119336340Y-45051381D01*
X119548540Y-45196371D01*
X119800430Y-45247380D01*
X121799410Y-45247380D01*
X122034727Y-45203102D01*
X122250851Y-45064030D01*
X122395841Y-44851830D01*
X122446850Y-44599940D01*
X122446850Y-43735070D01*
X122764610Y-43735070D01*
X122764610Y-44726249D01*
X122861283Y-44959638D01*
X123039911Y-45138267D01*
X123273300Y-45234940D01*
X123365955Y-45234940D01*
X123524705Y-45076190D01*
X123524705Y-43576320D01*
X122923360Y-43576320D01*
X122764610Y-43735070D01*
X122446850Y-43735070D01*
X122446850Y-42100580D01*
X122402572Y-41865263D01*
X122263500Y-41649139D01*
X122051300Y-41504149D01*
X121799410Y-41453140D01*
X119800430Y-41453140D01*
X119565113Y-41497418D01*
X119348989Y-41636490D01*
X119203999Y-41848690D01*
X119152990Y-42100580D01*
X104310000Y-42100580D01*
X104310000Y-40827000D01*
X106196450Y-40827000D01*
X106259967Y-40869441D01*
X107200000Y-41056425D01*
X108140033Y-40869441D01*
X108203550Y-40827000D01*
X109300000Y-40827000D01*
X109349410Y-40816994D01*
X109391035Y-40788553D01*
X109418315Y-40746159D01*
X109427000Y-40700000D01*
X109427000Y-39603550D01*
X109469441Y-39540033D01*
X109597596Y-38895750D01*
X112297400Y-38895750D01*
X112297400Y-39853910D01*
X112394073Y-40087299D01*
X112572702Y-40265927D01*
X112806091Y-40362600D01*
X113764250Y-40362600D01*
X113923000Y-40203850D01*
X113923000Y-38737000D01*
X114177000Y-38737000D01*
X114177000Y-40203850D01*
X114335750Y-40362600D01*
X115293909Y-40362600D01*
X115527298Y-40265927D01*
X115705927Y-40087299D01*
X115802600Y-39853910D01*
X115802600Y-38895750D01*
X115643850Y-38737000D01*
X114177000Y-38737000D01*
X113923000Y-38737000D01*
X112456150Y-38737000D01*
X112297400Y-38895750D01*
X109597596Y-38895750D01*
X109656425Y-38600000D01*
X109469441Y-37659967D01*
X109427000Y-37596450D01*
X109427000Y-37366090D01*
X112297400Y-37366090D01*
X112297400Y-38324250D01*
X112456150Y-38483000D01*
X113923000Y-38483000D01*
X113923000Y-37016150D01*
X114177000Y-37016150D01*
X114177000Y-38483000D01*
X115643850Y-38483000D01*
X115802600Y-38324250D01*
X115802600Y-37366090D01*
X115705927Y-37132701D01*
X115527298Y-36954073D01*
X115293909Y-36857400D01*
X114335750Y-36857400D01*
X114177000Y-37016150D01*
X113923000Y-37016150D01*
X113764250Y-36857400D01*
X112806091Y-36857400D01*
X112572702Y-36954073D01*
X112394073Y-37132701D01*
X112297400Y-37366090D01*
X109427000Y-37366090D01*
X109427000Y-36601480D01*
X119152990Y-36601480D01*
X119152990Y-39100840D01*
X119197268Y-39336157D01*
X119336340Y-39552281D01*
X119548540Y-39697271D01*
X119800430Y-39748280D01*
X121799410Y-39748280D01*
X122034727Y-39704002D01*
X122250851Y-39564930D01*
X122395841Y-39352730D01*
X122446850Y-39100840D01*
X122446850Y-36601480D01*
X128053150Y-36601480D01*
X128053150Y-39100840D01*
X128097428Y-39336157D01*
X128236500Y-39552281D01*
X128448700Y-39697271D01*
X128700590Y-39748280D01*
X130699570Y-39748280D01*
X130934887Y-39704002D01*
X131151011Y-39564930D01*
X131296001Y-39352730D01*
X131347010Y-39100840D01*
X131347010Y-36601480D01*
X131302732Y-36366163D01*
X131163660Y-36150039D01*
X130951460Y-36005049D01*
X130699570Y-35954040D01*
X128700590Y-35954040D01*
X128465273Y-35998318D01*
X128249149Y-36137390D01*
X128104159Y-36349590D01*
X128053150Y-36601480D01*
X122446850Y-36601480D01*
X122402572Y-36366163D01*
X122263500Y-36150039D01*
X122051300Y-36005049D01*
X121799410Y-35954040D01*
X119800430Y-35954040D01*
X119565113Y-35998318D01*
X119348989Y-36137390D01*
X119203999Y-36349590D01*
X119152990Y-36601480D01*
X109427000Y-36601480D01*
X109427000Y-35710000D01*
X183473000Y-35710000D01*
X183473000Y-37446517D01*
G36*
X132469673Y-65692192D02*
X132813201Y-65834838D01*
X133185167Y-65835162D01*
X133262560Y-65803184D01*
X133262560Y-66025000D01*
X133286944Y-66154589D01*
X133262560Y-66275000D01*
X133262560Y-66825000D01*
X133286944Y-66954589D01*
X133262560Y-67075000D01*
X133262560Y-67625000D01*
X133286944Y-67754589D01*
X133262560Y-67875000D01*
X133262560Y-68152560D01*
X132985000Y-68152560D01*
X132855411Y-68176944D01*
X132735000Y-68152560D01*
X132666008Y-68152560D01*
X132734838Y-67986799D01*
X132735162Y-67614833D01*
X132593117Y-67271057D01*
X132330327Y-67007808D01*
X131986799Y-66865162D01*
X131614833Y-66864838D01*
X131271057Y-67006883D01*
X131007808Y-67269673D01*
X130865162Y-67613201D01*
X130864838Y-67985167D01*
X130900000Y-68070266D01*
X130900000Y-68385025D01*
X130860116Y-68443397D01*
X130799090Y-68348559D01*
X130668755Y-68259505D01*
X130574250Y-68165000D01*
X130458690Y-68165000D01*
X130438247Y-68173468D01*
X130335000Y-68152560D01*
X129785000Y-68152560D01*
X129679295Y-68172450D01*
X129661310Y-68165000D01*
X129545750Y-68165000D01*
X129449349Y-68261401D01*
X129333559Y-68335910D01*
X129260116Y-68443397D01*
X129199090Y-68348559D01*
X129068755Y-68259505D01*
X129041687Y-68232437D01*
X129169638Y-67924299D01*
X129169962Y-67552333D01*
X129027917Y-67208557D01*
X128941594Y-67122084D01*
X128993501Y-67087401D01*
X129504680Y-66576222D01*
X129550167Y-66576262D01*
X129893943Y-66434217D01*
X130157192Y-66171427D01*
X130299838Y-65827899D01*
X130299984Y-65660000D01*
X132437537Y-65660000D01*
X132469673Y-65692192D01*
X132469673Y-65692192D01*
G37*
X132469673Y-65692192D02*
X132813201Y-65834838D01*
X133185167Y-65835162D01*
X133262560Y-65803184D01*
X133262560Y-66025000D01*
X133286944Y-66154589D01*
X133262560Y-66275000D01*
X133262560Y-66825000D01*
X133286944Y-66954589D01*
X133262560Y-67075000D01*
X133262560Y-67625000D01*
X133286944Y-67754589D01*
X133262560Y-67875000D01*
X133262560Y-68152560D01*
X132985000Y-68152560D01*
X132855411Y-68176944D01*
X132735000Y-68152560D01*
X132666008Y-68152560D01*
X132734838Y-67986799D01*
X132735162Y-67614833D01*
X132593117Y-67271057D01*
X132330327Y-67007808D01*
X131986799Y-66865162D01*
X131614833Y-66864838D01*
X131271057Y-67006883D01*
X131007808Y-67269673D01*
X130865162Y-67613201D01*
X130864838Y-67985167D01*
X130900000Y-68070266D01*
X130900000Y-68385025D01*
X130860116Y-68443397D01*
X130799090Y-68348559D01*
X130668755Y-68259505D01*
X130574250Y-68165000D01*
X130458690Y-68165000D01*
X130438247Y-68173468D01*
X130335000Y-68152560D01*
X129785000Y-68152560D01*
X129679295Y-68172450D01*
X129661310Y-68165000D01*
X129545750Y-68165000D01*
X129449349Y-68261401D01*
X129333559Y-68335910D01*
X129260116Y-68443397D01*
X129199090Y-68348559D01*
X129068755Y-68259505D01*
X129041687Y-68232437D01*
X129169638Y-67924299D01*
X129169962Y-67552333D01*
X129027917Y-67208557D01*
X128941594Y-67122084D01*
X128993501Y-67087401D01*
X129504680Y-66576222D01*
X129550167Y-66576262D01*
X129893943Y-66434217D01*
X130157192Y-66171427D01*
X130299838Y-65827899D01*
X130299984Y-65660000D01*
X132437537Y-65660000D01*
X132469673Y-65692192D01*
M02*
