M48
;DRILL file {KiCad 4.0.1-2.201512121406+6195~38~ubuntu14.04.1-stable} date Tue 15 Dec 2015 12:48:38 AM EET
;FORMAT={-:-/ absolute / inch / decimal}
FMAT,2
INCH,TZ
T1C0.016
T2C0.040
T3C0.035
%
G90
G05
M72
T1
X4.3587Y-1.7598
X4.383Y-3.0019
X4.3837Y-2.5746
X4.4042Y-2.1942
X4.6209Y-2.6651
X4.6366Y-2.3612
X4.7993Y-3.0979
X4.8546Y-1.8456
X4.8963Y-2.4941
X4.9133Y-2.3248
X4.9208Y-3.0979
X4.9409Y-1.8268
X4.9676Y-1.7766
X5.0142Y-3.0979
X5.0486Y-2.6668
X5.0827Y-2.8031
X5.0901Y-1.8897
X5.0931Y-2.5843
X5.1181Y-2.8071
X5.1299Y-2.3346
X5.1496Y-2.6693
X5.1831Y-2.8896
X5.189Y-2.6693
X5.1941Y-1.8804
X5.2165Y-2.3307
X5.2362Y-2.5551
X5.414Y-2.8913
X5.4882Y-2.1378
X5.6811Y-3.0996
X5.7625Y-2.5855
X5.8801Y-3.0019
X5.9606Y-2.3071
X5.9986Y-2.5256
X6.0079Y-1.9685
X6.1457Y-3.0079
X6.3179Y-2.5571
X6.4469Y-3.0019
X6.5098Y-1.8005
X6.5197Y-1.6339
X6.5394Y-1.878
X6.5433Y-1.6693
X6.5668Y-2.5399
X6.6299Y-2.0157
X6.6969Y-2.9961
X7.0137Y-3.0296
X7.0137Y-3.1842
T2
X4.4902Y-1.5201
X5.3976Y-1.6528
X5.3976Y-1.7528
X5.3976Y-1.8528
X5.3976Y-1.9528
X7.2677Y-2.1654
X7.2677Y-2.2654
X7.2677Y-2.3654
X7.2677Y-2.4654
X7.2677Y-2.5654
X7.3189Y-1.7835
X7.3677Y-2.1654
X7.3677Y-2.2654
X7.3677Y-2.3654
X7.3677Y-2.4654
X7.3677Y-2.5654
T3
X4.8445Y-1.6083
X5.0177Y-1.6083
T0
M30
