G04 #@! TF.FileFunction,Soldermask,Top*
%FSLAX46Y46*%
G04 Gerber Fmt 4.6, Leading zero omitted, Abs format (unit mm)*
G04 Created by KiCad (PCBNEW 4.0.7-e1-6374~58~ubuntu16.04.1) date Sat Aug 19 03:02:01 2017*
%MOMM*%
%LPD*%
G01*
G04 APERTURE LIST*
%ADD10C,0.100000*%
%ADD11C,0.010000*%
%ADD12C,1.900000*%
%ADD13O,2.400000X4.900000*%
%ADD14R,1.000000X3.400000*%
%ADD15R,0.900000X2.700000*%
%ADD16R,2.400000X2.900000*%
%ADD17C,1.300000*%
%ADD18R,1.600000X1.600000*%
%ADD19R,2.100000X2.100000*%
%ADD20O,2.100000X2.100000*%
%ADD21R,3.150000X1.400000*%
%ADD22R,2.127200X2.127200*%
%ADD23O,2.127200X2.127200*%
G04 APERTURE END LIST*
D10*
D11*
G36*
X150281686Y-124702177D02*
X150304912Y-124714220D01*
X150420703Y-124806421D01*
X150393091Y-124895280D01*
X150392396Y-124895978D01*
X150310178Y-125077662D01*
X150341753Y-125294996D01*
X150458056Y-125463362D01*
X150551982Y-125535461D01*
X150641241Y-125543846D01*
X150768792Y-125476867D01*
X150977598Y-125322877D01*
X150978378Y-125322281D01*
X151345144Y-125042235D01*
X151624573Y-125231860D01*
X151840056Y-125364771D01*
X152027351Y-125458792D01*
X152062624Y-125471831D01*
X152125231Y-125500492D01*
X152167865Y-125556803D01*
X152193444Y-125666306D01*
X152204886Y-125854543D01*
X152205110Y-126147053D01*
X152197034Y-126569379D01*
X152195529Y-126635034D01*
X152169812Y-127747892D01*
X151693562Y-128173707D01*
X151463416Y-128372745D01*
X151275836Y-128522574D01*
X151163531Y-128597434D01*
X151150457Y-128601448D01*
X151047058Y-128557979D01*
X150888896Y-128450186D01*
X150881784Y-128444625D01*
X150722053Y-128334260D01*
X150613680Y-128285961D01*
X150611295Y-128285875D01*
X150575878Y-128358170D01*
X150551081Y-128546882D01*
X150542625Y-128787111D01*
X150538696Y-129061503D01*
X150513242Y-129223557D01*
X150445763Y-129319684D01*
X150315758Y-129396292D01*
X150262119Y-129422111D01*
X150021235Y-129525008D01*
X149879459Y-129545906D01*
X149800617Y-129485873D01*
X149777416Y-129436390D01*
X149758902Y-129302169D01*
X149752696Y-129059326D01*
X149759901Y-128757593D01*
X149761606Y-128722015D01*
X149773410Y-128397516D01*
X149764665Y-128210696D01*
X149729757Y-128141190D01*
X149663070Y-128168628D01*
X149619999Y-128208375D01*
X149511784Y-128228721D01*
X149406640Y-128143647D01*
X149336044Y-128047815D01*
X149342691Y-127960599D01*
X149442115Y-127837536D01*
X149551390Y-127729326D01*
X149686157Y-127592302D01*
X149768073Y-127472491D01*
X149810292Y-127325333D01*
X149825966Y-127106270D01*
X149828165Y-126803072D01*
X150542625Y-126803072D01*
X150542625Y-127459318D01*
X150879968Y-127588939D01*
X151147824Y-127684677D01*
X151306017Y-127710214D01*
X151390411Y-127658782D01*
X151436871Y-127523611D01*
X151445515Y-127482203D01*
X151471393Y-127272446D01*
X151489342Y-126973369D01*
X151495125Y-126690491D01*
X151491157Y-126400960D01*
X151468914Y-126226728D01*
X151412888Y-126124369D01*
X151307572Y-126050457D01*
X151257000Y-126023687D01*
X151074048Y-125946646D01*
X150927865Y-125956810D01*
X150780750Y-126023687D01*
X150664075Y-126090264D01*
X150593527Y-126166786D01*
X150557504Y-126291227D01*
X150544404Y-126501556D01*
X150542625Y-126803072D01*
X149828165Y-126803072D01*
X149828250Y-126791391D01*
X149819932Y-126424508D01*
X149789373Y-126168474D01*
X149728164Y-125975994D01*
X149661136Y-125851405D01*
X149563061Y-125631743D01*
X149565468Y-125420151D01*
X149677085Y-125181895D01*
X149903903Y-124885461D01*
X150055588Y-124723734D01*
X150164855Y-124669754D01*
X150281686Y-124702177D01*
X150281686Y-124702177D01*
G37*
X150281686Y-124702177D02*
X150304912Y-124714220D01*
X150420703Y-124806421D01*
X150393091Y-124895280D01*
X150392396Y-124895978D01*
X150310178Y-125077662D01*
X150341753Y-125294996D01*
X150458056Y-125463362D01*
X150551982Y-125535461D01*
X150641241Y-125543846D01*
X150768792Y-125476867D01*
X150977598Y-125322877D01*
X150978378Y-125322281D01*
X151345144Y-125042235D01*
X151624573Y-125231860D01*
X151840056Y-125364771D01*
X152027351Y-125458792D01*
X152062624Y-125471831D01*
X152125231Y-125500492D01*
X152167865Y-125556803D01*
X152193444Y-125666306D01*
X152204886Y-125854543D01*
X152205110Y-126147053D01*
X152197034Y-126569379D01*
X152195529Y-126635034D01*
X152169812Y-127747892D01*
X151693562Y-128173707D01*
X151463416Y-128372745D01*
X151275836Y-128522574D01*
X151163531Y-128597434D01*
X151150457Y-128601448D01*
X151047058Y-128557979D01*
X150888896Y-128450186D01*
X150881784Y-128444625D01*
X150722053Y-128334260D01*
X150613680Y-128285961D01*
X150611295Y-128285875D01*
X150575878Y-128358170D01*
X150551081Y-128546882D01*
X150542625Y-128787111D01*
X150538696Y-129061503D01*
X150513242Y-129223557D01*
X150445763Y-129319684D01*
X150315758Y-129396292D01*
X150262119Y-129422111D01*
X150021235Y-129525008D01*
X149879459Y-129545906D01*
X149800617Y-129485873D01*
X149777416Y-129436390D01*
X149758902Y-129302169D01*
X149752696Y-129059326D01*
X149759901Y-128757593D01*
X149761606Y-128722015D01*
X149773410Y-128397516D01*
X149764665Y-128210696D01*
X149729757Y-128141190D01*
X149663070Y-128168628D01*
X149619999Y-128208375D01*
X149511784Y-128228721D01*
X149406640Y-128143647D01*
X149336044Y-128047815D01*
X149342691Y-127960599D01*
X149442115Y-127837536D01*
X149551390Y-127729326D01*
X149686157Y-127592302D01*
X149768073Y-127472491D01*
X149810292Y-127325333D01*
X149825966Y-127106270D01*
X149828165Y-126803072D01*
X150542625Y-126803072D01*
X150542625Y-127459318D01*
X150879968Y-127588939D01*
X151147824Y-127684677D01*
X151306017Y-127710214D01*
X151390411Y-127658782D01*
X151436871Y-127523611D01*
X151445515Y-127482203D01*
X151471393Y-127272446D01*
X151489342Y-126973369D01*
X151495125Y-126690491D01*
X151491157Y-126400960D01*
X151468914Y-126226728D01*
X151412888Y-126124369D01*
X151307572Y-126050457D01*
X151257000Y-126023687D01*
X151074048Y-125946646D01*
X150927865Y-125956810D01*
X150780750Y-126023687D01*
X150664075Y-126090264D01*
X150593527Y-126166786D01*
X150557504Y-126291227D01*
X150544404Y-126501556D01*
X150542625Y-126803072D01*
X149828165Y-126803072D01*
X149828250Y-126791391D01*
X149819932Y-126424508D01*
X149789373Y-126168474D01*
X149728164Y-125975994D01*
X149661136Y-125851405D01*
X149563061Y-125631743D01*
X149565468Y-125420151D01*
X149677085Y-125181895D01*
X149903903Y-124885461D01*
X150055588Y-124723734D01*
X150164855Y-124669754D01*
X150281686Y-124702177D01*
G36*
X146645485Y-125219737D02*
X146830054Y-125317044D01*
X146957535Y-125332237D01*
X147104408Y-125268998D01*
X147148606Y-125243957D01*
X147325686Y-125164846D01*
X147445863Y-125150775D01*
X147452376Y-125153885D01*
X147475424Y-125245326D01*
X147488783Y-125465868D01*
X147491748Y-125786117D01*
X147483610Y-126176679D01*
X147479619Y-126285320D01*
X147464360Y-126784804D01*
X147467124Y-127143239D01*
X147491726Y-127377692D01*
X147541982Y-127505227D01*
X147621709Y-127542909D01*
X147734721Y-127507803D01*
X147751072Y-127499311D01*
X147891257Y-127454892D01*
X147982158Y-127534938D01*
X147999621Y-127565887D01*
X148027853Y-127659659D01*
X147987222Y-127753833D01*
X147855472Y-127877369D01*
X147632844Y-128043146D01*
X147400104Y-128203706D01*
X147216560Y-128319114D01*
X147120753Y-128365190D01*
X147119439Y-128365250D01*
X147039175Y-128305473D01*
X146915363Y-128155964D01*
X146870846Y-128092995D01*
X146685845Y-127820741D01*
X146252828Y-128208621D01*
X146029787Y-128398660D01*
X145845529Y-128538008D01*
X145736700Y-128599173D01*
X145731212Y-128599938D01*
X145638483Y-128543748D01*
X145487865Y-128394416D01*
X145345932Y-128226343D01*
X145049253Y-127849312D01*
X145085971Y-126990993D01*
X145800218Y-126990993D01*
X145832705Y-127269564D01*
X145888436Y-127438948D01*
X145977251Y-127622943D01*
X146049116Y-127723739D01*
X146062923Y-127730250D01*
X146158529Y-127694502D01*
X146337523Y-127604435D01*
X146424161Y-127556883D01*
X146732625Y-127383517D01*
X146732625Y-126082221D01*
X146362930Y-125989130D01*
X146145205Y-125942478D01*
X146003969Y-125951519D01*
X145917876Y-126041014D01*
X145865583Y-126235726D01*
X145825745Y-126560416D01*
X145819788Y-126619234D01*
X145800218Y-126990993D01*
X145085971Y-126990993D01*
X145088303Y-126936500D01*
X145108033Y-126562346D01*
X145131923Y-126240186D01*
X145156791Y-126007013D01*
X145177034Y-125904625D01*
X145263917Y-125809703D01*
X145452003Y-125660685D01*
X145706100Y-125484693D01*
X145801077Y-125423657D01*
X146375437Y-125061752D01*
X146645485Y-125219737D01*
X146645485Y-125219737D01*
G37*
X146645485Y-125219737D02*
X146830054Y-125317044D01*
X146957535Y-125332237D01*
X147104408Y-125268998D01*
X147148606Y-125243957D01*
X147325686Y-125164846D01*
X147445863Y-125150775D01*
X147452376Y-125153885D01*
X147475424Y-125245326D01*
X147488783Y-125465868D01*
X147491748Y-125786117D01*
X147483610Y-126176679D01*
X147479619Y-126285320D01*
X147464360Y-126784804D01*
X147467124Y-127143239D01*
X147491726Y-127377692D01*
X147541982Y-127505227D01*
X147621709Y-127542909D01*
X147734721Y-127507803D01*
X147751072Y-127499311D01*
X147891257Y-127454892D01*
X147982158Y-127534938D01*
X147999621Y-127565887D01*
X148027853Y-127659659D01*
X147987222Y-127753833D01*
X147855472Y-127877369D01*
X147632844Y-128043146D01*
X147400104Y-128203706D01*
X147216560Y-128319114D01*
X147120753Y-128365190D01*
X147119439Y-128365250D01*
X147039175Y-128305473D01*
X146915363Y-128155964D01*
X146870846Y-128092995D01*
X146685845Y-127820741D01*
X146252828Y-128208621D01*
X146029787Y-128398660D01*
X145845529Y-128538008D01*
X145736700Y-128599173D01*
X145731212Y-128599938D01*
X145638483Y-128543748D01*
X145487865Y-128394416D01*
X145345932Y-128226343D01*
X145049253Y-127849312D01*
X145085971Y-126990993D01*
X145800218Y-126990993D01*
X145832705Y-127269564D01*
X145888436Y-127438948D01*
X145977251Y-127622943D01*
X146049116Y-127723739D01*
X146062923Y-127730250D01*
X146158529Y-127694502D01*
X146337523Y-127604435D01*
X146424161Y-127556883D01*
X146732625Y-127383517D01*
X146732625Y-126082221D01*
X146362930Y-125989130D01*
X146145205Y-125942478D01*
X146003969Y-125951519D01*
X145917876Y-126041014D01*
X145865583Y-126235726D01*
X145825745Y-126560416D01*
X145819788Y-126619234D01*
X145800218Y-126990993D01*
X145085971Y-126990993D01*
X145088303Y-126936500D01*
X145108033Y-126562346D01*
X145131923Y-126240186D01*
X145156791Y-126007013D01*
X145177034Y-125904625D01*
X145263917Y-125809703D01*
X145452003Y-125660685D01*
X145706100Y-125484693D01*
X145801077Y-125423657D01*
X146375437Y-125061752D01*
X146645485Y-125219737D01*
G36*
X159027985Y-125219737D02*
X159212554Y-125317044D01*
X159340035Y-125332237D01*
X159486908Y-125268998D01*
X159531106Y-125243957D01*
X159708186Y-125164846D01*
X159828363Y-125150775D01*
X159834876Y-125153885D01*
X159857924Y-125245326D01*
X159871283Y-125465868D01*
X159874248Y-125786117D01*
X159866110Y-126176679D01*
X159862119Y-126285320D01*
X159846860Y-126784804D01*
X159849624Y-127143239D01*
X159874226Y-127377692D01*
X159924482Y-127505227D01*
X160004209Y-127542909D01*
X160117221Y-127507803D01*
X160133572Y-127499311D01*
X160273757Y-127454892D01*
X160364658Y-127534938D01*
X160382121Y-127565887D01*
X160410353Y-127659659D01*
X160369722Y-127753833D01*
X160237972Y-127877369D01*
X160015344Y-128043146D01*
X159782604Y-128203706D01*
X159599060Y-128319114D01*
X159503253Y-128365190D01*
X159501939Y-128365250D01*
X159421675Y-128305473D01*
X159297863Y-128155964D01*
X159253346Y-128092995D01*
X159068345Y-127820741D01*
X158635328Y-128208621D01*
X158412287Y-128398660D01*
X158228029Y-128538008D01*
X158119200Y-128599173D01*
X158113712Y-128599938D01*
X158020983Y-128543748D01*
X157870365Y-128394416D01*
X157728432Y-128226343D01*
X157431753Y-127849312D01*
X157468471Y-126990993D01*
X158182718Y-126990993D01*
X158215205Y-127269564D01*
X158270936Y-127438948D01*
X158359751Y-127622943D01*
X158431616Y-127723739D01*
X158445423Y-127730250D01*
X158541029Y-127694502D01*
X158720023Y-127604435D01*
X158806661Y-127556883D01*
X159115125Y-127383517D01*
X159115125Y-126082221D01*
X158745430Y-125989130D01*
X158527705Y-125942478D01*
X158386469Y-125951519D01*
X158300376Y-126041014D01*
X158248083Y-126235726D01*
X158208245Y-126560416D01*
X158202288Y-126619234D01*
X158182718Y-126990993D01*
X157468471Y-126990993D01*
X157470803Y-126936500D01*
X157490533Y-126562346D01*
X157514423Y-126240186D01*
X157539291Y-126007013D01*
X157559534Y-125904625D01*
X157646417Y-125809703D01*
X157834503Y-125660685D01*
X158088600Y-125484693D01*
X158183577Y-125423657D01*
X158757937Y-125061752D01*
X159027985Y-125219737D01*
X159027985Y-125219737D01*
G37*
X159027985Y-125219737D02*
X159212554Y-125317044D01*
X159340035Y-125332237D01*
X159486908Y-125268998D01*
X159531106Y-125243957D01*
X159708186Y-125164846D01*
X159828363Y-125150775D01*
X159834876Y-125153885D01*
X159857924Y-125245326D01*
X159871283Y-125465868D01*
X159874248Y-125786117D01*
X159866110Y-126176679D01*
X159862119Y-126285320D01*
X159846860Y-126784804D01*
X159849624Y-127143239D01*
X159874226Y-127377692D01*
X159924482Y-127505227D01*
X160004209Y-127542909D01*
X160117221Y-127507803D01*
X160133572Y-127499311D01*
X160273757Y-127454892D01*
X160364658Y-127534938D01*
X160382121Y-127565887D01*
X160410353Y-127659659D01*
X160369722Y-127753833D01*
X160237972Y-127877369D01*
X160015344Y-128043146D01*
X159782604Y-128203706D01*
X159599060Y-128319114D01*
X159503253Y-128365190D01*
X159501939Y-128365250D01*
X159421675Y-128305473D01*
X159297863Y-128155964D01*
X159253346Y-128092995D01*
X159068345Y-127820741D01*
X158635328Y-128208621D01*
X158412287Y-128398660D01*
X158228029Y-128538008D01*
X158119200Y-128599173D01*
X158113712Y-128599938D01*
X158020983Y-128543748D01*
X157870365Y-128394416D01*
X157728432Y-128226343D01*
X157431753Y-127849312D01*
X157468471Y-126990993D01*
X158182718Y-126990993D01*
X158215205Y-127269564D01*
X158270936Y-127438948D01*
X158359751Y-127622943D01*
X158431616Y-127723739D01*
X158445423Y-127730250D01*
X158541029Y-127694502D01*
X158720023Y-127604435D01*
X158806661Y-127556883D01*
X159115125Y-127383517D01*
X159115125Y-126082221D01*
X158745430Y-125989130D01*
X158527705Y-125942478D01*
X158386469Y-125951519D01*
X158300376Y-126041014D01*
X158248083Y-126235726D01*
X158208245Y-126560416D01*
X158202288Y-126619234D01*
X158182718Y-126990993D01*
X157468471Y-126990993D01*
X157470803Y-126936500D01*
X157490533Y-126562346D01*
X157514423Y-126240186D01*
X157539291Y-126007013D01*
X157559534Y-125904625D01*
X157646417Y-125809703D01*
X157834503Y-125660685D01*
X158088600Y-125484693D01*
X158183577Y-125423657D01*
X158757937Y-125061752D01*
X159027985Y-125219737D01*
G36*
X162429031Y-123920245D02*
X162574074Y-123966320D01*
X162607625Y-124079000D01*
X162615703Y-124189531D01*
X162662629Y-124225978D01*
X162782437Y-124188342D01*
X163004500Y-124079000D01*
X163274469Y-123958421D01*
X163455902Y-123927862D01*
X163588034Y-123983130D01*
X163621241Y-124013116D01*
X163650280Y-124098576D01*
X163572446Y-124219227D01*
X163433708Y-124350460D01*
X163184423Y-124661483D01*
X163043975Y-125071144D01*
X163006393Y-125492631D01*
X163004500Y-125755324D01*
X163804946Y-125080378D01*
X164243965Y-125313907D01*
X164682984Y-125547437D01*
X164657336Y-126566527D01*
X164644939Y-126988389D01*
X164629181Y-127281089D01*
X164604739Y-127474205D01*
X164566292Y-127597314D01*
X164508515Y-127679992D01*
X164447038Y-127735091D01*
X164294229Y-127841712D01*
X164061012Y-127985671D01*
X163785633Y-128145613D01*
X163506337Y-128300187D01*
X163261369Y-128428040D01*
X163088975Y-128507818D01*
X163034415Y-128523785D01*
X162940847Y-128475480D01*
X162771081Y-128350803D01*
X162616306Y-128223041D01*
X162267799Y-127922511D01*
X162264227Y-127098924D01*
X163012505Y-127098924D01*
X163023989Y-127293974D01*
X163068367Y-127421114D01*
X163158375Y-127525677D01*
X163250045Y-127605251D01*
X163482294Y-127759267D01*
X163656125Y-127769291D01*
X163788118Y-127631243D01*
X163861038Y-127455000D01*
X163912717Y-127203356D01*
X163940390Y-126875959D01*
X163940413Y-126624269D01*
X163923079Y-126343097D01*
X163891124Y-126178990D01*
X163827306Y-126090285D01*
X163714383Y-126035321D01*
X163693627Y-126027930D01*
X163460057Y-125994077D01*
X163257065Y-126068751D01*
X163147816Y-126141891D01*
X163081844Y-126236759D01*
X163045935Y-126393790D01*
X163026876Y-126653421D01*
X163021179Y-126790631D01*
X163012505Y-127098924D01*
X162264227Y-127098924D01*
X162259118Y-125921376D01*
X162250437Y-123920240D01*
X162429031Y-123920245D01*
X162429031Y-123920245D01*
G37*
X162429031Y-123920245D02*
X162574074Y-123966320D01*
X162607625Y-124079000D01*
X162615703Y-124189531D01*
X162662629Y-124225978D01*
X162782437Y-124188342D01*
X163004500Y-124079000D01*
X163274469Y-123958421D01*
X163455902Y-123927862D01*
X163588034Y-123983130D01*
X163621241Y-124013116D01*
X163650280Y-124098576D01*
X163572446Y-124219227D01*
X163433708Y-124350460D01*
X163184423Y-124661483D01*
X163043975Y-125071144D01*
X163006393Y-125492631D01*
X163004500Y-125755324D01*
X163804946Y-125080378D01*
X164243965Y-125313907D01*
X164682984Y-125547437D01*
X164657336Y-126566527D01*
X164644939Y-126988389D01*
X164629181Y-127281089D01*
X164604739Y-127474205D01*
X164566292Y-127597314D01*
X164508515Y-127679992D01*
X164447038Y-127735091D01*
X164294229Y-127841712D01*
X164061012Y-127985671D01*
X163785633Y-128145613D01*
X163506337Y-128300187D01*
X163261369Y-128428040D01*
X163088975Y-128507818D01*
X163034415Y-128523785D01*
X162940847Y-128475480D01*
X162771081Y-128350803D01*
X162616306Y-128223041D01*
X162267799Y-127922511D01*
X162264227Y-127098924D01*
X163012505Y-127098924D01*
X163023989Y-127293974D01*
X163068367Y-127421114D01*
X163158375Y-127525677D01*
X163250045Y-127605251D01*
X163482294Y-127759267D01*
X163656125Y-127769291D01*
X163788118Y-127631243D01*
X163861038Y-127455000D01*
X163912717Y-127203356D01*
X163940390Y-126875959D01*
X163940413Y-126624269D01*
X163923079Y-126343097D01*
X163891124Y-126178990D01*
X163827306Y-126090285D01*
X163714383Y-126035321D01*
X163693627Y-126027930D01*
X163460057Y-125994077D01*
X163257065Y-126068751D01*
X163147816Y-126141891D01*
X163081844Y-126236759D01*
X163045935Y-126393790D01*
X163026876Y-126653421D01*
X163021179Y-126790631D01*
X163012505Y-127098924D01*
X162264227Y-127098924D01*
X162259118Y-125921376D01*
X162250437Y-123920240D01*
X162429031Y-123920245D01*
G36*
X138995229Y-124134921D02*
X139088352Y-124317812D01*
X139193140Y-124386002D01*
X139350480Y-124379608D01*
X139517778Y-124371072D01*
X139580650Y-124438993D01*
X139588875Y-124556104D01*
X139570761Y-124682084D01*
X139492758Y-124772458D01*
X139319375Y-124856126D01*
X139143020Y-124919140D01*
X138697166Y-125070691D01*
X138430435Y-124762128D01*
X138250905Y-124584623D01*
X138140831Y-124548742D01*
X138099578Y-124655122D01*
X138126511Y-124904396D01*
X138154796Y-125038043D01*
X138235065Y-125565278D01*
X138202239Y-125987679D01*
X138049675Y-126318181D01*
X137770727Y-126569719D01*
X137358754Y-126755229D01*
X137256821Y-126786405D01*
X137042728Y-126812066D01*
X136874933Y-126728123D01*
X136861919Y-126716971D01*
X136764517Y-126635124D01*
X136747409Y-126644252D01*
X136809866Y-126763928D01*
X136857047Y-126847284D01*
X137134336Y-127178654D01*
X137534085Y-127425977D01*
X138029894Y-127576153D01*
X138280339Y-127615977D01*
X138469123Y-127617261D01*
X138657638Y-127570061D01*
X138907274Y-127464431D01*
X139007772Y-127417752D01*
X139265451Y-127299016D01*
X139460892Y-127212424D01*
X139555549Y-127175007D01*
X139558099Y-127174625D01*
X139580421Y-127243311D01*
X139588875Y-127393837D01*
X139564648Y-127525650D01*
X139475093Y-127658025D01*
X139294894Y-127820019D01*
X139070281Y-127989150D01*
X138803308Y-128177240D01*
X138607655Y-128288917D01*
X138428171Y-128343721D01*
X138209705Y-128361190D01*
X138018562Y-128361766D01*
X137689286Y-128343576D01*
X137377146Y-128299918D01*
X137188502Y-128252304D01*
X136779639Y-128065864D01*
X136465298Y-127817209D01*
X136293406Y-127616399D01*
X136049221Y-127176741D01*
X135904746Y-126653198D01*
X135865559Y-126089722D01*
X135891809Y-125884849D01*
X136618759Y-125884849D01*
X136630421Y-126162593D01*
X136682107Y-126371776D01*
X136784982Y-126451716D01*
X136970069Y-126416327D01*
X137086730Y-126367266D01*
X137261892Y-126232160D01*
X137340888Y-126017198D01*
X137328749Y-125700470D01*
X137288322Y-125489307D01*
X137211604Y-125150430D01*
X137158024Y-124943730D01*
X137112729Y-124847248D01*
X137060863Y-124839025D01*
X136987573Y-124897103D01*
X136926830Y-124954926D01*
X136774013Y-125184016D01*
X136666743Y-125512652D01*
X136618759Y-125884849D01*
X135891809Y-125884849D01*
X135937242Y-125530260D01*
X136000630Y-125310325D01*
X136085053Y-125097616D01*
X136190004Y-124939164D01*
X136352967Y-124794634D01*
X136611421Y-124623693D01*
X136675205Y-124584417D01*
X136946170Y-124432654D01*
X137178922Y-124327575D01*
X137331163Y-124287665D01*
X137349893Y-124289529D01*
X137502493Y-124284647D01*
X137731639Y-124231677D01*
X137842625Y-124195171D01*
X138150531Y-124087683D01*
X138469266Y-123982434D01*
X138539093Y-123960450D01*
X138878374Y-123855245D01*
X138995229Y-124134921D01*
X138995229Y-124134921D01*
G37*
X138995229Y-124134921D02*
X139088352Y-124317812D01*
X139193140Y-124386002D01*
X139350480Y-124379608D01*
X139517778Y-124371072D01*
X139580650Y-124438993D01*
X139588875Y-124556104D01*
X139570761Y-124682084D01*
X139492758Y-124772458D01*
X139319375Y-124856126D01*
X139143020Y-124919140D01*
X138697166Y-125070691D01*
X138430435Y-124762128D01*
X138250905Y-124584623D01*
X138140831Y-124548742D01*
X138099578Y-124655122D01*
X138126511Y-124904396D01*
X138154796Y-125038043D01*
X138235065Y-125565278D01*
X138202239Y-125987679D01*
X138049675Y-126318181D01*
X137770727Y-126569719D01*
X137358754Y-126755229D01*
X137256821Y-126786405D01*
X137042728Y-126812066D01*
X136874933Y-126728123D01*
X136861919Y-126716971D01*
X136764517Y-126635124D01*
X136747409Y-126644252D01*
X136809866Y-126763928D01*
X136857047Y-126847284D01*
X137134336Y-127178654D01*
X137534085Y-127425977D01*
X138029894Y-127576153D01*
X138280339Y-127615977D01*
X138469123Y-127617261D01*
X138657638Y-127570061D01*
X138907274Y-127464431D01*
X139007772Y-127417752D01*
X139265451Y-127299016D01*
X139460892Y-127212424D01*
X139555549Y-127175007D01*
X139558099Y-127174625D01*
X139580421Y-127243311D01*
X139588875Y-127393837D01*
X139564648Y-127525650D01*
X139475093Y-127658025D01*
X139294894Y-127820019D01*
X139070281Y-127989150D01*
X138803308Y-128177240D01*
X138607655Y-128288917D01*
X138428171Y-128343721D01*
X138209705Y-128361190D01*
X138018562Y-128361766D01*
X137689286Y-128343576D01*
X137377146Y-128299918D01*
X137188502Y-128252304D01*
X136779639Y-128065864D01*
X136465298Y-127817209D01*
X136293406Y-127616399D01*
X136049221Y-127176741D01*
X135904746Y-126653198D01*
X135865559Y-126089722D01*
X135891809Y-125884849D01*
X136618759Y-125884849D01*
X136630421Y-126162593D01*
X136682107Y-126371776D01*
X136784982Y-126451716D01*
X136970069Y-126416327D01*
X137086730Y-126367266D01*
X137261892Y-126232160D01*
X137340888Y-126017198D01*
X137328749Y-125700470D01*
X137288322Y-125489307D01*
X137211604Y-125150430D01*
X137158024Y-124943730D01*
X137112729Y-124847248D01*
X137060863Y-124839025D01*
X136987573Y-124897103D01*
X136926830Y-124954926D01*
X136774013Y-125184016D01*
X136666743Y-125512652D01*
X136618759Y-125884849D01*
X135891809Y-125884849D01*
X135937242Y-125530260D01*
X136000630Y-125310325D01*
X136085053Y-125097616D01*
X136190004Y-124939164D01*
X136352967Y-124794634D01*
X136611421Y-124623693D01*
X136675205Y-124584417D01*
X136946170Y-124432654D01*
X137178922Y-124327575D01*
X137331163Y-124287665D01*
X137349893Y-124289529D01*
X137502493Y-124284647D01*
X137731639Y-124231677D01*
X137842625Y-124195171D01*
X138150531Y-124087683D01*
X138469266Y-123982434D01*
X138539093Y-123960450D01*
X138878374Y-123855245D01*
X138995229Y-124134921D01*
G36*
X141929982Y-125269183D02*
X142099000Y-125416277D01*
X142228903Y-125500229D01*
X142256709Y-125507750D01*
X142358210Y-125454910D01*
X142512287Y-125323206D01*
X142561363Y-125273877D01*
X142785427Y-125040005D01*
X142957531Y-125293721D01*
X143124492Y-125478045D01*
X143291587Y-125524084D01*
X143303942Y-125522604D01*
X143443647Y-125547430D01*
X143476465Y-125658669D01*
X143405685Y-125828442D01*
X143245412Y-126018622D01*
X143049825Y-126169656D01*
X142870705Y-126208337D01*
X142789005Y-126197829D01*
X142515818Y-126144491D01*
X142353411Y-126135622D01*
X142271401Y-126198576D01*
X142239404Y-126360706D01*
X142227034Y-126649365D01*
X142224982Y-126705582D01*
X142219811Y-127036707D01*
X142239919Y-127255053D01*
X142292728Y-127405586D01*
X142355825Y-127498035D01*
X142461282Y-127615416D01*
X142555109Y-127645804D01*
X142700133Y-127596398D01*
X142800950Y-127549043D01*
X143046442Y-127459166D01*
X143188156Y-127479212D01*
X143239409Y-127611909D01*
X143240125Y-127639067D01*
X143170117Y-127757747D01*
X142973304Y-127920278D01*
X142737018Y-128070945D01*
X142485379Y-128214110D01*
X142288214Y-128318797D01*
X142184051Y-128364664D01*
X142179620Y-128365250D01*
X142096477Y-128315520D01*
X141937075Y-128186755D01*
X141783715Y-128050362D01*
X141442102Y-127735475D01*
X141478184Y-126859737D01*
X141514266Y-125984000D01*
X141285789Y-125982784D01*
X141075020Y-125954621D01*
X140938250Y-125900666D01*
X140895351Y-125840782D01*
X140931394Y-125749740D01*
X141062304Y-125603369D01*
X141251515Y-125425190D01*
X141683844Y-125030617D01*
X141929982Y-125269183D01*
X141929982Y-125269183D01*
G37*
X141929982Y-125269183D02*
X142099000Y-125416277D01*
X142228903Y-125500229D01*
X142256709Y-125507750D01*
X142358210Y-125454910D01*
X142512287Y-125323206D01*
X142561363Y-125273877D01*
X142785427Y-125040005D01*
X142957531Y-125293721D01*
X143124492Y-125478045D01*
X143291587Y-125524084D01*
X143303942Y-125522604D01*
X143443647Y-125547430D01*
X143476465Y-125658669D01*
X143405685Y-125828442D01*
X143245412Y-126018622D01*
X143049825Y-126169656D01*
X142870705Y-126208337D01*
X142789005Y-126197829D01*
X142515818Y-126144491D01*
X142353411Y-126135622D01*
X142271401Y-126198576D01*
X142239404Y-126360706D01*
X142227034Y-126649365D01*
X142224982Y-126705582D01*
X142219811Y-127036707D01*
X142239919Y-127255053D01*
X142292728Y-127405586D01*
X142355825Y-127498035D01*
X142461282Y-127615416D01*
X142555109Y-127645804D01*
X142700133Y-127596398D01*
X142800950Y-127549043D01*
X143046442Y-127459166D01*
X143188156Y-127479212D01*
X143239409Y-127611909D01*
X143240125Y-127639067D01*
X143170117Y-127757747D01*
X142973304Y-127920278D01*
X142737018Y-128070945D01*
X142485379Y-128214110D01*
X142288214Y-128318797D01*
X142184051Y-128364664D01*
X142179620Y-128365250D01*
X142096477Y-128315520D01*
X141937075Y-128186755D01*
X141783715Y-128050362D01*
X141442102Y-127735475D01*
X141478184Y-126859737D01*
X141514266Y-125984000D01*
X141285789Y-125982784D01*
X141075020Y-125954621D01*
X140938250Y-125900666D01*
X140895351Y-125840782D01*
X140931394Y-125749740D01*
X141062304Y-125603369D01*
X141251515Y-125425190D01*
X141683844Y-125030617D01*
X141929982Y-125269183D01*
G36*
X154811514Y-123996195D02*
X154828037Y-124037109D01*
X154905808Y-124241661D01*
X155294640Y-124044625D01*
X155520252Y-123934772D01*
X155652285Y-123894145D01*
X155737738Y-123918215D01*
X155816305Y-123994368D01*
X155893964Y-124099165D01*
X155873659Y-124180659D01*
X155738731Y-124290911D01*
X155716292Y-124306947D01*
X155543731Y-124449763D01*
X155416124Y-124614275D01*
X155327043Y-124825798D01*
X155270055Y-125109646D01*
X155238731Y-125491134D01*
X155226641Y-125995577D01*
X155225750Y-126238089D01*
X155229556Y-126761476D01*
X155244043Y-127142598D01*
X155273815Y-127397826D01*
X155323476Y-127543529D01*
X155397628Y-127596075D01*
X155500875Y-127571836D01*
X155586807Y-127521977D01*
X155721549Y-127448538D01*
X155787424Y-127483447D01*
X155821483Y-127572825D01*
X155853375Y-127714663D01*
X155848153Y-127764174D01*
X155721325Y-127855682D01*
X155524603Y-127986374D01*
X155300745Y-128129289D01*
X155092511Y-128257465D01*
X154942661Y-128343942D01*
X154894870Y-128365250D01*
X154817776Y-128306688D01*
X154695463Y-128161380D01*
X154661691Y-128115281D01*
X154606278Y-128032010D01*
X154563800Y-127943566D01*
X154532596Y-127828958D01*
X154511003Y-127667193D01*
X154497357Y-127437279D01*
X154489995Y-127118223D01*
X154487256Y-126689032D01*
X154487476Y-126128715D01*
X154487893Y-125921177D01*
X154490255Y-125308532D01*
X154495192Y-124835919D01*
X154503941Y-124484627D01*
X154517738Y-124235945D01*
X154537822Y-124071160D01*
X154565428Y-123971560D01*
X154601794Y-123918435D01*
X154621177Y-123904799D01*
X154730470Y-123885747D01*
X154811514Y-123996195D01*
X154811514Y-123996195D01*
G37*
X154811514Y-123996195D02*
X154828037Y-124037109D01*
X154905808Y-124241661D01*
X155294640Y-124044625D01*
X155520252Y-123934772D01*
X155652285Y-123894145D01*
X155737738Y-123918215D01*
X155816305Y-123994368D01*
X155893964Y-124099165D01*
X155873659Y-124180659D01*
X155738731Y-124290911D01*
X155716292Y-124306947D01*
X155543731Y-124449763D01*
X155416124Y-124614275D01*
X155327043Y-124825798D01*
X155270055Y-125109646D01*
X155238731Y-125491134D01*
X155226641Y-125995577D01*
X155225750Y-126238089D01*
X155229556Y-126761476D01*
X155244043Y-127142598D01*
X155273815Y-127397826D01*
X155323476Y-127543529D01*
X155397628Y-127596075D01*
X155500875Y-127571836D01*
X155586807Y-127521977D01*
X155721549Y-127448538D01*
X155787424Y-127483447D01*
X155821483Y-127572825D01*
X155853375Y-127714663D01*
X155848153Y-127764174D01*
X155721325Y-127855682D01*
X155524603Y-127986374D01*
X155300745Y-128129289D01*
X155092511Y-128257465D01*
X154942661Y-128343942D01*
X154894870Y-128365250D01*
X154817776Y-128306688D01*
X154695463Y-128161380D01*
X154661691Y-128115281D01*
X154606278Y-128032010D01*
X154563800Y-127943566D01*
X154532596Y-127828958D01*
X154511003Y-127667193D01*
X154497357Y-127437279D01*
X154489995Y-127118223D01*
X154487256Y-126689032D01*
X154487476Y-126128715D01*
X154487893Y-125921177D01*
X154490255Y-125308532D01*
X154495192Y-124835919D01*
X154503941Y-124484627D01*
X154517738Y-124235945D01*
X154537822Y-124071160D01*
X154565428Y-123971560D01*
X154601794Y-123918435D01*
X154621177Y-123904799D01*
X154730470Y-123885747D01*
X154811514Y-123996195D01*
D12*
X156450000Y-93600000D03*
X156450000Y-92350000D03*
X115950000Y-93850000D03*
X115950000Y-92600000D03*
X115950000Y-94350000D03*
X115950000Y-91850000D03*
X115950000Y-74350000D03*
X115950000Y-73850000D03*
X115950000Y-71850000D03*
X115950000Y-72350000D03*
X156450000Y-94350000D03*
X156450000Y-91850000D03*
X156450000Y-73600000D03*
D13*
X156450000Y-93100000D03*
X115950000Y-93100000D03*
X156450000Y-73100000D03*
X115950000Y-73100000D03*
D14*
X140200000Y-73100000D03*
X139200000Y-73100000D03*
X138200000Y-73100000D03*
X137200000Y-73100000D03*
X132200000Y-73100000D03*
X133200000Y-73100000D03*
X136200000Y-73100000D03*
X135200000Y-73100000D03*
X134200000Y-73100000D03*
D12*
X156450000Y-71850000D03*
X156450000Y-74350000D03*
X156450000Y-72350000D03*
D15*
X137500000Y-66500000D03*
X136700000Y-66500000D03*
X135900000Y-66500000D03*
X135100000Y-66500000D03*
X134300000Y-66500000D03*
D16*
X140350000Y-66400000D03*
X140350000Y-60900000D03*
X131450000Y-66400000D03*
X131450000Y-60900000D03*
D17*
X138100000Y-63900000D03*
X133700000Y-63900000D03*
D18*
X117500000Y-84700000D03*
X117500000Y-82500000D03*
X155000000Y-84700000D03*
X155000000Y-82500000D03*
X117500000Y-97800000D03*
X117500000Y-95600000D03*
X154900000Y-97700000D03*
X154900000Y-95500000D03*
D19*
X184900000Y-118300000D03*
D20*
X184900000Y-120840000D03*
X184900000Y-123380000D03*
X184900000Y-125920000D03*
D21*
X124880000Y-110700000D03*
X119120000Y-110700000D03*
X119120000Y-114700000D03*
X124880000Y-114700000D03*
X138880000Y-110700000D03*
X133120000Y-110700000D03*
X133120000Y-114700000D03*
X138880000Y-114700000D03*
X152880000Y-110700000D03*
X147120000Y-110700000D03*
X147120000Y-114700000D03*
X152880000Y-114700000D03*
X132180000Y-132100000D03*
X126420000Y-132100000D03*
X126420000Y-136100000D03*
X132180000Y-136100000D03*
X146180000Y-132100000D03*
X140420000Y-132100000D03*
X140420000Y-136100000D03*
X146180000Y-136100000D03*
X160180000Y-132100000D03*
X154420000Y-132100000D03*
X154420000Y-136100000D03*
X160180000Y-136100000D03*
X174180000Y-132100000D03*
X168420000Y-132100000D03*
X168420000Y-136100000D03*
X174180000Y-136100000D03*
D22*
X170300000Y-109700000D03*
D23*
X172840000Y-109700000D03*
X170300000Y-112240000D03*
X172840000Y-112240000D03*
X170300000Y-114780000D03*
X172840000Y-114780000D03*
D19*
X181229000Y-118300500D03*
D20*
X181229000Y-120840500D03*
X181229000Y-123380500D03*
X181229000Y-125920500D03*
M02*
