#define key_sharp_width 16
#define key_sharp_height 16
static unsigned char key_sharp_bits[] = {
  0x00, 0x00, 0x00, 0x00, 0x00, 0x00, 0x00, 0x62, 0x00, 0x23, 0x80, 0x31,
  0xFE, 0xFF, 0xFE, 0xFF, 0x60, 0x0C, 0x60, 0x04, 0x30, 0x06, 0xFF, 0xFF,
  0xFF, 0x7F, 0x8C, 0x01, 0x84, 0x00, 0xC6, 0x00, };
