#define key_flat_width 16
#define key_flat_height 16
static unsigned char key_flat_bits[] = {
  0x00, 0x00, 0x00, 0x00, 0x00, 0x00, 0x70, 0x00, 0x70, 0x00, 0x70, 0x00,
  0xB0, 0x07, 0xF8, 0x1F, 0x38, 0x1C, 0x38, 0x18, 0x18, 0x1C, 0x1C, 0x1C,
  0x1C, 0x1C, 0x1C, 0x0E, 0xFC, 0x07, 0xEC, 0x01, };
