#define mode_arp_width 32
#define mode_arp_height 16
static unsigned char mode_arp_bits[] = {
  0x00, 0x00, 0x00, 0x00, 0xFF, 0xFF, 0xFF, 0xFF, 0x00, 0x00, 0x00, 0x00,
  0x00, 0x00, 0x00, 0x00, 0xFF, 0xFF, 0xFF, 0xFF, 0x00, 0x00, 0x00, 0x00,
  0x00, 0x00, 0x18, 0x00, 0xFF, 0xFF, 0xFF, 0xFF, 0x00, 0x00, 0x18, 0x00,
  0x00, 0x18, 0x00, 0x18, 0xFF, 0xFF, 0xFF, 0xFF, 0x00, 0x18, 0x00, 0x18,
  0x18, 0x00, 0x00, 0x00, 0xFF, 0xFF, 0xFF, 0xFF, 0x18, 0x00, 0x00, 0x00,
  0x00, 0x00, 0x00, 0x00, };
