#define mode_chord_arp_oct_width 32
#define mode_chord_arp_oct_height 16
static unsigned char mode_chord_arp_oct_bits[] = {
  0x00, 0x00, 0x00, 0x00, 0xFF, 0xFF, 0xFF, 0xFF, 0x00, 0x00, 0x00, 0x18,
  0x00, 0x00, 0x00, 0x18, 0xFF, 0xFF, 0xFF, 0xFF, 0x00, 0x00, 0x00, 0x00,
  0x18, 0x00, 0x18, 0x00, 0xFF, 0xFF, 0xFF, 0xFF, 0x18, 0x00, 0x18, 0x00,
  0x18, 0x18, 0x00, 0x00, 0xFF, 0xFF, 0xFF, 0xFF, 0x18, 0x18, 0x00, 0x00,
  0x18, 0x00, 0x00, 0x00, 0xFF, 0xFF, 0xFF, 0xFF, 0x18, 0x00, 0x00, 0x00,
  0x00, 0x00, 0x00, 0x00, };
