#define tempo_2_width 8
#define tempo_2_height 16
static unsigned char tempo_2_bits[] = {
  0x00, 0x00, 0x1E, 0x7F, 0x62, 0x60, 0x60, 0x30, 0x18, 0x0C, 0x06, 0x03,
  0xFF, 0xFF, 0x00, 0x00, };
