#define tempo_8_width 8
#define tempo_8_height 16
static unsigned char tempo_8_bits[] = {
  0x00, 0x00, 0x3C, 0xFE, 0xC7, 0xC7, 0xC7, 0x7E, 0x7E, 0xE7, 0xC3, 0xC3,
  0xFF, 0x3C, 0x00, 0x00, };
