#define tempo_0_width 8
#define tempo_0_height 16
static unsigned char tempo_0_bits[] = {
  0x00, 0x00, 0x3C, 0x7E, 0x66, 0xC3, 0xC3, 0xC3, 0xC3, 0xC3, 0xC3, 0x66,
  0x7E, 0x3C, 0x00, 0x00, };
