#define tempo_6_width 8
#define tempo_6_height 16
static unsigned char tempo_6_bits[] = {
  0x00, 0x00, 0x70, 0x7C, 0x0E, 0x06, 0x1F, 0x7F, 0xE3, 0xC3, 0xC3, 0xE7,
  0x7E, 0x3C, 0x00, 0x00, };
