#define tempo_7_width 8
#define tempo_7_height 16
static unsigned char tempo_7_bits[] = {
  0x00, 0x00, 0x7F, 0x7F, 0x60, 0x30, 0x18, 0x18, 0x08, 0x0C, 0x0C, 0x06,
  0x06, 0x06, 0x00, 0x00, };
