#define tempo_1_width 8
#define tempo_1_height 16
static unsigned char tempo_1_bits[] = {
  0x00, 0x00, 0x30, 0x38, 0x3E, 0x3E, 0x30, 0x30, 0x30, 0x30, 0x30, 0x30,
  0xFE, 0xFE, 0x00, 0x00, };
