#define tempo_5_width 8
#define tempo_5_height 16
static unsigned char tempo_5_bits[] = {
  0x00, 0x00, 0xFE, 0xFE, 0x06, 0x06, 0x1E, 0x7E, 0xE0, 0xC0, 0xC0, 0xE0,
  0x7F, 0x3F, 0x00, 0x00, };
