#define tempo_3_width 8
#define tempo_3_height 16
static unsigned char tempo_3_bits[] = {
  0x00, 0x00, 0x3E, 0x7F, 0xC2, 0xC0, 0xE0, 0x7C, 0x7C, 0xE0, 0xC0, 0xC1,
  0x7F, 0x3F, 0x00, 0x00, };
