#define tempo_4_width 8
#define tempo_4_height 16
static unsigned char tempo_4_bits[] = {
  0x00, 0x00, 0x60, 0x70, 0x78, 0x7C, 0x6C, 0x66, 0x67, 0xFF, 0xFF, 0x60,
  0x60, 0x60, 0x00, 0x00, };
