#define tempo_9_width 8
#define tempo_9_height 16
static unsigned char tempo_9_bits[] = {
  0x00, 0x00, 0x3C, 0x7E, 0xE7, 0xC3, 0xC3, 0xC7, 0xFE, 0xF8, 0x60, 0x70,
  0x3E, 0x0E, 0x00, 0x00, };
