#define splash_width 84
#define splash_height 48
static unsigned char splash_bits[] = {
   0x00, 0x00, 0x00, 0x00, 0x00, 0x00, 0x00, 0x00, 0x00, 0x00, 0x00, 0x00,
   0x00, 0x00, 0x00, 0x00, 0x00, 0x00, 0x00, 0x00, 0x00, 0x00, 0x00, 0x00,
   0x60, 0x00, 0x00, 0x18, 0x00, 0x00, 0x00, 0x00, 0x00, 0x00, 0x18, 0x60,
   0x00, 0x00, 0x18, 0x18, 0x63, 0x3e, 0x0c, 0x00, 0x00, 0x1c, 0x60, 0x00,
   0x00, 0x18, 0x18, 0x63, 0x7e, 0x0c, 0x00, 0x00, 0x1e, 0xe7, 0xe1, 0x78,
   0x1e, 0xb8, 0x63, 0xe6, 0x0c, 0x00, 0x00, 0x9b, 0xe7, 0xf3, 0x79, 0x1f,
   0xac, 0x66, 0xc6, 0x0c, 0x00, 0x00, 0xbf, 0x61, 0xb3, 0x19, 0x1b, 0xac,
   0x66, 0xc6, 0x0c, 0x00, 0x00, 0xbf, 0x61, 0xb3, 0x19, 0x1b, 0xec, 0x66,
   0xe6, 0x0c, 0x00, 0x00, 0x98, 0x67, 0xf3, 0x19, 0x1f, 0x4c, 0x66, 0x7e,
   0x0c, 0x00, 0x00, 0x18, 0x67, 0xe3, 0x18, 0x1e, 0x0c, 0x66, 0x3e, 0x0c,
   0x00, 0x00, 0x00, 0x00, 0x00, 0x00, 0x00, 0x00, 0x00, 0x00, 0x00, 0x00,
   0x00, 0x00, 0x00, 0x00, 0x00, 0x00, 0x00, 0x00, 0x00, 0x00, 0x00, 0x00,
   0x00, 0x00, 0x00, 0x00, 0x00, 0x00, 0x00, 0x00, 0x00, 0x00, 0x00, 0x00,
   0x00, 0x00, 0x00, 0x00, 0x00, 0x00, 0x00, 0x00, 0x00, 0x00, 0x00, 0x00,
   0x00, 0x80, 0x01, 0x00, 0x30, 0x00, 0x00, 0x00, 0x00, 0xf8, 0x00, 0x00,
   0x86, 0x01, 0x00, 0x30, 0x00, 0x00, 0x00, 0x00, 0xf8, 0x01, 0x00, 0x86,
   0x01, 0x00, 0x30, 0x00, 0x00, 0x00, 0x00, 0x98, 0x71, 0x38, 0x9e, 0x71,
   0x3c, 0x3c, 0x8e, 0x07, 0x00, 0x00, 0xf8, 0xf8, 0x7c, 0x9e, 0xf9, 0x7c,
   0x3e, 0x9b, 0x07, 0x00, 0x00, 0xf8, 0xd9, 0x6c, 0x86, 0xd9, 0x60, 0x36,
   0x9f, 0x01, 0x00, 0x00, 0x98, 0xd9, 0x6c, 0x86, 0xd9, 0x7c, 0x36, 0x83,
   0x01, 0x00, 0x00, 0xf8, 0xf9, 0x7c, 0x9e, 0xfb, 0x6c, 0x3e, 0x9f, 0x01,
   0x00, 0x00, 0xf8, 0x70, 0x38, 0x1c, 0x73, 0x7c, 0x3c, 0x9e, 0x01, 0x00,
   0x00, 0x00, 0x00, 0x00, 0x00, 0x00, 0x00, 0x00, 0x00, 0x00, 0x00, 0x00,
   0x00, 0x00, 0x00, 0x00, 0x00, 0x00, 0x00, 0x00, 0x00, 0x00, 0x00, 0x00,
   0x00, 0x00, 0x00, 0x00, 0x00, 0x00, 0x00, 0x00, 0x00, 0x00, 0x00, 0x00,
   0x00, 0x00, 0x00, 0x00, 0x00, 0x00, 0x00, 0x00, 0x00, 0x00, 0x00, 0x00,
   0x00, 0x00, 0x00, 0x00, 0x00, 0x00, 0x00, 0x00, 0x00, 0x00, 0x00, 0x00,
   0x00, 0x00, 0x00, 0x00, 0x00, 0x00, 0x00, 0x00, 0x00, 0x00, 0x00, 0x00,
   0x00, 0x00, 0x00, 0x00, 0x00, 0x70, 0xef, 0x3d, 0x44, 0x8f, 0xcb, 0x89,
   0x82, 0x88, 0xf3, 0x02, 0x10, 0x21, 0x44, 0x6c, 0x81, 0x48, 0xda, 0x92,
   0x94, 0x14, 0x02, 0x30, 0xe7, 0x44, 0x6c, 0x87, 0x49, 0xda, 0xaa, 0x94,
   0x74, 0x02, 0x10, 0x21, 0x44, 0x54, 0x81, 0xc8, 0xa9, 0xaa, 0x94, 0x13,
   0x02, 0x10, 0x21, 0x44, 0x54, 0x81, 0x48, 0xa9, 0xaa, 0xbe, 0x12, 0x00,
   0x10, 0xef, 0x3d, 0x44, 0x8f, 0x48, 0x8a, 0x44, 0xa2, 0xf4, 0x02, 0x00,
   0x00, 0x00, 0x00, 0x00, 0x00, 0x00, 0x00, 0x00, 0x00, 0x00, 0x00, 0x00,
   0x00, 0x00, 0x00, 0x00, 0x00, 0x00, 0x00, 0x00, 0x00, 0x00, 0x00, 0x00,
   0x00, 0x00, 0x00, 0x00, 0x00, 0x00, 0x00, 0x00, 0x00, 0x00, 0x00, 0x00,
   0x00, 0x00, 0x00, 0x00, 0x00, 0x00, 0x00, 0x00, 0x00, 0x00, 0x00, 0x00,
   0x00, 0x00, 0x00, 0x00, 0x00, 0x00, 0x00, 0x00, 0x00, 0x00, 0x00, 0x00,
   0x00, 0x00, 0x00, 0x00, 0x00, 0x00, 0x00, 0x00, 0x00, 0x00, 0x00, 0x00,
   0x00, 0x00, 0x00, 0x00, 0x00, 0x00, 0x00, 0x00, 0x00, 0x00, 0x00, 0x00,
   0x00, 0x00, 0x00, 0x00, 0x00, 0x00, 0x00, 0x00, 0x00, 0x00, 0x00, 0x00,
   0x00, 0x00, 0x00, 0x00, 0x00, 0x00, 0x00, 0x00, 0x00, 0x00, 0x00, 0x00,
   0x00, 0x00, 0x00, 0x00, 0x00, 0x00, 0x00, 0x00, 0x00, 0x00, 0x00, 0x00 };
