#define splash_width 84
#define splash_height 48
static unsigned char splash_bits[] = {
   0x00, 0x00, 0x00, 0x00, 0x00, 0x00, 0x00, 0x00, 0x00, 0x00, 0x00, 0x00,
   0x00, 0x00, 0x00, 0x00, 0x00, 0x00, 0x00, 0x00, 0x00, 0x00, 0x38, 0x00,
   0x00, 0x00, 0x00, 0xfe, 0x1e, 0x00, 0x00, 0x1e, 0x00, 0x7c, 0x00, 0x00,
   0x00, 0x00, 0xfe, 0x1f, 0x00, 0x00, 0x1e, 0x00, 0x78, 0x00, 0x00, 0x00,
   0x0f, 0x1f, 0x1e, 0x00, 0x00, 0x1e, 0x00, 0x78, 0x00, 0x00, 0x00, 0x0f,
   0x0f, 0x1e, 0x00, 0x00, 0x1e, 0x00, 0x70, 0x00, 0x00, 0xe0, 0xff, 0x3f,
   0x0f, 0x00, 0x00, 0x3c, 0x00, 0xf0, 0x00, 0x00, 0xe0, 0xff, 0x3f, 0x0f,
   0x00, 0x00, 0x3c, 0x00, 0xf0, 0xc7, 0xcf, 0x8f, 0x8f, 0x0f, 0x8f, 0x3f,
   0x7c, 0xfc, 0x03, 0xf0, 0xef, 0xef, 0x9f, 0x07, 0x07, 0xcf, 0x3f, 0xfe,
   0xfc, 0x03, 0xf0, 0xef, 0xff, 0xbf, 0x87, 0x07, 0xcf, 0x3f, 0xfe, 0xfc,
   0x07, 0xf0, 0xfe, 0xfd, 0xbd, 0x87, 0x07, 0xef, 0x3b, 0x1e, 0x3c, 0x07,
   0x78, 0x7e, 0xfc, 0xbc, 0x83, 0x07, 0xef, 0x78, 0x7e, 0x9e, 0x07, 0x7c,
   0xfe, 0xfe, 0xbc, 0xc7, 0x03, 0xfe, 0x79, 0xf0, 0x9e, 0x07, 0xfc, 0xff,
   0xff, 0xbf, 0xc7, 0x03, 0xfe, 0xff, 0xff, 0x9f, 0x07, 0xfe, 0xef, 0xff,
   0x9f, 0xef, 0x03, 0xfc, 0xff, 0x7f, 0x8f, 0x07, 0x9e, 0xe7, 0xcf, 0x0f,
   0xef, 0x01, 0xfc, 0xf3, 0x3e, 0x8f, 0x07, 0x00, 0x00, 0x00, 0x00, 0x00,
   0x00, 0x00, 0x00, 0x00, 0x00, 0x00, 0x00, 0x00, 0x00, 0x00, 0x00, 0x00,
   0x00, 0x00, 0x00, 0x00, 0x00, 0x00, 0x00, 0x00, 0x00, 0x00, 0x00, 0x00,
   0x00, 0x00, 0x00, 0x00, 0x00, 0x00, 0x00, 0x00, 0x00, 0x00, 0x00, 0x00,
   0x00, 0x00, 0x00, 0x00, 0x00, 0x00, 0x00, 0x00, 0x00, 0x00, 0x00, 0x00,
   0x00, 0x00, 0x00, 0x00, 0x00, 0x00, 0x00, 0x00, 0x00, 0x00, 0x00, 0x00,
   0x00, 0x00, 0x00, 0x00, 0x00, 0x00, 0x00, 0x00, 0x00, 0x00, 0x00, 0x00,
   0x80, 0x01, 0x18, 0x00, 0x00, 0x30, 0x30, 0x8c, 0xf9, 0x30, 0x00, 0xc0,
   0x01, 0x18, 0x00, 0x00, 0x30, 0x30, 0x8c, 0x99, 0x31, 0x00, 0xc0, 0xe0,
   0xf9, 0xf0, 0x78, 0x3e, 0x70, 0x8e, 0x19, 0x33, 0x00, 0x60, 0x33, 0x99,
   0x99, 0x19, 0x33, 0x70, 0x8e, 0x19, 0x33, 0x00, 0x30, 0x33, 0x98, 0x99,
   0x19, 0x33, 0xb0, 0x8d, 0x19, 0x33, 0x00, 0xf0, 0x33, 0x98, 0x99, 0x19,
   0x33, 0xb0, 0x8d, 0x19, 0x33, 0x00, 0x00, 0x33, 0x99, 0x99, 0x19, 0x33,
   0xb0, 0x8d, 0x99, 0x31, 0x00, 0x00, 0xe3, 0x99, 0xf1, 0x18, 0x3e, 0x30,
   0x8c, 0xf9, 0x30, 0x00, 0x00, 0x00, 0x00, 0x00, 0x00, 0x00, 0x00, 0x00,
   0x00, 0x00, 0x00, 0x00, 0x00, 0x00, 0x00, 0x00, 0x00, 0x00, 0x00, 0x00,
   0x00, 0x00, 0x00, 0x00, 0x00, 0x00, 0x00, 0x00, 0x00, 0x00, 0x00, 0x00,
   0x00, 0x00, 0x00, 0x00, 0x00, 0x00, 0x00, 0x00, 0x00, 0x00, 0x00, 0x00,
   0x00, 0x00, 0x00, 0x00, 0x00, 0x00, 0x00, 0x00, 0x00, 0x00, 0x00, 0x00,
   0x00, 0x00, 0x00, 0x00, 0x00, 0x00, 0x00, 0x00, 0x00, 0x00, 0x00, 0x00,
   0x00, 0x00, 0x00, 0x00, 0x00, 0x00, 0x00, 0x00, 0x00, 0x00, 0x00, 0x00,
   0x00, 0x00, 0x00, 0x00, 0x00, 0x00, 0x00, 0x00, 0x00, 0x00, 0x00, 0x00,
   0x00, 0x00, 0x00, 0x00, 0x00, 0x00, 0x00, 0xb8, 0xf7, 0x1e, 0xa2, 0xc7,
   0xe5, 0x44, 0x41, 0xc4, 0x79, 0x01, 0x88, 0x10, 0x22, 0xb6, 0x40, 0x24,
   0x6d, 0x49, 0x4a, 0x0a, 0x01, 0x98, 0x73, 0x22, 0xb6, 0xc3, 0x24, 0x6d,
   0x55, 0x4a, 0x3a, 0x01, 0x88, 0x10, 0x22, 0xaa, 0x40, 0xe4, 0x54, 0x55,
   0xca, 0x09, 0x01, 0x88, 0x10, 0x22, 0xaa, 0x40, 0xa4, 0x54, 0x55, 0x5f,
   0x09, 0x00, 0x88, 0xf7, 0x1e, 0xa2, 0x47, 0x24, 0x45, 0x22, 0x51, 0x7a,
   0x01, 0x00, 0x00, 0x00, 0x00, 0x00, 0x00, 0x00, 0x00, 0x00, 0x00, 0x00 };
